<?xml version="1.0" encoding="UTF-8" standalone="no"?><!DOCTYPE svg PUBLIC "-//W3C//DTD SVG 1.1//EN" "http://www.w3.org/Graphics/SVG/1.1/DTD/svg11.dtd"><svg width="100%" height="100%" viewBox="0 0 242 205" version="1.1" xmlns="http://www.w3.org/2000/svg" xmlns:xlink="http://www.w3.org/1999/xlink" xml:space="preserve" xmlns:serif="http://www.serif.com/" style="fill-rule:evenodd;clip-rule:evenodd;stroke-linejoin:round;stroke-miterlimit:2;"><g><path d="M117.917,13.333c-4.584,2.917 -6.667,7.917 -6.25,12.917c-4.584,-2.083 -10,-2.083 -14.167,1.25c-6.25,4.583 -7.917,12.917 -3.75,19.167c7.5,10.833 24.167,13.333 40.417,12.083c6.666,-14.583 10.833,-30.833 2.916,-42.083c-4.166,-6.25 -12.916,-7.917 -19.166,-3.334Z" style="fill:#d60812;fill-rule:nonzero;"/></g><g><path d="M76.25,101.667c-5.833,-4.167 -12.917,-5 -18.75,-2.5c0.833,-6.25 -1.667,-13.334 -7.083,-17.5c-8.334,-6.25 -19.584,-5 -25.834,2.916c-10.833,14.167 -6.666,36.25 1.25,55.834c21.25,2.5 43.75,0.833 54.584,-13.334c5.833,-7.5 4.166,-19.166 -4.167,-25.416Z" style="fill:#d60812;fill-rule:nonzero;"/></g><g><path d="M217.917,150c-6.25,-4.167 -13.334,-4.167 -19.584,-1.25c0.417,-6.667 -2.5,-13.333 -8.75,-17.5c-8.75,-5.833 -20.416,-3.333 -26.25,5c-10,15 -4.166,37.5 5.417,57.083c21.667,0.834 44.583,-2.5 54.583,-17.5c5.834,-8.333 3.334,-20 -5.416,-25.833Z" style="fill:#d60812;fill-rule:nonzero;"/></g><g><path d="M144.583,80.833c-5.833,0.834 -10.416,4.167 -12.5,9.167c-2.916,-4.167 -8.333,-7.083 -14.166,-6.25c-8.334,0.833 -14.167,8.333 -13.334,16.25c1.667,14.167 16.25,25 32.5,32.083c13.75,-10.416 25.834,-24.166 24.584,-38.333c-1.25,-8.333 -8.75,-14.167 -17.084,-12.917Z" style="fill:#d60812;fill-rule:nonzero;"/></g></svg>