<?xml version="1.0" encoding="utf-8"?>
<!-- Generator: Adobe Illustrator 25.2.1, SVG Export Plug-In . SVG Version: 6.00 Build 0)  -->
<svg version="1.1" id="Layer_1" xmlns="http://www.w3.org/2000/svg" xmlns:xlink="http://www.w3.org/1999/xlink" x="0px" y="0px"
	 viewBox="0 0 792 612" style="enable-background:new 0 0 792 612;" xml:space="preserve">
<style type="text/css">
	.st0{fill:#231F20;}
	.st1{fill:#E7C18C;}
	.st2{fill:#FFFFFF;}
	.st3{fill:#D60812;}
</style>
<g>
	<g>
		<g>
			<g>
				<path class="st0" d="M187,215.7c-0.2,0-0.5-0.1-0.8-0.1c-0.3,0-0.6-0.1-0.8-0.4c-0.4-0.7-0.9-1.4-0.8-2.3c0-0.2,0-0.4,0.1-0.6
					c0-0.2,0.1-0.4,0.2-0.6c0.1-0.2,0.1-0.4,0.2-0.5c0.5-0.7,1-1.3,1.5-1.9c0.1-0.2,0.4-0.3,0.5-0.5c0.1-0.3,0.1-0.6,0-0.9
					c-0.1-0.5,0-1,0.1-1.4c0-0.2,0.1-0.4,0.2-0.5c0.3-0.4,0.6-0.7,0.9-1.1c0.2-0.2,0.3-0.4,0.5-0.6c0.4-0.6,1-0.9,1.7-1.1
					c0.3-0.1,0.6-0.2,0.8-0.4c0.9-0.4,1.8-0.6,2.7-0.6c0.3,0,0.6,0,0.9,0c0.2-0.9,0.6-1.8,0.5-2.8c-0.1,0-0.3-0.1-0.4-0.1
					c-0.3,0-0.5-0.1-0.8-0.1c-0.6-0.1-1.2-0.3-1.7-0.8c-0.2-0.2-0.4-0.3-0.5-0.6c-0.1-0.4-0.3-0.7-0.4-1.1c-0.2-0.5-0.3-1.1-0.2-1.7
					c0.1-0.7,0.2-1.4,0.3-2.1c0.2-1.1,0.6-2.1,1.2-3c0.1-0.1,0.2-0.2,0.2-0.3c0.5-0.8,1-1.6,1.5-2.3c0.5-0.8,1.1-1.6,1.8-2.2
					c0.2-0.2,0.4-0.4,0.6-0.7c0.1-0.2,0.1-0.4,0.2-0.6c0.1-0.9,0.3-1.8,0.6-2.7c0.4-1,1-1.9,1.7-2.6c0.4-0.4,0.8-0.8,1.2-1.2
					c0.6-0.6,1.3-1.2,2-1.9c0.2-0.2,0.4-0.3,0.6-0.5c0.1-0.1,0.2-0.2,0.3-0.3c0.3-0.4,0.6-0.9,0.9-1.3c0.1-0.1,0.2-0.3,0.3-0.4
					c0.4-0.6,1-0.9,1.6-1.2c0.4-0.2,0.9-0.4,1.3-0.5c0.1-0.1,0.3-0.1,0.4-0.2c0.4-0.3,0.9-0.4,1.4-0.6c0.1,0,0.2-0.1,0.2-0.1
					c0-0.1,0-0.1-0.1-0.1c-0.4-0.3-0.6-0.7-0.7-1.1c-0.1-0.2-0.2-0.3-0.4-0.4c-0.7-0.4-1.3-0.8-1.8-1.5c-0.1-0.2-0.3-0.3-0.4-0.4
					c-0.4-0.3-0.9-0.6-1.3-1c-0.2-0.2-0.4-0.4-0.5-0.6c-0.3-0.5-0.6-0.9-0.7-1.5c0-0.1-0.1-0.3-0.2-0.5c-0.1,0.2-0.2,0.3-0.3,0.5
					c-0.4-0.6-0.6-1.2-0.8-1.8c-0.1-0.4-0.1-0.7-0.1-1.1c0-0.8,0-1.6,0.2-2.4c0.1-0.3,0.2-0.6,0.3-0.9c0.3-0.7,0.5-1.4,1.1-1.9
					c0.2-0.2,0.4-0.4,0.6-0.6c0.2-0.2,0.3-0.4,0.4-0.7c0.2-1.1,0.6-2.1,0.9-3.1c0-0.1,0.1-0.2,0.1-0.3c-0.6-0.5-1.1-1.2-1.5-1.9
					c-0.2-0.3-0.3-0.7-0.5-1c-0.3-0.7-0.5-1.5-0.6-2.2c-0.1-0.8-0.2-1.7-0.1-2.5c0.1-1.3,0.6-2.6,1.1-3.8c0.2-0.4,0.4-0.8,0.8-1.2
					c0.3-0.3,0.5-0.6,0.8-0.8c0.3-0.2,0.6-0.4,0.9-0.7c0.9-0.6,2-0.9,3.1-0.9c0.6,0,1.2,0.2,1.8,0.4c0.4,0.1,0.8,0.3,1.1,0.6
					c0.6,0.4,1.1,0.9,1.5,1.6c0.1,0.2,0.3,0.5,0.4,0.7c0.1,0.1,0.1,0.2,0.2,0.3c1-0.8,2-1.3,3.2-1.6c0.4-0.1,0.7-0.2,1.1-0.2
					c0.1,0,0.1,0,0.2-0.1c0.5-0.2,1-0.3,1.6-0.2c0.4,0.1,0.9,0,1.3,0.1c0.5,0.1,1,0,1.5,0.2c0.2,0.1,0.5,0.1,0.7,0.1
					c0.6,0,1.1,0.3,1.7,0.4c0.3,0.1,0.5,0.2,0.8,0.1c0.1,0,0.1,0,0.2,0.1c0.2,0,0.3,0.1,0.5,0.1c0.5-0.2,1.1-0.1,1.6-0.1
					c0.7-0.1,1.5-0.1,2.2,0.2c0.7,0.2,1.5,0.3,2.1,0.8c0.3,0.2,0.5,0.5,0.8,0.8c0.1,0.1,0.2,0.2,0.4,0.4c0.2-0.2,0.3-0.3,0.4-0.5
					c0.3-0.5,0.8-0.8,1.2-1.2c0.2-0.1,0.4-0.3,0.5-0.4c0.3-0.2,0.6-0.3,0.9-0.4c0.5-0.2,0.9-0.3,1.4-0.5c0.3-0.1,0.7-0.2,1-0.1
					c0.6,0,1.1,0.1,1.7,0.2c0.6,0.1,1.1,0.4,1.6,0.6c0.9,0.4,1.6,1,2.1,1.8c0.4,0.5,0.6,1.1,0.9,1.6c0.2,0.3,0.3,0.7,0.5,1
					c0.3,0.5,0.2,1,0.2,1.6c-0.1,0-0.2,0-0.4,0c0.1,0.3,0.1,0.6,0.2,0.9c0.2,1,0,2-0.3,2.9c-0.2,0.4-0.3,0.8-0.5,1.2
					c0,0,0,0.1,0,0.1c0,0.5-0.4,0.8-0.7,1.2c-0.5,0.5-1,1-1.6,1.5c0.3,0.6,0.5,1.3,0.6,2c0,0.2,0.1,0.4,0.1,0.6
					c0,0.2,0.1,0.3,0.3,0.4c0.4,0.2,0.7,0.6,1,0.9c0.9,1,1.4,2.2,1.8,3.4c0.2,0.6,0.3,1.2,0.4,1.8c0.1,0.5,0,1-0.2,1.6
					c-0.1,0-0.2-0.1-0.4-0.1c-0.1,0.3-0.1,0.6-0.2,0.9c-0.2,1.1-0.6,2-1.2,2.9c-0.2,0.3-0.4,0.6-0.6,0.9c-0.1,0.1-0.2,0.2-0.3,0.3
					c-0.2,0.2-0.4,0.5-0.7,0.7c-0.3,0.3-0.7,0.7-1.2,0.8c-0.1,0-0.2,0-0.2,0.1c-0.4,0.6-0.8,1.2-1.2,1.8c0,0,0,0,0,0
					c1.3,0.3,2.4,0.9,3.5,1.6c0.8,0.5,1.5,1.2,2.2,1.8c0.3,0.3,0.6,0.6,0.8,0.9c0.8,0.9,1.6,1.8,2.3,2.8c0.3,0.4,0.6,0.7,1,0.8
					c0.4,0.1,0.8,0.2,1.2,0.4c0,0,0.1,0,0.1,0.1c0.7,0.4,1.5,0.7,2.2,1.3c0.3,0.3,0.7,0.4,1.1,0.7c0.3,0.2,0.5,0.5,0.8,0.8
					c0.1,0.2,0.3,0.3,0.4,0.5c0.3,0.4,0.5,0.7,0.8,1.1c0.2,0.3,0.4,0.5,0.5,0.8c0.1,0.1,0.2,0.3,0.3,0.4c0.1,0.2,0.2,0.3,0.4,0.3
					c0.6,0.2,0.9,0.6,1.2,1.1c0.8,1.4,1.1,2.9,1,4.5c0,0.7-0.1,1.4-0.2,2.1c0,0.1,0,0.1,0,0.2c0,0.6-0.1,1.2-0.1,1.8
					c-0.1,1-0.4,1.8-1,2.5c0,0-0.1,0.1-0.1,0.1c0.6,0.8,0.8,1.8,1.2,2.7c0.1,0,0.2-0.1,0.3-0.1c0.8-0.3,1.6-0.5,2.4-0.6
					c0.6-0.1,1.2-0.2,1.8-0.3c0.5-0.1,1-0.2,1.5-0.1c0.8,0.2,1.5,0.4,2.1,0.9c0.3,0.3,0.6,0.4,1,0.4c0.6,0,1.1,0.2,1.6,0.5
					c1,0.6,1.6,1.5,2.1,2.5c0.1,0.2,0.1,0.5,0.1,0.7c0,0.4,0,0.8-0.1,1.2c0,0.3,0,0.7,0.2,0.9c0,0.1,0.1,0.1,0.1,0.2
					c0.3,0.6,0.6,1.3,0.8,1.9c0.2,0.5,0.1,1-0.1,1.5c-0.2,0.4-0.3,0.9-0.6,1.3c-0.3,0.5-0.5,0.9-0.9,1.3c-0.3,0.3-0.6,0.5-0.9,0.8
					c-0.4,0.2-0.7,0.4-1.1,0.6c-0.2,0.1-0.4,0-0.6,0.1c-0.1,0-0.2,0.1-0.2,0.2c-0.2,0.5-0.5,0.8-0.8,1.2c-0.2,0.3-0.3,0.5-0.5,0.8
					c-0.1,0.2-0.3,0.3-0.4,0.5c-1.1,1.4-2.2,2.8-3.6,3.8c-0.5,0.4-1,0.7-1.5,0.9c-0.1,0-0.3,0.1-0.4,0.1c-0.6,0-1,0.2-1.4,0.6
					c-0.5,0.5-1.1,0.7-1.8,0.9c-0.5,0.1-1.1,0.1-1.6-0.1c-0.3-0.1-0.5-0.1-0.8-0.2c-0.1,0-0.1,0-0.2-0.1c-0.5-0.3-1-0.6-1.5-1
					c-0.5-0.5-0.9-1.2-1.2-1.8c-0.3-0.6-0.4-1.3-0.5-1.9c-0.5-0.3-0.9-0.5-1.4-0.8c-0.2-0.1-0.4-0.3-0.6-0.4c-0.8-0.5-1.6-1-2.4-1.5
					c-0.2-0.1-0.5-0.1-0.7-0.2c-0.4,0-0.8-0.1-1.2-0.1c-0.5,0-1.1-0.1-1.6-0.2c-0.3,0-0.5-0.1-0.8-0.2c-0.2-0.1-0.4-0.1-0.7-0.2
					c-0.2,0-0.4-0.1-0.6-0.2c-0.2-0.1-0.5-0.1-0.8-0.2c-0.3-0.1-0.5-0.1-0.7-0.2c-0.2-0.1-0.5-0.2-0.7,0.1c0,0-0.1,0-0.2,0
					c-0.6,0-1.1,0-1.7,0.1c-0.2,0-0.3,0.1-0.4,0.2c-0.3,0.2-0.6,0.2-0.9,0.3c-0.3,0.1-0.6,0.1-0.9,0.1c-1.2,0.3-2.4,0.5-3.7,0.8
					c-0.8,0.1-1.6,0.2-2.4,0.3c-0.2,0-0.5-0.1-0.8-0.1c-0.6,0-1.1-0.1-1.6-0.3c-0.4-0.2-0.8-0.2-1.2,0c-0.2,0.1-0.5,0.1-0.8,0.1
					c-0.9,0.1-1.7,0.2-2.6,0.3c-0.4,0-0.9,0.1-1.3,0.1c-0.7,0-1.4,0-2-0.1c-0.3,0-0.6-0.2-0.9-0.3c-0.2-0.1-0.4-0.2-0.5-0.2
					c-0.8-0.2-1.6-0.3-2.3-0.5c-0.4-0.1-0.8-0.3-1.2-0.4c-0.4-0.1-0.7-0.2-1.1-0.1c-0.5,0-1,0.1-1.5,0.2c-0.2,0-0.4,0.1-0.6,0.2
					c-0.8,0.3-1.7,0.7-2.5,1c-0.1,0.1-0.2,0.1-0.2,0.3c-0.1,0.5-0.2,0.9-0.3,1.3c-0.2,0.6-0.3,1.2-0.5,1.8c-0.2,0.5-0.4,0.9-0.8,1.2
					c-0.1,0-0.1,0.1-0.2,0.1c-0.6,0.2-1.1,0.5-1.7,0.7c-1,0.3-2,0.4-3,0.3c-0.8-0.1-1.6-0.1-2.4-0.2c-0.5,0-1-0.2-1.5-0.2
					c-0.4-0.1-0.7-0.1-1.1-0.2c-0.4-0.1-0.9-0.1-1.3-0.2c-0.3,0-0.7-0.2-1-0.3c-0.6-0.3-1.2-0.4-1.8-0.5c-0.4-0.1-0.9-0.2-1.3-0.4
					c-0.1-0.1-0.2-0.1-0.4-0.1c-0.4,0-0.8,0-1.1,0c0,0-0.1,0-0.1,0c-0.6-0.3-1.3-0.1-1.9-0.3c-0.8-0.2-1.6-0.4-2.3-0.7
					c-0.3-0.1-0.6-0.2-0.9-0.4c-0.3-0.1-0.3-0.4-0.4-0.7C187.2,216.4,187.1,216.1,187,215.7 M196.6,202.2c0.1-0.2,0.1-0.4,0.2-0.6
					c0.1-0.1,0.1-0.3,0.2-0.4c0-0.1,0-0.1,0-0.2c-0.5,0.3-0.6,0.7-0.5,1.2C196.5,202.2,196.6,202.2,196.6,202.2 M199.1,202.7
					c0.2-0.2,0.3-0.4,0.5-0.6c-0.5-0.1-0.6,0-0.9,0.4C198.9,202.5,199,202.6,199.1,202.7 M248.5,201.3c-0.4,0.1-0.8,0.4-0.9,0.8
					C247.9,201.9,248.1,201.6,248.5,201.3"/>
				<path class="st1" d="M200,203.3c0.3-0.4,0.6-0.8,1-1.3c-0.4-0.1-0.8,0.1-1.2,0.3c-0.2,0.1-0.4,0.2-0.4,0.6
					C199.6,203.1,199.7,203.3,200,203.3c0.2,0.3,0.4,0.5,0.7,0.7c0.1,0.1,0.2,0.2,0.4,0.3c0.5,0.2,0.9,0.6,1.2,1
					c0.2,0.2,0.4,0.4,0.5,0.7c0.3,0.4,0.7,0.7,1,1.2c0.3,0.6,0.7,1.2,1,1.9c0,0,0,0.1,0,0.1c-0.1-0.1-0.3-0.2-0.4-0.3
					c-0.2-0.2-0.4-0.5-0.6-0.7c-0.4-0.4-0.9-0.8-1.2-1.4c0-0.1-0.1-0.1-0.1-0.1c-0.8-0.6-1.5-1-2.2-1.7c-0.3-0.3-0.7-0.6-1.1-0.8
					c-0.4-0.3-0.7-0.4-1.2-0.5c-0.5-0.1-1-0.1-1.5-0.2c-0.3,0-0.6,0-0.9,0c-0.8,0.2-1.6,0.3-2.4,0.5c-0.7,0.2-1.5,0.3-2.2,0.5
					c-0.2,0-0.4,0.1-0.6,0.2c-0.3,0.1-0.5,0.3-0.7,0.5c-0.2,0.1-0.3,0.3-0.4,0.5c-0.2,0.4-0.4,0.8-0.6,1.3c-0.3,0.6-0.3,1.3-0.3,1.9
					c0,0.2,0.1,0.5,0.2,0.7c0.2,0.3,0.4,0.6,0.6,0.9c-0.6,0.2-1-0.2-1.5-0.4c-0.2,0.3-0.5,0.5-0.7,0.7c-0.5,0.6-0.7,1.3-1,1.9
					c-0.2,0.5-0.2,0.9-0.1,1.4c0.5,0.2,0.9,0.3,1.3,0.4c0.4,0.1,0.5,0.4,0.5,0.8c0,0.6,0.2,1,0.8,1.3c0.6,0.3,1.2,0.5,1.8,0.6
					c0.8,0.2,1.6,0.3,2.4,0.5c0.4,0.1,0.7,0.2,1.1,0.2c0.7,0.1,1.4,0.1,2,0.4c0.5,0.2,1.1,0.3,1.7,0.6c1,0.5,2.1,0.7,3.2,0.7
					c0.6,0,1.2,0.1,1.8,0.1c0.5,0,1.1,0.1,1.6,0.1c0.6,0,1.1-0.1,1.7-0.2c0.1,0,0.6,0,0.6-0.1c0.6-0.1,1.1-0.2,1.5-0.6
					c0.2-0.1,0.3-0.3,0.4-0.5c0.5-0.5,0.9-1.2,1.2-1.9c0.1-0.3,0.2-0.5,0.2-0.8c0-0.3,0-0.7,0-1c0.1-0.4,0.3-0.8,0.6-1
					c0.8-0.4,1.5-1,2.4-1.4c0.4-0.2,0.8-0.4,1.3-0.4c0.1,0,0.2,0,0.3,0l0.4-0.2c-0.1,0-0.2,0-0.3,0c-0.1,0-0.2,0-0.3,0
					c-0.1,0-0.2,0-0.2,0c-0.1,0-0.2,0-0.3,0c-0.1,0-0.2,0-0.3,0c0,0,0,0-0.1-0.1c0.1,0,0.2-0.1,0.3-0.1c0.2,0,0.4,0,0.6-0.1
					c0.2,0,0.4,0,0.6-0.1c0-0.1-0.1-0.2-0.2-0.2c-0.2,0-0.4-0.1-0.6-0.1c-0.1,0-0.2,0-0.2,0c-0.3,0-0.6,0.1-0.8,0.1
					c-0.3,0-0.7,0.1-1,0.2c-0.1,0-0.3,0.1-0.5,0.1c0,0,0.1-0.1,0.1-0.1c0.2-0.1,0.4-0.2,0.6-0.3c0.4-0.2,0.8-0.3,1.3-0.3
					c0.1,0,0.3,0,0.4,0c0,0,0.1,0,0.1,0c0,0,0,0-0.1-0.1c-0.2-0.1-0.3-0.1-0.5-0.2c-0.2,0-0.3-0.1-0.5-0.1c-0.3-0.1-0.5-0.1-0.8-0.1
					c-0.1,0-0.1,0-0.2,0c0,0,0,0,0,0c0.3-0.1,0.6-0.2,0.8-0.2c0.2,0,0.4,0,0.6,0c0.1,0,0.3,0,0.4,0c0.1,0,0.3,0,0.4,0.1
					c0.1,0,0.1,0,0.2,0.1c0.1,0.1,0.3,0.2,0.4,0.2c0.2,0.1,0.3,0.2,0.5,0.3c0.1,0.1,0.2,0.1,0.4,0.2c0.1,0,0.2,0.1,0.2,0.2
					c0.2,0.2,0.3,0.4,0.5,0.6c0.1,0.1,0.2,0.2,0.4,0.3c0.2,0.1,0.4,0.3,0.6,0.4c0.2,0.1,0.3,0.2,0.5,0.3c0.2,0.1,0.5,0.2,0.8,0.3
					c0.3,0.1,0.6,0.2,0.9,0.2c0.2,0,0.3,0.1,0.5,0.1c0.3,0.1,0.5,0.1,0.8,0.2c0.1,0,0.1,0,0.2,0c0.1,0,0.1,0,0.2,0c0,0,0,0,0.1,0
					c0.1,0,0.1,0,0.1,0.1c0,0,0.1,0,0.1,0c0,0,0,0,0,0c0,0,0,0,0,0c0,0,0,0,0,0c0,0,0,0,0.1,0c0-0.1-0.1-0.2-0.2-0.2
					c0,0-0.1-0.1-0.1-0.1c-0.1-0.2-0.2-0.4-0.3-0.6c0,0,0,0,0-0.1c0.1,0,0.1,0,0.2,0c0.1,0,0.1,0,0.2,0c0.1,0,0.2,0.1,0.3,0.1
					c0.1,0,0.1,0,0.1,0c0.1,0.1,0.3,0.1,0.5,0.1c0.1,0,0.1,0,0.2,0c0,0,0.1,0,0.1,0c0.2,0.2,0.4,0.3,0.6,0.5
					c0.1,0.1,0.2,0.2,0.3,0.3c0,0,0,0,0.1,0c0,0,0-0.1,0-0.1c0-0.1-0.1-0.1-0.1-0.2c0,0,0-0.1-0.1-0.1c0-0.1-0.1-0.2-0.1-0.4
					c-0.1-0.1-0.1-0.2-0.1-0.3c0,0,0,0,0,0c0,0,0.1,0,0.1,0c0.1,0.1,0.2,0.1,0.3,0.2c0.1,0.1,0.2,0.1,0.3,0.1c0.1,0,0.2,0.1,0.2,0.1
					c0.1,0.1,0.3,0.1,0.4,0.2c0,0,0.1,0,0.1,0c0,0,0.1,0.1,0,0.1c0,0.1,0,0.2-0.1,0.2c-0.1,0-0.1,0.1-0.2,0.1c0,0,0,0,0,0.1
					c0,0,0,0,0.1,0c0.1,0,0.2,0,0.3-0.1c0.2-0.1,0.3-0.2,0.5-0.2c0,0,0,0,0,0c0.1,0,0.2,0,0.3-0.1c0.1,0,0.1-0.1,0.2,0
					c0,0,0,0.1,0,0.1c-0.1,0.1-0.1,0.2-0.2,0.3c0,0.1-0.1,0.1-0.1,0.2c0,0.1-0.1,0.1-0.2,0.2c-0.1,0-0.2,0.1-0.3,0.2c0,0,0,0,0,0
					c0,0,0.1,0,0.1,0c0.1,0,0.3,0,0.4,0c0.1,0,0.2,0,0.3,0c0.1,0,0.2,0,0.2,0c0.1,0,0.2,0,0.3-0.1c0,0,0.1,0,0.1,0
					c0.2-0.1,0.4-0.1,0.6-0.2c0.2-0.1,0.4-0.1,0.7-0.2c0.2,0,0.4-0.1,0.6-0.2c0.2-0.1,0.3-0.2,0.5-0.3c0,0,0.1,0,0.1-0.1
					c0.2-0.2,0.2-0.2,0.5-0.1c0.1,0,0.2,0,0.3,0c0.1,0,0.1,0,0.2,0c0,0,0,0,0.1,0c0.1,0,0.2-0.1,0.3-0.1c0.1,0,0.2-0.1,0.2-0.1
					c0.2,0,0.3-0.1,0.5-0.1c0,0,0,0,0,0c0,0,0,0,0,0c-0.1,0.1-0.2,0.2-0.3,0.2c-0.1,0-0.2,0.1-0.2,0.2c-0.1,0.1-0.2,0.2-0.4,0.2
					c0,0,0,0-0.1,0.1c0.1,0.1,0.2,0.1,0.3,0c0.2,0,0.3,0,0.5,0c0.1,0,0.3,0,0.4,0c0.1,0,0.2,0,0.2,0c0.3,0,0.5-0.1,0.8-0.1
					c0.1,0,0.1,0,0.2,0c0.2,0,0.4,0,0.6,0c0.1,0,0.1,0,0.2,0c0.2,0,0.4,0,0.6,0c0.3-0.1,0.7-0.1,1-0.2c0.2,0,0.5-0.1,0.7-0.1
					c0.1,0,0.2,0,0.3,0c0.1,0,0.2,0,0.2,0c0,0,0.1,0,0.1,0c0.4-0.1,0.8-0.2,1.1-0.2c0.1,0,0.2,0,0.4-0.1c0.3,0,0.5-0.1,0.8-0.1
					c0.1,0,0.2-0.1,0.3-0.1c0.3-0.1,0.7-0.2,1-0.3c0.2-0.1,0.5-0.2,0.7-0.3c0.1-0.1,0.3-0.1,0.4-0.1c0,0,0,0,0.1,0
					c0.2-0.1,0.4-0.1,0.6-0.2c0.1,0,0.1,0,0.2,0c0.2,0,0.4-0.1,0.6-0.1c0.2-0.1,0.4-0.2,0.6-0.2c0.2-0.1,0.4-0.2,0.6-0.2
					c0.3-0.1,0.6-0.2,0.9-0.3c0.3-0.1,0.6-0.1,0.8-0.2c0.1,0,0.3,0,0.4,0c0.2,0,0.4,0,0.6,0c0.4,0,0.7,0.1,1.1,0.1c0,0,0.1,0,0.1,0
					c0.1,0,0.2,0,0.3,0.1c0,0,0,0-0.1,0c-0.1,0-0.3,0-0.4,0c-0.1,0-0.1,0-0.2,0c-0.2,0-0.4,0-0.6,0.1c-0.1,0-0.2,0-0.2,0
					c-0.2,0-0.3,0-0.5,0c0,0,0,0,0.1,0c0.2,0,0.4,0.1,0.6,0.1c0.1,0,0.1,0,0.2,0c0.1,0,0.1,0,0.2,0c0.1,0,0.3,0,0.4,0.1
					c0.1,0,0.3,0.1,0.4,0.2c0.1,0.1,0.3,0.1,0.5,0.2c0.1,0,0.2,0.1,0.3,0.1c-0.1,0-0.3,0-0.4-0.1c-0.1,0-0.2,0-0.3,0
					c-0.2,0-0.4,0-0.7-0.1c-0.2,0-0.4,0-0.6,0c-0.1,0-0.2,0-0.3,0c-0.1,0-0.2,0-0.4,0c-0.1,0-0.2,0-0.3,0c-0.1,0-0.2,0-0.3,0
					c0,0-0.1,0-0.1,0l-0.3,0.1c0.1,0,0.2,0.1,0.3,0.1c0.4,0.1,0.8,0.2,1.2,0.3c0.4,0.1,0.7,0.1,1.1,0.2c0.1,0,0.2,0,0.3,0
					c0.4,0,0.8-0.1,1.1,0.1c0,0,0.1,0,0.1,0c0.3,0,0.6,0,0.8,0.1c0.4,0.1,0.8,0.2,1.2,0.3c0,0,0,0.1,0,0.1c-0.2,0-0.4,0-0.6,0.1
					c0.8,0.3,1.4,0.8,2.1,1.2c0.5,0.3,0.9,0.7,1.4,1.1c0.1,0.1,0.3,0.3,0.4,0.3c0.6,0.4,1.2,0.8,1.8,1.1c0.2,0.1,0.3,0.3,0.3,0.5
					c0,0.1,0,0.3,0,0.4c0.2,0.5,0.4,1,0.6,1.5c0.4,0.8,1,1.4,1.7,1.9c0.4,0.3,0.9,0.5,1.4,0.4c0.5-0.1,1-0.3,1.4-0.5
					c0.2-0.1,0.4-0.3,0.7-0.3c0.1,0,0.1-0.1,0.2-0.1c0.1-0.1,0.2-0.1,0.4-0.1c0.6-0.1,1.2-0.2,1.7-0.5c0.8-0.5,1.4-1.1,2.1-1.7
					c0.5-0.5,1-1.1,1.5-1.7c0.5-0.6,0.9-1.3,1.3-2c0.2-0.3,0.4-0.6,0.5-1c0-0.1,0.1-0.2,0.2-0.2c0.4-0.2,0.9-0.3,1.3-0.5
					c0.3-0.1,0.5-0.2,0.8-0.3c0.5-0.3,1-0.6,1.4-1.2c0.3-0.4,0.6-0.7,0.8-1.2c0.2-0.5,0.2-1,0.1-1.5c-0.1-0.5-0.4-1-0.6-1.5
					c-0.1-0.2-0.2-0.3-0.4-0.3c-0.2,0-0.4,0-0.7-0.1c0-0.1,0.1-0.1,0.1-0.1c0.2-0.2,0.4-0.5,0.4-0.8c0-0.1,0.1-0.3,0.1-0.4
					c0.2-0.6,0.2-1.1,0.1-1.7c-0.1-0.4-0.3-0.6-0.5-0.9c-0.1-0.1-0.3-0.1-0.4-0.2c-0.4-0.3-0.9-0.4-1.5-0.5c0,0.5,0.1,1-0.1,1.4
					c0,0-0.1,0-0.1,0c0-0.1-0.1-0.2-0.1-0.3c-0.2-0.7-0.7-1.3-1.4-1.6c-0.2-0.1-0.4-0.3-0.7-0.5c-0.3-0.2-0.5-0.4-0.8-0.6
					c-0.1-0.1-0.3-0.1-0.5-0.1c-0.5,0-1,0.1-1.5,0.1c-0.9,0.1-1.9,0.2-2.8,0.5c-0.1,0-0.3,0.1-0.3,0.2c-0.3,0.3-0.7,0.5-1.1,0.5
					c-0.5,0-0.8,0.3-1.3,0.3c0,0-0.1,0-0.1,0.1c-0.4,0.4-0.7,0.7-1,1.1c-0.2,0.3-0.5,0.5-0.7,0.7c-0.1,0.1-0.2,0.2-0.3,0.5
					c0.4-0.3,0.7-0.6,1-0.8c0,0.3-0.1,0.5-0.2,0.7c0,0.1-0.1,0.2-0.2,0.2c-0.2,0.2-0.5,0.4-0.7,0.7c-0.4,0.4-0.7,0.9-1,1.4
					c0,0,0,0.1,0,0.2c0.3-0.5,0.8-1.1,1.1-1.3c0,0.4-0.2,0.6-0.3,0.9c-0.4,0.7-0.6,1.5-0.7,2.4c-0.1,0.6-0.2,1.2-0.4,1.8
					c-0.1-0.3-0.1-0.7-0.1-1c-0.1-0.6,0.1-1.2,0.1-1.8c0-0.4,0.3-0.8,0.1-1.2c0,0,0-0.1,0-0.1c0.1-0.5,0.1-1.1,0.4-1.6
					c0.1-0.1,0.2-0.3,0.3-0.5c0.1-0.3,0.3-0.5,0.4-0.8c0.1-0.2,0.1-0.3,0.2-0.5c0.2-0.3,0.4-0.8,0.4-0.9c0.5-0.3,0.9-0.6,1.4-0.9
					c0.1-0.1,0.2-0.1,0.2-0.3c0-0.2,0-0.5-0.1-0.7c-0.2-0.2-0.3-0.5-0.5-0.7c-0.2-0.4-0.2-0.4-0.6-0.3c-0.1,0-0.1,0-0.2,0.1
					c-0.3,0.1-0.7,0.1-1,0c-0.2-0.1-0.5-0.1-0.7,0c-0.2,0.3-0.3,0.5-0.5,0.8c-0.7,0.9-1.6,1.6-2.7,2.1c-0.5,0.2-1,0.2-1.5,0.2
					c-0.4,0-0.7,0-1.1-0.1c-0.1,0-0.1,0-0.2,0.1c-0.2,0.2-0.5,0.4-0.7,0.7c-0.2,0.2-0.5,0.3-0.8,0.4c0.2-0.3,0.5-0.5,0.5-1
					c-0.2,0.1-0.4,0.2-0.6,0.3c-0.2,0.1-0.3,0.1-0.6,0.2c0.1-0.2,0.1-0.2,0.2-0.4c-0.3,0.2-0.5,0.1-0.6,0.4c0,0.1-0.1,0.1-0.2,0.2
					c-0.3,0.1-0.6,0.3-0.9,0.4c0.4-0.7,1.1-1.3,1.4-2.1c-0.3,0.5-0.7,0.8-1.2,1.1c-0.2,0.2-0.4,0.3-0.5,0.6
					c-0.2,0.4-0.5,0.8-0.7,1.2c-0.2,0.3-0.4,0.5-0.7,0.6c0.1-0.1,0.1-0.2,0.2-0.3c0.2-0.4,0.5-0.8,0.7-1.2c0.1-0.4,0.4-0.7,0.4-1.1
					c0-0.3,0.2-0.6,0.3-0.9c0.2-0.4,0.2-0.4-0.1-0.9c-0.1,0.2-0.1,0.3-0.2,0.5c-0.1,0.4-0.2,0.7-0.4,1.1c-0.1,0.3-0.2,0.6-0.5,0.8
					c0.1-0.3,0.1-0.6,0.2-0.9c0.1-0.4,0.2-0.7,0.2-1.1c0-0.4,0-0.8-0.1-1.2c0-0.3-0.1-0.6-0.1-0.9c-0.1-0.1-0.3-0.1-0.4-0.2
					c-0.4-0.3-0.8-0.6-1.1-0.9c-0.5-0.4-0.9-1-1-1.7c0-0.2-0.1-0.4-0.1-0.6c-0.3-1-0.1-2,0.3-3c0.1-0.2,0.2-0.4,0.3-0.7
					c0.1-0.3,0.2-0.6,0.4-0.8c0.4-0.6,0.9-1.3,1.3-1.9c0.1-0.1,0.2-0.2,0.2-0.3c0.1-0.3,0.1-0.6,0.1-0.9c0-0.1,0-0.2-0.1-0.4
					c-0.1-0.2-0.2-0.3-0.2-0.5c-0.1-0.3-0.2-0.6-0.3-0.9c-0.4-0.8-0.3-1.6-0.3-2.4c0,0,0-0.1,0-0.1c0.1-0.2,0.2-0.5,0.3-0.7
					c-0.3-0.5-0.6-0.9-0.9-1.4c-0.1-0.2-0.3-0.4-0.4-0.6c-0.1-0.2-0.3-0.3-0.3-0.6c0.2,0.1,0.5,0.3,0.7,0.4l0,0
					c0.4,0.5,0.9,0.9,1.4,1.2c0.1-0.3,0.2-0.6,0.3-0.9c0.1,0.1,0.1,0.1,0.1,0.1c0.1,0.8,0,1.6-0.1,2.5c0,0.1,0,0.2,0,0.3
					c0.1,0.7,0.2,1.4,0.5,2c0.1,0.2,0.2,0.3,0.3,0.4c0.3-0.1,0.6-0.1,0.8-0.4c0-0.1,0.1-0.1,0.2-0.1c0.2-0.1,0.4-0.2,0.6-0.3
					c0.1,0,0.1-0.1,0.3-0.1c-0.1,0.3-0.2,0.5-0.3,0.6c-0.1,0.3-0.2,0.7-0.3,1c-0.1,0.5-0.4,0.9-0.8,1.3c-0.3,0.3-0.5,0.7-0.8,1
					c-0.1,0.1-0.2,0.3-0.3,0.4c-0.5,0.7-1.1,1.3-1.2,2.2c0,0,0,0.1-0.1,0.1c-0.1,0.3-0.3,0.5-0.4,0.8c-0.4,0.8-0.4,1.5-0.2,2.3
					c0.1,0.5,0.4,0.9,0.4,1.4c0,0.1,0.1,0.3,0.2,0.3c0.3,0.2,0.6,0.5,1,0.7s0.7,0.4,1.1,0.5c0.4,0.2,0.8,0.3,1.2,0.6
					c0,0.1,0.1,0.2,0.1,0.4c0.2,0.4,0.4,0.9,0.9,1c0.4,0.2,0.9,0.3,1.3,0.4c0.3,0.1,0.6,0.1,0.8,0.1c0.4-0.1,0.7,0,1,0.1
					c0.2,0,0.4,0.1,0.6,0c0.3-0.1,0.6-0.2,0.8-0.3c0.1,0,0.2-0.1,0.3-0.1c0.5-0.6,1-1.2,1.4-1.9c0.4-0.6,0.7-1.3,1-2
					c0.1-0.1,0.1-0.3,0.2-0.4c0,0.5,0,1-0.1,1.6c0.2-0.1,0.3-0.1,0.4-0.2c0.3-0.2,0.7-0.5,1-0.7c0.6-0.4,1.1-0.9,1.3-1.6
					c0.2-0.6,0.3-1.2,0.5-1.8c0.1-0.3,0.2-0.5,0.3-0.8c0.1-0.3,0-0.6,0-0.9c0-0.3,0.1-0.6,0-0.9c0-0.6-0.1-1.1-0.2-1.7
					c0-0.1,0-0.1,0-0.2c0.2-0.2,0-0.4,0-0.6c-0.1,0.1-0.2-0.6-0.3-0.9c-0.2-0.7-0.6-1.3-1.1-1.9c-0.1-0.1-0.2-0.2-0.3-0.3
					c-0.3-0.1-0.4-0.3-0.4-0.6c0-0.3-0.2-0.5-0.3-0.7c-0.5-0.6-0.9-1.2-1.5-1.6c-0.5-0.3-0.9-0.7-1.4-1c-1.3-0.9-2.7-1.5-4.1-2.2
					c-0.1-0.1-0.2-0.2-0.3-0.3c-0.2-0.3-0.5-0.6-0.8-1c-0.1-0.1-0.3-0.2-0.4-0.4c-0.2-0.2-0.5-0.5-0.7-0.7c-0.9-1-1.9-1.8-3-2.6
					c-0.3-0.3-0.7-0.6-1.1-0.8c-0.6-0.3-1.3-0.5-2-0.8c-0.4-0.2-0.8-0.3-1.2-0.5c0,0-0.1-0.1-0.1,0c-0.3,0.1-0.6-0.1-1-0.2
					c-0.4-0.1-0.7-0.1-1.1,0c-0.7,0.2-1.5,0.4-2.3,0.3c-0.1,0-0.2,0-0.3,0c-0.4,0-0.9,0.1-1.3,0c-0.3,0-0.5,0-0.7,0
					c-0.1,0.1-0.3,0.1-0.4,0.2c-0.8,0.3-1.5,0.4-2.3,0.4c0.2-0.1,0.4-0.1,0.6-0.1c0.2,0,0.3-0.1,0.5-0.1c0.8-0.3,1.5-0.7,2.1-1.2
					c0.2-0.1,0.4-0.2,0.6-0.2c0.3,0,0.5,0,0.8-0.1c0.2-0.1,0.4-0.1,0.6-0.2c0,0.1,0.1,0.1,0.1,0.2c0.1-0.1,0.3-0.1,0.4-0.2
					c0.5-0.3,1-0.7,1.5-1c0.2-0.1,0.4-0.3,0.6-0.3c0.3-0.1,0.5-0.2,0.6-0.4c0.3-0.3,0.7-0.7,1.2-0.9c0.5-0.2,0.9-0.6,1.3-1.1
					c0.5-0.6,1-1.2,1.3-2c0-0.1,0.1-0.2,0.3-0.4c0.2,0.6,0,1.1,0,1.6c0.3-0.2,0.5-0.4,0.6-0.7c0.2-0.3,0.3-0.7,0.4-1
					c0.1-0.2,0.2-0.4,0.3-0.7c0.1-0.4,0.2-0.8,0.3-1.2c0.1-0.3,0.2-0.6,0.1-1c0-0.1,0-0.2,0-0.3c0-0.5,0-1.1-0.1-1.6
					c-0.1-0.2-0.1-0.5-0.1-0.7c0.2,0.1,0.4,0.1,0.5,0.2c0.1,0.1,0.2,0.3,0.4,0.5c0-0.2,0-0.3,0-0.4c-0.2-0.5-0.3-1.1-0.5-1.6
					c-0.1-0.2-0.2-0.4-0.4-0.6c-0.2-0.3-0.4-0.5-0.6-0.7c-0.3-0.4-0.6-0.8-1-1.1c-0.1-0.1-0.2-0.2-0.2-0.4c-0.1-0.4-0.2-0.8-0.4-1.3
					c-0.2-0.5-0.4-1-0.6-1.5c-0.1-0.4-0.3-0.7-0.5-1.1c-0.2-0.4-0.4-0.9-0.6-1.3c0.2-0.1,0.3-0.1,0.4-0.2c0.5-0.2,1-0.5,1.5-0.7
					c0.6-0.3,0.9-0.7,1.1-1.3c0.2-0.6,0.4-1.2,0.5-1.8c0.1-0.3,0.1-0.6,0.1-0.9c0-0.2,0-0.4,0-0.7c0-0.2,0-0.4,0-0.7
					c0-0.3,0-0.7,0-1c0-0.1,0-0.2,0-0.3c-0.1-0.4-0.1-0.8-0.2-1.3c0.2,0.1,0.4,0.2,0.6,0.3c-0.2-0.5-0.5-0.9-0.8-1.4
					c-0.2-0.2-0.4-0.5-0.6-0.7c-1-0.7-2-1.3-3.2-1.5c-0.2,0-0.4-0.1-0.6,0.1c-0.2,0.1-0.4,0.1-0.6,0.1c-0.1,0-0.2,0-0.3,0
					c-0.6,0.2-1.2,0.2-1.7,0.6c-0.4,0.3-0.8,0.6-1.2,0.9c-0.2,0.1-0.3,0.3-0.5,0.5c-0.3,0.5-0.8,0.9-0.9,1.5
					c-0.3,0.1-0.1,0.2-0.1,0.3c0,0.1,0.1,0.2,0.1,0.2c0.2,0.5,0.5,1,0.5,1.6c-0.1-0.1-0.2-0.2-0.3-0.2c-0.4-0.3-0.4-0.9-0.9-1
					c-0.4-0.4-0.8-0.9-1.2-1.3c-0.4-0.5-0.8-1-1.3-1.3c-0.1,0-0.1-0.1-0.2-0.1c-0.3-0.3-0.6-0.4-1-0.4c-0.1,0-0.2,0-0.3,0
					c-0.9-0.1-1.7-0.1-2.6,0c-0.1,0-0.3,0-0.4,0c-0.5-0.1-1.1-0.3-1.6-0.4c-0.2,0-0.4-0.1-0.6-0.1c-0.3-0.1-0.7-0.1-1-0.2
					c-0.6-0.1-1.3-0.2-2-0.2c-0.7,0-1.5,0-2.2,0.1c-0.4,0-0.9,0.1-1.3,0.2c-0.3,0.1-0.6,0.1-0.9,0.2c-0.4,0.1-0.8,0.2-1.1,0.4
					c-0.9,0.8-2.1,1.2-3.1,1.9c-0.1-0.9-0.5-1.6-0.9-2.3c0-0.1-0.1-0.1-0.1-0.1c-0.3-0.3-0.6-0.7-0.9-1c-0.9-0.9-2-1.4-3.3-1.2
					c-1.2,0.2-2.2,0.9-2.9,1.9c-0.3,0.5-0.6,1-0.9,1.6c-0.2,0.4-0.4,0.9-0.5,1.3c-0.1,0.5-0.2,1-0.3,1.5c-0.1,0.5-0.2,1,0,1.5
					c0.3,0.9,0.4,1.8,0.9,2.7c0.1,0.3,0.3,0.5,0.5,0.7c0.5,0.5,1.1,1,1.6,1.4c-0.1,0.2-0.2,0.4-0.3,0.6c-0.3,0.7-0.4,1.4-0.5,2.1
					c-0.2,0.8-0.3,1.7-0.4,2.6c0,0.2,0,0.3-0.2,0.4c-0.3,0.3-0.6,0.5-0.8,0.8c-0.7,0.7-1.2,1.5-1.5,2.5c-0.1,0.3-0.1,0.5-0.2,0.8
					c-0.2,0.6-0.1,1.1-0.1,1.7c0,0.1,0,0.3,0.1,0.5c0.3-0.3,0.5-0.5,0.8-0.7c0,0.4,0,0.7,0,1.1c0,0.4,0,0.7,0.2,1
					c0.4,0.6,0.7,1.3,1.1,1.9c0.1,0.3,0.3,0.5,0.6,0.7c0-0.3-0.1-0.5-0.1-0.8c0,0,0,0,0.1,0c0.3,0.3,0.6,0.6,0.9,0.9
					c0.2,0.2,0.3,0.3,0.5,0.4c0.4,0.2,0.8,0.5,1.1,0.8c0.4,0.4,0.6,0.9,1.1,1.2c0,0,0.1,0,0.1,0c0-0.1,0-0.2,0-0.3
					c0.3,0.1,0.6,0.2,0.8,0.3c0.3,0.2,0.6,0.5,0.9,0.9c0.7,0.9,1.7,1.2,2.7,1.6c0.1-0.1-0.1-0.3,0-0.4c0.9,0.9,1.7,1.9,2.6,2.8
					c-0.2,0-0.3-0.1-0.4-0.1c-0.4-0.2-0.8-0.4-1.2-0.5c-0.2-0.1-0.5-0.2-0.7-0.4c-0.2-0.2-0.4-0.3-0.6-0.2c-0.1,0-0.2,0-0.4,0
					c-0.6,0-1.2-0.2-1.7-0.4c-0.1,0-0.2-0.1-0.3,0c-0.6,0.3-1.1,0.6-1.7,0.9c-0.5,0.3-1.1,0.6-1.6,0.9c-0.7,0.4-1.4,0.7-1.9,1.3
					c-0.3,0.3-0.5,0.6-0.8,0.8c-0.1,0.1-0.2,0.2-0.3,0.2c-0.5,0.3-0.9,0.6-1.4,1c-0.7,0.7-1.4,1.4-2.2,2.1c-0.6,0.6-1.1,1.4-1.6,2.1
					c-0.1,0.1-0.1,0.2-0.2,0.3c-0.2,0.1-0.3,0.2-0.3,0.4c-0.2,0.4-0.4,0.8-0.6,1.2c-0.3,0.6-0.5,1.3-0.7,2c0,0.2,0,0.5-0.1,0.7
					c-0.3-0.1-0.5,0.2-0.6,0.4c-0.4,0.5-0.7,1-1,1.5c-0.6,0.9-1.1,1.8-1.7,2.8c-0.5,0.9-1,1.8-1.5,2.7c-0.2,0.4-0.4,0.8-0.4,1.3
					c-0.1,0.9-0.2,1.9-0.2,2.8c0,0.6,0.4,1.3,0.9,1.5c0.3,0.2,0.7,0.3,1.1,0.2c0.4,0,0.7,0,1.1-0.1c0.3,0,0.4,0.1,0.5,0.3
					c0.3,0.4,0.6,0.9,1,1.3c0.3,0.3,0.7,0.7,1.3,0.7c0,0,0.1,0,0.1,0c0.5,0.1,1.1,0.2,1.6,0.3c0.2,0,0.4,0,0.6,0
					c0.5-0.1,0.9-0.2,1.4-0.3c0.4-0.1,0.7-0.2,0.9-0.6c0,0,0.1-0.1,0.1-0.1c0.3-0.4,0.5-0.8,0.8-1.2c0.1-0.1,0.1-0.2,0.2-0.3
					c0.4-0.2,0.7-0.4,1.1-0.5c0.5-0.2,1-0.5,1.4-1c0.1-0.2,0.3-0.3,0.5-0.4c0.2-0.1,0.4-0.3,0.5-0.5c0.1-0.3,0.3-0.5,0.3-0.8
					c0.1-0.5,0.3-1.1,0.4-1.6c0.1-0.4,0.1-0.8-0.1-1.2c-0.1-0.3-0.3-0.6-0.4-0.9c0-0.1-0.1-0.2-0.1-0.3c0.1-0.2,0-0.3-0.1-0.5
					c-0.1-0.2-0.3-0.4-0.4-0.7c-0.2-0.4-0.5-0.7-0.8-1c-0.3-0.2-0.6-0.5-0.9-0.8c-0.3-0.3-0.7-0.5-0.4-1.1c0,0,0-0.1,0-0.1l-0.1-0.7
					c0,0,0,0-0.1,0c-0.1,0.3-0.2,0.7-0.3,1c-0.2-0.4-0.2-0.9-0.3-1.3c0-0.1,0-0.3,0.1-0.4c0.1-0.2,0.2-0.4,0.2-0.6
					c0-0.2,0.2-0.4,0.3-0.6c0.1-0.1,0.1-0.2,0.2-0.2c0,0,0.1-0.1,0.1-0.1c0,0,0.1,0,0.1-0.1c-0.1,0.5-0.2,1-0.3,1.5
					c0.1,0,0.2,0,0.2,0c0.1,0.2,0.1,0.5,0.1,0.7c0.1,0.5,0.4,0.9,0.6,1.3c0.2,0.3,0.4,0.2,0.7,0.2c0.2,0,0.3-0.2,0.4-0.4
					c0-0.2,0.1-0.4,0.1-0.6c0-0.3,0-0.7,0-1c0.1-0.6,0.1-1.1-0.1-1.6c0.3-0.4,0.7-0.7,1-1.1c0.1-0.2,0.2-0.4,0.3-0.6
					c0.1-0.2,0.2-0.4,0.3-0.6c0.1-0.2,0.3-0.4,0.4-0.7c0.3-0.5,0.7-1,1.1-1.6c0.1-0.1,0.1-0.2,0.3-0.2c-0.2,0.5-0.5,0.9-0.7,1.4
					c-0.1,0.2-0.2,0.5-0.3,0.7c-0.2,0.7-0.4,1.4-0.6,2.2c-0.1,0.4-0.3,0.5-0.6,0.7c-0.1,0-0.2,0.1-0.3,0.1c0.1,0.2,0.2,0.4,0.3,0.7
					c0.1,0.3,0.2,0.6,0.3,1c0.3,0.6,0.2,1.3,0,1.9c0,0,0,0.1-0.1,0.1c-0.2,0.2-0.3,0.5-0.5,0.7c0,0.1,0.1,0.1,0.1,0.2
					c0.4,0.8,0.9,1.6,1.2,2.5c0.2,0.8,0.5,1.5,0.3,2.4c0,0,0,0.1,0,0.1c-0.1,0.9-0.4,1.7-0.9,2.4c-0.5,0.7-1.1,1.4-1.9,1.8
					c0,0,0,0-0.1,0.1c0.2,0,0.4,0,0.6,0.1c0.3,0,0.6,0.1,1,0.2c0.2,0,0.3,0.2,0.4,0.4c-0.7-0.1-1.4-0.1-2-0.2
					c-0.3,0-0.5,0.1-0.8,0.2c0,0-0.1,0.1-0.1,0.2c0.6-0.1,1.2-0.3,1.8-0.1c-0.2,0-0.5,0.1-0.7,0.1c0.2,0.1,0.4,0.1,0.6,0.1
					c0.4,0,0.8,0.1,1.2,0.1c0.1,0,0.2,0.1,0.2,0.1c-0.1,0.3,0.2,0.3,0.3,0.4c0.4,0.3,0.8,0.6,1.2,1c-0.1,0-0.1,0-0.2-0.1
					c-0.6-0.3-1.1-0.5-1.7-0.6c-0.4-0.1-0.8-0.1-1.2-0.3c-0.2-0.1-0.5-0.1-0.7,0c0.4,0.2,0.8,0.4,1.3,0.4c0.6,0.1,1.2,0.3,1.9,0.5
					c0.3,0.1,0.7,0.3,0.9,0.6c0.2,0.2,0.4,0.4,0.6,0.6c0.2,0.1,0.3,0.2,0.4,0.4c-0.3-0.1-0.6-0.1-0.8-0.3c-0.6-0.4-1.3-0.8-2-1
					c-0.3-0.1-0.6-0.2-0.8-0.3c-0.3-0.2-0.7-0.4-1.1-0.5c-0.5-0.1-0.9-0.2-1.4-0.3c-0.2,0-0.3,0-0.4,0c-0.3,0.1-0.5,0.4-0.7,0.6
					c-0.4,0.5-0.9,0.9-1.5,0.9c-0.1,0-0.1,0-0.2,0.1c-0.4,0.2-0.9,0.2-1.3,0.6c-0.1,0.1-0.2,0.1-0.3,0.1c-0.2,0.1-0.4,0.2-0.6,0.3
					C200.5,203,200.3,203.2,200,203.3"/>
				<path d="M212.6,166c0-0.1-0.1-0.2-0.1-0.3c-0.1-0.2-0.2-0.4-0.2-0.7c-0.1-0.5,0.1-1,0.1-1.6c0.1-0.4,0.2-0.8,0.3-1.2
					c0-0.1,0-0.1,0.1-0.2c0.3-0.4,0.4-0.8,0.6-1.2c0.2-0.3,0.3-0.5,0.6-0.7c0.1,0,0.1-0.1,0.2-0.1c0.4-0.6,0.8-1.1,1.4-1.4
					c0.7-0.5,1.4-0.9,2.1-1.3c0.7-0.4,1.4-0.7,2.1-1c0,0,0.1,0,0.1,0c0.9-0.2,1.8-0.5,2.8-0.7c0.6-0.1,1.1-0.2,1.7-0.3
					c0.4-0.1,0.9-0.1,1.3-0.1c0.4,0,0.9,0,1.4,0c0.9,0,1.9,0,2.8,0.2c1.2,0.2,2.3,0.5,3.4,1.1c0.7,0.3,1.3,0.7,2,1
					c0.1,0,0.2,0,0.2,0c0.5,0.4,0.9,0.7,1.3,1c0.1,0.1,0.2,0.1,0.3,0.2c0.5,0.5,1,1,1.5,1.5c0.2,0.2,0.3,0.5,0.4,0.8
					c0.2,0.5,0.4,1.1,0.5,1.6c0.1,0.2,0.1,0.4,0.1,0.6c0,0.8-0.1,1.5-0.4,2.2c-0.2,0.5-0.5,0.9-0.7,1.4c-0.3,0.5-0.7,1-1.1,1.4
					c-0.3,0.2-0.5,0.5-0.9,0.7c-0.3,0.2-0.7,0.4-1,0.5c-0.4,0.2-0.9,0.4-1.3,0.6c-1.1,0.5-2.3,1-3.5,1.2c-0.1,0-0.2,0.1-0.4,0.1
					c-1,0.3-2,0.5-3,0.7c-0.7,0.1-1.4,0.2-2.1,0.3c-0.3,0-0.7,0.1-1,0c-1.1-0.1-2.2-0.1-3.3-0.2c-0.5,0-0.9-0.2-1.3-0.5
					c-0.4-0.3-0.8-0.4-1.2-0.6c-0.8-0.4-1.7-0.8-2.5-1.3c-0.4-0.2-0.8-0.6-1.2-1c-0.1-0.1-0.2-0.1-0.2-0.2c-0.2-0.1-0.5-0.3-0.7-0.4
					c-0.3-0.2-0.5-0.3-0.7-0.6c-0.1-0.1-0.2-0.1-0.4-0.1c0.3,0.3,0.6,0.7,0.9,1.1c-0.3-0.1-0.4-0.2-0.6-0.3
					c-0.1-0.2-0.3-0.3-0.4-0.5c0,0,0,0-0.1,0.1c0,0.1,0.1,0.1,0.1,0.2c-0.4-0.3-0.7-0.6-1-0.9c-0.5-0.5-0.8-1.2-1.4-1.7
					c-0.3-0.3-0.4-0.6-0.3-1c0-0.3,0-0.6,0.1-0.9c0,0.2,0,0.4,0,0.5c0,0.4,0.1,0.8,0.3,1.1c0.3,0.4,0.5,0.7,0.7,1.1
					c0,0.1,0.1,0.1,0.1,0.2c0,0,0,0,0.1-0.1c-0.1-0.5-0.3-0.9-0.4-1.4c0-0.2-0.1-0.4-0.1-0.6c0.1,0.1,0.2,0.1,0.2,0.1
					c0-0.2,0.1-0.3,0.1-0.5c0.1,0.7,0.1,1.4,0.5,2c0.1-0.4,0.1-0.7,0-1.1c-0.1-0.3,0-0.7,0.1-1C212,164.5,212.1,165.3,212.6,166
					C212.6,166.1,212.6,166,212.6,166 M225.1,171.1c0.7,0,1.4-0.1,2-0.1c1.1-0.1,2.2-0.4,3.3-0.6c0.6-0.1,1.2-0.4,1.9-0.6
					c0.4-0.1,0.8-0.3,1.2-0.4c0.7-0.3,1.4-0.6,2.1-1c0.5-0.2,0.9-0.6,1.4-1c0.2-0.1,0.2-0.4,0.4-0.5c0.3-0.2,0.5-0.5,0.7-0.8
					c0.1-0.2,0.2-0.4,0.3-0.6c0.3-0.3,0.4-0.7,0.4-1.1c0-0.1,0-0.1,0-0.2c0.2-0.2,0.2-0.4,0.2-0.6c0-0.8,0-1.6-0.4-2.3
					c-0.2-0.4-0.3-0.8-0.6-1.1c-0.3-0.2-0.5-0.5-0.7-0.8c-0.7-0.7-1.3-1.3-2.2-1.7c-0.8-0.4-1.6-0.8-2.4-1.1c-0.9-0.4-1.9-0.8-2.9-1
					c-0.5-0.1-1.1-0.2-1.6-0.2c-0.6,0-1.1,0-1.7,0.1c-0.8,0.1-1.5,0.2-2.3,0.3c-0.4,0.1-0.8,0.1-1.3,0.2c-0.6,0.2-1.3,0.3-1.9,0.5
					c-0.3,0.1-0.7,0.2-1,0.3c-0.5,0.1-0.9,0.4-1.3,0.6c-0.5,0.3-1.1,0.5-1.6,0.9c-1.3,0.9-2.4,1.9-3.1,3.4c-0.3,0.6-0.5,1.1-0.6,1.7
					c0,0.5-0.2,0.9,0,1.4c0.1,0.5,0.3,1,0.4,1.5c0,0.1,0.1,0.2,0.2,0.3c0.1,0.1,0.1,0.1,0.2,0.2c0.5,0.7,1.1,1.4,1.9,2
					c0.6,0.4,1.2,0.8,2,1c0.2,0.1,0.4,0.1,0.5,0.3c0.1,0.1,0.3,0.1,0.4,0.1c0.2-0.1,0.4,0,0.5,0.1c0.1,0,0.1,0.1,0.2,0.1
					c0.3,0.1,0.6,0.2,0.9,0.2C222,171,223.5,171.2,225.1,171.1"/>
				<path d="M225.1,183.9h-0.2c0.4-0.3,0.6-0.6,1-0.8c0.2-0.1,0.5-0.1,0.7-0.2c0.2,0,0.4-0.2,0.6-0.3c-0.2-0.5-0.2-1.1-0.1-1.6
					c0-0.1,0-0.2,0-0.2c-0.1-0.5,0.1-0.9,0.1-1.4c0-0.1,0-0.2,0-0.2c0.4-1.1,1-2,1.9-2.7c0.4-0.3,0.8-0.6,1.3-0.8
					c0.5-0.2,1-0.3,1.6-0.3c0.8,0,1.4,0.4,1.9,1c0.1,0.2,0.2,0.4,0.3,0.5c0.4-0.2,0.7-0.4,1.1-0.7c0.2-0.1,0.4-0.2,0.5-0.3
					c0.6-0.4,1.2-0.3,1.8-0.2c0.7,0.2,1.4,0.3,2,0.6c0.1,0.1,0.3,0.2,0.4,0.3c0.2,0.1,0.5,0.3,0.7,0.4c0.3,0.2,0.5,0.5,0.7,0.8
					c0.1,0.3,0.3,0.5,0.4,0.8c0.1,0.3,0.2,0.6,0.2,1c0,0.3,0.1,0.5,0.1,0.8c0,0.9,0,1.7-0.3,2.5c0,0,0,0.1,0,0.2
					c0.2,0,0.4-0.1,0.6-0.1c0.2,0,0.2,0.4,0.6,0.2c-0.2,0.2-0.3,0.1-0.5,0.1c-0.1,0-0.2-0.1-0.3-0.1c-0.5,0-0.7,0.1-0.8,0.7
					c0.1,0,0.2,0,0.2,0c0.2,0,0.3-0.1,0.5-0.1c0.3,0,0.7-0.1,1,0.1c0.2,0.1,0.5,0.2,0.7,0.3c0.1,0.1,0.2,0.1,0.3,0.2
					c-0.3-0.1-0.7-0.2-1-0.3c-0.3-0.1-0.5-0.1-0.8,0c-0.4,0.1-0.8,0.1-1.2,0.4c0,0,0,0-0.1,0.1c0.6-0.1,1.1-0.3,1.6-0.1
					c0.5,0.1,0.9,0.3,1.4,0.5c0.1,0,0.2,0.1,0.3,0.2c-0.1,0-0.2,0-0.3,0c-0.5-0.1-0.9-0.2-1.4-0.3c-0.4-0.1-0.7,0-1,0.1
					c-0.6,0.3-1.2,0.5-1.8,0.8c-0.3,0.1-0.6,0.3-0.8,0.5c-0.1,0.1-0.3,0.1-0.5,0.2c-0.2,0.1-0.4,0.1-0.6,0.2
					c-0.5,0.2-0.9,0.5-1.4,0.7c-0.3,0.1-0.5,0.4-0.7,0.7c-0.1,0.2-0.2,0.3-0.3,0.5c-0.2,0.3-0.5,0.4-0.8,0.1c-0.5-0.4-1-0.7-1.3-1.3
					c0-0.1-0.1-0.2-0.2-0.2c-0.4-0.1-0.8-0.3-1.2-0.4c-0.8-0.1-1.4-0.5-2-1c-0.5-0.4-1-0.5-1.6-0.7c-0.1,0-0.2,0-0.2,0
					c-0.2,0.1-0.5,0.1-0.7,0.1c-0.2,0-0.3,0.1-0.5,0c-0.1,0-0.2-0.1-0.3-0.1c0.4-0.1,0.7-0.3,1.1-0.4c-0.3-0.1-0.7-0.1-1,0
					c-0.2,0.1-0.4,0.1-0.6,0c-0.1,0-0.1,0-0.2,0c0,0.1,0,0.1-0.1,0.2l0,0c0-0.1-0.1-0.1-0.1-0.2c0.6-0.3,1.2-0.7,1.7-1
					c0,0,0,0,0-0.1c-0.1,0-0.3,0.1-0.4,0.1c-0.4,0.2-0.9,0.4-1.3,0.7c-0.1,0.1-0.1,0.1-0.2,0.1c-0.3,0.1-0.4,0.2-0.7,0.3
					c-0.2,0.1-0.5,0-0.9,0c-0.6,0.5-1.3,1-2.2,1.3c0.2-0.3,0.4-0.5,0.7-0.7c0.3-0.2,0.6-0.4,0.8-0.6c0.5-0.4,1.1-0.9,1.6-1.4
					C225.1,183.9,225.1,183.9,225.1,183.9c0.1,0,0.1,0,0.2,0c0.5-0.2,0.9-0.3,1.4-0.5c0,0,0,0,0.1,0c0.1,0.1,0.2,0.1,0.3,0.2
					c0.1-0.1,0.3-0.2,0.4-0.3c-0.1-0.2-0.2-0.3-0.4-0.2c-0.2,0.1-0.5,0.2-0.7,0.2C225.9,183.3,225.5,183.6,225.1,183.9 M234.8,188.1
					c0.1-0.2,0.3-0.3,0.4-0.5c0.3-0.2,0.5-0.5,0.8-0.7c0.3-0.1,0.6-0.2,0.8-0.4c0.8-0.4,1.6-0.8,2.3-1.3c0.7-0.5,1.2-1.2,1.6-1.9
					c0.3-0.6,0.5-1.3,0.5-2c0-0.4,0.1-0.9,0-1.3c0-0.5-0.3-1.1-0.4-1.6c0-0.1-0.1-0.2-0.1-0.3c-0.3-0.3-0.5-0.7-0.8-1
					c-0.7-0.6-1.5-1-2.4-1c-0.6,0-1.1,0.1-1.6,0.4c-0.4,0.3-0.8,0.5-1.1,0.8c-0.4,0.3-0.6,0.3-1-0.1c-0.1-0.1-0.2-0.2-0.3-0.3
					c-0.2-0.2-0.5-0.3-0.7-0.5c-0.5-0.5-1.5-0.6-2.2-0.2c-0.5,0.3-0.9,0.6-1.3,0.9c-0.4,0.4-0.8,0.8-1,1.3c-0.2,0.3-0.2,0.7-0.3,1.1
					c-0.2,0.7-0.1,1.3-0.1,2c0,0,0,0,0,0c0.1,0.5,0.2,1,0.4,1.5c0.4,1,1,1.9,1.9,2.5c0.4,0.3,0.8,0.6,1.3,0.6c0.2,0,0.3,0.1,0.5,0.2
					c0.1,0,0.2,0.1,0.2,0.1c0.3,0.1,0.6,0.1,1,0.2c0.1,0,0.2,0,0.2,0.1C233.9,187.3,234.3,187.7,234.8,188.1 M224.4,185.1
					C224.4,185.1,224.4,185.1,224.4,185.1c0.3,0.1,0.6,0.1,0.8-0.1c0.3-0.2,0.7-0.5,1-0.8c0,0,0-0.1,0.1-0.2c-0.1,0-0.1,0-0.2,0
					c-0.3,0.2-0.6,0.3-0.9,0.5C224.9,184.7,224.6,184.9,224.4,185.1"/>
				<path d="M190.2,210.3c0.3,0,0.5,0.1,0.7,0.3c0.4,0.3,0.8,0.5,1.3,0.7c0.4,0.2,0.9,0.1,1.3-0.1c0.4-0.2,0.7-0.4,1.1-0.6
					c0.2-0.1,0.4-0.2,0.7-0.1c0.1,0,0.2,0,0.3-0.1c0.1-0.1,0.3-0.2,0.5-0.2c0.3-0.1,0.7-0.2,1.1-0.3c-0.1,0.1-0.2,0.1-0.4,0.3
					c0.6,0.2,1.1,0.5,1.6,0.7c0.8,0.3,1.6,0.6,2.4,0.9c0.7,0.3,1.3,0.7,1.9,1.2c0.1,0.1,0.1,0.1,0.2,0.2c0.5,0.2,0.9,0.7,1.1,1.2
					c0.3,0.6,0.7,1,1.2,1.5c0.4,0.5,0.8,0.9,1.2,1.4c0.2,0.3,0.2,0.5-0.1,0.8c-0.3,0.2-0.6,0.4-0.9,0.4c-0.1,0-0.1,0.1-0.2,0.1
					c-0.1,0-0.3,0.1-0.4,0.1c-0.6,0-1.1,0-1.7,0c-0.1,0-1.1,0-1.1,0c-0.5-0.1-0.8,0-1.4-0.1c-0.7-0.1-1.3-0.2-2-0.4
					c-0.7-0.2-1.4-0.5-2.1-0.8c-0.4-0.1-0.7-0.3-1-0.6c0,0-0.2-0.1-0.2,0c-0.1,0.2-0.3,0.1-0.4,0.1c-0.2,0-0.4,0.1-0.6,0.1
					c-0.2,0.1-0.3,0.1-0.4,0c-1-0.6-2.1-1.3-3.1-1.9c-0.1,0-0.1-0.1-0.2-0.1c-0.3-0.1-0.5-0.3-0.8-0.5c-0.4-0.3-0.9-0.5-1.4-0.5
					c-0.1,0-0.2,0-0.4,0c0.1-0.1,0.2-0.1,0.2-0.2c0.3-0.2,0.7-0.4,1-0.6c0,0,0,0,0,0c0.3-0.4,0.7-0.4,1.1-0.7
					c0.3-0.2,0.4-0.4,0.6-0.7c0.3-0.5,0.1-0.8-0.2-1.2C190.3,210.5,190.3,210.4,190.2,210.3C190.2,210.4,190.2,210.4,190.2,210.3
					 M205.1,218c0-0.5-0.2-1.3-0.5-1.7c0,0-0.1-0.1-0.1-0.1c-0.2,0-0.3-0.2-0.4-0.3c-0.1-0.2-0.2-0.4-0.3-0.6
					c-0.2-0.3-0.3-0.5-0.5-0.7c-0.2-0.3-0.5-0.6-0.8-0.9c-0.2-0.2-0.4-0.4-0.7-0.5c-0.8-0.4-1.7-0.8-2.5-1.2c-0.1,0-0.2-0.1-0.3-0.1
					c-0.8-0.2-1.7-0.5-2.5-0.7c-0.1,0-0.3,0-0.4,0.1c-0.5,0.3-1,0.6-1.4,0.9c-0.5,0.3-1,0.4-1.5,0.5c-0.2,0-0.5,0-0.7-0.1
					c-0.2-0.1-0.5-0.2-0.8-0.4c-0.4,0.7-1.1,1-1.7,1.4c0.4,0.3,0.7,0.5,1,0.8c0.6,0.5,1.2,0.9,2,1.1c0.1,0,0.2,0.1,0.3,0.2
					c0.3,0.2,0.5,0.5,0.9,0.4c0.4-0.1,0.8-0.1,1.2-0.2c0.2,0,0.3,0,0.4,0.2c0,0.1,0.1,0.2,0.2,0.2c0.5,0.2,1,0.5,1.5,0.7
					c0.6,0.2,1.2,0.3,1.7,0.5c0.4,0.1,0.7,0.2,1.1,0.3c0.6,0.1,1.3,0.2,2,0.3c0.5,0.1,1,0.1,1.5,0.1c0.3,0,0.6,0,0.9,0
					C204.7,218,204.9,218,205.1,218"/>
				<path d="M264.4,206.3c0.6,0.1,1.2,0.2,1.7,0.2c0,0.1,0,0.1,0,0.2c0.4,0.1,0.8,0.3,1.2,0.4c0.4,0.1,0.8,0,1.2-0.2
					c0.5-0.2,0.8-0.6,1.3-0.9c0.3-0.2,0.3-0.5,0.3-0.9c0.2,0,0.3,0.1,0.3,0.3c0.1,0.8,0.8,1.3,1.2,1.9c0.1,0.1,0.2,0.1,0.4,0
					c0.4,0.3,0.4,0.7,0.3,1.1c-0.1,0.5-0.2,1-0.3,1.5c-0.1,0.3-0.1,0.6-0.1,0.9c0,0.3,0.1,0.6,0.4,0.8c-0.7-0.2-1.2,0.1-1.8,0.3
					c-0.2,0.1-0.4,0.2-0.6,0.3c-0.2,0.1-0.4,0.2-0.6,0.3c-0.2,0.1-0.4,0.1-0.6,0.1c-0.1,0.3-0.2,0.6-0.3,0.9
					c-0.2,0.6-0.6,1.2-0.9,1.7c-0.5,0.9-1.1,1.6-1.8,2.3c-0.1,0.1-0.2,0.3-0.4,0.2c0,0-0.1,0-0.1,0.1c-0.6,0.6-1.3,1.1-2.2,1.4
					c-0.1,0.1-0.3,0.1-0.4,0.2c-0.3,0.1-0.5,0.2-0.8,0.1c-0.2-0.1-0.4-0.1-0.6-0.2c-0.2,0-0.4-0.1-0.6-0.1c-0.2,0-0.3,0-0.4-0.3
					c0.5-0.8,0.7-1.7,1-2.6c0.3-0.8,0.6-1.6,0.7-2.4c0.2-0.7,0.3-1.4,0.2-2.1c0-0.1,0-0.2,0-0.3c0.1-1,0.5-1.9,1.1-2.7
					c0.4-0.5,0.7-1.1,0.8-1.8C264.2,207,264.3,206.7,264.4,206.3 M265,207.8c-0.1,0.1-0.1,0.2-0.2,0.3c-0.4,0.8-0.8,1.5-1.3,2.1
					c-0.3,0.3-0.4,0.7-0.4,1.1c-0.1,0.8-0.2,1.5-0.4,2.2c0,0.1-0.1,0.1-0.1,0.2c-0.1,0.2-0.2,0.3-0.3,0.5c-0.2,0.7-0.3,1.4-0.6,2
					c0,0,0,0.1,0,0.1c0.2,0.1,0.1,0.2,0,0.3c-0.1,0.3-0.3,0.7-0.4,1c0,0.1-0.1,0.1-0.1,0.2c-0.2,0.3-0.5,0.6-0.6,1
					c0.2,0.2,0.5,0.1,0.7,0.1c0.4-0.1,0.9-0.1,1.3-0.3c0.7-0.2,1.3-0.6,1.9-0.9c0.1,0,0.1-0.1,0.1-0.1c0.3-0.3,0.7-0.6,1-1
					c0.6-0.6,1.2-1.2,1.5-2c0.2-0.5,0.4-0.9,0.6-1.4c0.2-0.4,0.5-0.8,0.7-1.3c0.1-0.1,0.2-0.3,0.3-0.3c0.2-0.1,0.5-0.1,0.7-0.2
					c0.6-0.2,1.1-0.5,1.5-0.9c0.1-0.1,0.2-0.2,0.1-0.3c-0.1-0.5,0-0.9,0.1-1.4c0.1-0.3,0.1-0.5,0.2-0.8c-0.1,0-0.2,0-0.2,0
					c-0.2,0.2-0.5,0.1-0.7,0c-0.4-0.2-0.9-0.4-1.1-0.8c-0.1,0-0.1,0.1-0.2,0.1c-0.2,0.2-0.4,0.4-0.6,0.5c-0.4,0.2-0.8,0.4-1.3,0.4
					C266.5,208.3,265.8,208.1,265,207.8"/>
				<path d="M221.8,153.3c0.1,0.5-0.1,0.8-0.2,1.2c-0.3,0.5-0.7,0.9-1.3,1c-0.1,0-0.1,0-0.2,0c-1,0.3-1.5-0.4-1.8-1
					c-0.1-0.3-0.3-0.6-0.3-0.9c-0.1-0.7,0-1.3,0.4-1.9c0.2-0.4,0.5-0.6,0.9-0.8c0.3-0.2,0.6-0.1,1-0.1c0.6,0.1,1.1,0.5,1.3,1.1
					c0.1,0.1,0.1,0.2,0.2,0.4C221.8,152.5,222,152.9,221.8,153.3"/>
				<path d="M241.8,148.3c0.3-0.7,0.5-1.3,0.7-2c0-0.2,0.1-0.4,0.1-0.6c0-0.4,0.1-0.7,0.1-1.1c0-0.4-0.2-0.7-0.6-0.9
					c-0.2-0.1-0.3-0.1-0.5-0.1c-0.3,0-0.6,0-0.8,0c-0.8,0.1-1.5,0.3-1.9,1c0,0.1-0.1,0.2-0.1,0.3c0,0.3,0.1,0.6,0.2,0.9
					c0,0.1,0,0.3,0,0.4c0,0-0.1,0-0.1,0c-0.1-0.2-0.3-0.4-0.3-0.6c-0.1-0.5-0.3-1-0.2-1.5c0-0.2,0.1-0.5,0-0.7c0-0.2,0-0.3,0.2-0.4
					c0.4-0.3,0.8-0.6,1.2-0.8c0.6-0.3,1.2-0.2,1.7,0.1c0.6,0.4,1.2,0.8,1.7,1.4c0.1,0.1,0.1,0.2,0.2,0.3c0.1,0.1,0.1,0.2,0.1,0.3
					c0.3,0.4,0.3,0.9,0.3,1.3c0,0.1,0,0.2,0,0.4c-0.1-0.4-0.2-0.7-0.3-1c0,0,0,0-0.1,0c-0.1,0.4-0.2,0.7-0.3,1.1
					c0,0.2-0.1,0.3-0.1,0.5c0,0,0,0.1,0,0.1c-0.3,0.2-0.4,0.6-0.5,0.9C242.3,148,242.1,148.2,241.8,148.3"/>
				<path d="M207.8,144c-0.3,0.5-0.4,1-0.3,2.6c0-0.1-0.1-0.3-0.1-0.4c-0.2-1.1-0.3-2.2-0.1-3.3c0.1-0.4,0.3-0.8,0.6-1.1
					c0.1-0.1,0.2-0.2,0.2-0.2c0.2-0.3,0.5-0.4,0.8-0.5c0.2,0,0.4-0.1,0.6-0.1c0.3-0.1,0.6-0.1,0.9,0.2c0.2,0.2,0.4,0.3,0.6,0.4
					c0.6,0.4,0.8,1,1,1.7c0,0.1,0,0.2,0,0.4c-0.1-0.1-0.2-0.2-0.3-0.2c-0.4-0.5-1-0.7-1.6-0.9c-0.5-0.1-1.1,0-1.6,0.2
					c-0.1,0-0.2,0.2-0.2,0.3c0,0.2,0.1,0.4,0.1,0.6c0,0.2,0.1,0.3,0,0.5c-0.1,0.6,0.1,1.2,0.2,1.8c0.1,0.5,0.2,0.9,0.3,1.4
					c-0.3-0.2-0.5-0.5-0.6-0.8c-0.2-0.7-0.4-1.5-0.6-2.2C207.9,144.3,207.9,144.1,207.8,144"/>
				<path d="M225.2,142.2c0.8-0.4,1.6-0.8,2.4-1.1c-1,0-1.9,0.1-2.8,0.4c-0.8,0.3-1.7,0.6-2.5,0.9c0.1-0.3,0.4-0.4,0.5-0.6
					c0.1-0.1,0.2-0.1,0.3-0.2c0.8-0.2,1.5-0.7,2.4-0.9c-0.3-0.1-0.6-0.1-0.8,0c-0.6,0.2-1.2,0.3-1.8,0.4c-0.4,0.1-0.7,0.1-1.2,0.2
					c0.2-0.1,0.2-0.2,0.3-0.2c0.8-0.3,1.6-0.5,2.4-0.8c-0.5-0.1-0.9,0-1.3,0c-0.4,0-0.8,0.1-1.3,0.1c0.2-0.1,0.4-0.3,0.6-0.4
					c0.4-0.2,0.9-0.3,1.3-0.3c0.5,0,1,0,1.5,0c0.3,0,0.6,0.1,0.9,0.3c0.1,0.1,0.2,0.1,0.4,0.2c-0.2,0-0.3,0-0.4,0c0,0,0,0.1,0,0.1
					c0.2,0,0.5,0.1,0.7,0.1c0.4,0,0.9,0,1.3,0.2c0.2,0.1,0.3,0,0.4,0c0.3-0.1,0.6-0.1,1-0.1c0.2,0,0.4,0,0.5,0
					c0.4-0.1,0.8-0.2,1.1,0c0.1,0,0.1,0.1,0.2,0.1c-0.4,0.1-0.8,0.1-1.2,0.3c-0.4,0.1-0.7,0.3-1.1,0.5c-0.1-0.1-0.1-0.1-0.2-0.2
					c0.1-0.1,0.4-0.1,0.4-0.4c-0.1,0-0.3,0-0.4,0.1c-0.6,0.3-1.2,0.5-1.8,0.5c-0.4,0-0.7,0.2-1.1,0.4l0,0
					C225.7,142.1,225.5,142.2,225.2,142.2"/>
				<path d="M240.1,165.5c0,0.4-0.3,0.7-0.4,1c0.6-0.3,1.1-0.8,1.7-1c0,0-0.1,0.1-0.1,0.2c0.1,0.1,0.2,0.1,0.3,0
					c0.2-0.2,0.4-0.4,0.6-0.6c0,0.4-0.1,0.7-0.2,0.9c-0.6,0.8-1.2,1.4-2.1,1.9c-0.2,0.1-0.4,0.3-0.6,0.4c-0.4,0.4-0.9,0.5-1.4,0.7
					c0.9-0.7,1.8-1.3,2.4-2.2c-0.2,0.1-0.4,0.2-0.5,0.3c-0.2,0.1-0.4,0.2-0.6,0.3c-0.8,0.6-1.5,1.3-2.3,1.9
					c-0.3,0.3-0.7,0.5-1.1,0.7c-0.3,0.2-0.6,0.2-1,0.2c0.4-0.2,0.7-0.5,1.1-0.7c0.3-0.2,0.6-0.5,1-0.7c0.1-0.1,0.1-0.1,0.2-0.2
					c0.6-0.3,1-0.9,1.4-1.4c0.2-0.2,0.3-0.5,0.5-0.7c0,0,0.1-0.1,0.1-0.1c0.4-0.1,0.6-0.4,0.8-0.7C240,165.6,240,165.6,240.1,165.5"
					/>
				<path d="M208.5,164.7c-0.1,0-0.1-0.1-0.2-0.1c-0.2-0.1-0.3-0.3-0.5-0.5c-0.2-0.1-0.3-0.3-0.4-0.4c-0.2-0.3-0.4-0.7-0.6-1
					c-0.1-0.1-0.1-0.2,0-0.4c0.1-0.2,0-0.4,0-0.6c-0.1-0.3,0-0.6,0-0.9c0-0.3,0.1-0.5,0-0.8c-0.3,0.4-0.5,0.8-0.4,1.3
					c-0.1-0.1-0.2-0.5-0.1-0.7c0.1-0.3,0.1-0.5,0.3-0.8c0.1-0.2,0.3-0.4,0.5-0.6c0.2-0.2,0.4-0.3,0.6-0.5c0,0,0,0,0.1,0.1
					c-0.1,0.1-0.2,0.2-0.3,0.4c-0.5,0.5-0.5,1.2-0.4,1.9c0,0,0,0.1,0,0.1c0,0,0.1-0.1,0.1,0c0,0.1,0,0.1,0,0.1
					c0,0.3,0.1,0.5,0.3,0.8c0.1-0.4-0.1-0.8,0.2-1.1c0.1,0.4,0.1,0.7,0.2,1.1c0.1,0.3,0.2,0.7,0.3,1.1c0.2-0.7,0.3-1.2,0.4-1.8
					c0-0.2,0.1-0.3,0.3-0.3c0,0.1,0,0.3-0.1,0.4c-0.2,0.7-0.3,1.4-0.3,2.1C208.4,164,208.4,164.3,208.5,164.7
					C208.5,164.7,208.5,164.7,208.5,164.7"/>
				<path d="M251.4,185.9c-0.4-0.1-0.5-0.4-0.5-0.7c-0.1-0.4-0.3-0.6-0.6-0.9c0,0.2,0.1,0.3,0.1,0.5c0.1,0.5,0.1,1,0,1.4
					c0,0.1,0,0.3-0.3,0.3c0-0.3,0-0.6,0-0.9c0-0.4-0.1-0.8-0.2-1.1c-0.1-0.2-0.2-0.3-0.3-0.4c-0.3-0.4-0.7-0.4-1.1-0.4
					c-0.1,0-0.1,0-0.3,0c0.2-0.1,0.2-0.1,0.3-0.1c0.3-0.1,0.7-0.2,1-0.3c0.3-0.1,0.5-0.1,0.7,0.2c0.2,0.2,0.5,0.4,0.7,0.7
					c0.2,0.4,0.4,0.8,0.5,1.2C251.3,185.5,251.3,185.7,251.4,185.9"/>
				<path d="M189.8,207.8c0.3,0.2,0.5,0.4,0.8,0.5c0.4,0.2,0.8,0.2,1.1-0.1c0.3,0.1,0.5,0.3,0.8,0.4c-0.4,0.2-0.8,0.4-1.3,0.4
					c0.5,0.2,0.8,0.2,1.3,0c0.2-0.1,0.3-0.2,0.5-0.2c0.3-0.1,0.6-0.1,0.9-0.2c-0.7,1.1-2.1,1.2-3.5,0.4h0.6
					C190.5,208.6,190,208.4,189.8,207.8"/>
				<path d="M202.2,199.4c0.2-0.2,0.3-0.4,0.5-0.5c0.3-0.3,0.4-0.6,0.5-1c0.1-0.4,0.2-0.9,0.1-1.3c0-0.1,0-0.2,0.1-0.3
					c0,0,0-0.1,0-0.2c0-0.2,0-0.3,0-0.5c0.1-0.3,0.1-0.7,0.2-1.1c0.1,0.2,0.1,0.2,0.1,0.3c0.2,0.9,0.1,1.9-0.2,2.8
					c-0.1,0.2-0.1,0.5-0.2,0.7C203.4,198.9,202.7,199.5,202.2,199.4"/>
				<path d="M206.5,200.5c0.5-0.1,1,0.2,1.5,0.4c0.6,0.3,1.2,0.5,1.8,0.8c0.5,0.3,0.9,0.6,1.3,0.9c0.2,0.2,0.5,0.4,0.6,0.7
					c0.1,0.1,0.2,0.2,0.3,0.3c0.1,0.1,0.1,0.2,0.2,0.2c0,0,0,0-0.1,0.1c-0.1-0.1-0.2-0.1-0.2-0.2c-0.5-0.5-1-0.8-1.6-1.1
					c-0.4-0.3-0.9-0.5-1.2-0.8c-0.5-0.4-1.1-0.7-1.7-0.9C207.1,200.8,206.8,200.7,206.5,200.5"/>
				<path d="M204.5,208c-0.2-0.2-0.3-0.3-0.3-0.6c0-0.1-0.1-0.2-0.2-0.3c-0.1-0.2-0.2-0.3-0.2-0.5c0.5,0.3,0.9,0.7,1.2,1.2
					c0.4,0.6,0.8,1.2,1.2,1.8c0.1,0.2,0.2,0.4,0.3,0.7c0.1,0.3,0.2,0.5,0.2,0.8c-0.3-0.3-0.6-0.7-0.9-1c0-0.1-0.1-0.1-0.1-0.2
					c-0.2-0.5-0.4-0.9-0.8-1.3c0,0,0-0.1,0-0.1C204.7,208.2,204.6,208.1,204.5,208"/>
				<path d="M226,181.8c-0.1,0.3-0.3,0.5-0.5,0.7c-0.3,0.2-0.5,0.5-0.8,0.7c-0.2,0.2-0.4,0.5-0.6,0.8c-0.4,0.5-0.9,1-1.5,1.4
					c-0.4,0.2-0.7,0.5-1,0.8c-0.1,0.1-0.2,0.2-0.3,0.2c0.2-0.2,0.4-0.5,0.6-0.7c0.4-0.4,0.8-0.7,1.1-1c0.1-0.1,0.2-0.2,0.3-0.3
					c0,0,0.1-0.1,0.1-0.1c0.6-0.6,1.1-1.2,1.7-1.8C225.2,182.2,225.7,181.9,226,181.8"/>
				<path d="M229.4,173.3c0.1-0.1,0.3-0.1,0.4-0.2c0.7-0.2,1.5-0.4,2.2-0.7c0.3-0.1,0.5-0.2,0.8-0.3c0.5-0.2,0.9-0.3,1.4-0.4
					c0,0,0,0.1,0,0.1c-0.1,0.1-0.1,0.1-0.2,0.2c-0.6,0.4-1.3,0.7-2,0.9c-0.3,0.1-0.6,0.2-0.9,0.3c-0.2,0.1-0.4,0.1-0.7,0.1
					C230.1,173.2,229.8,173.3,229.4,173.3C229.4,173.3,229.4,173.3,229.4,173.3"/>
				<path d="M196.8,208.2c-0.6,0.5-1.3,1.1-1.9,1.6c-0.1,0.1-0.2,0.1-0.3,0.2c-0.5,0.1-1.1,0.3-1.6,0.4c-0.2,0-0.3,0-0.5,0
					c0,0,0-0.1,0-0.1c0.1,0,0.1-0.1,0.1-0.1c0.4-0.1,0.8-0.3,1.1-0.4c0.4-0.1,0.9-0.3,1.2-0.6c0.3-0.3,0.6-0.5,1-0.8
					C196.2,208.3,196.5,208.3,196.8,208.2C196.8,208.2,196.8,208.2,196.8,208.2"/>
				<path d="M239.9,168.3c0.4-0.3,0.8-0.6,1.1-0.9c0.6-0.5,1.1-1.1,1.5-1.8c0.1-0.2,0.3-0.3,0.4-0.5c0.1-0.2,0.2-0.5,0.3-0.7
					c0.1-0.1,0.1-0.2,0.2-0.3c0,0.3,0,0.5-0.2,0.8c-0.1,0.2-0.2,0.4-0.3,0.6c-0.5,1.1-1.2,1.9-2.2,2.5
					C240.5,168.2,240.2,168.2,239.9,168.3"/>
				<path d="M210.2,166.2c-0.3-0.2-0.5-0.6-0.7-0.9c-0.1-0.2-0.1-0.4-0.3-0.5c-0.1-0.1-0.1-0.2-0.2-0.3c-0.3-0.9-0.5-1.9-0.2-2.8
					c0.1-0.3,0.2-0.6,0.4-0.8c0,0,0.1,0,0.2-0.1C208.7,162.8,209.2,164.5,210.2,166.2"/>
				<path d="M244.2,186.6c-0.8-0.1-1.6-0.2-2.4-0.3c-0.2,0-0.4,0-0.7,0c-0.1,0-0.2,0-0.4,0c-0.2,0-0.3-0.1-0.5,0
					c-0.1,0.1-0.2,0-0.4,0.1c0.3-0.4,0.6-0.6,1-0.7c0.6-0.1,1.3-0.3,1.9-0.2c0.1,0,0.2,0,0.3,0.1c-0.7,0-1.4,0.1-2.1,0.4
					C242.2,186,243.3,186.3,244.2,186.6C244.3,186.5,244.3,186.6,244.2,186.6"/>
				<path d="M215.9,142.8c0.1-0.1,0.1-0.2,0.2-0.3c0.3-0.3,0.6-0.7,1-1c0.1-0.1,0.2-0.3,0.3-0.5c0,0,0,0,0,0c0.5-0.5,1-1,1.7-1.2
					c-0.5,0.2-0.8,0.6-1.1,1.1c0.6-0.3,1-0.7,1.7-0.7c-0.6,0.4-1.2,0.7-1.8,1c-0.2,0.1-0.5,0.3-0.7,0.5
					C216.9,142.1,216.4,142.5,215.9,142.8C216,142.8,216,142.8,215.9,142.8"/>
				<path d="M223.7,178.8c0-0.3,0.2-0.6,0.4-0.8c0.3-0.5,0.7-1,1-1.5c0-0.1,0.1-0.1,0.1-0.3c-0.4,0.1-0.6,0.5-1,0.6
					c-0.1-0.1-0.1-0.1,0-0.2c0.2-0.2,0.4-0.5,0.8-0.6c0.1,0,0.2-0.1,0.3-0.1c0.3-0.2,0.7-0.4,1.1-0.5c-0.1,0.3-0.5,0.3-0.6,0.6
					c-0.1,0.3-0.3,0.5-0.4,0.7c-0.4,0.7-0.9,1.3-1.3,2C223.8,178.8,223.8,178.8,223.7,178.8C223.7,178.9,223.7,178.9,223.7,178.8"/>
				<path d="M264.1,205.2c0.1,0,0.3,0,0.4,0c0.6,0.1,1.3,0,1.9-0.2c0.2-0.1,0.4-0.1,0.7-0.1c-0.2,0.1-0.4,0.3-0.6,0.4
					c0.7,0,1.2-0.4,1.9-0.6c-0.1,0.3-0.4,0.5-0.6,0.5c-0.5,0.1-1,0.2-1.5,0.4c-0.3,0.1-0.6,0.1-0.9,0.1c0.1-0.1,0.2-0.1,0.4-0.2
					c-0.4,0-0.8-0.1-1.3-0.1c-0.1,0-0.2-0.1-0.3-0.1C264.1,205.2,264.1,205.2,264.1,205.2"/>
				<path d="M200.5,199.7c1-0.6,1.6-1.6,2.3-2.5C203,198.1,201.5,199.7,200.5,199.7"/>
				<path d="M209.6,178c0.1-0.3,0.3-0.5,0.6-0.7c0.6-0.3,1.2-0.6,1.8-0.9c0.2-0.1,0.4-0.1,0.6-0.2c0.2-0.1,0.5,0,0.6,0.2
					c-0.6,0.2-1.2,0.5-1.9,0.7C210.7,177.3,210.1,177.5,209.6,178"/>
				<path d="M221.7,184.1c-0.5,0.9-1.2,1.6-1.6,2.5c-0.2,0.4-0.4,0.9-0.6,1.3c-0.1,0.3-0.1,0.3-0.4,0.4
					C219.3,187.3,220.8,184.9,221.7,184.1"/>
				<path d="M244.7,181c-0.1-0.1-0.1-0.2-0.2-0.3c-0.2-0.1-0.3-0.3-0.4-0.4c-0.1-0.2-0.3-0.3-0.5-0.5c-0.1-0.1-0.2-0.2-0.3-0.4
					c0.5,0.1,2,1,2.2,1.3h-0.6c0.3,0.3,0.5,0.5,0.8,0.8c-0.3,0-0.4-0.2-0.6-0.3C244.9,181.1,244.8,181.1,244.7,181L244.7,181"/>
				<path d="M208.9,180.3c0.1-0.4,0.4-0.7,0.6-1c0.5-0.5,1.1-0.8,1.7-1.2c0.3-0.2,0.6-0.1,0.9-0.1c-0.9,0.4-1.7,1.1-2.5,1.6
					c-0.2,0.1-0.3,0.3-0.4,0.4C209.1,180.1,209.1,180.3,208.9,180.3"/>
				<path d="M255.1,196.5c0.1,0.2,0.1,0.4,0,0.6c0,0.1-0.1,0.1-0.1,0.2c0,0.4-0.2,0.8-0.4,1.1c-0.4,0.6-0.9,1.1-1.5,1.5
					c0-0.1,0.1-0.1,0.1-0.2c0.5-0.4,0.9-0.9,1-1.6C254.4,197.5,254.9,197.1,255.1,196.5"/>
				<path d="M215,142.8c0.1-0.1,0.1-0.2,0.2-0.3c0.5-0.5,1-0.9,1.6-1.4c0.1-0.1,0.2-0.1,0.4-0.2c-1.2,1.3-2.4,2.5-3.6,3.7
					c-0.1-0.2,0-0.4,0.3-0.7c0,0,0.1,0,0.1,0c0.3-0.4,0.7-0.8,1-1.1C215,142.9,215,142.8,215,142.8"/>
				<path d="M203.7,184.4c0-0.3-0.1-0.7,0-1c0-0.5,0.6-1,1-1c0.2,0,0.3,0,0.6,0c-0.2,0.2-0.4,0.4-0.6,0.5c-0.2,0.2-0.4,0.4-0.5,0.7
					C204,183.9,203.9,184.1,203.7,184.4L203.7,184.4z"/>
				<path d="M223.8,144.1c0.1-0.2,0.2-0.3,0.3-0.5c0.3-0.3,0.6-0.5,1-0.7c0.3-0.2,0.7-0.4,1.1-0.6c0.6-0.2,1.1-0.3,1.7-0.2
					c-0.1,0-0.1,0.1-0.2,0.1c-0.2,0-0.4,0.1-0.6,0.1c-0.3,0.1-0.6,0.1-0.9,0.3C225.4,143.2,224.6,143.7,223.8,144.1
					C223.8,144.2,223.8,144.1,223.8,144.1"/>
				<path d="M258,196.8c0.1-0.5,0.3-0.9,0.4-1.3c0.1-0.4,0.3-0.7,0.4-1.1c0.1-0.3,0.2-0.5,0.4-0.7
					C259.3,194.5,258.7,196.1,258,196.8"/>
				<path d="M254.5,199.4c0-0.1,0.1-0.2,0.1-0.3c0.1-0.1,0.2-0.3,0.3-0.4c0.2-0.3,0.4-0.6,0.4-1c0-0.5,0.5-1.8,0.6-2
					c0,0.2-0.1,0.9-0.1,1.1c-0.1,0.4-0.2,0.8-0.3,1.2C255.4,198.5,255,199,254.5,199.4C254.5,199.4,254.5,199.4,254.5,199.4"/>
				<path d="M243.7,206c0-0.1,0-0.1,0-0.2c0.3-0.5,0.3-1.1,0.5-1.5c0,0,0.1,0,0.1-0.1v0.6c0,0,0.1,0,0.1,0c0.1-0.2,0.3-0.5,0.4-0.7
					c0.1-0.2,0.2-0.5,0.3-0.8c0,0.2,0,0.4-0.1,0.7c0,0.2-0.2,0.4,0,0.6c0,0,0,0.1-0.1,0.2c-0.1,0.1-0.2,0.3-0.3,0.4
					c-0.1,0.1-0.3,0.2-0.5,0.3C244,205.6,243.9,205.8,243.7,206C243.8,206,243.8,206,243.7,206"/>
				<path d="M205.7,208.5c0.1,0.1,0.2,0.1,0.3,0.1c0.3,0.3,0.6,0.6,0.8,0.9c0.2,0.2,0.3,0.4,0.5,0.7c0.1,0.2,0.2,0.3,0,0.5
					c0,0.1,0,0.2,0,0.3c-0.2-0.2-0.3-0.5-0.5-0.7c-0.3-0.3-0.5-0.7-0.8-1C206,209.1,205.9,208.8,205.7,208.5"/>
				<path d="M204.6,196.7c0.7-1,1-2.1,1.3-3.2c0,0.4,0,1.2-0.1,1.7c-0.1,0.3-0.2,0.6-0.3,0.8C205.3,196.3,205.1,196.6,204.6,196.7"
					/>
				<path d="M195.1,208.7c-0.2,0.1-0.3,0.3-0.5,0.4c-0.4,0.2-0.7,0.5-1.1,0.6c-0.4,0.2-0.8,0.3-1.2,0.4c-0.2,0.1-0.4,0-0.6-0.2
					c0.3,0,0.6,0,0.9-0.1c0.3-0.1,0.6-0.3,0.9-0.5c0.3-0.2,0.6-0.4,1-0.6C194.6,208.7,194.8,208.6,195.1,208.7"/>
				<path d="M243.7,164.9c0.1-0.9,0.2-1.8,0.3-2.8C244.5,162.7,244.3,164.3,243.7,164.9"/>
				<path d="M226.6,180.5c-1.1,0.6-2,1.3-2.8,2.3c0-0.3,0-0.4,0.2-0.5c0.5-0.5,1-1.1,1.5-1.5c0.1-0.1,0.2-0.2,0.4-0.2
					C226.2,180.6,226.4,180.5,226.6,180.5C226.6,180.5,226.6,180.5,226.6,180.5"/>
				<path d="M242.4,187.6c0.3,0.1,0.6,0.2,0.9,0.4c0.4,0.3,0.7,0.6,1,1.1c0,0.1,0,0.2,0,0.4c-0.2-0.1-0.3-0.2-0.4-0.3
					c-0.3-0.3-0.5-0.6-0.8-0.9C242.8,188.1,242.6,187.9,242.4,187.6"/>
				<path d="M257.6,208.8c0.1,0.4,0.2,0.7,0.1,1.1c-0.2,0.6-0.3,1.2-0.5,1.8c0,0-0.1,0-0.1,0c0-0.2,0-0.3,0-0.5
					c0.1-0.7,0.3-1.5,0.4-2.2C257.6,208.9,257.6,208.9,257.6,208.8"/>
				<path d="M258.9,195.8c0.5-1.1,0.8-2.3,0.9-3.5c0,0.1,0,0.3,0,0.4c0,0.4-0.1,0.8,0,1.2c0.1,0.5-0.1,0.9-0.4,1.3
					C259.3,195.5,259.1,195.7,258.9,195.8C259,195.9,258.9,195.9,258.9,195.8"/>
				<path d="M266.5,206c0.2,0,0.2-0.1,0.3-0.1c0.3,0,0.6-0.1,0.9-0.3c0.4-0.3,0.8-0.6,1.2-0.9c0.1-0.1,0.3-0.2,0.5-0.3
					C269,205.5,267.4,206.3,266.5,206"/>
				<path d="M206.5,195.7c0.4-0.3,0.5-0.6,0.7-0.9c0.1-0.1,0.1-0.2,0.1-0.3c0-0.3,0-0.6-0.1-0.9c0-0.1,0-0.2,0-0.3
					c0.4,0.5,0.6,1.2,0.3,1.5c-0.2,0.3-0.6,0.6-0.8,0.9C206.7,195.8,206.7,195.8,206.5,195.7"/>
				<path d="M212.4,205.5c-0.2-0.2-0.3-0.4-0.5-0.6c-0.1-0.1-0.2-0.1-0.3-0.2c-0.1-0.1-0.3-0.2-0.4-0.4c-0.4-0.4-0.7-0.7-1.1-1.1
					c0,0-0.1-0.1-0.1-0.1c0.2,0,0.7,0.3,0.9,0.5c0.4,0.4,0.8,0.9,1.2,1.4C212.3,205,212.3,205.3,212.4,205.5
					C212.4,205.4,212.4,205.5,212.4,205.5"/>
				<path d="M206.9,193.4c0.1,0.8-0.1,1.5-0.5,2.2H206C206.3,194.8,206.6,194.1,206.9,193.4"/>
				<path d="M197.2,197.7c0.5,0.2,0.9,0.5,1.4,0.5c0.5,0,1-0.1,1.5-0.2c-0.2,0.3-0.8,0.5-1.3,0.5
					C198.2,198.5,197.6,198.3,197.2,197.7"/>
				<path d="M222.4,184.1c-0.5,1.1-1.2,2.2-2.1,3.1c0.2-0.4,0.4-0.7,0.7-1c0.1-0.1,0.1-0.2,0.1-0.2c0-0.2,0.1-0.4,0.2-0.6
					C221.7,184.9,222,184.4,222.4,184.1"/>
				<path d="M205.2,194.4c0,0.2,0,0.4-0.1,0.6c0,0.2-0.1,0.4-0.2,0.7c-0.1,0.3-0.2,0.6-0.5,0.8c-0.1,0.1-0.2,0.2-0.3,0.4
					c-0.1-0.3-0.1-0.5,0.1-0.7c0.4-0.4,0.5-1,0.7-1.5C205,194.6,205.1,194.5,205.2,194.4C205.1,194.4,205.2,194.4,205.2,194.4"/>
				<path d="M249,187.4c0,0-0.1,0-0.1,0c-0.2,0.4-0.3,0.7-0.5,1.1c0,0,0,0-0.1,0c0-0.1,0-0.3,0.1-0.4c0.2-0.4,0.3-0.8,0.4-1.2
					c0.1-0.3,0.2-0.6,0.2-1c0-0.1,0.1-0.2,0.2-0.1c0.1,0,0.1,0.2,0.1,0.2c-0.2,0.2-0.1,0.4-0.1,0.7
					C249.2,186.8,249.2,187.1,249,187.4"/>
				<path d="M219.9,141.3c1.1-0.9,2.3-1.5,3.7-1.7C222.3,140,221.1,140.7,219.9,141.3"/>
				<path d="M198.4,198.8c0.3,0.1,0.6,0.1,0.9,0.2c0.3,0.1,0.6,0,0.9-0.2c0.3-0.2,0.7-0.5,1-0.7c0.2-0.1,0.3-0.1,0.5,0
					c-0.1,0.1-0.1,0.2-0.2,0.2c-0.4,0.2-0.7,0.4-1.1,0.6c-0.4,0.2-0.9,0.3-1.3,0.1C198.8,199,198.6,198.9,198.4,198.8
					C198.4,198.8,198.4,198.8,198.4,198.8"/>
				<path d="M212.3,177.4c-0.2,0.1-0.5,0.2-0.7,0.3c-0.4,0.2-0.7,0.4-1.1,0.5c-0.5,0.2-0.9,0.5-1.2,0.9c-0.2,0.2-0.3,0.3-0.5,0.6
					c0-0.2,0.1-0.4,0.3-0.5c0.3-0.3,0.6-0.6,1-0.9c0.1-0.1,0.1-0.1,0.2-0.1c0.2-0.1,0.4-0.2,0.6-0.3
					C211.2,177.6,211.7,177.3,212.3,177.4"/>
				<path d="M251.2,200.2c1-0.4,1.8-1,2.8-1.6C253.6,199.2,251.8,200.3,251.2,200.2"/>
				<path d="M204.1,184.6c0.2-0.5,0.4-1.1,1-1.4c-0.2,0.6-0.4,1.1-0.5,1.6C204.2,185,204.2,184.8,204.1,184.6"/>
				<path d="M228.1,142.6c-0.7,0.1-1.3,0.5-1.9,0.9c-0.3,0.2-0.6,0.3-0.8,0.5C226.1,143,227.2,142.4,228.1,142.6"/>
				<path d="M242.5,178.3c0.6,0.2,1.2,0.3,1.6,0.8C243.6,179.3,242.7,178.9,242.5,178.3"/>
				<path d="M250.6,199.2c0.6-0.2,1.2-0.1,1.7-0.1c-0.2,0.4-0.4,0.5-0.7,0.5C251.3,199.5,250.9,199.5,250.6,199.2"/>
				<path d="M244.2,188c-0.4,0-0.7-0.4-1-0.5c-0.4-0.1-0.7-0.3-1.1-0.5c0.2,0,0.4,0.1,0.6,0c0.5,0,1,0.2,1.3,0.6
					C244.1,187.7,244.2,187.8,244.2,188C244.2,187.9,244.2,188,244.2,188"/>
				<path d="M263.6,204.7c0.6-0.1,1.2-0.2,1.8,0.1c0,0.2-0.2,0.2-0.3,0.3C264.6,205.1,264.1,205,263.6,204.7"/>
				<path d="M232,141.7c0.2,0.1,0.3,0.3,0.4,0.4l0,0c-0.1,0-0.1-0.1-0.2-0.1c-0.3-0.2-0.5-0.3-0.8-0.4c-0.3,0-0.5-0.2-0.8-0.3
					c0.2,0,0.4-0.1,0.7-0.1c0.1,0,0.2,0,0.3,0.1c0.3,0.1,0.5,0.3,0.8,0.4C232.2,141.7,232.1,141.7,232,141.7"/>
				<path d="M224.9,146.8c0-0.7,1.2-1.8,1.9-1.7C226.1,145.6,225.5,146.1,224.9,146.8"/>
				<path d="M257.6,211.6c0,0,0,0.1,0.1,0.2c0-0.3,0.1-0.6,0.1-0.8c0,0,0.1,0,0.1,0c0.1,0.8-0.2,1.5-0.2,2.3
					C257.2,212.6,257.5,212.1,257.6,211.6"/>
				<path d="M205.8,160.7c-0.1-0.3-0.1-0.5-0.1-0.7c0.2-0.6,0.5-1.2,0.9-1.6c0.1-0.1,0.2-0.1,0.3-0.2c-0.2,0.4-0.5,0.7-0.7,1.1
					C206,159.8,205.9,160.2,205.8,160.7"/>
				<path d="M225.9,142.1c0,0,0,0.1,0,0.1c-0.1,0.1-0.1,0.1-0.2,0.1c-0.7,0.2-1.3,0.7-1.9,1.1c-0.2,0.2-0.4,0.3-0.7,0.5
					c0.6-0.7,1.3-1.2,2.1-1.7C225.5,142.3,225.8,142.3,225.9,142.1L225.9,142.1z"/>
				<path d="M213.3,143.6c0.4-0.8,0.9-1.4,1.8-1.6C214.5,142.6,213.9,143.1,213.3,143.6"/>
				<path d="M216.6,187.8c0,0.1-0.1,0.1-0.1,0.2c-0.5,0.3-0.9,0.3-1.5,0.3c0.6-0.3,1.1-0.5,1.7-0.8c0,0,0,0.1,0,0.1
					c-0.3,0.2-0.6,0.3-0.9,0.5C216.1,188,216.3,187.8,216.6,187.8"/>
				<path d="M225.7,177c-0.4,0.7-0.9,1.3-1.5,1.8C224.3,178.5,225.2,177.4,225.7,177"/>
				<path d="M251.7,185.4c-0.1-0.1-0.2-0.2-0.2-0.3c-0.1-0.4-0.1-0.8-0.2-1.3C251.8,184.3,251.8,184.8,251.7,185.4"/>
				<path d="M218.3,141.5c0.8-0.6,1.6-1,2.5-1.2c-0.7,0.3-1.4,0.6-2.1,1.1C218.6,141.4,218.5,141.5,218.3,141.5L218.3,141.5z"/>
				<path d="M245.2,162.2c-0.1-0.8-0.3-1.5-1-2C244.9,160.3,245.5,161.4,245.2,162.2"/>
				<path d="M218.3,188.5c0.1-0.4,1-1.8,1.6-2.4C219.4,186.9,218.9,187.7,218.3,188.5"/>
				<path d="M244.8,163.5c0-0.7,0.1-1.4-0.1-2.2C245.1,162.1,245,162.8,244.8,163.5"/>
				<path d="M212.1,175.6c-0.4,0.2-0.9,0.4-1.3,0.6c0.1-0.3,0.3-0.5,0.6-0.6C211.5,175.5,211.8,175.4,212.1,175.6"/>
				<path d="M224.3,179.5c0.5-0.5,0.9-1.2,1.6-1.5c0,0,0,0,0.1,0.1C225.4,178.6,224.9,179.1,224.3,179.5
					C224.3,179.5,224.3,179.5,224.3,179.5"/>
				<path d="M223.9,181.5c0.2-0.6,0.5-1.3,1.2-1.6C224.7,180.4,224.3,181,223.9,181.5"/>
				<path d="M249.8,198.3c0.3-0.2,1.1,0,1.5,0.2C250.9,198.6,250.1,198.5,249.8,198.3"/>
				<path d="M225.4,145.1c0.4-0.4,0.8-0.7,1.2-1c0.1,0.1,0.1,0.2,0,0.3C226.2,144.7,225.8,145,225.4,145.1
					C225.4,145.2,225.4,145.2,225.4,145.1"/>
				<path d="M209.4,164.2c-0.2-0.6,0-1.1,0.2-1.6C209.6,163.2,209.5,163.7,209.4,164.2C209.4,164.2,209.4,164.2,209.4,164.2"/>
				<path d="M197.8,197.2c-0.7,0.1-1.3-0.4-1.2-0.9c0,0.1,0.1,0.1,0.1,0.2c0.1,0.3,0.3,0.5,0.7,0.6C197.6,197,197.7,197,197.8,197.2
					"/>
				<path d="M245,160.3c-0.5-0.4-0.9-0.8-1-1.4C244.3,159.3,244.6,159.8,245,160.3"/>
				<path d="M205.4,158.7c-0.3,0.4-0.3,1-0.3,1.5C204.8,159.7,205,159.1,205.4,158.7"/>
				<path d="M226.7,146.3c-0.3,0.3-0.5,0.5-0.7,0.7C226.1,146.5,226.4,146.2,226.7,146.3"/>
				<path d="M219.2,186.2c-0.2,0.2-0.3,0.4-0.5,0.7C218.7,186.5,218.9,186.3,219.2,186.2"/>
				<path d="M214.6,143.1c-0.1,0.2-0.3,0.3-0.4,0.5C214.3,143.4,214.5,143.3,214.6,143.1"/>
				<path d="M225.9,185.2c-0.1,0-0.2,0.1-0.4,0.1C225.7,185.1,225.8,185.1,225.9,185.2C225.9,185.2,225.9,185.2,225.9,185.2"/>
				<path d="M214.2,143.6c-0.1,0.1-0.2,0.2-0.2,0.4C214,143.8,214.1,143.7,214.2,143.6"/>
				<path d="M226.2,164.2c0.2,1.4-0.1,2.7-0.6,4c-0.2-0.3-0.1-0.6-0.1-0.9c0-0.4,0-0.7,0-1.1c0-0.5,0-0.9,0.1-1.3
					c0.1-0.4-0.1-0.5-0.4-0.6c-0.6-0.1-1.2-0.1-1.8-0.2c-0.2,0-0.4-0.1-0.6-0.1c-0.3-0.1-0.6-0.2-1-0.3c-0.8-0.2-1.5-0.6-2-1.2
					c-0.7-0.7-1-1.6-1-2.6c0-0.4,0.2-0.8,0.5-1.2c0.3-0.3,0.6-0.5,0.9-0.7c0.3-0.2,0.6-0.3,0.9-0.4c0.9-0.3,1.8-0.6,2.8-0.8
					c1-0.2,2-0.2,2.9-0.1c0.8,0,1.7,0.1,2.5,0.4c0.9,0.3,1.8,0.7,2.3,1.6c0.1,0.2,0.2,0.3,0.3,0.5c0.3,0.6,0.2,1.1,0,1.7
					c-0.1,0.2-0.2,0.4-0.2,0.7c-0.2,0.4-0.5,0.6-0.8,0.9c-0.2,0.2-0.4,0.3-0.6,0.5c0,0,0,0-0.1,0c-0.5,0.2-1,0.6-1.6,0.7
					c-0.2,0-0.3,0.1-0.5,0.2c-0.7,0.3-1.4,0.4-2.1,0.5C226.4,164.1,226.3,164.1,226.2,164.2 M228.7,158.3
					C228.7,158.3,228.7,158.3,228.7,158.3c-0.1-0.1-0.2-0.1-0.3-0.1c-0.5-0.1-1-0.2-1.4-0.3c-0.2,0-0.4-0.1-0.5-0.1
					c-1.1-0.1-2.2,0-3.2,0.1c-0.4,0-0.7,0.2-1.1,0.2c-0.7,0.1-1.2,0.5-1.6,1c-0.2,0.3-0.3,0.6-0.3,0.9c0.5-0.6,1.1-0.8,1.7-1
					c0.9-0.2,1.7-0.4,2.6-0.5c0.8-0.1,1.6-0.2,2.5-0.3C227.6,158.3,228.1,158.3,228.7,158.3 M224.1,163.2
					C224.1,163.2,224.1,163.2,224.1,163.2c0.4,0.1,0.8,0.1,1.1,0.1c0.7-0.1,1.5-0.2,2.2-0.3c0.4-0.1,0.8-0.2,1.2-0.3
					c0.4-0.1,0.8-0.3,1.2-0.5c0.1-0.1,0.2-0.2,0.4-0.2c0,0,0-0.1,0-0.1c-0.1,0-0.1,0.1-0.2,0.1c-0.2,0.1-0.4,0.1-0.7,0.2
					c-0.2,0.1-0.4,0.1-0.6,0.2c-0.1,0-0.2,0.1-0.3,0.1c-0.7,0.2-1.3,0.4-2,0.5c-0.5,0.1-1,0.2-1.5,0.2
					C224.7,163.2,224.4,163.2,224.1,163.2"/>
				<path d="M233.5,151.3c0-0.1,0-0.1-0.1-0.2c-0.1-0.2-0.2-0.6-0.4-0.7c-0.4-0.3-0.9-0.5-1.4-0.4c-0.6,0.1-1,0.5-1.4,0.9
					c-0.6,0.6-0.5,1.4-0.4,2.2c0.1,0.5,0.4,1,0.8,1.4c0.4,0.3,1.5,0.4,1.9,0.2c0,0,0,0,0,0c0.4-0.2,0.7-0.5,0.9-1
					c0-0.1,0.1-0.2,0.2-0.3c0.1-0.2,0.2-0.4,0.2-0.7C233.8,152.2,233.6,151.7,233.5,151.3"/>
				<path class="st2" d="M230.9,152.2c0.3-0.2,0.5-0.3,0.7-0.4c0.2-0.1,0.4-0.2,0.6-0.3c0.1,0,0.2-0.1,0.2-0.1
					c0-0.1-0.1-0.2-0.1-0.3c-0.1-0.1-0.3-0.1-0.4-0.2C231.3,151.2,230.9,151.5,230.9,152.2"/>
				<path class="st3" d="M234.8,188.1c0.1-0.2,0.3-0.3,0.4-0.5c0.3-0.2,0.5-0.5,0.8-0.7c0.3-0.1,0.6-0.2,0.8-0.4
					c0.8-0.4,1.6-0.8,2.3-1.3c0.7-0.5,1.2-1.2,1.6-1.9c0.3-0.6,0.5-1.3,0.5-2c0-0.4,0.1-0.9,0-1.3c0-0.5-0.3-1.1-0.4-1.6
					c0-0.1-0.1-0.2-0.1-0.3c-0.3-0.3-0.5-0.7-0.8-1c-0.7-0.6-1.5-1-2.4-1c-0.6,0-1.1,0.1-1.6,0.4c-0.4,0.3-0.8,0.5-1.1,0.8
					c-0.4,0.3-0.6,0.3-1-0.1c-0.1-0.1-0.2-0.2-0.3-0.3c-0.2-0.2-0.5-0.3-0.7-0.5c-0.5-0.5-1.5-0.6-2.2-0.2c-0.5,0.3-0.9,0.6-1.3,0.9
					c-0.4,0.4-0.8,0.8-1,1.3c-0.2,0.3-0.2,0.7-0.3,1.1c-0.2,0.7-0.1,1.3-0.1,2c0,0,0,0,0,0c0.1,0.5,0.2,1,0.4,1.5
					c0.4,1,1,1.9,1.9,2.5c0.4,0.3,0.8,0.6,1.3,0.6c0.2,0,0.3,0.1,0.5,0.2c0.1,0,0.2,0.1,0.2,0.1c0.3,0.1,0.6,0.1,1,0.2
					c0.1,0,0.2,0.1,0.2,0.1C233.9,187.3,234.3,187.7,234.8,188.1"/>
				<g>
					<path d="M241.2,203c0,0.2-0.1,0.4-0.2,0.6c-0.1,0.2-0.3,0.4-0.4,0.6c-0.1,0.1-0.2,0.2-0.3,0.3c-0.1,0.1-0.2,0.2-0.3,0.3
						c-0.1,0.1-0.2,0.2-0.3,0.3c-0.3,0.3-0.6,0.6-1,0.9c-0.3,0.3-0.6,0.5-0.9,0.7c-0.3,0.2-0.5,0.3-0.8,0.5c0,0,0,0,0,0c0,0,0,0,0,0
						c0,0,0,0,0-0.1c0.1-0.1,0.2-0.2,0.4-0.3c0.1-0.1,0.2-0.2,0.3-0.3c0.1-0.1,0.2-0.2,0.3-0.3c0.2-0.2,0.4-0.4,0.7-0.6
						c0,0,0,0,0-0.1c0,0-0.1,0-0.1,0c-0.1,0.1-0.2,0.1-0.3,0.2c-0.1,0.1-0.3,0.2-0.5,0.3c-0.1,0.1-0.2,0.1-0.3,0.2
						c-0.1,0.1-0.2,0.2-0.4,0.2c-0.2,0.1-0.3,0.2-0.5,0.2c-0.2,0.1-0.3,0.2-0.5,0.2c-0.2,0.1-0.4,0.1-0.5,0.2
						c-0.6,0.3-1.2,0.5-1.9,0.7c-0.2,0-0.4,0.1-0.6,0.1c-0.1,0-0.3,0-0.4,0c0,0-0.1,0-0.1-0.1c0,0-0.1,0-0.1-0.1
						c0.1,0,0.2-0.1,0.3-0.1c0.3-0.1,0.6-0.2,0.9-0.2c0,0,0.1,0,0.1-0.1c0.1-0.1,0.3-0.2,0.5-0.2c0.3-0.1,0.6-0.2,0.9-0.4
						c0.2-0.1,0.3-0.1,0.5-0.2c0.2-0.1,0.3-0.1,0.5-0.2c0.2-0.1,0.4-0.2,0.6-0.3c0,0,0.1,0,0.1-0.1c0.2-0.1,0.3-0.2,0.5-0.3
						c0.1,0,0.1-0.1,0.2-0.1c0.2-0.1,0.3-0.2,0.5-0.3c0,0,0,0,0.1,0c0.1,0,0.1,0,0.2-0.1c0.2-0.1,0.3-0.2,0.5-0.4
						c0.2-0.1,0.3-0.3,0.5-0.4c0,0,0.1,0,0.1-0.1c0.1-0.2,0.3-0.3,0.5-0.4c0.1-0.1,0.2-0.2,0.3-0.3c0.3-0.2,0.5-0.4,0.7-0.6
						C241,203.1,241.1,203.1,241.2,203z"/>
					<path d="M220.2,205c0-0.1,0-0.1,0-0.1c0-0.2-0.1-0.4-0.1-0.7c0,0,0-0.1,0-0.1c0.1-0.1,0-0.2,0-0.3c-0.1-0.2-0.1-0.4-0.1-0.6
						c0,0,0,0,0-0.1c0-0.1,0-0.1,0-0.2c0,0,0,0,0,0c0,0.1,0.1,0.2,0.1,0.2c0.2,0.6,0.4,1.3,0.6,1.9c0.1,0.2,0.1,0.4,0.2,0.5
						c0,0,0,0.1,0,0.1c0,0,0,0.1,0,0.1c0.1,0.1,0.1,0.1,0.1,0.2c0,0.1,0.1,0.2,0.1,0.3c0,0,0,0.1,0,0.1c0,0-0.1,0-0.1-0.1
						c0-0.1-0.1-0.1-0.1-0.1c-0.1-0.1-0.2-0.1-0.3-0.2c-0.1,0-0.1-0.1-0.1-0.2c-0.1-0.2-0.2-0.4-0.3-0.5c-0.1-0.1-0.1-0.2-0.2-0.2
						c-0.1,0-0.1-0.1-0.2-0.1c-0.1-0.1-0.2-0.2-0.3-0.3c-0.1-0.1-0.2-0.1-0.3-0.2c-0.1-0.1-0.3-0.3-0.4-0.4
						c-0.1-0.1-0.2-0.2-0.3-0.2c-0.2-0.2-0.4-0.4-0.6-0.6c-0.2-0.2-0.3-0.4-0.4-0.6c0,0,0-0.1-0.1-0.1c-0.2-0.1-0.2-0.3-0.3-0.5
						c-0.1-0.3-0.2-0.6-0.4-0.9c0-0.1,0-0.1,0-0.2c0-0.1,0-0.2,0-0.3c0-0.2,0-0.4,0.1-0.6c0.1-0.2,0.1-0.3,0.1-0.5c0,0,0-0.1,0-0.1
						c0,0.1,0,0.2,0.1,0.2c0,0.2,0,0.4,0.1,0.6c0.1,0.4,0.1,0.7,0.2,1.1c0,0.1,0,0.1,0.1,0.2c0.1,0.3,0.3,0.6,0.4,0.8
						c0,0.1,0.1,0.1,0.1,0.2c0.2,0.2,0.3,0.4,0.5,0.7c0.1,0.2,0.3,0.3,0.4,0.5c0.1,0.1,0.3,0.2,0.4,0.4c0.1,0.1,0.1,0.2,0.2,0.2
						c0.1,0.1,0.2,0.2,0.3,0.3c0,0,0.1,0.1,0.1,0.1c0.1,0,0.1,0.1,0.2,0.1C220,204.9,220.1,204.9,220.2,205z"/>
					<path d="M231.3,206.9C231.3,206.9,231.3,206.9,231.3,206.9c0.2-0.1,0.3-0.1,0.5-0.2c0.2-0.1,0.4-0.1,0.6-0.2
						c0.4-0.1,0.8-0.2,1.2-0.3c0.3-0.1,0.5-0.2,0.8-0.2c0.1,0,0.2-0.1,0.3-0.1c0.2-0.1,0.4-0.2,0.6-0.3c0.1,0,0.1-0.1,0.2-0.1
						c0.3-0.1,0.6-0.2,0.8-0.3c0.1-0.1,0.3-0.1,0.5-0.2c-0.1,0.1-0.1,0.1-0.2,0.1c-0.2,0.1-0.4,0.2-0.6,0.3
						c-0.2,0.1-0.5,0.2-0.7,0.4c-0.3,0.1-0.6,0.3-0.9,0.4c-0.3,0.1-0.5,0.1-0.8,0.2c-0.4,0.1-0.8,0.2-1.2,0.3
						c-0.3,0.1-0.6,0.1-0.9,0.1c-0.1,0-0.2,0-0.4,0c-0.3,0-0.6,0.1-0.8,0.2c-0.1,0.1-0.3,0.1-0.4,0.2c-0.2,0.1-0.4,0.1-0.5,0.2
						c0,0-0.1,0-0.1,0c0,0,0,0,0,0c0,0,0-0.1,0.1-0.1c0.1,0,0.2-0.1,0.3-0.2c0,0,0,0,0.1,0c0.2-0.1,0.3-0.2,0.5-0.2
						c0.4-0.2,0.9-0.4,1.3-0.6c0.2-0.1,0.3-0.2,0.5-0.2c0.1,0,0.1-0.1,0.2-0.1c0.1-0.1,0.3-0.1,0.4-0.2c0,0,0.1,0,0.1-0.1
						c0,0,0,0,0,0c0.1,0.1,0.2,0.1,0.3,0.1c0.1-0.1,0.3-0.1,0.4-0.2c0.1-0.1,0.3-0.1,0.5-0.1c0,0,0,0,0,0.1c-0.1,0-0.1,0.1-0.2,0.1
						c-0.3,0.1-0.5,0.3-0.8,0.4c-0.1,0-0.1,0.1-0.2,0.1c-0.1,0.1-0.2,0.1-0.4,0.2c-0.1,0.1-0.2,0.1-0.3,0.2
						C231.7,206.7,231.5,206.7,231.3,206.9C231.3,206.8,231.3,206.9,231.3,206.9C231.3,206.9,231.2,206.9,231.3,206.9
						C231.2,206.9,231.3,206.9,231.3,206.9z"/>
					<path d="M223.2,204.5c0.1,0,0.1,0.1,0.2,0.1c0.1,0.1,0.2,0.1,0.2,0.2c0.2,0.1,0.4,0.2,0.5,0.3c0,0,0.1,0.1,0.1,0.1
						c0.1,0,0.2,0.1,0.3,0.2c0.1,0.2,0.2,0.3,0.4,0.4c0,0,0.1,0.1,0.1,0.1c0.1,0.1,0.2,0.1,0.3,0.2c0-0.1,0-0.2,0-0.3
						c-0.1-0.3-0.1-0.5-0.1-0.8c0,0,0-0.1,0-0.1c0-0.1,0-0.1,0.1-0.2c0.1-0.1,0.3-0.2,0.4-0.3c0,0,0.1,0,0.1-0.1
						c0.1,0,0.2-0.1,0.3-0.1c0,0.1,0,0.1,0,0.2c-0.1,0.2-0.2,0.5-0.3,0.8c0,0.1,0,0.1,0,0.2c0,0.1,0,0.2,0,0.3
						c0.1,0.2,0.1,0.5,0.2,0.7c0,0,0,0.1,0,0.1c0,0.1,0,0.1,0.1,0.2c0,0,0.1,0.1,0.1,0.1c0,0,0.1,0.1,0.2,0.1c0,0,0.1,0,0.1,0.1
						c0,0,0,0-0.1,0c-0.1,0-0.2,0-0.3-0.1c-0.1,0-0.2,0-0.3-0.1c-0.1-0.1-0.3-0.1-0.4-0.1c0,0,0,0,0,0c-0.3-0.2-0.6-0.4-0.8-0.7
						c-0.2-0.2-0.4-0.4-0.5-0.6c-0.2-0.2-0.4-0.5-0.6-0.7C223.4,204.7,223.3,204.6,223.2,204.5z"/>
					<path d="M215.2,197.3c0,0.1,0,0.2-0.1,0.4c-0.2,0.6-0.2,1.2-0.2,1.8c0,0.3,0.1,0.6,0.2,0.8c0,0.1,0.1,0.2,0.1,0.2
						c0.1,0.2,0.2,0.5,0.4,0.7c0,0.1,0.1,0.1,0.1,0.2c0,0,0,0,0,0.1c0.1,0.1,0.1,0.2,0.2,0.3c0,0,0,0,0,0c0,0.2,0.1,0.3,0.2,0.5
						c0,0,0,0.1,0,0.1c0,0,0,0.1,0,0.1c0,0,0,0,0,0.1c0,0.2,0,0.3,0,0.4c0,0,0,0,0,0c0,0,0-0.1-0.1-0.1c0-0.1-0.1-0.1-0.1-0.2
						c0,0,0-0.1-0.1-0.1c0-0.1-0.1-0.1-0.1-0.1c0,0-0.1,0-0.1-0.1c-0.1-0.1-0.1-0.2-0.2-0.3c0,0,0,0,0-0.1c-0.2-0.2-0.3-0.5-0.4-0.7
						c-0.1-0.3-0.2-0.6-0.3-0.9c0-0.1,0-0.2,0-0.3c0-0.2,0-0.4,0-0.6c0,0,0-0.1,0-0.1c0.1-0.2,0.1-0.3,0.1-0.5
						c0-0.3,0.1-0.6,0.2-0.8c0.1-0.2,0.1-0.4,0.2-0.6C215.1,197.5,215.1,197.4,215.2,197.3C215.1,197.3,215.1,197.3,215.2,197.3z"/>
					<path d="M228.8,205.9C228.9,205.8,228.9,205.8,228.8,205.9c0.1-0.1,0.2-0.2,0.2-0.3c0,0,0.1-0.1,0.1-0.1
						c0.2-0.1,0.4-0.2,0.6-0.3c0.1,0,0.2,0,0.2-0.1c0.1,0,0.3-0.1,0.4-0.1c0.2-0.1,0.3-0.1,0.5-0.1c0.1,0,0.2,0,0.3,0
						c0.2,0,0.4,0,0.6,0c0.1,0,0.3,0,0.3,0.2c0.1,0.1,0.1,0.1,0.2,0.2c0,0,0.1,0,0.1,0.1c0,0,0,0,0,0c-0.2,0-0.4,0.1-0.7,0.2
						c-0.1,0-0.2,0.1-0.3,0.1c-0.1,0-0.2,0.1-0.2,0.1c-0.3,0.2-0.7,0.4-1,0.6c-0.1,0.1-0.3,0.1-0.4,0.2c-0.1,0-0.2,0.1-0.4,0.1
						c0-0.1,0-0.1,0-0.1c0,0,0,0,0,0c0.2-0.1,0.3-0.2,0.4-0.3c0.1-0.1,0.2-0.2,0.3-0.2c0.2-0.1,0.3-0.2,0.5-0.3
						c0.2-0.1,0.4-0.2,0.6-0.3c0.1,0,0.2-0.1,0.2-0.1c0.1-0.1,0.2-0.1,0.4-0.1c0,0,0.1,0,0.1,0c-0.1,0-0.2,0-0.3,0
						c-0.2,0-0.4,0-0.6,0.1c-0.1,0-0.2,0-0.3,0.1c-0.2,0-0.3,0.1-0.5,0.1c-0.3,0.1-0.7,0.2-1,0.4C229.1,205.7,229,205.8,228.8,205.9
						C228.9,205.9,228.8,205.9,228.8,205.9z"/>
					<path d="M227.2,207.4c-0.1,0-0.1,0-0.1,0c0-0.1-0.1-0.1-0.2-0.2c0,0,0,0-0.1,0c-0.1,0-0.1-0.1-0.1-0.1
						c-0.2-0.2-0.3-0.5-0.4-0.8c0-0.1-0.1-0.3-0.1-0.4c0-0.2,0-0.4-0.1-0.6c0-0.3,0-0.6,0-0.9c0-0.2,0.2-0.4,0.3-0.5
						c0.1-0.1,0.2-0.2,0.4-0.3c0,0,0,0,0.1,0c0,0,0,0.1,0,0.1c0,0,0,0.1,0,0.1c0,0.2,0,0.3-0.1,0.4c0,0.1,0,0.1,0,0.2
						c0,0,0,0.1,0,0.1c-0.1,0.2-0.1,0.5-0.1,0.7c0,0,0,0.1,0,0.1c0,0.4,0.1,0.8,0.1,1.1c0,0.1,0.1,0.3,0.1,0.4
						C227,207.1,227,207.3,227.2,207.4z"/>
					<path d="M224.9,207.6c-0.1-0.1-0.2-0.1-0.3-0.2c-0.1-0.1-0.1-0.1-0.2-0.2c-0.1-0.1-0.1-0.1-0.2-0.2c-0.1-0.1-0.2-0.2-0.3-0.3
						c-0.1-0.1-0.1-0.1-0.2-0.2c-0.2-0.2-0.4-0.4-0.5-0.6c0-0.1-0.1-0.1-0.1-0.2c-0.1-0.1-0.1-0.1-0.1-0.2c-0.2-0.4-0.4-0.8-0.5-1.3
						c0-0.2-0.1-0.3-0.1-0.5c0,0,0-0.1,0-0.1c0-0.1,0-0.2,0-0.3c0-0.1,0-0.1,0-0.2c0,0,0.1,0,0.1,0c0.1,0.1,0.2,0.2,0.2,0.4
						c0,0.1,0.1,0.1,0.1,0.2c0.1,0.3,0.2,0.6,0.3,0.9c0,0.1,0.1,0.2,0.1,0.3c0.1,0.1,0.1,0.3,0.2,0.4c0,0.1,0.1,0.2,0.1,0.2
						c0.1,0.1,0.1,0.2,0.2,0.3c0,0.1,0.1,0.1,0.2,0.2c0.1,0.1,0.1,0.2,0.2,0.2c0.1,0.1,0.2,0.2,0.3,0.3c0.1,0.1,0.1,0.1,0.2,0.2
						c0.1,0.1,0.1,0.2,0.2,0.3c0,0,0,0,0,0.1C224.8,207.4,224.8,207.5,224.9,207.6z"/>
					<path d="M227.9,206.5c0-0.2,0.1-0.3,0.2-0.5c0.1-0.2,0.2-0.3,0.2-0.5c0,0,0-0.1,0-0.1c0-0.1,0-0.2,0-0.3c0-0.1,0-0.1,0.1-0.1
						c0,0,0.1-0.1,0.1-0.1c0.1-0.1,0.2-0.1,0.3-0.2c0.2-0.1,0.4-0.2,0.6-0.2c0.3,0,0.7,0,1-0.1c0.1,0,0.1,0,0.2,0
						c0,0-0.1,0.1-0.1,0.1c0,0,0,0.1,0,0.1c-0.4,0.1-0.7,0.3-1.1,0.5c-0.1,0.1-0.2,0.2-0.3,0.2c0,0-0.1,0.1-0.1,0.1
						c-0.1,0.1-0.2,0.2-0.3,0.3c-0.2,0.2-0.4,0.4-0.6,0.6C228.1,206.4,228,206.4,227.9,206.5z"/>
					<path d="M228.9,204.2C229,204.3,229,204.3,228.9,204.2c0,0.1,0,0.2,0,0.2c-0.3,0.2-0.5,0.5-0.7,0.7c-0.2,0.2-0.3,0.4-0.4,0.6
						c-0.1,0.1-0.1,0.2-0.1,0.3c0,0.1-0.1,0.2-0.1,0.3c0,0.1-0.1,0.3-0.1,0.4c0,0.1,0,0.1-0.1,0.2c0,0.1,0.1,0.3,0.1,0.4
						c-0.1,0-0.1,0-0.1-0.1c0-0.1-0.1-0.2-0.1-0.3c0-0.1,0-0.2,0-0.3c0-0.1,0-0.1,0-0.2c0-0.1,0.1-0.1,0.1-0.2
						c0.1-0.2,0.2-0.4,0.2-0.6c0-0.1,0-0.1,0-0.2c0-0.1,0.1-0.2,0.1-0.3c0,0,0-0.1,0-0.1c0.2-0.3,0.4-0.6,0.6-0.8
						c0.1-0.1,0.2-0.1,0.3-0.2c0.1-0.1,0.2-0.1,0.3-0.1c0.1,0,0.1,0,0.1,0c0.1-0.1,0.1-0.1,0.2-0.1c0.1,0,0.3-0.1,0.4-0.1
						c0,0,0.1,0,0.1,0c0,0,0,0.1,0,0.1c-0.1,0.1-0.3,0.2-0.4,0.3c-0.1,0-0.1,0-0.2,0.1C229.1,204.2,229,204.2,228.9,204.2z"/>
					<path d="M213.3,198.5c-0.1-0.1-0.1-0.2-0.1-0.3c0-0.1,0-0.2-0.1-0.2c0,0,0,0,0,0c0-0.1,0-0.2,0-0.3c0.1-0.2,0.1-0.4,0.2-0.7
						c0.1-0.2,0.2-0.3,0.3-0.5c0.1-0.1,0.2-0.2,0.4-0.3c0.1-0.1,0.3-0.1,0.4-0.2c0,0,0.1-0.1,0.1-0.1c0,0,0.1-0.1,0.2-0.1
						c0,0,0,0.1,0,0.1c-0.1,0.1-0.2,0.2-0.2,0.3c0,0-0.1,0.1-0.1,0.1c-0.1,0.3-0.3,0.6-0.6,0.9c-0.1,0.2-0.2,0.4-0.3,0.6
						C213.4,198,213.3,198.3,213.3,198.5z"/>
					<path d="M218.6,205c-0.2,0-0.4-0.2-0.5-0.3c-0.1-0.1-0.2-0.2-0.3-0.3c0,0,0,0,0,0c-0.2-0.2-0.4-0.4-0.6-0.7
						c-0.2-0.2-0.3-0.4-0.4-0.7c-0.1-0.2-0.2-0.4-0.2-0.5c0-0.1-0.1-0.2-0.1-0.2c-0.1-0.1-0.1-0.3-0.2-0.4c-0.1-0.1-0.1-0.2-0.1-0.3
						c-0.1-0.2-0.1-0.3-0.1-0.5c0,0,0-0.1,0-0.1c0-0.1,0-0.2,0.1-0.3c0,0.1,0.1,0.2,0.1,0.2c0,0.1,0,0.2,0,0.3
						c0,0.1,0.1,0.2,0.1,0.3c0,0,0,0.1,0.1,0.1c0.1,0.2,0.2,0.4,0.3,0.6c0.1,0.1,0.1,0.3,0.2,0.4c0.1,0.1,0.1,0.2,0.2,0.3
						c0,0,0,0,0.1,0.1c0.1,0.1,0.1,0.2,0.2,0.3c0.2,0.2,0.4,0.4,0.6,0.7C218.1,204.3,218.3,204.6,218.6,205z"/>
					<path d="M233.5,207.4c0.1-0.1,0.2-0.1,0.2-0.2c0.3-0.1,0.6-0.3,0.9-0.5c0,0,0.1-0.1,0.1-0.1c0.1-0.1,0.2-0.1,0.3-0.2
						c0.1-0.1,0.2-0.1,0.3-0.2c0.2-0.1,0.3-0.2,0.5-0.3c0.2-0.1,0.3-0.2,0.5-0.4c0,0,0,0,0.1-0.1c0.1-0.1,0.3-0.2,0.5-0.3
						c0.1-0.1,0.2-0.1,0.2-0.2c0,0,0.1-0.1,0.1-0.1c0.1-0.1,0.2-0.1,0.4-0.2c0,0,0.1,0,0.1-0.1c0,0,0,0.1,0,0.1
						c-0.2,0.2-0.4,0.4-0.6,0.6c-0.1,0.1-0.2,0.2-0.3,0.3c-0.2,0.2-0.3,0.3-0.5,0.4c-0.3,0.2-0.6,0.3-0.8,0.4
						c-0.2,0.1-0.5,0.3-0.7,0.4c0,0-0.1,0-0.1,0.1C234.1,207.2,233.8,207.3,233.5,207.4C233.5,207.4,233.5,207.4,233.5,207.4z"/>
					<path d="M241.4,205.9c-0.1,0.1-0.1,0.1-0.2,0.1c-0.1,0.1-0.2,0.1-0.3,0.2c-0.2,0.1-0.4,0.3-0.6,0.4c-0.3,0.1-0.6,0.3-0.9,0.4
						c-0.3,0.2-0.7,0.3-1.1,0.4c-0.3,0.1-0.6,0.1-0.9,0.2c-0.1,0-0.2,0-0.4,0.1c0.1-0.1,0.2-0.1,0.3-0.1c0.1,0,0.2-0.1,0.3-0.1
						c0.1-0.1,0.3-0.1,0.4-0.2c0.1,0,0.1,0,0.2-0.1c0.4-0.2,0.8-0.4,1.2-0.6c0.2-0.1,0.4-0.2,0.6-0.3c0.1,0,0.2,0,0.2-0.1
						c0.3-0.1,0.5-0.2,0.8-0.3c0,0,0.1,0,0.1-0.1C241.3,205.9,241.4,205.9,241.4,205.9z"/>
					<path d="M214.2,200.3c0,0-0.1-0.1-0.1-0.1c-0.1-0.2-0.2-0.4-0.2-0.6c0-0.1,0-0.3,0-0.4c0,0,0-0.1,0-0.1c0-0.1,0-0.1,0-0.2
						c0,0,0-0.1,0-0.1c0-0.1,0-0.2,0.1-0.4c0-0.1,0.1-0.2,0.1-0.4c0-0.1,0-0.1,0.1-0.2c0-0.1,0.1-0.2,0.1-0.3
						c0.1-0.2,0.2-0.3,0.3-0.5c0-0.1,0.1-0.3,0.3-0.3c0,0,0,0.1,0,0.1c0,0.1-0.1,0.2-0.1,0.3c0,0.1-0.1,0.2-0.1,0.3
						c-0.1,0.1-0.1,0.2-0.1,0.3c0,0.1-0.1,0.2-0.1,0.3c-0.1,0.1-0.1,0.3-0.1,0.4c0,0.2,0,0.3,0,0.5
						C214.2,199.4,214.2,199.8,214.2,200.3C214.2,200.3,214.2,200.3,214.2,200.3z"/>
					<path d="M221.6,203.5c0.1,0.3,0.2,0.5,0.3,0.7c0.1,0.2,0.2,0.5,0.4,0.7c0.1,0.1,0.2,0.3,0.2,0.5c0,0,0,0.1,0,0.1c0,0,0,0,0,0
						c-0.1-0.1-0.3-0.2-0.4-0.3c-0.1,0-0.1-0.1-0.2-0.2c-0.1-0.2-0.2-0.3-0.3-0.6c0-0.1,0-0.1,0-0.2c0-0.1,0-0.2,0-0.4
						C221.5,203.8,221.5,203.7,221.6,203.5C221.5,203.6,221.5,203.6,221.6,203.5z"/>
					<path d="M213.1,195c-0.1,0.1-0.1,0.2-0.2,0.3c-0.1,0.3-0.2,0.6-0.3,0.9c-0.1,0.2-0.1,0.5-0.1,0.7c0,0,0,0.1,0,0.1
						c0,0.1,0,0.2,0,0.4c0-0.1-0.1-0.2-0.1-0.3c0-0.1-0.1-0.2-0.1-0.3c0-0.2,0-0.3,0-0.5c0-0.1,0-0.3,0-0.4c0-0.1,0-0.2,0.1-0.3
						c0.1-0.1,0.1-0.2,0.2-0.3c0.1-0.1,0.2-0.2,0.2-0.2C212.9,195.1,212.9,195.1,213.1,195C213,195,213,195,213.1,195L213.1,195z"/>
					<path d="M242.8,205.1c0,0.1-0.1,0.1-0.1,0.1c-0.1,0.1-0.2,0.2-0.3,0.2c-0.2,0.2-0.4,0.4-0.6,0.6c-0.1,0.1-0.3,0.2-0.4,0.3
						c-0.3,0.2-0.6,0.4-0.9,0.6c0,0,0,0-0.1,0c0,0,0-0.1,0.1-0.1c0.1-0.1,0.2-0.2,0.3-0.3c0-0.1,0.1-0.1,0.2-0.1
						c0.2-0.1,0.4-0.3,0.6-0.5c0,0,0.1-0.1,0.1-0.1c0.1-0.1,0.2-0.2,0.3-0.3c0.1-0.1,0.3-0.3,0.4-0.4c0.1,0,0.1-0.1,0.1-0.1
						C242.6,205.2,242.7,205.1,242.8,205.1z"/>
				</g>
			</g>
			<path class="st2" d="M225.1,171.1c0.7,0,1.4-0.1,2-0.1c1.1-0.1,2.2-0.4,3.3-0.6c0.6-0.1,1.2-0.4,1.9-0.6c0.4-0.1,0.8-0.3,1.2-0.4
				c0.7-0.3,1.4-0.6,2.1-1c0.5-0.2,0.9-0.6,1.4-1c0.2-0.1,0.2-0.4,0.4-0.5c0.3-0.2,0.5-0.5,0.7-0.8c0.1-0.2,0.2-0.4,0.3-0.6
				c0.3-0.3,0.4-0.7,0.4-1.1c0-0.1,0-0.1,0-0.2c0.2-0.2,0.2-0.4,0.2-0.6c0-0.8,0-1.6-0.4-2.3c-0.2-0.4-0.3-0.8-0.6-1.1
				c-0.3-0.2-0.5-0.5-0.7-0.8c-0.7-0.7-1.3-1.3-2.2-1.7c-0.8-0.4-1.6-0.8-2.4-1.1c-0.9-0.4-1.9-0.8-2.9-1c-0.5-0.1-1.1-0.2-1.6-0.2
				c-0.6,0-1.1,0-1.7,0.1c-0.8,0.1-1.5,0.2-2.3,0.3c-0.4,0.1-0.8,0.1-1.3,0.2c-0.6,0.2-1.3,0.3-1.9,0.5c-0.3,0.1-0.7,0.2-1,0.3
				c-0.5,0.1-0.9,0.4-1.3,0.6c-0.5,0.3-1.1,0.5-1.6,0.9c-1.3,0.9-2.4,1.9-3.1,3.4c-0.3,0.6-0.5,1.1-0.6,1.7c0,0.5-0.2,0.9,0,1.4
				c0.1,0.5,0.3,1,0.4,1.5c0,0.1,0.1,0.2,0.2,0.3c0.1,0.1,0.1,0.1,0.2,0.2c0.5,0.7,1.1,1.4,1.9,2c0.6,0.4,1.2,0.8,2,1
				c0.2,0.1,0.4,0.1,0.5,0.3c0.1,0.1,0.3,0.1,0.4,0.1c0.2-0.1,0.4,0,0.5,0.1c0.1,0,0.1,0.1,0.2,0.1c0.3,0.1,0.6,0.2,0.9,0.2
				C222,171,223.5,171.2,225.1,171.1"/>
			<path class="st2" d="M205.1,218c0-0.5-0.2-1.3-0.5-1.7c0,0-0.1-0.1-0.1-0.1c-0.2,0-0.3-0.2-0.4-0.3c-0.1-0.2-0.2-0.4-0.3-0.6
				c-0.2-0.3-0.3-0.5-0.5-0.7c-0.2-0.3-0.5-0.6-0.8-0.9c-0.2-0.2-0.4-0.4-0.7-0.5c-0.8-0.4-1.7-0.8-2.5-1.2c-0.1,0-0.2-0.1-0.3-0.1
				c-0.8-0.2-1.7-0.5-2.5-0.7c-0.1,0-0.3,0-0.4,0.1c-0.5,0.3-1,0.6-1.4,0.9c-0.5,0.3-1,0.4-1.5,0.5c-0.2,0-0.5,0-0.7-0.1
				c-0.2-0.1-0.5-0.2-0.8-0.4c-0.4,0.7-1.1,1-1.7,1.4c0.4,0.3,0.7,0.5,1,0.8c0.6,0.5,1.2,0.9,2,1.1c0.1,0,0.2,0.1,0.3,0.2
				c0.3,0.2,0.5,0.5,0.9,0.4c0.4-0.1,0.8-0.1,1.2-0.2c0.2,0,0.3,0,0.4,0.2c0,0.1,0.1,0.2,0.2,0.2c0.5,0.2,1,0.5,1.5,0.7
				c0.6,0.2,1.2,0.3,1.7,0.5c0.4,0.1,0.7,0.2,1.1,0.3c0.6,0.1,1.3,0.2,2,0.3c0.5,0.1,1,0.1,1.5,0.1c0.3,0,0.6,0,0.9,0
				C204.7,218,204.9,218,205.1,218"/>
			<path class="st2" d="M265,207.8c-0.1,0.1-0.1,0.2-0.2,0.3c-0.4,0.8-0.8,1.5-1.3,2.1c-0.3,0.3-0.4,0.7-0.4,1.1
				c-0.1,0.8-0.2,1.5-0.4,2.2c0,0.1-0.1,0.1-0.1,0.2c-0.1,0.2-0.2,0.3-0.3,0.5c-0.2,0.7-0.3,1.4-0.6,2c0,0,0,0.1,0,0.1
				c0.2,0.1,0.1,0.2,0,0.3c-0.1,0.3-0.3,0.7-0.4,1c0,0.1-0.1,0.1-0.1,0.2c-0.2,0.3-0.5,0.6-0.6,1c0.2,0.2,0.5,0.1,0.7,0.1
				c0.4-0.1,0.9-0.1,1.3-0.3c0.7-0.2,1.3-0.6,1.9-0.9c0.1,0,0.1-0.1,0.1-0.1c0.3-0.3,0.7-0.6,1-1c0.6-0.6,1.2-1.2,1.5-2
				c0.2-0.5,0.4-0.9,0.6-1.4c0.2-0.4,0.5-0.8,0.7-1.3c0.1-0.1,0.2-0.3,0.3-0.3c0.2-0.1,0.5-0.1,0.7-0.2c0.6-0.2,1.1-0.5,1.5-0.9
				c0.1-0.1,0.2-0.2,0.1-0.3c-0.1-0.5,0-0.9,0.1-1.4c0.1-0.3,0.1-0.5,0.2-0.8c-0.1,0-0.2,0-0.2,0c-0.2,0.2-0.5,0.1-0.7,0
				c-0.4-0.2-0.9-0.4-1.1-0.8c-0.1,0-0.1,0.1-0.2,0.1c-0.2,0.2-0.4,0.4-0.6,0.5c-0.4,0.2-0.8,0.4-1.3,0.4
				C266.5,208.3,265.8,208.1,265,207.8"/>
		</g>
		<path d="M226.2,164.2c0.2,1.4-0.1,2.7-0.6,4c-0.2-0.3-0.1-0.6-0.1-0.9c0-0.4,0-0.7,0-1.1c0-0.5,0-0.9,0.1-1.3
			c0.1-0.4-0.1-0.5-0.4-0.6c-0.6-0.1-1.2-0.1-1.8-0.2c-0.2,0-0.4-0.1-0.6-0.1c-0.3-0.1-0.6-0.2-1-0.3c-0.8-0.2-1.5-0.6-2-1.2
			c-0.7-0.7-1-1.6-1-2.6c0-0.4,0.2-0.8,0.5-1.2c0.3-0.3,0.6-0.5,0.9-0.7c0.3-0.2,0.6-0.3,0.9-0.4c0.9-0.3,1.8-0.6,2.8-0.8
			c1-0.2,2-0.2,2.9-0.1c0.8,0,1.7,0.1,2.5,0.4c0.9,0.3,1.8,0.7,2.3,1.6c0.1,0.2,0.2,0.3,0.3,0.5c0.3,0.6,0.2,1.1,0,1.7
			c-0.1,0.2-0.2,0.4-0.2,0.7c-0.2,0.4-0.5,0.6-0.8,0.9c-0.2,0.2-0.4,0.3-0.6,0.5c0,0,0,0-0.1,0c-0.5,0.2-1,0.6-1.6,0.7
			c-0.2,0-0.3,0.1-0.5,0.2c-0.7,0.3-1.4,0.4-2.1,0.5C226.4,164.1,226.3,164.1,226.2,164.2 M228.7,158.3
			C228.7,158.3,228.7,158.3,228.7,158.3c-0.1-0.1-0.2-0.1-0.3-0.1c-0.5-0.1-1-0.2-1.4-0.3c-0.2,0-0.4-0.1-0.5-0.1
			c-1.1-0.1-2.2,0-3.2,0.1c-0.4,0-0.7,0.2-1.1,0.2c-0.7,0.1-1.2,0.5-1.6,1c-0.2,0.3-0.3,0.6-0.3,0.9c0.5-0.6,1.1-0.8,1.7-1
			c0.9-0.2,1.7-0.4,2.6-0.5c0.8-0.1,1.6-0.2,2.5-0.3C227.6,158.3,228.1,158.3,228.7,158.3 M224.1,163.2
			C224.1,163.2,224.1,163.2,224.1,163.2c0.4,0.1,0.8,0.1,1.1,0.1c0.7-0.1,1.5-0.2,2.2-0.3c0.4-0.1,0.8-0.2,1.2-0.3
			c0.4-0.1,0.8-0.3,1.2-0.5c0.1-0.1,0.2-0.2,0.4-0.2c0,0,0-0.1,0-0.1c-0.1,0-0.1,0.1-0.2,0.1c-0.2,0.1-0.4,0.1-0.7,0.2
			c-0.2,0.1-0.4,0.1-0.6,0.2c-0.1,0-0.2,0.1-0.3,0.1c-0.7,0.2-1.3,0.4-2,0.5c-0.5,0.1-1,0.2-1.5,0.2
			C224.7,163.2,224.4,163.2,224.1,163.2"/>
	</g>
	<path class="st2" d="M220.3,151.7c-0.1-0.1-0.1-0.2-0.2-0.2c-0.2,0-0.4,0-0.5,0.1c-0.1,0.1-0.3,0.3-0.4,0.4c-0.2,0.3-0.3,0.6-0.4,1
		C219.4,152.5,219.9,152.3,220.3,151.7"/>
</g>
</svg>
