<?xml version="1.0" encoding="utf-8"?>
<!-- Generator: Adobe Illustrator 25.2.1, SVG Export Plug-In . SVG Version: 6.00 Build 0)  -->
<svg version="1.1" id="Layer_1" xmlns="http://www.w3.org/2000/svg" xmlns:xlink="http://www.w3.org/1999/xlink" x="0px" y="0px"
	 viewBox="0 0 792 612" style="enable-background:new 0 0 792 612;" xml:space="preserve">
<style type="text/css">
	.st0{fill:#E7C18C;}
	.st1{fill:#FFFFFF;}
	.st2{fill:none;stroke:#000000;stroke-width:1.3;stroke-miterlimit:10;}
	.st3{fill:none;stroke:#FFFFFF;stroke-miterlimit:10;}
</style>
<g>
	<g>
		<path class="st0" d="M114.5,488c0.3-0.3,0.7-0.5,0.9-0.8c0.5-0.6,0.9-1.2,1.4-1.8c0.2-0.3,0.5-0.7,0.6-1c0.1-0.5-0.1-1-0.1-1.5
			c-0.1-1.1-0.6-2-1.2-2.9c-0.3-0.5-0.8-1-1.4-1.2c-0.4-0.1-0.5-0.3-0.6-0.7c-0.3-1.1-0.6-2.1-1.3-3c-0.7-0.9-1.4-1.9-2.2-2.7
			c-1-1-2.1-1.8-3.2-2.7c-0.9-0.7-1.8-1.4-2.7-2c-0.1-0.1-0.3-0.2-0.3-0.3c-0.2-0.5-0.5-0.8-0.9-1.1c-0.3-0.2-0.5-0.5-0.8-0.8
			c-0.7-0.6-1-1.4-1.9-1.8c-0.8-0.3-1.4-0.8-2.2-1.2c-0.8-0.4-1.7-0.7-2.5-1.1c-0.6-0.2-1.1-0.5-1.7-0.8c0-0.1,0.1-0.2,0.1-0.2
			c0.5-0.3,0.9-0.7,1.4-1c1.3-0.8,2.2-1.9,3.1-3c0.9-1,1.4-2.1,1-3.5c0-0.2,0-0.4,0-0.5c0-1.1,0.1-2.2,0.1-3.3c0-0.3-0.2-0.7-0.3-1
			c-0.1-0.2-0.2-0.3-0.2-0.5c-0.1-1-0.7-1.8-1.2-2.5c-0.9-1.2-1.9-2.3-2.8-3.4c0.2-0.1,0.4-0.2,0.6-0.3c-0.1,0.2-0.1,0.3-0.1,0.4
			c0.4,0.3,0.5-0.7,1-0.2c0.3-0.5,0.7-1,0.9-1.5c0.3-0.7,0.4-1.4,0.5-2.2c0.1-0.8,0.3-1.6,0.3-2.4c0-0.7,0-1.3-0.4-2
			c-0.4-0.6-0.5-1.4-0.8-2.1c-0.2-0.4-0.5-0.9-0.8-1.2c-1-0.9-2.3-1.1-3.5-1.3c-0.6-0.1-1.2-0.1-1.8,0.2c-1.1,0.6-2.3,0.8-3.1,1.8
			c-0.2-0.2-0.3-0.4-0.4-0.6c-0.2-0.3-0.4-0.6-0.6-0.8c-0.5-0.4-1.1-0.8-1.7-1.2c-0.4-0.3-0.7-0.5-1.2-0.3c-0.1,0.1-0.3,0.1-0.5,0
			c-1.1-0.1-2.2-0.2-3.3-0.3c-0.7,0-1.4-0.1-2.1-0.1c-1.1,0-2.2,0-3.3,0c-0.5,0-0.9,0.1-1.4,0.1c-0.3,0-0.7-0.3-0.9,0.2
			c0,0-0.1,0-0.2,0c-1.6-0.1-2.8,0.8-4.2,1.4c0,0-0.1,0.1-0.1,0.1c-0.3,0.2-0.6,0.5-0.9,0.6c-0.2,0.1-0.5,0.1-0.4,0.5
			c0,0.1-0.1,0.2-0.2,0.3c-0.3-0.4-0.6-0.7-0.9-1c-0.5-0.4-1-0.8-1.6-1.1c-0.3-0.2-0.4-0.4-0.9-0.4c-0.7,0-1.4-0.2-2.1-0.4
			c-0.5-0.1-1-0.1-1.5,0.3c0,0-0.1,0-0.1,0.1c-0.1-0.1-0.1-0.2-0.1-0.3c-0.3,0.3-0.6,0.6-1,0.9c-0.3,0.3-0.7,0.4-0.9,0.9
			c-0.2,0.6-0.7,1.2-1.1,1.7c0,0.1,0,0.1-0.1,0.2c0,0.2-0.1,0.4-0.1,0.6c0.1,0.3-0.6,0.4-0.2,0.9c0.2,0.3,0,1-0.3,1.3
			c-0.3,0.4-0.3,0.7-0.4,1.1c0,0,0.1,0,0.1,0.1c0.1-0.2,0.2-0.4,0.3-0.5c0,0,0.1,0,0.1,0c0.1,0.7,0.1,1.5,0.2,2.2
			c0.1-0.1,0.2-0.2,0.3-0.3c0.2,0.6,0.4,1.2,0.7,1.8c0.1,0.2,0.2,0.4,0.3,0.5c0.9,0.5,1.7,1.1,2.1,1.9c0.3,0,0.5,0,0.6,0.1
			c0.1,0.1,0.1,0.3,0.1,0.5c-0.3,0.9-0.7,1.6-1.5,2.1c-0.9,0.5-1.4,1.4-1.9,2.1c-0.3,0.3-0.4,0.7-0.7,1.2c0.2-0.1,0.3-0.1,0.5-0.2
			c-0.2,0.6-0.4,1.1-0.6,1.6c0,0.1-0.2,0.2-0.4,0.2c-0.2,0.1-0.3,0.5-0.2,0.6c0.1,0.2,0.3,0.4,0.4,0.6c0.1,0.3,0,0.7,0.3,1
			c0.1,0,0,0.2,0,0.3c0,0.5-0.3,1,0.1,1.6c0,0,0,0.2,0,0.2c-0.1,0.4,0,0.6,0.3,0.1c0.5,0.8,0.9,1.6,1.4,2.4c0.3,0.6,0.6,1.2,0.9,1.8
			c0.2,0.1,0.4,0.2,0.5,0.3c0.1,0.1,0.2,0.1,0.3,0.1c0.1,0,0.3,0,0.3,0c0.2,0.2,0.3,0.4,0.5,0.6c0.3,0.4,0.6,0.8,0.8,1
			c-0.1,0.2-0.2,0.4-0.1,0.5c0.1,0.3,0.4,0.5,0.7,0.1c0.3,0.2,0.5,0.5,0.8,0.7c0,0.1,0,0.1-0.1,0.1c-1,0.7-1.7,1.6-2.9,1.9
			c-0.1,0-0.2,0.1-0.3,0.1c-1.2,0.6-2.2,1.3-2.9,2.5c-0.1,0.2-0.3,0.4-0.4,0.6c-1.2,1.1-2.3,2.2-3.5,3.3c-0.4,0.4-0.3,0.6,0.2,0.8
			c-0.1,0.2-0.1,0.4-0.3,0.5c-0.7,0.9-1.1,1.9-1.5,2.9c-0.3,0.7-0.4,1.4-0.7,2.1c-0.6,1.4-1.1,2.8-2.4,3.7c-0.2,0.1-0.3,0.4-0.5,0.7
			c-0.1,0.1,0,0.3-0.1,0.3c-0.6,0.5-1.2,1-1.8,1.4c-0.4,0.3-0.8,0.6-1,1c-0.3,0.6-0.5,1.4-0.7,2.1c-0.1,0.4-0.1,0.8-0.2,1.2
			c-0.1,0.3,0,0.5,0.4,0.7c0.1,0,0.2,0.2,0.3,0.3c0.1,0.4,0.3,0.7,0.3,1.1c0.2,0.9,0.7,1.5,1.3,2.1c0.2,0.2,0.3,0.5,0.5,0.8
			c0.2,0.3,0.4,0.6,0.6,0.9c-0.1,0-0.2,0.1-0.3,0.3c-0.4,0.7-1.5,1-0.9,2.1c-0.8,0.3-1.5,0.5-2.3,0.2c-0.1-0.1-0.3,0-0.5,0
			c-0.4,0.1-0.7,0.1-1.1,0.2c-0.1,0-0.3,0.1-0.3,0.2c-0.5,1-1.1,1.9-1.1,3.1c0,0.4,0,0.9-0.3,1.3c0,0,0,0.1,0,0.1
			c0.2,0.5-0.2,0.6-0.5,0.7c-0.4,0.2-0.7,0.4-1,0.7c-0.5,0.5-0.9,1.1-1.4,1.6c-0.5,0.5-0.7,1-0.4,1.7c0.3,0.7,0.5,1.4,0.7,2.1
			c0.1,0.3,0.3,0.5,0.5,0.8c0.1,0.2,0.3,0.4,0.5,0.7c0.2,0.3,0.3,0.7,0.5,0.9c0.4,0.4,0.9,0.7,1.4,0.9c1.1,0.5,2.3,0.4,3.3,1.1
			c0,0,0.1,0,0.1,0c1.1,0.2,2.3,0.3,3.4,0.5c0.8,0.1,1.6,0.1,2.2,0.7c0.4,0.3,0.8,0.6,1.2,0.7c0.3,0.1,0.7,0.1,0.9,0.5
			c0,0.1,0.2,0.1,0.2,0.1c1.2,0.2,2.5,0.4,3.7,0.6c0.5,0.1,1,0.4,1.6,0.2c0.8-0.3,1.6-0.2,2.4-0.1c0.2,0,0.4,0,0.7-0.1
			c-0.1-0.2-0.1-0.3-0.2-0.4c0.2,0,0.3,0,0.4-0.1c0.7-0.5,1.4-1,2-1.5c1.3-1.1,1.7-2.8,2.7-4c0.4-0.5,0.9-0.7,1.4-0.8
			c0.2-0.1,0.4-0.1,0.5-0.2c0.8-0.4,1.6-0.9,2.6-0.8c0.2,0,0.5-0.1,0.7-0.2c0.2,0,0.5-0.1,0.6-0.1c0.9,0.2,1.8,0.5,2.6,0.7
			c0.2,0,0.3,0.2,0.5,0.3c0.4,0.1,0.8,0.1,1.1,0.1c1,0.1,2,0.1,3.1,0.1c0.5,0,1-0.2,1.4,0.2c0,0,0.2,0,0.3,0
			c0.9-0.1,1.7-0.2,2.6-0.2c0.5,0,0.9,0.1,1.4,0c1.3-0.1,2.6-0.1,3.9-0.2c1.6-0.2,3.2-0.4,4.8-0.6c0.4-0.1,0.9-0.1,1.3-0.2
			c1.3-0.1,2.5,0,3.8-0.1c1.2-0.1,2.3-0.1,3.5,0.1c0.4,0.1,0.9,0.2,1.3,0.3c0.5,0.1,1.1,0,1.6,0.1c0.5,0.1,1,0.3,1.5,0.5
			c0.5,0.2,1,0.4,1.6,0.6c1,0.2,1.7,0.7,2.1,1.7c0.3,0.7,0.6,1.3,1,1.9c0.2,0.3,0.5,0.4,0.7,0.7c0.4,0.6,0.8,1.3,1.2,1.9
			c0,0.1,0.1,0.2,0.2,0.2c0.7,0.3,1.2,1,2.1,1c0.4,0,0.7,0,1.1,0.1c1,0.1,2,0.3,3,0.5c0.7,0.1,1.5,0.1,2.1-0.4
			c-0.3,0-0.6,0.1-0.9,0.1c0.6-0.4,1.1-0.8,1.6-1.2c0.2-0.1,0.4-0.3,0.5-0.3c0.6-0.1,1-0.5,1.3-0.9c0.5-0.6,0.9-1.2,1.3-1.8
			c0.3-0.4,0.7-0.8,0.6-1.4c0-0.1,0.2-0.3,0.3-0.3c0.9-0.4,1.8-0.8,2.5-1.6c0-0.1,0.1-0.1,0.2-0.1c0.5-0.4,1-0.7,1.4-1.1
			c0.4-0.4,1.1-0.7,1.1-1.5c1-1.3,1.3-2.8,1.5-4.3c0.3-2.4,0.3-4.8-1-7c-0.5-0.9-1.2-1.4-2.2-1.4c-0.5,0-1.1,0.1-1.6,0.1
			c-0.6,0.1-1.1,0.2-1.5-0.4c-0.1-0.1-0.3-0.2-0.5-0.3c-0.9-0.2-1.8-0.5-2.6-0.7c-0.4-0.1-0.9-0.1-1.3,0c-1.1,0.2-1.9,0.8-2.7,1.5
			c-0.1,0.1-0.2,0.2-0.3,0.2C117.1,490.8,116.2,489,114.5,488z"/>
		<path d="M114.5,488c1.7,1,2.6,2.8,3.6,4.5c0.1-0.1,0.2-0.1,0.3-0.2c0.8-0.7,1.7-1.3,2.7-1.5c0.4-0.1,0.9-0.1,1.3,0
			c0.9,0.2,1.8,0.4,2.6,0.7c0.2,0,0.4,0.1,0.5,0.3c0.4,0.6,1,0.4,1.5,0.4c0.5-0.1,1.1-0.1,1.6-0.1c1,0,1.7,0.5,2.2,1.4
			c1.3,2.2,1.3,4.6,1,7c-0.2,1.5-0.5,3-1.5,4.3c0,0.8-0.7,1-1.1,1.5c-0.4,0.4-0.9,0.8-1.4,1.1c-0.1,0-0.1,0.1-0.2,0.1
			c-0.7,0.8-1.6,1.2-2.5,1.6c-0.1,0.1-0.3,0.2-0.3,0.3c0.1,0.6-0.4,1-0.6,1.4c-0.4,0.6-0.8,1.2-1.3,1.8c-0.3,0.4-0.7,0.8-1.3,0.9
			c-0.2,0-0.4,0.2-0.5,0.3c-0.5,0.4-1,0.8-1.6,1.2c0.3,0,0.6-0.1,0.9-0.1c-0.7,0.5-1.4,0.5-2.1,0.4c-1-0.1-2-0.3-3-0.5
			c-0.4,0-0.7-0.1-1.1-0.1c-0.9,0-1.4-0.8-2.1-1c-0.1,0-0.1-0.1-0.2-0.2c-0.4-0.6-0.8-1.3-1.2-1.9c-0.2-0.3-0.6-0.4-0.7-0.7
			c-0.4-0.6-0.7-1.2-1-1.9c-0.4-1-1.2-1.4-2.1-1.7c-0.5-0.1-1-0.4-1.6-0.6c-0.5-0.2-1-0.4-1.5-0.5c-0.5-0.1-1.1-0.1-1.6-0.1
			c-0.4-0.1-0.9-0.2-1.3-0.3c-1.2-0.2-2.3-0.2-3.5-0.1c-1.3,0.1-2.5,0.1-3.8,0.1c-0.4,0-0.9,0.1-1.3,0.2c-1.6,0.2-3.2,0.4-4.8,0.6
			c-1.3,0.1-2.6,0.2-3.9,0.2c-0.5,0-0.9-0.1-1.4,0c-0.9,0-1.7,0.1-2.6,0.2c-0.1,0-0.3,0.1-0.3,0c-0.4-0.5-0.9-0.2-1.4-0.2
			c-1-0.1-2-0.1-3.1-0.1c-0.4,0-0.8-0.1-1.1-0.1c-0.2,0-0.3-0.2-0.5-0.3c-0.9-0.3-1.8-0.5-2.6-0.7c-0.2,0-0.4,0-0.6,0.1
			c-0.2,0.1-0.5,0.2-0.7,0.2c-1-0.1-1.8,0.3-2.6,0.8c-0.2,0.1-0.3,0.1-0.5,0.2c-0.5,0.2-1,0.3-1.4,0.8c-1.1,1.2-1.5,2.9-2.7,4
			c-0.6,0.5-1.3,1-2,1.5c-0.1,0.1-0.3,0.1-0.4,0.1c0,0.1-0.3,0.5-0.5,0.5c-0.8-0.1-1.6-0.2-2.4,0.1c-0.6,0.2-1.1-0.1-1.6-0.2
			c-1.2-0.2-2.5-0.4-3.7-0.6c-0.1,0-0.2,0-0.2-0.1c-0.2-0.4-0.5-0.4-0.9-0.5c-0.5-0.2-0.9-0.4-1.2-0.7c-0.6-0.5-1.5-0.5-2.2-0.7
			c-1.1-0.2-2.3-0.4-3.4-0.5c0,0-0.1,0-0.1,0c-1-0.7-2.2-0.7-3.3-1.1c-0.5-0.2-1-0.5-1.4-0.9c-0.2-0.2-0.3-0.6-0.5-0.9
			c-0.1-0.2-0.3-0.4-0.5-0.7c-0.2-0.3-0.4-0.5-0.5-0.8c-0.3-0.7-0.5-1.4-0.7-2.1c-0.3-0.7-0.1-1.1,0.4-1.7c0.5-0.5,0.9-1.1,1.4-1.6
			c0.3-0.3,0.7-0.5,1-0.7c0.3-0.2,0.7-0.2,0.5-0.7c0,0,0-0.1,0-0.1c0.4-0.4,0.3-0.8,0.3-1.3c0-1.2,0.6-2.1,1.1-3.1
			c0.1-0.1,0.2-0.2,0.3-0.2c0.4-0.1,0.7-0.2,1.1-0.2c0.2,0,0.3-0.1,0.5,0c0.8,0.3,1.5,0.1,2.3-0.2c-0.5-1.1,0.5-1.4,0.9-2.1
			c0.1-0.1,0.3-0.2,0.3-0.3c-0.2-0.4-0.4-0.6-0.6-0.9c-0.2-0.3-0.3-0.6-0.5-0.8c-0.6-0.6-1.1-1.3-1.3-2.1c-0.1-0.4-0.2-0.7-0.3-1.1
			c0-0.1-0.2-0.3-0.3-0.3c-0.3-0.1-0.4-0.4-0.4-0.7c0.1-0.4,0.1-0.8,0.2-1.2c0.2-0.7,0.4-1.4,0.7-2.1c0.2-0.4,0.6-0.7,1-1
			c0.6-0.5,1.2-1,1.8-1.4c0.1-0.1,0.1-0.2,0.1-0.3c0.1-0.2,0.3-0.5,0.5-0.7c1.3-0.9,1.8-2.4,2.4-3.7c0.3-0.7,0.4-1.4,0.7-2.1
			c0.4-1,0.8-2,1.5-2.9c0.1-0.1,0.2-0.3,0.3-0.5c-0.5-0.2-0.6-0.4-0.2-0.8c1.2-1.1,2.3-2.2,3.5-3.3c0.2-0.2,0.3-0.4,0.4-0.6
			c0.6-1.2,1.7-2,2.9-2.5c0.1-0.1,0.2-0.1,0.3-0.1c1.2-0.3,2-1.2,2.9-1.9c0,0,0-0.1,0.1-0.1c-0.3-0.2-0.5-0.4-0.8-0.7
			c-0.3,0.3-0.6,0.2-0.7-0.1c0-0.1,0.1-0.3,0.1-0.5c-0.2-0.3-0.5-0.6-0.8-1c-0.2-0.2-0.3-0.4-0.5-0.6c-0.1-0.1-0.2,0-0.3,0
			c-0.1,0-0.2-0.1-0.3-0.1c-0.2-0.1-0.3-0.2-0.5-0.3c-0.3-0.6-0.6-1.2-0.9-1.8c-0.4-0.8-0.9-1.6-1.4-2.4c-0.2,0.6-0.2-0.2-0.3-0.3
			c-0.4-0.5,0-1-0.1-1.6c0-0.1,0-0.3,0-0.3c-0.3-0.3-0.2-0.6-0.3-1c0-0.2-0.2-0.4-0.4-0.6c-0.1-0.2,0-0.6,0.2-0.6
			c0.1-0.1,0.3-0.1,0.4-0.2c0.2-0.5,0.4-1,0.6-1.6c-0.2,0.1-0.3,0.1-0.5,0.2c0.3-0.5,0.4-0.9,0.7-1.2c0.6-0.8,1.1-1.6,1.9-2.1
			c0.8-0.5,1.2-1.2,1.5-2.1c0-0.1,0-0.4-0.1-0.5c-0.1-0.1-0.3-0.1-0.6-0.1c-0.4-0.8-1.2-1.4-2.1-1.9c-0.1-0.1-0.3-0.3-0.3-0.5
			c-0.2-0.6-0.4-1.2-0.7-1.8c-0.1,0.1-0.2,0.2-0.3,0.3c-0.1-0.7-0.1-1.5-0.2-2.2c0,0-0.1,0-0.1,0c-0.1,0.2-0.2,0.4-0.3,0.5
			c0,0-0.1,0-0.1-0.1c0.2-0.3,0.1-0.7,0.4-1.1c0.3-0.3,0.5-1,0.3-1.3c-0.3-0.5,0.3-0.6,0.2-0.9c0-0.2,0-0.4,0.1-0.6
			c0-0.1,0-0.1,0.1-0.2c0.4-0.6,0.9-1.1,1.1-1.7c0.2-0.5,0.6-0.6,0.9-0.9c0.3-0.3,0.6-0.6,1-0.9c0.1,0.1,0.1,0.2,0.1,0.3
			c0,0,0.1,0,0.1-0.1c0.5-0.3,0.9-0.4,1.5-0.3c0.7,0.2,1.4,0.4,2.1,0.4c0.4,0,0.6,0.3,0.9,0.4c0.5,0.3,1.1,0.7,1.6,1.1
			c0.3,0.3,0.6,0.7,0.9,1c0.1-0.1,0.2-0.2,0.2-0.3c-0.1-0.4,0.2-0.4,0.4-0.5c0.3-0.2,0.6-0.4,0.9-0.6c0,0,0.1-0.1,0.1-0.1
			c1.4-0.5,2.6-1.4,4.2-1.4c0.1,0,0.2,0,0.2,0c0.2-0.5,0.6-0.2,0.9-0.2c0.5,0,0.9-0.1,1.4-0.1c1.1,0,2.2,0,3.3,0
			c0.7,0,1.4,0,2.1,0.1c1.1,0.1,2.2,0.2,3.3,0.3c0.2,0,0.3,0,0.5,0c0.5-0.2,0.8,0,1.2,0.3c0.5,0.4,1.1,0.8,1.7,1.2
			c0.2,0.2,0.4,0.5,0.6,0.8c0.1,0.2,0.3,0.4,0.4,0.6c0.8-1.1,2.1-1.3,3.1-1.8c0.6-0.3,1.2-0.3,1.8-0.2c1.3,0.2,2.5,0.4,3.5,1.3
			c0.4,0.3,0.6,0.7,0.8,1.2c0.3,0.7,0.4,1.5,0.8,2.1c0.4,0.7,0.4,1.3,0.4,2c0,0.8-0.2,1.6-0.3,2.4c-0.1,0.7-0.3,1.5-0.5,2.2
			c-0.2,0.5-0.6,1-0.9,1.5c-0.5-0.5-0.6,0.5-1,0.2c0-0.1,0.1-0.2,0.1-0.4c-0.2,0.1-0.4,0.2-0.6,0.3c1,1.2,2,2.3,2.8,3.4
			c0.6,0.7,1.1,1.5,1.2,2.5c0,0.2,0.2,0.3,0.2,0.5c0.1,0.3,0.3,0.7,0.3,1c0,1.1-0.1,2.2-0.1,3.3c0,0.2,0,0.4,0,0.5
			c0.4,1.4-0.1,2.5-1,3.5c-0.9,1.1-1.9,2.2-3.1,3c-0.5,0.3-0.9,0.7-1.4,1c-0.1,0.1-0.1,0.2-0.1,0.2c0.6,0.3,1.2,0.5,1.7,0.8
			c0.8,0.4,1.7,0.7,2.5,1.1c0.7,0.4,1.4,0.9,2.2,1.2c0.9,0.3,1.3,1.2,1.9,1.8c0.3,0.2,0.5,0.5,0.8,0.8c0.4,0.3,0.7,0.7,0.9,1.1
			c0,0.1,0.2,0.2,0.3,0.3c0.9,0.7,1.8,1.3,2.7,2c1.1,0.9,2.2,1.7,3.2,2.7c0.8,0.8,1.5,1.8,2.2,2.7c0.7,0.9,1,1.9,1.3,3
			c0.1,0.4,0.2,0.6,0.6,0.7c0.6,0.2,1.1,0.7,1.4,1.2c0.6,0.9,1,1.8,1.2,2.9c0.1,0.5,0.2,1,0.1,1.5c-0.1,0.4-0.3,0.7-0.6,1
			c-0.4,0.6-0.9,1.3-1.4,1.8C115.2,487.5,114.8,487.7,114.5,488z M92.9,461.8c-0.1,0-0.2-0.2-0.3-0.2c-0.6,0-1.3,0-1.9,0.1
			c-0.7,0.1-1.3,0.3-2,0.6c-0.5,0.2-1.1,0.2-1.6,0.6c-0.2,0.2-0.5,0.4-0.8-0.1c0.3-0.2,0.6-0.3,0.9-0.4c0.9-0.4,1.9-0.8,2.8-1.4
			c1.1-0.6,2.2-1.3,3.4-1.7c0.4-0.2,0.8-0.3,1.2-0.6c1.2-0.7,2.1-1.7,2.8-2.9c0.4-0.6,0.7-1.3,1-1.9c0.2-0.4,0.3-0.9,0.4-1.4
			c0.1-0.4,0.2-0.7-0.1-1.1c0.4-0.4,0-0.9,0-1.3c0-0.1,0-0.2,0-0.5c0.1,0.2,0.2,0.3,0.3,0.4c0.2-1.1-0.1-2.1-0.3-3.1
			c0-0.1-0.1-0.2-0.2-0.3c-0.3-0.4-0.5-0.7-0.8-1.1c-0.3-0.4-0.6-0.9-1-1.3c-0.1-0.1-0.3-0.1-0.3-0.2c-0.1-0.7-0.6-1-1-1.5
			c-0.1-0.1-0.3-0.2-0.4-0.3c-0.3-0.1-0.6-0.2-0.9-0.3c-0.3-0.1-0.5-0.6-0.9-0.4c-0.1-0.2-0.1-0.4-0.2-0.5c-0.5-0.5-0.8-1.1-1-1.8
			c-0.1-0.3-0.1-0.7-0.2-1c-0.2-0.5-0.4-1-0.6-1.5c-0.1-0.3-0.2-0.5-0.6-0.6c0,0,0-0.1-0.1-0.1c0.1,0,0.2-0.1,0.4-0.1
			c-0.2-0.3-0.3-0.7-0.6-1c-0.4-0.5-0.8-1-1.2-1.4c0,0-0.1,0-0.1-0.1c-0.1-0.1-0.3-0.2-0.4-0.3c-0.5-0.8-1-1.6-1.5-2.3
			c-0.4-0.5-0.8-1-1.3-1.5c-0.4-0.5-1-0.4-1.5-0.5c-0.8-0.2-1.6-0.2-2.4-0.3c-0.5,0-1,0.1-1.5,0c-0.8-0.2-1.6,0.2-2.4,0
			c0,0-0.1,0-0.1,0c-0.8,0.5-1.7,0.6-2.5,0.4c0.3,0,0.6-0.1,1.1-0.2c-1-0.1-1.8-0.2-2.7-0.2c0,0.1,0,0.1,0,0.2
			c0.3,0.1,0.5,0.1,0.8,0.2c-0.2,0.1-0.3,0-0.4,0c-0.3,0-0.7-0.2-1-0.1c-0.5,0.2-1.1,0.3-1.6,0.5c-1.5,0.6-3.1,1-4.3,2.2
			c-0.4,0.5-0.9,0.9-1.4,1.3c-0.5,0.4-0.9,1-1.3,1.6c-0.3,0.4-0.6,0.8-0.9,1.2c-0.5,0.6-0.8,1.2-0.8,1.9c0,0.8,0,1.5-0.4,2.2
			c-0.3,0.6-0.6,1.3-0.9,1.9c-0.3-0.2-0.4,0.1-0.5,0.3c-0.2,0.5-0.4,1-0.6,1.5c0,0,0,0.1,0,0.1c0.1,0,0.2,0.1,0.4,0.2
			c-0.4,0.4-0.8,0.7-1.1,1c-0.3,0.4-0.6,0.8-0.9,1.2c-0.3,0.4-0.5,0.7-0.8,1.1c0.1,0,0.1,0.1,0.2,0.1c0.1-0.1,0.1-0.3,0.2-0.4
			c0.1,0,0.1,0.1,0.2,0.1c-1.1,0.9-1,2.2-1.2,3.4c0.2-0.2,0.3-0.3,0.5-0.6c0,0.3,0,0.4,0,0.5c-0.1,0.7-0.1,1.5-0.2,2.2
			c0,0.3-0.1,0.6,0.4,0.6c0.1,0,0.4,0.2,0.4,0.3c0.4,0.7,0.7,1.4,1,2.1c0.2,0.4,0.5,0.8,0.7,1.2c0,0,0.1,0,0.1-0.1
			c-0.1-0.3-0.2-0.5-0.3-0.8c0,0,0.1-0.1,0.1-0.1c0.1,0.1,0.3,0.2,0.3,0.4c0.4,0.9,0.8,1.9,1.6,2.5c0.2,0.1,0.3,0.5,0.6,0.2
			c0,0,0.1,0,0.2,0c0.3,0.1,0.6,0.3,0.9,0.4c0.5,0.2,0.9,0.6,1.4,0.6c1.9,0.2,3.2,1.4,4.6,2.5c0.1,0.1,0.1,0.3,0.1,0.5
			c-0.2,0-0.4,0.1-0.5,0.1c-0.3-0.1-0.6-0.3-0.9-0.4c-0.1,0.1-0.1,0.2-0.2,0.3c-0.3-0.3-0.6-0.6-1-0.8c-0.6-0.4-1.4-0.6-2.1-0.4
			c-0.3,0.1-0.5,0.4-0.8,0.5c-0.1,0-0.1,0.1-0.2,0.1c-0.2,0.1-0.4,0.1-0.6,0.2c-1,0.5-2,1-3,1.5c-0.5,0.3-1.1,0.6-1.6,0.9
			c-0.3,0.2-0.6,0.6-0.9,0.8c-0.7,0.4-1.1,1-1.5,1.7c-0.1,0.2-0.3,0.4-0.4,0.6c0,0-0.1-0.1-0.1-0.1c0.1-0.2,0.1-0.4,0.2-0.7
			c-0.2,0.2-0.4,0.3-0.5,0.4c-0.6,0.6-1.1,1.2-1.7,1.8c-0.2,0.2-0.4,0.4-0.5,0.6c-0.3,0.5-0.5,1-0.7,1.6c-0.4,0.9-0.8,1.7-1.1,2.6
			c-0.3,1.1-0.4,2.2-0.9,3.2c-0.5,0.8-0.5,1.9-1.4,2.6c-0.3,0.2-0.6,0.6-0.9,0.8c-0.5,0.4-1,0.6-1.5,1c-1,0.8-1.6,1.8-2,3
			c-0.3,0.8-0.3,1.4,0.1,2.1c0.3,0.6,0.6,1.2,1,1.7c0.2,0.2,0.6,0.3,0.9,0.4c0.1,0,0.3-0.1,0.4-0.1c-0.1-0.1-0.2-0.3-0.3-0.4
			c-0.2-0.2-0.4-0.4-0.6-0.6c0,0-0.1,0.1-0.3,0.2c0.4-1,0.1-1.8-0.2-2.6c-0.1-0.2-0.1-0.4,0-0.6c0.5-0.8,1.2-1.3,2.2-1.3
			c0.5,0,0.8,0.2,1,0.7c0.1,0.5,0.3,1,0.4,1.5c0.1,0.5,0.2,1,0.2,1.6c0.3-0.2,0.5-0.4,0.8-0.6c-0.1-0.2-0.3-0.3-0.3-0.5
			c-0.1-0.5-0.3-1-0.3-1.5c0-1,0.6-1.8,1.2-2.6c0.3-0.5,1.5-0.5,2.1-0.2c0.4,0.2,0.7,0.4,1.1,0.7c0.3-1,0.7-1.9,1-2.9
			c-0.8-0.2-1.7,0.3-2.5,0c0.4-0.2,0.8-0.5,1.2-0.7c0.4-0.2,0.8-0.5,1.3-0.6c0.6-0.1,1.1-0.3,1.5-0.8c0.2-0.2,0.5-0.3,0.7-0.5
			c1-1,1.3-2.5,1.8-3.7c0.3-0.7,0.4-1.5,0.6-2.3c0.1-0.5,0.5-1,0.4-1.6c0-0.2,0.1-0.4,0.2-0.6c0.1-0.1,0.3,0.1,0.5,0.1
			c0.3-0.5,1.6-1.4,2.3-1.4c0.1,0,0.2,0.2,0.2,0.3c0,0.1-0.2,0.2-0.3,0.3c-0.6,0.4-1.1,0.9-1.2,1.7c-0.1,0.3-0.2,0.7-0.3,1
			c-0.3,0.9-0.8,1.7-0.8,2.7c0,0.4-0.1,0.9-0.3,1.2c-0.3,0.4-0.4,0.9-0.9,1.2c-0.4,0.3-0.7,0.8-1.1,1.2c-0.5,0.5-1,1.1-1.3,1.8
			c-0.1,0.1-0.1,0.3-0.1,0.5c-0.1,0.3-0.2,0.6-0.3,0.9c-0.2,0.4-0.4,0.7-0.6,0.9c0.1,0.3,0.2,0.5,0.2,0.7c0,0.3-0.1,0.6-0.3,0.8
			c-0.5,1-0.5,2.1-0.5,3.2c0.3,0,0.3,0.4,0.1,0.5c-0.1,0.1-0.1,0.3-0.1,0.5c0,0.1,0.2,0.3,0.2,0.4c0.2,0.8,0.3,1.7,0.5,2.5
			c0.1,0.5,0.1,1.2,0.7,1.4c0-0.1,0.1-0.1,0.1-0.2c0.2,0.5,0.4,1,0.6,1.5c0.3,0.4,0.7,0.8,1,1.2c0.2,0.2,0.5,0.4,0.7,0.6
			c0.3,0.4,0.6,0.9,1,1.2c0.4,0.3,0.5,0.7,0.7,1.1c0,0.1-0.2,0.5-0.2,0.5c-0.5-0.1-0.9,0.1-1.4-0.3c-1.2-1-2-2.3-2.9-3.5
			c-0.1-0.2-0.2-0.4-0.4-0.6c-0.8-0.8-1.5-1.6-1.9-2.7c-0.1-0.2-0.3-0.4-0.2-0.5c0.1-0.5-0.2-0.6-0.6-0.7c-0.7-0.1-1.3-0.1-2,0
			c-0.7,0.1-1.5,0.1-2,0.5c-0.5,0.3-1.3,0.5-1.2,1.4c0,0.1-0.1,0.2-0.2,0.3c-0.5,0.8-0.9,1.6-1.4,2.3c-0.1,0.2-0.1,0.4,0.2,0.4
			c0.2,0-0.1,0.4-0.3,0.5c0,0.5,0,0.9,0,1.3c0,0.1,0.1,0.2,0.1,0.2c0.1,0.2,0.2,0.4,0.1,0.6c0,0.5-0.2,0.9-0.2,1.4
			c-0.1,0.5,0.5,0.5,0.6,0.6c0.2,0.7,0.3,1.3,0.5,2c0.1,0.3,0.1,0.5,0.2,0.8c-0.3,0.3-0.7,0.2-1-0.1c-0.1-0.2-0.3-0.4-0.5-0.6
			c-0.2-0.3-0.6-0.5-0.6-0.8c0-0.6-0.8-0.9-0.7-1.6c0,0,0,0,0,0c-0.7-0.8-0.6-1.7-0.6-2.6c0-0.1-0.1-0.4-0.2-0.4c-0.4,0-0.8,0-1.3,0
			c0,0,0,0.1,0,0.1c0.1,0.1,0.2,0.2,0.3,0.3c-0.5,0.1-1,0.1-1.5,0.3c-0.2,0.1-0.5,0.2-0.6,0.4c-0.2,0.4-0.2,0.9-0.3,1.3
			c-0.1,0.5-0.1,1.1-0.2,1.7c0.3,0.1-0.5,0.3-0.6,1.2c0.2,0-0.1,0.2-0.3,0.1c-0.1,0.3,0,0.7-0.5,0.6c-0.3-0.1-0.4,0-0.6,0.3
			c-0.2,0.3-0.4,0.5-0.5,0.8c-0.3,0.6-0.6,1.3-0.9,1.9c0,0,0,0.1,0,0.2c0.1-0.1,0.1-0.2,0.2-0.3c0,0,0,0,0.1,0
			c0,0.4-0.1,0.8-0.1,1.1c0.2,0.1,0.4,0.2,0.3,0.3c-0.2,0.5,0.3,0.7,0.6,0.9c0.7,0.5,1.5,1,2.1,1.6c1,1,2.3,1.2,3.5,1.4
			c1.6,0.3,3.2,0.3,4.8,0.5c0.4,0,0.9,0.1,1.3,0.3c0.8,0.5,1.5,1,2.3,1.5c0.4,0.2,0.9,0.4,1.4,0.4c0.7,0,1.4-0.1,2.2-0.1
			c1.2,0,2.2-0.6,3.1-1.1c0.8-0.4,1.3-1.1,1.8-1.9c0.4-0.7,0.8-1.4,1.3-2.1c0.3-0.5,0.7-1,1-1.5c0.1-0.2,0.2-0.5,0.4-0.6
			c0.8-0.5,1.6-1,2.5-1.5c0.3-0.2,0.8-0.4,1-0.3c0.4,0.3,0.8,0.1,1.2,0.1c0.3,0,0.7,0.1,1,0.2c0.4,0.1,0.7,0.3,1.1,0.4
			c0.7,0.1,1.4,0.2,2.2,0.4c0.8,0.2,1.6,0.4,2.4,0.5c1.2,0.2,2.4,0.3,3.6,0.4c1.3,0.1,2.7,0.1,4,0.2c0.3,0,0.6,0,0.9-0.1
			c0.4,0,0.8-0.2,1.2-0.1c1,0.2,2,0.1,3,0c0.2,0,0.4,0,0.6-0.1c1.1-0.2,2.1-0.7,3.2-0.8c1.2-0.2,2.5-0.6,3.7-0.9
			c0.9-0.3,1.8-0.6,2.8-0.5c0.5,0,1.1,0.1,1.6,0.3c1.5,0.7,3,1.5,4.5,2.2c1,0.4,1.9,1,3.1,1.1c0.6,0.1,1.1,0.4,1.7,0.6
			c0.2,0,0.3,0,0.6,0c0,0,0,0,0,0.1c0,0.3,0,0.6,0.5,0.4c0.1,0,0.3,0.1,0.3,0.2c0.1,0.5,0.2,1.1,0.4,1.6c0.1,0.3,0.2,0.6,0.3,0.9
			c0.1,0.3,0.3,0.6,0.2,0.8c-0.1,0.3,0.1,0.4,0.2,0.6c0.3,0.3,0.7,0.5,1,0.8c0.2,0.2,0.4,0.3,0.7,0.1c0.1,0,0.2,0,0.3,0
			c0,0.1,0,0.2,0,0.3c-0.2,0.3,0,0.4,0.2,0.5c0.1,0,0.2,0,0.3,0.1c0.9,0.4,1.8,0.4,2.7,0.2c0.8-0.1,1.5-0.5,2.2-0.6
			c0.7-0.1,1.2-0.5,1.6-1c0.1-0.1,0.2-0.3,0.4-0.4c0.5-0.1,0.8-0.4,1-0.8c0.2-0.4,0.4-0.8,0.6-1.3c0.1-0.3,0.3-0.5,0.5-0.8
			c-0.2-0.1-0.4-0.1-0.6-0.2c0.3-0.2,0.5-0.4,0.8-0.6c1-0.7,2.1-1.3,3.1-1.9c0.5-0.3,0.9-0.7,1.4-1.1c0.1-0.1,0.2-0.2,0.2-0.3
			c0.2-0.6,0.2-0.6,0.8-0.5c0-0.3,0-0.5,0-0.8c0.2,0.1,0.2,0.1,0.4,0.2c0.2-0.5,0.5-1,0.4-1.4c0-0.3,0-0.7,0.1-1
			c0.1-0.5,0.3-1.1,0.3-1.7c0.1-0.9,0.1-1.8,0.1-2.7c0-1-0.2-1.8-0.8-2.4c-0.4-0.5-0.9-0.8-1.4-1.1c-0.1-0.1-0.2,0-0.3,0
			c-0.7,0-1.4,0.3-2,0.7c-0.8,0.5-1.5,1.1-2.2,1.7c-0.3,0.2-0.6,0.4-0.9,0.6c0.1-0.3,0.3-0.5,0.5-0.7c0.4-0.5,0.9-0.9,1.4-1.4
			c0.1-0.2,0.4-0.5,0.1-0.7c-0.5-0.3-1-0.6-1.6-0.8c-0.5-0.2-1-0.3-1.6-0.1c-0.5,0.1-1,0.1-1.5,0.3c-1,0.3-1.5,1.9-1,2.7
			c0.1,0.2,0.3,0.4,0.4,0.6c0.5,0,0.2-0.4,0.4-0.6c0.3,0.3-0.1,0.9,0.4,1.2c0,0,0,0.2,0,0.2c-0.4,0.2-0.2,0.5-0.2,0.8
			c0,0.4,0,0.8,0,1.1c-0.7,0.1-0.8-0.2-0.8-0.7c0-0.3-0.1-0.5-0.2-0.8c-0.1-0.2-0.1-0.6-0.3-0.7c-0.4-0.2-0.5-0.6-0.7-0.9
			c-0.5-0.7-0.9-1.5-1.3-2.2c-0.8-1.9-2.4-3.2-4.1-4.3c-1-0.6-2-1-3.2-1.1c-0.1,0-0.2-0.1-0.2-0.1c-0.1-0.1-0.1-0.2-0.2-0.2
			c-0.4,0-0.8,0-1.3,0c0.1,0.3,0.1,0.5,0.1,0.7c0,0.3,0.1,0.6,0,0.8c-0.4,1-0.7,2.1-1.5,2.9c-0.6,0.6-1.1,1.3-1.7,1.9
			c-0.1-0.1-0.3-0.1-0.5-0.2c0.3-0.7,0.6-1.3,1-2c0.1-0.1,0.1-0.2,0.1-0.3c0.1-0.7,0.3-1.5,0.4-2.2c0.1-0.5,0.2-1,0.2-1.5
			c-0.1-0.6-0.4-1.2-0.5-1.8c-0.2-0.9-0.4-1.9-0.6-2.8c-0.1-0.2-0.2-0.6-0.5-0.7c-0.3-0.2-0.3-0.4-0.3-0.7c0-0.2-0.1-0.5-0.2-0.6
			c-0.5-0.7-1.1-1.3-1.6-2c-0.5-0.7-1-1.3-1.4-2c-0.6-1.1-1.1-2.3-1.7-3.5c0,0,0,0,0.1-0.1c0.1,0.1,0.2,0.2,0.3,0.3
			c-0.1-0.6-0.3-1.2-0.5-1.8c-0.2-0.5-0.5-1-0.5-1.5c0.2,0.2,0.5,0.4,0.8,0.7c0.1,0.5,0.4,1.1,0.5,1.6c0.4,1.8,1.3,3.4,2.4,4.9
			c0.4,0.6,0.4,0.6,1,0.2c0.2-0.1,0.5-0.2,0.7-0.3c0.7-0.3,1.5,0,2.2,0.1c0.1,0,0.2,0.1,0.3,0.2c-0.1,0-0.2,0.1-0.4,0.1
			c-0.4,0-0.8,0-1.1,0.1c-0.4,0.1-0.7,0.4-1,0.7c-0.3,0.2-0.3,0.5,0,0.8c0.3,0.3,0.6,0.6,0.8,0.9c0.7,0.8,1,1.8,1.4,2.8
			c0.1,0.2,0.2,0.3,0.3,0.6c0.1-0.6,0.2-1.1,0.3-1.6c0.1-0.5,0.4-0.9,0.9-1.2c0.7-0.4,1.5-0.4,2.2-0.3c0.6,0.1,1.1,0.8,0.9,1.3
			c-0.3,0.9-0.4,1.8-0.8,2.6c-0.2,0.3-0.3,0.6-0.4,0.9c-0.1,0.2-0.2,0.5-0.2,0.6c0.1,0.1,0.4,0.2,0.6,0.2c0-0.4,0-0.7,0.1-1
			c0.3-0.6,0.6-1.3,0.9-1.9c0.4-0.6,0.8-1.1,1.2-1.6c0.2-0.2,0.6-0.3,0.8-0.3c0.5,0,1.1,0.9,1,1.4c-0.1,0.8-0.2,1.7-0.5,2.5
			c-0.2,0.6-0.7,1.1-1.3,1.4c-0.1,0-0.2,0.2-0.2,0.3c0,0.1,0.1,0.2,0.2,0.2c0.3,0,0.7,0,0.9-0.1c0.8-0.5,1.1-1.2,1.4-2.1
			c0.1-0.4,0.3-0.9,0.5-1.3c0,0.1,0.1,0.1,0.1,0.2c0.1-0.3,0.1-0.6,0.2-0.9c0-0.3-0.2-0.7,0.2-1c0,0,0-0.1,0-0.2
			c-0.1-0.9-0.6-1.5-1.3-2.1c-0.4-0.3-0.9-0.5-1.1-0.9c-0.4-0.7-1-1.3-1.3-2.1c-0.5-1.2-1.3-2.3-2-3.4c-0.9-1.4-2.2-2.4-3.5-3.4
			c-0.4-0.3-0.8-0.5-1.3-0.7c-0.4-0.1-0.6-0.7-0.9-1c-0.9-0.7-1.6-1.6-2.3-2.4c-0.2-0.2-0.5-0.4-0.7-0.6c-0.1,0,0-0.2-0.1-0.2
			c-0.1,0-0.2,0-0.2,0c-0.1-0.2-0.2-0.3-0.3-0.4c-0.9-0.6-1.8-1.2-2.8-1.7c-1.6-0.8-3.3-1.2-5-1.4C93.1,461.6,93.1,461.7,92.9,461.8
			z M94.6,440.8c0.4-0.3,0.9-0.6,1.4-0.9c0.4-0.3,0.8-0.6,1.2-1c0.1-0.1,0.2-0.3,0.2-0.5c0.1-1.1,0.3-2.3,0.3-3.4
			c0-0.5-0.1-0.9-0.2-1.4c-0.1-0.5-0.4-0.9-0.4-1.4c-0.2-1.1-0.8-1.9-1.8-2.4c-0.8-0.4-1.6-0.2-2.3-0.3c-0.1,0-0.2,0-0.2,0.1
			c-0.1,0.5-0.4,0.2-0.7,0.2c-0.1,0.1-0.2,0.2-0.3,0.2c-0.6,0.2-1.1,0.4-1.6,0.8c-0.3,0.2-0.7,0.3-1.1,0.5c-0.2,0.1-0.3,0.1-0.5,0.2
			c0.7,0.7,1.3,1.3,1.6,2.2c0.1,0.3,0.9,0.8,1.1,0.7C91.8,436.8,92.7,439.1,94.6,440.8z M57.6,435.6c0.1,0.5,0.2,1,0.3,1.4
			c0.2,0.7,0.2,1.6,1.2,1.8c0.1,0,0.2,0.2,0.3,0.3c0.4,0.4,0.8,0.8,1.3,1.2c0.1-0.2,0.1-0.4,0.2-0.6c-0.2,0-0.3-0.1-0.4-0.1
			c0.1-0.1,0.2-0.2,0.3-0.4c0.2-0.4,0.4-0.7,0.6-1.1c0.2-0.6,0.4-1.1,0.6-1.7c0.1-0.4,0.2-0.8,0.4-1.2c0.2-0.4,0.4-0.8,0.8-1.1
			c0.5-0.5,1.1-1,1.7-1.5c0.3-0.3,0.6-0.7,0.9-1.1c0,0,0-0.1,0-0.1c-0.3-0.5-0.3-1.2-1-1.4c-0.4-0.2-0.8-0.4-1.2-0.6
			c-0.1,0-0.1-0.1-0.2-0.2c-0.4-0.5-0.9-0.9-1.5-0.8c-0.8,0.1-1.5,0.3-2.2,0.5c-0.6,0.1-1,0.5-1.3,1.1c-0.3,0.6-0.6,1.3-0.8,1.9
			c-0.4,1-0.6,2-0.7,3.1c-0.1,0.8,0.1,1.6,0.6,2.2c-0.1-0.5-0.3-1.1-0.4-1.6C57.4,435.6,57.5,435.6,57.6,435.6z M52,487.1
			c0.2,0,0.5-0.1,0.7,0c0.3,0.2,0.8,0.1,0.8-0.2c0-0.3,0.2-0.3,0.3-0.4c0.1-0.1,0.2-0.2,0.3-0.3c0.1-0.1,0.2-0.3,0.3-0.3
			c0.4,0,0.3-0.3,0.3-0.5c0-0.3,0.1-0.6-0.1-0.7c-0.1-0.2-0.2-0.3,0-0.5c0.3-0.2,0.2-0.5,0-0.7c-0.5-0.5-1.1-0.8-1.7-0.8
			c-1,0.1-1.8,0.9-1.9,1.8c-0.1,0.7,0.1,1.4,0.2,2.1c0,0.1,0.2,0.2,0.2,0.2C51.9,486.5,51.9,486.9,52,487.1z M110.3,481.5
			c0-0.1-0.1-0.1-0.1-0.2c-0.2,0.1-0.6,0.3-0.7,0.2c-0.4-0.3-0.7,0-0.9,0.2c-0.2,0.2-0.4,0.4-0.6,0.7c-0.2,0.3-0.4,0.6-0.5,0.9
			c-0.1,0.6-0.1,1.2-0.1,1.8c0,0.3,0.2,0.5,0.3,0.9c0.2-0.7,0.8-0.7,1.4-0.2c0.1-0.1,0.3-0.2,0.4-0.4c0.3-0.6,0.6-1.3,0.9-1.9
			c0.2-0.5,0-1,0.4-1.4c0.1-0.2,0-0.4-0.3-0.3c-0.2,0-0.3,0.1-0.5,0.2C110.1,481.8,110.2,481.6,110.3,481.5z M114.2,484.1
			c0-0.3-0.1-0.6-0.1-0.8c-0.2-0.8-0.7-1-1.3-0.4c-1,0.8-1.5,1.9-1.9,3.1c-0.1,0.4,0.6,1.3,1,1.1c0.5-0.2,1-0.4,1.4-0.8
			C113.9,485.6,114.1,484.8,114.2,484.1z M47.2,487c0,0.8,0.5,1.7,1.6,1.8c0.5,0,0.8-0.1,0.8-0.6c0-0.4,0-0.9-0.1-1.4
			c-0.1-0.6-0.3-1.2-0.4-1.8c0-0.1-0.1-0.1-0.2-0.1c-0.8-0.3-1.7,0.3-1.8,1.1C47.1,486.3,47.2,486.6,47.2,487z"/>
		<path class="st0" d="M94.6,440.8c-1.9-1.7-2.8-3.9-3.4-6.3c-0.2,0-1-0.4-1.1-0.7c-0.3-0.9-0.9-1.5-1.6-2.2
			c0.2-0.1,0.4-0.1,0.5-0.2c0.4-0.2,0.8-0.3,1.1-0.5c0.5-0.4,1-0.6,1.6-0.8c0.1,0,0.2-0.1,0.3-0.2c0.2-0.1,0.5,0.3,0.7-0.2
			c0,0,0.2-0.1,0.2-0.1c0.8,0.1,1.6,0,2.3,0.3c1.1,0.5,1.7,1.3,1.8,2.4c0.1,0.5,0.3,0.9,0.4,1.4c0.1,0.5,0.2,0.9,0.2,1.4
			c-0.1,1.1-0.2,2.3-0.3,3.4c0,0.2-0.1,0.4-0.2,0.5c-0.4,0.3-0.8,0.7-1.2,1C95.5,440.2,95,440.5,94.6,440.8z"/>
		<path class="st0" d="M57.5,437.3c-0.5-0.7-0.7-1.4-0.6-2.2c0.1-1.1,0.3-2.1,0.7-3.1c0.3-0.6,0.5-1.3,0.8-1.9
			c0.3-0.5,0.7-0.9,1.3-1.1c0.8-0.1,1.5-0.4,2.2-0.5c0.6,0,1.1,0.3,1.5,0.8c0.1,0.1,0.1,0.1,0.2,0.2c0.4,0.2,0.8,0.4,1.2,0.6
			c0.6,0.3,0.7,0.9,1,1.4c0,0,0,0.1,0,0.1c-0.3,0.4-0.6,0.8-0.9,1.1c-0.5,0.5-1.1,1-1.7,1.5c-0.3,0.3-0.6,0.7-0.8,1.1
			c-0.2,0.4-0.3,0.8-0.4,1.2c-0.2,0.6-0.4,1.1-0.6,1.7c-0.2,0.4-0.4,0.7-0.6,1.1c-0.1,0.1-0.2,0.2-0.3,0.4c0.1,0,0.2,0.1,0.4,0.1
			c-0.1,0.2-0.1,0.3-0.2,0.6c-0.5-0.4-0.9-0.8-1.3-1.2c-0.1-0.1-0.2-0.2-0.3-0.3c-0.9-0.3-1-1.1-1.2-1.8
			C57.8,436.6,57.4,436.7,57.5,437.3z"/>
		<path class="st1" d="M52,487.1c-0.1-0.2-0.1-0.6-0.5-0.4c0,0-0.2-0.1-0.2-0.2c-0.1-0.7-0.2-1.4-0.2-2.1c0.1-1,1-1.8,1.9-1.8
			c0.7,0,1.3,0.2,1.7,0.8c0.2,0.2,0.2,0.5,0,0.7c-0.2,0.2-0.2,0.3,0,0.5c0.1,0.2,0.1,0.5,0.1,0.7c0,0.2,0.1,0.5-0.3,0.5
			c-0.1,0-0.2,0.2-0.3,0.3c-0.1,0.1-0.2,0.2-0.3,0.3c-0.1,0.1-0.3,0.1-0.3,0.4c0,0.3-0.5,0.3-0.8,0.2C52.5,487,52.3,487.1,52,487.1z
			"/>
		<path class="st1" d="M110.3,481.5c-0.1,0.2-0.2,0.3-0.3,0.5c0.2-0.1,0.3-0.1,0.5-0.2c0.3-0.1,0.4,0.1,0.3,0.3
			c-0.3,0.4-0.1,1-0.4,1.4c-0.3,0.6-0.6,1.3-0.9,1.9c-0.1,0.2-0.3,0.3-0.4,0.4c-0.6-0.5-1.1-0.4-1.4,0.2c-0.1-0.4-0.3-0.6-0.3-0.9
			c0-0.6,0-1.2,0.1-1.8c0.1-0.3,0.3-0.6,0.5-0.9c0.2-0.3,0.3-0.5,0.6-0.7c0.2-0.2,0.5-0.5,0.9-0.2c0.1,0.1,0.5-0.2,0.7-0.2
			C110.2,481.4,110.3,481.4,110.3,481.5z"/>
		<path class="st1" d="M114.2,484.1c-0.1,0.8-0.2,1.6-0.8,2.1c-0.4,0.4-0.9,0.6-1.4,0.8c-0.4,0.2-1.1-0.7-1-1.1
			c0.4-1.2,0.9-2.3,1.9-3.1c0.6-0.5,1.1-0.4,1.3,0.4C114.1,483.5,114.1,483.8,114.2,484.1z"/>
		<path class="st1" d="M47.2,487c0-0.3,0-0.7,0-1c0.1-0.8,1-1.4,1.8-1.1c0.1,0,0.1,0.1,0.2,0.1c0.1,0.6,0.3,1.2,0.4,1.8
			c0.1,0.4,0.1,0.9,0.1,1.4c0,0.5-0.3,0.7-0.8,0.6C47.6,488.7,47.1,487.8,47.2,487z"/>
		<path d="M78.5,499.1c0.1,0,0.2,0,0.4,0.1c0,0.1,0,0.1,0,0.2c0,0.8,0.4,1.3,1.1,1.6c0.5,0.2,0.9,0.5,1.4,0.7c1,0.4,2,0.3,2.9-0.2
			c0.4-0.2,0.7-0.8,1-1.2c0.1-0.2,0.2-0.4,0.3-0.6c0.8-0.7,1-1.5,0.9-2.5c0-0.4-0.2-0.8-0.3-1.3c0.1-0.4,0-0.8-0.3-1.3
			c-0.1-0.2-0.4-0.4-0.2-0.8c0.1-0.2-0.2-0.5-0.6-0.4c0-0.1,0-0.1,0-0.2c0,0,0,0,0.1,0c0.6,0,1.1,0.1,1.3,0.8
			c0.3,0.8,0.7,1.6,1.2,2.3c0.5,0.8,0.3,1.5,0.2,2.3c-0.1,0.2,0,0.5-0.1,0.7c-0.1,0.5-0.2,0.9-0.5,1.4c-0.3,0.5-0.7,0.9-1,1.4
			c-0.4,0.5-0.8,0.9-1.4,1.1c-0.3,0.1-0.5,0.4-0.8,0.6c-1.3,0.9-4.4-0.4-5.3-1c-0.5-0.3-0.9-0.9-1.2-1.4c-0.3-0.5-0.7-1.1-0.7-1.7
			c0-0.1-0.2-0.3-0.2-0.3c0-0.5,0-1,0-1.5c0-1.3,0.6-2.4,1.6-3.3c0.4-0.4,1-0.7,1.4-1c0.1-0.1,0.2-0.2,0.3-0.3
			c0.1-0.1,0.3-0.1,0.3-0.1c-0.1,0.3-0.2,0.5-0.3,0.8c0,0.1,0,0.2-0.1,0.2c-0.7,0.6-0.6,1.6-1,2.3c0,0.1,0,0.2-0.1,0.2
			C78.2,497.2,78.4,498.2,78.5,499.1z"/>
	</g>
	<path d="M100.1,490.9c-0.1,0-0.1,0-0.1,0c-0.2,0.1-0.4,0.1-0.6,0.2c0,0-0.1,0-0.1,0c-0.1,0-0.2,0-0.3,0c-0.2,0.1-0.4,0.1-0.6,0.2
		c0,0,0,0-0.1,0c-0.1,0-0.1,0-0.2,0c0,0,0,0,0,0c0.1,0,0.1-0.1,0.2-0.1c0.6-0.3,1.3-0.5,1.9-0.7c0.2-0.1,0.3-0.1,0.5-0.2
		c0,0,0.1,0,0.1,0c0,0,0,0,0.1,0c0-0.1,0.1-0.1,0.2-0.2c0.1,0,0.2-0.1,0.3-0.1c0,0,0.1,0,0.1,0c0,0,0,0.1-0.1,0.1
		c-0.1,0-0.1,0.1-0.1,0.1c0,0.1-0.1,0.2-0.2,0.3c0,0.1-0.1,0.1-0.2,0.1c-0.2,0.1-0.3,0.2-0.5,0.4c-0.1,0.1-0.2,0.2-0.2,0.3
		c0,0.1-0.1,0.1-0.1,0.2c-0.1,0.1-0.2,0.2-0.3,0.4c-0.1,0.1-0.1,0.2-0.2,0.3c-0.1,0.1-0.3,0.3-0.4,0.4c-0.1,0.1-0.1,0.2-0.2,0.3
		c-0.2,0.2-0.4,0.4-0.5,0.6c-0.2,0.2-0.4,0.3-0.6,0.5c0,0-0.1,0-0.1,0.1c-0.1,0.2-0.3,0.3-0.5,0.4c-0.3,0.2-0.6,0.3-0.9,0.4
		c-0.1,0-0.1,0-0.2,0c-0.1,0-0.2,0-0.3,0c-0.2,0-0.4,0-0.6-0.1c-0.2,0-0.3-0.1-0.5-0.1c0,0-0.1,0-0.1,0c0.1,0,0.2-0.1,0.2-0.1
		c0.2,0,0.4-0.1,0.6-0.1c0.4-0.1,0.7-0.2,1.1-0.2c0.1,0,0.1,0,0.2-0.1c0.3-0.2,0.5-0.3,0.8-0.5c0.1,0,0.1-0.1,0.2-0.1
		c0.2-0.2,0.4-0.4,0.6-0.6c0.2-0.1,0.3-0.3,0.4-0.5c0.1-0.1,0.2-0.3,0.3-0.4c0.1-0.1,0.1-0.2,0.2-0.2c0.1-0.1,0.2-0.2,0.3-0.3
		c0,0,0.1-0.1,0.1-0.1c0-0.1,0.1-0.1,0.1-0.2C100,491,100.1,491,100.1,490.9z"/>
	<path d="M92.9,496.4c0.1,0,0.2,0,0.4,0c0.6,0.1,1.2,0.1,1.8,0.1c0.3,0,0.5-0.1,0.8-0.2c0.1,0,0.2-0.1,0.2-0.1
		c0.2-0.1,0.4-0.3,0.7-0.4c0.1,0,0.1-0.1,0.2-0.1c0,0,0,0,0.1,0c0.1-0.1,0.2-0.1,0.3-0.2c0,0,0,0,0,0c0.2,0,0.3-0.2,0.5-0.2
		c0,0,0.1,0,0.1-0.1c0,0,0.1,0,0.1,0c0,0,0,0,0.1,0c0.2,0,0.3-0.1,0.4-0.1c0,0,0,0,0,0c0,0-0.1,0-0.1,0.1c-0.1,0-0.1,0.1-0.2,0.2
		c0,0-0.1,0.1-0.1,0.1c-0.1,0-0.1,0.1-0.1,0.2c0,0,0,0.1,0,0.1c-0.1,0.1-0.2,0.2-0.3,0.2c0,0,0,0-0.1,0c-0.2,0.2-0.4,0.4-0.7,0.5
		c-0.3,0.2-0.5,0.3-0.8,0.4c-0.1,0-0.2,0-0.3,0.1c-0.2,0-0.4,0.1-0.6,0.1c0,0-0.1,0-0.1,0c-0.2,0-0.3,0-0.5,0
		c-0.3,0-0.6-0.1-0.9-0.1c-0.2,0-0.4-0.1-0.6-0.1C93,496.5,93,496.5,92.9,496.4C92.9,496.5,92.9,496.5,92.9,496.4z"/>
	<path d="M94.2,498.3c-0.1,0.1-0.2,0.1-0.3,0.1c-0.1,0-0.2,0-0.2,0.1c0,0,0,0,0,0c-0.1,0-0.2,0.1-0.3,0c-0.2,0-0.4-0.1-0.7-0.1
		c-0.2,0-0.4-0.1-0.5-0.2c-0.1-0.1-0.2-0.2-0.3-0.3c-0.1-0.1-0.2-0.3-0.2-0.4c0,0-0.1-0.1-0.1-0.1c0,0-0.1-0.1-0.1-0.2
		c0,0,0.1,0,0.1,0c0.1,0.1,0.2,0.1,0.4,0.2c0,0,0.1,0.1,0.1,0.1c0.4,0.1,0.7,0.3,1,0.5c0.2,0.1,0.4,0.2,0.6,0.2
		C93.8,498.2,94,498.2,94.2,498.3z"/>
	<path d="M100.3,492.4c0,0.2-0.1,0.4-0.3,0.5c-0.1,0.1-0.2,0.2-0.3,0.3c0,0,0,0,0,0c-0.2,0.2-0.4,0.5-0.6,0.7
		c-0.2,0.2-0.4,0.4-0.7,0.5c-0.2,0.1-0.3,0.2-0.5,0.3c-0.1,0-0.2,0.1-0.2,0.2c-0.1,0.1-0.2,0.1-0.4,0.2c-0.1,0.1-0.2,0.1-0.3,0.2
		c-0.1,0.1-0.3,0.1-0.5,0.1c0,0-0.1,0-0.1,0c-0.1,0-0.2,0-0.3-0.1c0.1,0,0.1-0.1,0.2-0.1c0.1,0,0.2,0,0.3-0.1c0.1,0,0.2-0.1,0.3-0.2
		c0,0,0.1,0,0.1-0.1c0.2-0.1,0.4-0.2,0.6-0.3c0.1-0.1,0.3-0.1,0.4-0.2c0.1-0.1,0.2-0.1,0.3-0.2c0,0,0,0,0.1-0.1
		c0.1-0.1,0.2-0.2,0.3-0.2c0.2-0.2,0.4-0.4,0.6-0.6C99.6,493,99.9,492.7,100.3,492.4z"/>
	<path d="M95.9,497.2c0,0-0.1,0.1-0.1,0.1c-0.2,0.1-0.4,0.2-0.6,0.2c-0.1,0-0.3,0-0.4,0.1c0,0-0.1,0-0.1,0c-0.1,0-0.1,0-0.2,0
		c0,0-0.1,0-0.1,0c-0.1,0-0.2,0-0.4,0c-0.1,0-0.2-0.1-0.4-0.1c-0.1,0-0.1,0-0.2,0c-0.1,0-0.2-0.1-0.3-0.1c-0.2-0.1-0.3-0.2-0.5-0.2
		c-0.1,0-0.3-0.1-0.4-0.2c0,0,0.1,0,0.1,0c0.1,0,0.2,0.1,0.3,0.1c0.1,0,0.2,0.1,0.3,0.1c0.1,0.1,0.2,0.1,0.3,0.1
		c0.1,0,0.2,0.1,0.4,0.1c0.1,0,0.3,0.1,0.4,0.1c0.2,0,0.3,0,0.5,0C95,497.2,95.4,497.2,95.9,497.2C95.9,497.2,95.9,497.2,95.9,497.2
		z"/>
	<path d="M90.8,498.7c0.1,0,0.2,0.1,0.3,0.1c0.3,0.1,0.6,0.2,0.9,0.3c0.2,0.1,0.5,0.1,0.7,0.1c0,0,0.1,0,0.1,0c0.1,0,0.2,0,0.4,0
		c-0.1,0-0.2,0.1-0.3,0.1c-0.1,0-0.2,0.1-0.3,0.1c-0.2,0-0.3,0-0.5,0c-0.1,0-0.3,0-0.4,0c-0.1,0-0.2,0-0.3-0.1
		c-0.1,0-0.2-0.1-0.3-0.2c-0.1-0.1-0.2-0.1-0.3-0.2C90.9,498.9,90.8,498.8,90.8,498.7C90.8,498.8,90.8,498.7,90.8,498.7L90.8,498.7z
		"/>
	<path d="M88.3,457.2c0,0.2-0.1,0.3-0.2,0.5c-0.1,0.2-0.3,0.3-0.4,0.5c-0.1,0.1-0.2,0.2-0.3,0.2c-0.1,0.1-0.2,0.2-0.3,0.3
		c-0.1,0.1-0.2,0.2-0.3,0.2c-0.3,0.2-0.6,0.5-1,0.7c-0.3,0.2-0.6,0.4-0.9,0.5c-0.3,0.1-0.5,0.2-0.8,0.4c0,0,0,0,0,0c0,0,0,0,0,0
		c0,0,0,0,0,0c0.1-0.1,0.2-0.2,0.4-0.3c0.1-0.1,0.2-0.1,0.3-0.2c0.1-0.1,0.2-0.1,0.3-0.2c0.2-0.1,0.4-0.3,0.7-0.4c0,0,0,0,0,0
		c0,0-0.1,0-0.1,0c-0.1,0-0.2,0.1-0.3,0.1c-0.1,0.1-0.3,0.2-0.5,0.2c-0.1,0-0.2,0.1-0.3,0.1c-0.1,0.1-0.2,0.1-0.4,0.2
		c-0.2,0.1-0.3,0.1-0.5,0.2c-0.2,0.1-0.3,0.1-0.5,0.2c-0.2,0-0.4,0.1-0.5,0.2c-0.6,0.2-1.2,0.4-1.9,0.5c-0.2,0-0.4,0.1-0.6,0.1
		c-0.1,0-0.3,0-0.4,0c0,0-0.1,0-0.1-0.1c0,0-0.1,0-0.1,0c0.1,0,0.2-0.1,0.3-0.1c0.3-0.1,0.6-0.1,0.9-0.2c0,0,0.1,0,0.1,0
		c0.1-0.1,0.3-0.1,0.5-0.2c0.3-0.1,0.6-0.2,0.9-0.3c0.2-0.1,0.3-0.1,0.5-0.1c0.2,0,0.3-0.1,0.5-0.2c0.2-0.1,0.4-0.1,0.6-0.2
		c0,0,0.1,0,0.1-0.1c0.2-0.1,0.3-0.2,0.5-0.2c0.1,0,0.1-0.1,0.2-0.1c0.2-0.1,0.3-0.2,0.5-0.3c0,0,0,0,0.1,0c0.1,0,0.1,0,0.2-0.1
		c0.2-0.1,0.3-0.2,0.5-0.3c0.2-0.1,0.3-0.2,0.5-0.3c0,0,0.1,0,0.1-0.1c0.1-0.1,0.3-0.2,0.5-0.3c0.1-0.1,0.2-0.1,0.3-0.2
		c0.3-0.1,0.5-0.3,0.7-0.4C88.2,457.3,88.2,457.3,88.3,457.2z"/>
	<path d="M78.5,460.2C78.5,460.2,78.5,460.2,78.5,460.2c0.2,0,0.3-0.1,0.5-0.1c0.2-0.1,0.4-0.1,0.6-0.1c0.4-0.1,0.8-0.1,1.2-0.2
		c0.3-0.1,0.5-0.1,0.8-0.2c0.1,0,0.2-0.1,0.3-0.1c0.2,0,0.4-0.1,0.6-0.2c0.1,0,0.1,0,0.2-0.1c0.3-0.1,0.6-0.1,0.8-0.2
		c0.1,0,0.3-0.1,0.5-0.1c-0.1,0.1-0.1,0.1-0.2,0.1c-0.2,0.1-0.4,0.2-0.6,0.2c-0.2,0.1-0.5,0.2-0.7,0.3c-0.3,0.1-0.6,0.2-0.9,0.3
		c-0.3,0.1-0.5,0.1-0.8,0.2c-0.4,0.1-0.8,0.1-1.2,0.2c-0.3,0-0.6,0.1-0.9,0.1c-0.1,0-0.2,0-0.4,0c-0.3,0-0.6,0.1-0.8,0.1
		c-0.1,0-0.3,0.1-0.4,0.1c-0.2,0-0.4,0.1-0.5,0.1c0,0-0.1,0-0.1,0c0,0,0,0,0,0c0,0,0-0.1,0.1-0.1c0.1,0,0.2-0.1,0.3-0.1
		c0,0,0,0,0.1,0c0.2-0.1,0.3-0.1,0.5-0.2c0.4-0.1,0.9-0.3,1.3-0.4c0.2-0.1,0.3-0.1,0.5-0.2c0.1,0,0.1-0.1,0.2-0.1
		c0.1,0,0.3-0.1,0.4-0.1c0,0,0.1,0,0.1,0c0,0,0,0,0,0c0.1,0.1,0.2,0.1,0.3,0.1c0.1,0,0.3-0.1,0.4-0.1c0.1-0.1,0.3-0.1,0.5-0.1
		c0,0,0,0,0,0c-0.1,0-0.1,0.1-0.2,0.1c-0.3,0.1-0.5,0.2-0.8,0.3c-0.1,0-0.1,0-0.2,0.1c-0.1,0-0.2,0.1-0.4,0.1
		c-0.1,0-0.2,0.1-0.3,0.1C78.9,460,78.7,460.1,78.5,460.2C78.5,460.2,78.5,460.2,78.5,460.2C78.4,460.2,78.4,460.2,78.5,460.2
		C78.4,460.2,78.4,460.2,78.5,460.2z"/>
	<path d="M70.4,458.3c0.1,0,0.1,0,0.2,0.1c0.1,0,0.2,0.1,0.2,0.1c0.2,0.1,0.4,0.2,0.5,0.3c0,0,0.1,0,0.1,0c0.1,0,0.2,0.1,0.3,0.2
		c0.1,0.1,0.2,0.2,0.4,0.3c0,0,0.1,0,0.1,0.1c0.1,0.1,0.2,0.1,0.3,0.2c0-0.1,0-0.1,0-0.2c-0.1-0.2-0.1-0.4-0.1-0.6c0,0,0-0.1,0-0.1
		c0-0.1,0-0.1,0.1-0.1c0.1-0.1,0.3-0.2,0.4-0.2c0,0,0.1,0,0.1,0c0.1,0,0.2,0,0.3-0.1c0,0,0,0.1,0,0.1c-0.1,0.2-0.2,0.4-0.3,0.6
		c0,0.1,0,0.1,0,0.2c0,0.1,0,0.2,0,0.2c0.1,0.2,0.1,0.4,0.2,0.6c0,0,0,0.1,0,0.1c0,0.1,0,0.1,0.1,0.1c0,0,0.1,0.1,0.1,0.1
		c0,0,0.1,0.1,0.2,0.1c0,0,0.1,0,0.1,0.1c0,0,0,0-0.1,0c-0.1,0-0.2,0-0.3,0c-0.1,0-0.2,0-0.3-0.1c-0.1-0.1-0.3-0.1-0.4,0
		c0,0,0,0,0,0c-0.3-0.2-0.6-0.3-0.8-0.5c-0.2-0.2-0.4-0.3-0.5-0.5c-0.2-0.2-0.4-0.4-0.6-0.6C70.6,458.5,70.5,458.4,70.4,458.3z"/>
	<path d="M76,459.4C76,459.4,76,459.4,76,459.4c0.1-0.1,0.2-0.2,0.2-0.2c0,0,0.1,0,0.1-0.1c0.2-0.1,0.4-0.2,0.6-0.2
		c0.1,0,0.2,0,0.2-0.1c0.1,0,0.3-0.1,0.4-0.1c0.2,0,0.3-0.1,0.5-0.1c0.1,0,0.2,0,0.3,0c0.2,0,0.4,0,0.6,0c0.1,0,0.3,0,0.3,0.1
		c0.1,0.1,0.1,0.1,0.2,0.1c0,0,0.1,0,0.1,0.1c0,0,0,0,0,0c-0.2,0-0.4,0.1-0.7,0.2c-0.1,0-0.2,0.1-0.3,0.1c-0.1,0-0.2,0.1-0.2,0.1
		c-0.3,0.1-0.7,0.3-1,0.4c-0.1,0.1-0.3,0.1-0.4,0.1c-0.1,0-0.2,0.1-0.4,0.1c0,0,0,0,0-0.1c0,0,0,0,0,0c0.2-0.1,0.3-0.1,0.4-0.2
		c0.1-0.1,0.2-0.1,0.3-0.2c0.2-0.1,0.3-0.2,0.5-0.2c0.2-0.1,0.4-0.2,0.6-0.2c0.1,0,0.2,0,0.2-0.1c0.1,0,0.2-0.1,0.4-0.1
		c0,0,0.1,0,0.1,0c-0.1,0-0.2,0-0.3,0c-0.2,0-0.4,0-0.6,0c-0.1,0-0.2,0-0.3,0c-0.2,0-0.3,0.1-0.5,0.1c-0.3,0.1-0.7,0.2-1,0.3
		C76.3,459.3,76.2,459.4,76,459.4C76,459.4,76,459.4,76,459.4z"/>
	<path d="M74.3,460.6c-0.1,0-0.1,0-0.1,0c0-0.1-0.1-0.1-0.2-0.1c0,0,0,0-0.1,0c-0.1,0-0.1,0-0.1-0.1c-0.2-0.2-0.3-0.4-0.4-0.6
		c0-0.1-0.1-0.2-0.1-0.3c0-0.1,0-0.3-0.1-0.4c0-0.2,0-0.5,0-0.7c0-0.2,0.2-0.3,0.3-0.4c0.1-0.1,0.2-0.2,0.4-0.3c0,0,0,0,0.1,0
		c0,0,0,0.1,0,0.1c0,0,0,0.1,0,0.1c0,0.1,0,0.2-0.1,0.3c0,0,0,0.1,0,0.2c0,0,0,0.1,0,0.1c-0.1,0.2-0.1,0.4-0.1,0.5c0,0,0,0.1,0,0.1
		c0,0.3,0.1,0.6,0.1,0.9c0,0.1,0.1,0.2,0.1,0.3C74.1,460.4,74.2,460.5,74.3,460.6z"/>
	<path d="M72,460.8c-0.1-0.1-0.2-0.1-0.3-0.2c-0.1,0-0.1-0.1-0.2-0.1c-0.1-0.1-0.1-0.1-0.2-0.2c-0.1-0.1-0.2-0.1-0.3-0.2
		c-0.1,0-0.1-0.1-0.2-0.1c-0.2-0.1-0.4-0.3-0.5-0.4c0,0-0.1-0.1-0.1-0.1c-0.1,0-0.1-0.1-0.1-0.1c-0.2-0.3-0.4-0.6-0.5-1
		c0-0.1-0.1-0.3-0.1-0.4c0,0,0,0,0-0.1c0-0.1,0-0.2,0-0.3c0,0,0-0.1,0-0.2c0,0,0.1,0,0.1,0c0.1,0.1,0.2,0.2,0.2,0.3
		c0,0,0.1,0.1,0.1,0.1c0.1,0.2,0.2,0.5,0.3,0.7c0,0.1,0.1,0.2,0.1,0.2c0.1,0.1,0.1,0.2,0.2,0.3c0,0.1,0.1,0.1,0.1,0.2
		c0.1,0.1,0.1,0.1,0.2,0.2c0,0.1,0.1,0.1,0.2,0.2c0.1,0.1,0.1,0.1,0.2,0.2c0.1,0.1,0.2,0.2,0.3,0.2c0.1,0.1,0.1,0.1,0.2,0.2
		c0.1,0.1,0.1,0.2,0.2,0.3c0,0,0,0,0,0.1C72,460.6,72,460.7,72,460.8z"/>
	<path d="M75.1,459.9c0-0.1,0.1-0.3,0.2-0.4c0.1-0.1,0.2-0.3,0.2-0.4c0,0,0-0.1,0-0.1c0-0.1,0-0.1,0-0.2c0,0,0-0.1,0.1-0.1
		c0,0,0.1-0.1,0.1-0.1c0.1-0.1,0.2-0.1,0.3-0.2c0.2-0.1,0.4-0.2,0.6-0.1c0.3,0,0.7,0,1-0.1c0.1,0,0.1,0,0.2,0c0,0-0.1,0-0.1,0.1
		c0,0,0,0.1,0,0.1c-0.4,0.1-0.7,0.2-1.1,0.4c-0.1,0-0.2,0.1-0.3,0.2c0,0-0.1,0.1-0.1,0.1c-0.1,0.1-0.2,0.1-0.3,0.2
		c-0.2,0.2-0.4,0.3-0.6,0.5C75.3,459.8,75.2,459.8,75.1,459.9z"/>
	<path d="M76.1,458.2C76.1,458.2,76.2,458.2,76.1,458.2c0,0.1,0,0.1,0,0.2c-0.3,0.2-0.5,0.4-0.7,0.6c-0.2,0.1-0.3,0.3-0.4,0.5
		c-0.1,0.1-0.1,0.1-0.1,0.2c0,0.1-0.1,0.2-0.1,0.2c0,0.1-0.1,0.2-0.1,0.3c0,0.1,0,0.1-0.1,0.2c0,0.1,0.1,0.2,0.1,0.3
		c-0.1,0-0.1,0-0.1,0c0-0.1-0.1-0.2-0.1-0.2c0-0.1,0-0.2,0-0.3c0-0.1,0-0.1,0-0.2c0-0.1,0.1-0.1,0.1-0.1c0.1-0.1,0.2-0.3,0.2-0.4
		c0,0,0-0.1,0-0.1c0-0.1,0.1-0.1,0.1-0.2c0,0,0,0,0-0.1c0.2-0.2,0.4-0.4,0.6-0.6c0.1-0.1,0.2-0.1,0.3-0.2c0.1-0.1,0.2-0.1,0.3-0.1
		c0.1,0,0.1,0,0.1,0c0.1,0,0.1-0.1,0.2-0.1c0.1,0,0.3-0.1,0.4-0.1c0,0,0.1,0,0.1,0c0,0,0,0.1,0,0.1c-0.1,0.1-0.3,0.2-0.4,0.2
		c-0.1,0-0.1,0-0.2,0C76.2,458.1,76.2,458.1,76.1,458.2z"/>
	<path d="M80.6,460.6c0.1-0.1,0.2-0.1,0.2-0.1c0.3-0.1,0.6-0.2,0.9-0.4c0,0,0.1,0,0.1-0.1c0.1,0,0.2-0.1,0.3-0.1
		c0.1,0,0.2-0.1,0.3-0.1c0.2,0,0.3-0.1,0.5-0.2c0.2-0.1,0.3-0.2,0.5-0.3c0,0,0,0,0.1,0c0.1-0.1,0.3-0.2,0.5-0.2
		c0.1,0,0.2-0.1,0.2-0.2c0,0,0.1-0.1,0.1-0.1c0.1-0.1,0.2-0.1,0.4-0.2c0,0,0.1,0,0.1,0c0,0,0,0,0,0.1c-0.2,0.2-0.4,0.3-0.6,0.5
		c-0.1,0.1-0.2,0.2-0.3,0.2c-0.2,0.1-0.3,0.3-0.5,0.3c-0.3,0.1-0.6,0.2-0.8,0.3c-0.2,0.1-0.5,0.2-0.7,0.3c0,0-0.1,0-0.1,0
		C81.3,460.5,81,460.5,80.6,460.6C80.7,460.6,80.7,460.6,80.6,460.6z"/>
	<path d="M88.6,459.5c-0.1,0.1-0.1,0.1-0.2,0.1c-0.1,0.1-0.2,0.1-0.3,0.2c-0.2,0.1-0.4,0.2-0.6,0.3c-0.3,0.1-0.6,0.2-0.9,0.3
		c-0.3,0.1-0.7,0.2-1.1,0.3c-0.3,0-0.6,0.1-0.9,0.2c-0.1,0-0.2,0-0.4,0c0.1-0.1,0.2-0.1,0.3-0.1c0.1,0,0.2,0,0.3-0.1
		c0.1,0,0.3-0.1,0.4-0.1c0.1,0,0.1,0,0.2,0c0.4-0.2,0.8-0.3,1.2-0.5c0.2-0.1,0.4-0.1,0.6-0.2c0.1,0,0.2,0,0.2-0.1
		c0.3,0,0.5-0.1,0.8-0.2c0,0,0.1,0,0.1,0C88.5,459.5,88.5,459.5,88.6,459.5z"/>
	<path d="M68.8,457.6c0.1,0.2,0.2,0.4,0.3,0.6c0.1,0.2,0.2,0.4,0.4,0.5c0.1,0.1,0.2,0.2,0.2,0.4c0,0,0,0.1,0,0.1c0,0,0,0,0,0
		c-0.1-0.1-0.3-0.2-0.4-0.2c-0.1,0-0.1-0.1-0.2-0.1c-0.1-0.1-0.2-0.3-0.3-0.4c0-0.1,0-0.1,0-0.2c0-0.1,0-0.2,0-0.3
		C68.7,457.8,68.7,457.8,68.8,457.6C68.7,457.7,68.7,457.7,68.8,457.6z"/>
	<path d="M89.9,458.9c0,0.1-0.1,0.1-0.1,0.1c-0.1,0.1-0.2,0.1-0.3,0.2c-0.2,0.2-0.4,0.3-0.6,0.5c-0.1,0.1-0.3,0.2-0.4,0.3
		c-0.3,0.2-0.6,0.3-0.9,0.4c0,0,0,0-0.1,0c0,0,0-0.1,0.1-0.1c0.1-0.1,0.2-0.1,0.3-0.2c0,0,0.1-0.1,0.2-0.1c0.2-0.1,0.4-0.2,0.6-0.4
		c0,0,0.1-0.1,0.1-0.1c0.1-0.1,0.2-0.1,0.3-0.2c0.1-0.1,0.3-0.2,0.4-0.3c0.1,0,0.1-0.1,0.1-0.1C89.8,458.9,89.9,458.8,89.9,458.9z"
		/>
	<path d="M65.6,494.8c0,0.2,0.1,0.4,0.2,0.6c0.1,0.2,0.3,0.4,0.4,0.6c0.1,0.1,0.2,0.2,0.3,0.3c0.1,0.1,0.2,0.2,0.3,0.3
		c0.1,0.1,0.2,0.2,0.3,0.3c0.3,0.3,0.6,0.6,1,0.9c0.3,0.3,0.6,0.5,0.9,0.7c0.3,0.2,0.5,0.3,0.8,0.5c0,0,0,0,0,0c0,0,0,0,0,0
		c0,0,0,0,0-0.1c-0.1-0.1-0.2-0.2-0.4-0.3c-0.1-0.1-0.2-0.2-0.3-0.3c-0.1-0.1-0.2-0.2-0.3-0.3c-0.2-0.2-0.4-0.4-0.7-0.6
		c0,0,0,0,0-0.1c0,0,0.1,0,0.1,0c0.1,0.1,0.2,0.1,0.3,0.2c0.1,0.1,0.3,0.2,0.5,0.3c0.1,0.1,0.2,0.1,0.3,0.2c0.1,0.1,0.2,0.2,0.4,0.2
		c0.2,0.1,0.3,0.2,0.5,0.2c0.2,0.1,0.3,0.2,0.5,0.2c0.2,0.1,0.4,0.1,0.5,0.2c0.6,0.3,1.2,0.5,1.9,0.7c0.2,0,0.4,0.1,0.6,0.1
		c0.1,0,0.3,0,0.4,0c0,0,0.1,0,0.1-0.1c0,0,0.1,0,0.1-0.1c-0.1,0-0.2-0.1-0.3-0.1c-0.3-0.1-0.6-0.2-0.9-0.2c0,0-0.1,0-0.1-0.1
		c-0.1-0.1-0.3-0.2-0.5-0.2c-0.3-0.1-0.6-0.2-0.9-0.4c-0.2-0.1-0.3-0.1-0.5-0.2c-0.2-0.1-0.3-0.1-0.5-0.2c-0.2-0.1-0.4-0.2-0.6-0.3
		c0,0-0.1,0-0.1-0.1c-0.2-0.1-0.3-0.2-0.5-0.3c-0.1,0-0.1-0.1-0.2-0.1c-0.2-0.1-0.3-0.2-0.5-0.3c0,0,0,0-0.1,0c-0.1,0-0.1,0-0.2-0.1
		c-0.2-0.1-0.3-0.2-0.5-0.4c-0.2-0.1-0.3-0.3-0.5-0.4c0,0-0.1,0-0.1-0.1c-0.1-0.2-0.3-0.3-0.5-0.4c-0.1-0.1-0.2-0.2-0.3-0.3
		c-0.3-0.2-0.5-0.4-0.7-0.6C65.7,495,65.7,494.9,65.6,494.8z"/>
	<path d="M65.3,497.8c0.1,0.1,0.1,0.1,0.2,0.1c0.1,0.1,0.2,0.1,0.3,0.2c0.2,0.1,0.4,0.3,0.6,0.4c0.3,0.1,0.6,0.3,0.9,0.4
		c0.3,0.2,0.7,0.3,1.1,0.4c0.3,0.1,0.6,0.1,0.9,0.2c0.1,0,0.2,0,0.4,0.1c-0.1-0.1-0.2-0.1-0.3-0.1c-0.1,0-0.2-0.1-0.3-0.1
		c-0.1-0.1-0.3-0.1-0.4-0.2c-0.1,0-0.1,0-0.2-0.1c-0.4-0.2-0.8-0.4-1.2-0.6c-0.2-0.1-0.4-0.2-0.6-0.3c-0.1,0-0.2,0-0.2-0.1
		c-0.3-0.1-0.5-0.2-0.8-0.3c0,0-0.1,0-0.1-0.1C65.4,497.8,65.4,497.8,65.3,497.8z"/>
	<path d="M64,497c0,0.1,0.1,0.1,0.1,0.1c0.1,0.1,0.2,0.2,0.3,0.2c0.2,0.2,0.4,0.4,0.6,0.6c0.1,0.1,0.3,0.2,0.4,0.3
		c0.3,0.2,0.6,0.4,0.9,0.6c0,0,0,0,0.1,0c0,0,0-0.1-0.1-0.1c-0.1-0.1-0.2-0.2-0.3-0.3c0-0.1-0.1-0.1-0.2-0.1
		c-0.2-0.1-0.4-0.3-0.6-0.5c0,0-0.1-0.1-0.1-0.1c-0.1-0.1-0.2-0.2-0.3-0.3c-0.1-0.1-0.3-0.3-0.4-0.4c-0.1,0-0.1-0.1-0.1-0.1
		C64.1,497,64,497,64,497z"/>
	<path d="M115.1,511.3c0.1,0,0.3,0,0.4,0c0.6,0,1.3-0.2,1.8-0.5c0.2-0.1,0.4-0.2,0.7-0.2c-0.2,0.2-0.4,0.3-0.6,0.5
		c0.7-0.1,1.2-0.5,1.8-0.9c-0.1,0.4-0.3,0.5-0.5,0.6c-0.5,0.2-1,0.4-1.5,0.6c-0.3,0.1-0.6,0.2-0.9,0.2c0.1-0.1,0.2-0.2,0.3-0.2
		c-0.4,0-0.8,0-1.3,0.1c-0.1,0-0.2-0.1-0.3-0.1C115.1,511.4,115.1,511.3,115.1,511.3"/>
	<path d="M117.6,511.8c0.2-0.1,0.2-0.1,0.3-0.1c0.3,0,0.6-0.2,0.8-0.4c0.4-0.4,0.7-0.7,1.1-1.1c0.1-0.1,0.3-0.2,0.4-0.3
		C120,510.9,118.6,512,117.6,511.8"/>
	<path d="M114.6,510.9c0.6-0.2,1.2-0.3,1.8-0.2c0,0.2-0.1,0.3-0.3,0.3C115.6,511.2,115.1,511.1,114.6,510.9"/>
	<path d="M52.4,507c0.3,0.2,0.5,0.4,0.8,0.5c0.4,0.2,0.8,0.2,1.1-0.1c0.3,0.1,0.5,0.3,0.8,0.4c-0.4,0.2-0.8,0.4-1.3,0.4
		c0.5,0.2,0.8,0.2,1.3,0c0.2-0.1,0.3-0.2,0.5-0.2c0.3-0.1,0.6-0.1,0.9-0.2c-0.7,1.1-2.1,1.2-3.5,0.4h0.6
		C53.1,507.8,52.5,507.6,52.4,507"/>
	<path d="M59.3,507.5c-0.6,0.5-1.3,1.1-1.9,1.6c-0.1,0.1-0.2,0.1-0.3,0.2c-0.5,0.1-1.1,0.3-1.6,0.4c-0.2,0-0.3,0-0.5,0
		c0,0,0-0.1,0-0.1c0.1,0,0.1-0.1,0.1-0.1c0.4-0.1,0.8-0.3,1.1-0.4c0.4-0.1,0.9-0.3,1.2-0.6c0.3-0.3,0.6-0.5,1-0.8
		C58.7,507.5,59,507.5,59.3,507.5C59.3,507.4,59.3,507.4,59.3,507.5"/>
	<path d="M57.6,507.9c-0.2,0.1-0.3,0.3-0.5,0.4c-0.4,0.2-0.7,0.5-1.1,0.6c-0.4,0.2-0.8,0.3-1.2,0.4c-0.2,0.1-0.4,0-0.6-0.2
		c0.3,0,0.6,0,0.9-0.1c0.3-0.1,0.6-0.3,0.9-0.5c0.3-0.2,0.6-0.4,1-0.6C57.1,507.9,57.3,507.8,57.6,507.9"/>
	<path d="M79.5,431.8c0.8-0.2,1.6-0.5,2.4-0.7c-1,0-1.9,0.1-2.8,0.3c-0.8,0.2-1.7,0.4-2.5,0.6c0.1-0.2,0.4-0.2,0.5-0.4
		c0.1-0.1,0.2-0.1,0.3-0.1c0.8-0.1,1.5-0.5,2.4-0.6c-0.3,0-0.6,0-0.8,0c-0.6,0.1-1.2,0.2-1.8,0.3c-0.4,0.1-0.7,0.1-1.2,0.1
		c0.2-0.1,0.2-0.1,0.3-0.2c0.8-0.2,1.6-0.4,2.4-0.5c-0.5-0.1-0.9,0-1.3,0c-0.4,0-0.8,0.1-1.3,0.1c0.2-0.1,0.4-0.2,0.6-0.2
		c0.4-0.1,0.9-0.2,1.3-0.2c0.5,0,1,0,1.5,0c0.3,0,0.6,0.1,0.9,0.2c0.1,0,0.2,0.1,0.4,0.1c-0.2,0-0.3,0-0.4,0c0,0,0,0,0,0
		c0.2,0,0.5,0.1,0.7,0c0.4,0,0.9,0,1.3,0.1c0.2,0,0.3,0,0.4,0c0.3-0.1,0.6-0.1,1,0c0.2,0,0.4,0,0.5,0c0.4-0.1,0.8-0.1,1.1,0
		c0.1,0,0.1,0,0.2,0.1c-0.4,0.1-0.8,0.1-1.2,0.2c-0.4,0.1-0.7,0.2-1.1,0.3c-0.1,0-0.1-0.1-0.2-0.1c0.1-0.1,0.4-0.1,0.4-0.2
		c-0.1,0-0.3,0-0.4,0.1c-0.6,0.2-1.2,0.3-1.8,0.3c-0.4,0-0.7,0.1-1.1,0.2l0,0C80,431.8,79.8,431.8,79.5,431.8"/>
	<path d="M70.2,432.2c0.1-0.1,0.1-0.1,0.2-0.2c0.3-0.2,0.6-0.4,1-0.7c0.1-0.1,0.2-0.2,0.3-0.3c0,0,0,0,0,0c0.5-0.3,1-0.6,1.7-0.8
		c-0.5,0.2-0.8,0.4-1.1,0.7c0.6-0.2,1-0.4,1.7-0.5c-0.6,0.2-1.2,0.4-1.8,0.7c-0.2,0.1-0.5,0.2-0.7,0.3
		C71.1,431.7,70.7,432,70.2,432.2C70.3,432.2,70.3,432.2,70.2,432.2"/>
	<path d="M69.3,432.2c0.1-0.1,0.1-0.1,0.2-0.2c0.5-0.3,1-0.6,1.6-0.9c0.1-0.1,0.2-0.1,0.4-0.1c-1.2,0.8-2.4,1.6-3.6,2.4
		c-0.1-0.1,0-0.3,0.3-0.4c0,0,0.1,0,0.1,0C68.7,432.8,69,432.5,69.3,432.2C69.3,432.3,69.3,432.2,69.3,432.2"/>
	<path d="M74.2,431.2c1.1-0.6,2.3-1,3.7-1.1C76.6,430.4,75.4,430.8,74.2,431.2"/>
	<path d="M86.3,431.5c0.2,0.1,0.3,0.2,0.4,0.2l0,0c-0.1,0-0.1-0.1-0.2-0.1c-0.3-0.1-0.5-0.2-0.8-0.2c-0.3,0-0.5-0.1-0.8-0.2
		c0.2,0,0.4-0.1,0.7-0.1c0.1,0,0.2,0,0.3,0.1c0.3,0.1,0.5,0.2,0.8,0.3C86.5,431.5,86.4,431.5,86.3,431.5"/>
	<path d="M67.6,432.7c0.4-0.5,0.9-0.9,1.8-1C68.8,432,68.2,432.4,67.6,432.7"/>
	<path d="M72.6,431.3c0.8-0.4,1.6-0.7,2.5-0.8c-0.7,0.2-1.4,0.4-2.1,0.7C72.9,431.3,72.8,431.4,72.6,431.3L72.6,431.3z"/>
	<path d="M93.2,453.2c0,0.4-0.3,0.7-0.4,1c0.6-0.3,1.1-0.8,1.7-1c0,0-0.1,0.1-0.1,0.2c0.1,0.1,0.2,0.1,0.3,0
		c0.2-0.2,0.4-0.4,0.6-0.6c0,0.4-0.1,0.7-0.2,0.9c-0.6,0.8-1.2,1.4-2.1,1.9c-0.2,0.1-0.4,0.3-0.6,0.4c-0.4,0.4-0.9,0.5-1.4,0.7
		c0.9-0.7,1.8-1.3,2.4-2.2c-0.2,0.1-0.4,0.2-0.5,0.3c-0.2,0.1-0.4,0.2-0.6,0.3c-0.8,0.6-1.5,1.3-2.3,1.9c-0.3,0.3-0.7,0.5-1.1,0.7
		c-0.3,0.2-0.6,0.2-1,0.2c0.4-0.2,0.7-0.5,1.1-0.7c0.3-0.2,0.6-0.5,1-0.7c0.1-0.1,0.1-0.1,0.2-0.2c0.6-0.3,1-0.9,1.4-1.4
		c0.2-0.2,0.3-0.5,0.5-0.7c0,0,0.1-0.1,0.1-0.1c0.4-0.1,0.6-0.4,0.8-0.7C93.1,453.3,93.1,453.3,93.2,453.2"/>
	<path d="M93.2,457.3c0.4-0.3,0.8-0.6,1.1-0.9c0.6-0.5,1.1-1.1,1.5-1.8c0.1-0.2,0.3-0.3,0.4-0.5c0.1-0.2,0.2-0.5,0.3-0.7
		c0.1-0.1,0.1-0.2,0.2-0.3c0,0.3,0,0.5-0.2,0.8c-0.1,0.2-0.2,0.4-0.3,0.6c-0.5,1.1-1.2,1.9-2.2,2.5
		C93.9,457.1,93.5,457.2,93.2,457.3"/>
	<path d="M97.1,453.8c0.1-0.9,0.2-1.8,0.3-2.8C97.8,451.7,97.6,453.3,97.1,453.8"/>
	<path d="M65.9,458.2c-0.1,0-0.1,0-0.2,0c-0.2-0.1-0.4-0.1-0.7-0.2c-0.2-0.1-0.4-0.1-0.6-0.2c-0.3-0.2-0.7-0.4-1-0.6
		c-0.1-0.1-0.2-0.1-0.2-0.3c0-0.2-0.2-0.4-0.3-0.5c-0.2-0.2-0.3-0.5-0.3-0.8c-0.1-0.3-0.2-0.5-0.3-0.7c-0.2,0.5-0.1,0.9,0.2,1.4
		c-0.2-0.1-0.4-0.4-0.4-0.6c0-0.3-0.1-0.5-0.1-0.8c0-0.3,0.1-0.5,0.2-0.7c0.1-0.2,0.2-0.5,0.4-0.7c0,0,0.1,0,0.1,0
		c0,0.1,0,0.3-0.1,0.4c-0.2,0.7,0.1,1.3,0.4,1.9c0,0,0,0.1,0,0.1c0,0,0.1-0.1,0.1,0c0,0,0,0.1,0.1,0.1c0.1,0.2,0.3,0.4,0.6,0.6
		c-0.1-0.4-0.4-0.6-0.3-1.1c0.2,0.3,0.4,0.6,0.6,0.9c0.2,0.3,0.5,0.6,0.7,0.9c-0.1-0.7-0.2-1.3-0.4-1.8c0-0.2-0.1-0.3,0.1-0.4
		c0,0.1,0.1,0.3,0.1,0.4c0.1,0.7,0.3,1.4,0.6,2C65.4,457.5,65.6,457.9,65.9,458.2C65.9,458.1,65.9,458.2,65.9,458.2"/>
	<path d="M68,458.8c-0.4,0-0.7-0.3-1-0.5c-0.2-0.1-0.3-0.3-0.5-0.3c-0.1,0-0.2-0.1-0.3-0.2c-0.6-0.7-1.2-1.5-1.4-2.5
		c-0.1-0.3,0-0.6,0-0.9c0,0,0-0.1,0.1-0.2C65.2,456.3,66.4,457.7,68,458.8"/>
	<path d="M61.7,455.6c-0.2-0.2-0.3-0.4-0.3-0.6c-0.1-0.6-0.1-1.3,0.2-1.9c0-0.1,0.1-0.2,0.2-0.3c-0.1,0.4-0.2,0.9-0.2,1.3
		C61.6,454.7,61.7,455.1,61.7,455.6"/>
	<path d="M66.5,457.3c-0.4-0.4-0.5-1-0.5-1.5C66.2,456.3,66.4,456.8,66.5,457.3C66.5,457.3,66.5,457.3,66.5,457.3"/>
	<path d="M41.8,507.2c1.1,0.2,2.3-0.1,3.4-0.2C44.7,507.8,42.6,507.9,41.8,507.2"/>
	<path d="M40.8,503.5c0.2,0.5,0.3,1,0.7,1.4c0.4,0.4,0.8,0.6,1.3,0.9c-0.3,0.1-0.9-0.1-1.3-0.5C41,504.7,40.7,504.2,40.8,503.5"/>
	<path d="M40.9,505.1c0.2,0.3,0.3,0.5,0.5,0.8c0.2,0.3,0.4,0.4,0.7,0.5c0.4,0,0.8,0.1,1.2,0.2c0.2,0,0.3,0.1,0.3,0.4
		c-0.1,0-0.2,0.1-0.3,0c-0.4-0.1-0.8-0.2-1.2-0.3c-0.5-0.1-0.8-0.4-1-0.8C41.1,505.6,41,505.4,40.9,505.1
		C40.9,505.1,40.9,505.1,40.9,505.1"/>
	<path d="M41.6,503.6c-0.6-0.5-0.7-1.1-0.2-1.5c0,0.1,0,0.1-0.1,0.2c-0.2,0.3-0.1,0.6,0.1,0.9C41.5,503.2,41.6,503.4,41.6,503.6"/>
	<path d="M107.5,476.1c-0.4,0.2-0.6,0-0.9-0.1c-0.3-0.2-0.7-0.3-1-0.2c0.1,0.1,0.3,0.2,0.4,0.3c0.4,0.3,0.8,0.6,1,1
		c0.1,0.1,0.2,0.3,0,0.4c-0.2-0.2-0.4-0.4-0.6-0.7c-0.3-0.3-0.6-0.5-1-0.6c-0.2-0.1-0.3-0.1-0.5-0.1c-0.5,0-0.8,0.2-1.1,0.5
		c-0.1,0-0.1,0.1-0.2,0.2c0.1-0.2,0.1-0.2,0.1-0.3c0.2-0.3,0.4-0.6,0.5-0.9c0.1-0.2,0.3-0.4,0.6-0.3c0.3,0,0.6-0.1,1,0
		c0.4,0.1,0.8,0.3,1.2,0.6C107.2,475.9,107.3,476,107.5,476.1"/>
	<path d="M107.4,475.5c-0.1,0-0.3,0-0.4-0.1c-0.3-0.2-0.7-0.5-1-0.8C106.7,474.6,107.1,475,107.4,475.5"/>
</g>
<g>
	<g>
		<g>
			<rect x="72.2" y="473.2" width="4.9" height="3.7"/>
			<rect x="72.3" y="473.3" class="st1" width="4.7" height="3.5"/>
		</g>
		<g>
			<rect x="71.9" y="476.8" width="5.5" height="5.5"/>
			<rect x="72" y="476.9" class="st1" width="5.4" height="5.4"/>
		</g>
		<g>
			<g>
				<path d="M72.9,474.9v-0.8h1.2v0.8H72.9z M73,474.2v0.7h1v-0.7H73z"/>
			</g>
			<g>
				<path d="M75.3,474.9v-0.8h1.2v0.8H75.3z M75.4,474.2v0.7h1v-0.7H75.4z"/>
			</g>
		</g>
	</g>
	<g>
		<g>
			<rect x="38.1" y="520.2" width="4.9" height="3.7"/>
			<rect x="38.2" y="520.3" class="st1" width="4.7" height="3.5"/>
		</g>
		<g>
			<rect x="37.8" y="523.8" width="5.5" height="5.5"/>
			<rect x="37.9" y="523.9" class="st1" width="5.4" height="5.4"/>
		</g>
		<g>
			<g>
				<path d="M38.8,521.9v-0.8H40v0.8H38.8z M38.9,521.2v0.7h1v-0.7H38.9z"/>
			</g>
			<g>
				<path d="M41.1,521.9v-0.8h1.2v0.8H41.1z M41.2,521.2v0.7h1v-0.7H41.2z"/>
			</g>
		</g>
	</g>
</g>
<path class="st2" d="M74.9,482.4c0,10.3,0,32.9-5.9,46.1c-6.9,15.4-28.4,17.7-28.4,0.9"/>
<path class="st3" d="M74.9,482.4c0,10.3,0,32.9-5.9,46.1c-6.9,15.4-28.4,17.7-28.4,0.9"/>
<g>
	<g>
		<path class="st1" d="M76.6,464.9h6c0.4,0,0.7,0.1,0.7,0.3v3.9c0,0.2-0.4,0.3-0.7,0.3h-6c-0.4,0-0.7-0.1-0.7-0.3v-3.9
			C75.8,465,76.2,464.9,76.6,464.9z"/>
	</g>
	<g>
		<g>
			<g>
				<g>
					<path d="M82.1,466.4v1.7H77v-1.7H82.1z M82,468v-1.5h-4.9v1.5H82z"/>
				</g>
				<g>
					<path d="M81.9,466.5v1.3h-4.6v-1.3H81.9z M81.8,467.8v-1.2h-4.5v1.2H81.8z"/>
				</g>
				<g>
					<g>
						<path d="M77.9,467.3c0-0.1,0.1-0.1,0.3-0.1c0.2,0,0.3,0.1,0.3,0.1l0,0L77.9,467.3L77.9,467.3z M78.1,467.3c-0.1,0-0.1,0-0.2,0
							h0.3C78.3,467.3,78.2,467.3,78.1,467.3z"/>
					</g>
					<g>
						<path d="M78.8,467.3c0-0.1,0.1-0.1,0.3-0.1s0.3,0.1,0.3,0.1l0,0L78.8,467.3L78.8,467.3z M79.1,467.3c-0.1,0-0.1,0-0.2,0h0.3
							C79.2,467.3,79.1,467.3,79.1,467.3z"/>
					</g>
					<g>
						<path d="M79.8,467.3c0-0.1,0.1-0.1,0.3-0.1c0.2,0,0.3,0.1,0.3,0.1l0,0L79.8,467.3L79.8,467.3z M80.1,467.3c-0.1,0-0.1,0-0.2,0
							h0.3C80.2,467.3,80.1,467.3,80.1,467.3z"/>
					</g>
					<g>
						<path d="M80.7,467.3c0-0.1,0.1-0.1,0.3-0.1c0.2,0,0.3,0.1,0.3,0.1l0,0L80.7,467.3L80.7,467.3z M81,467.3c-0.1,0-0.1,0-0.2,0
							h0.3C81.1,467.3,81.1,467.3,81,467.3z"/>
					</g>
				</g>
				<g>
					<path d="M81.6,467.3v0.3h-4.1v-0.3H81.6z M81.5,467.6v-0.2h-4v0.2H81.5z"/>
				</g>
			</g>
		</g>
	</g>
</g>
</svg>
