<?xml version="1.0" encoding="UTF-8" standalone="no"?><!DOCTYPE svg PUBLIC "-//W3C//DTD SVG 1.1//EN" "http://www.w3.org/Graphics/SVG/1.1/DTD/svg11.dtd"><svg width="100%" height="100%" viewBox="0 0 384 363" version="1.1" xmlns="http://www.w3.org/2000/svg" xmlns:xlink="http://www.w3.org/1999/xlink" xml:space="preserve" xmlns:serif="http://www.serif.com/" style="fill-rule:evenodd;clip-rule:evenodd;stroke-linejoin:round;stroke-miterlimit:2;"><g><g><g><g><path d="M12.5,332.083c-0.833,0 -2.083,-0.416 -3.333,-0.416c-1.25,-0 -2.5,-0.417 -3.334,-1.667c-1.666,-2.917 -3.75,-5.833 -3.333,-9.583c-0,-0.834 -0,-1.667 0.417,-2.5c-0,-0.834 0.416,-1.667 0.833,-2.5c0.417,-0.834 0.417,-1.667 0.833,-2.084c2.084,-2.916 4.167,-5.416 6.25,-7.916c0.417,-0.834 1.667,-1.25 2.084,-2.084c0.416,-1.25 0.416,-2.5 -0,-3.75c-0.417,-2.083 -0,-4.166 0.416,-5.833c0,-0.833 0.417,-1.667 0.834,-2.083c1.25,-1.667 2.5,-2.917 3.75,-4.584c0.833,-0.833 1.25,-1.666 2.083,-2.5c1.667,-2.5 4.167,-3.75 7.083,-4.583c1.25,-0.417 2.5,-0.833 3.334,-1.667c3.75,-1.666 7.5,-2.5 11.25,-2.5l3.75,0c0.833,-3.75 2.5,-7.5 2.083,-11.666c-0.417,-0 -1.25,-0.417 -1.667,-0.417c-1.25,-0 -2.083,-0.417 -3.333,-0.417c-2.5,-0.416 -5,-1.25 -7.083,-3.333c-0.834,-0.833 -1.667,-1.25 -2.084,-2.5c-0.416,-1.667 -1.25,-2.917 -1.666,-4.583c-0.834,-2.084 -1.25,-4.584 -0.834,-7.084c0.417,-2.916 0.834,-5.833 1.25,-8.75c0.834,-4.583 2.5,-8.75 5,-12.5c0.417,-0.416 0.834,-0.833 0.834,-1.25c2.083,-3.333 4.166,-6.666 6.25,-9.583c2.083,-3.333 4.583,-6.667 7.5,-9.167c0.833,-0.833 1.666,-1.666 2.5,-2.916c0.416,-0.834 0.416,-1.667 0.833,-2.5c0.417,-3.75 1.25,-7.5 2.5,-11.25c1.667,-4.167 4.167,-7.917 7.083,-10.834c1.667,-1.666 3.334,-3.333 5,-5c2.5,-2.5 5.417,-5 8.334,-7.916c0.833,-0.834 1.666,-1.25 2.5,-2.084c0.416,-0.416 0.833,-0.833 1.25,-1.25c1.25,-1.666 2.5,-3.75 3.75,-5.416c0.416,-0.417 0.833,-1.25 1.25,-1.667c1.666,-2.5 4.166,-3.75 6.666,-5c1.667,-0.833 3.75,-1.667 5.417,-2.083c0.417,-0.417 1.25,-0.417 1.667,-0.834c1.666,-1.25 3.75,-1.666 5.833,-2.5c0.417,0 0.833,-0.416 0.833,-0.416c0,-0.417 0,-0.417 -0.416,-0.417c-1.667,-1.25 -2.5,-2.917 -2.917,-4.583c-0.417,-0.834 -0.833,-1.25 -1.667,-1.667c-2.916,-1.667 -5.416,-3.333 -7.5,-6.25c-0.416,-0.833 -1.25,-1.25 -1.666,-1.667c-1.667,-1.25 -3.75,-2.5 -5.417,-4.166c-0.833,-0.834 -1.667,-1.667 -2.083,-2.5c-1.25,-2.084 -2.5,-3.75 -2.917,-6.25c-0,-0.417 -0.417,-1.25 -0.833,-2.084c-0.417,0.834 -0.834,1.25 -1.25,2.084c-1.667,-2.5 -2.5,-5 -3.334,-7.5c-0.416,-1.667 -0.416,-2.917 -0.416,-4.584c-0,-3.333 -0,-6.666 0.833,-10c0.417,-1.25 0.833,-2.5 1.25,-3.75c1.25,-2.916 2.083,-5.833 4.583,-7.916c0.834,-0.834 1.667,-1.667 2.5,-2.5c0.834,-0.834 1.25,-1.667 1.667,-2.917c0.833,-4.583 2.5,-8.75 3.75,-12.917c-0,-0.416 0.417,-0.833 0.417,-1.25c-2.5,-2.083 -4.584,-5 -6.25,-7.916c-0.834,-1.25 -1.25,-2.917 -2.084,-4.167c-1.25,-2.917 -2.083,-6.25 -2.5,-9.167c-0.416,-3.333 -0.833,-7.083 -0.416,-10.416c0.416,-5.417 2.5,-10.834 4.583,-15.834c0.833,-1.666 1.667,-3.333 3.333,-5c1.25,-1.25 2.084,-2.5 3.334,-3.333c1.25,-0.833 2.5,-1.667 3.75,-2.917c3.75,-2.5 8.333,-3.75 12.916,-3.75c2.5,0 5,0.834 7.5,1.667c1.667,0.417 3.334,1.25 4.584,2.5c2.5,1.667 4.583,3.75 6.25,6.667c0.416,0.833 1.25,2.083 1.666,2.916c0.417,0.417 0.417,0.834 0.834,1.25c4.166,-3.333 8.333,-5.416 13.333,-6.666c1.667,-0.417 2.917,-0.834 4.583,-0.834c0.417,0 0.417,0 0.834,-0.416c2.083,-0.834 4.166,-1.25 6.666,-0.834c1.667,0.417 3.75,0 5.417,0.417c2.083,0.417 4.167,0 6.25,0.833c0.833,0.417 2.083,0.417 2.917,0.417c2.5,0 4.583,1.25 7.083,1.667c1.25,0.416 2.083,0.833 3.333,0.416c0.417,0 0.417,0 0.834,0.417c0.833,0 1.25,0.417 2.083,0.417c2.083,-0.834 4.583,-0.417 6.667,-0.417c2.916,-0.417 6.25,-0.417 9.166,0.833c2.917,0.834 6.25,1.25 8.75,3.334c1.25,0.833 2.084,2.083 3.334,3.333c0.416,0.417 0.833,0.833 1.666,1.667c0.834,-0.834 1.25,-1.25 1.667,-2.084c1.25,-2.083 3.333,-3.333 5,-5c0.833,-0.416 1.667,-1.25 2.083,-1.666c1.25,-0.834 2.5,-1.25 3.75,-1.667c2.084,-0.833 3.75,-1.25 5.834,-2.083c1.25,-0.417 2.916,-0.834 4.166,-0.417c2.5,0 4.584,0.417 7.084,0.833c2.5,0.417 4.583,1.667 6.666,2.5c3.75,1.667 6.667,4.167 8.75,7.5c1.667,2.084 2.5,4.584 3.75,6.667c0.834,1.25 1.25,2.917 2.084,4.167c1.25,2.083 0.833,4.166 0.833,6.666l-1.667,0c0.417,1.25 0.417,2.5 0.834,3.75c0.833,4.167 -0,8.334 -1.25,12.084c-0.834,1.666 -1.25,3.333 -2.084,5l0,0.416c0,2.084 -1.666,3.334 -2.916,5c-2.084,2.084 -4.167,4.167 -6.667,6.25c1.25,2.5 2.083,5.417 2.5,8.334c-0,0.833 0.417,1.666 0.417,2.5c-0,0.833 0.416,1.25 1.25,1.666c1.666,0.834 2.916,2.5 4.166,3.75c3.75,4.167 5.834,9.167 7.5,14.167c0.834,2.5 1.25,5 1.667,7.5c0.417,2.083 -0,4.167 -0.833,6.667c-0.417,-0 -0.834,-0.417 -1.667,-0.417c-0.417,1.25 -0.417,2.5 -0.833,3.75c-0.834,4.583 -2.5,8.333 -5,12.083c-0.834,1.25 -1.667,2.5 -2.5,3.75c-0.417,0.417 -0.834,0.834 -1.25,1.25c-0.834,0.834 -1.667,2.084 -2.917,2.917c-1.25,1.25 -2.917,2.917 -5,3.333c-0.417,0 -0.833,0 -0.833,0.417c-1.667,2.5 -3.334,5 -5,7.5c5.416,1.25 10,3.75 14.583,6.667c3.333,2.083 6.25,5 9.167,7.5c1.25,1.25 2.5,2.5 3.333,3.75c3.333,3.75 6.667,7.5 9.583,11.666c1.25,1.667 2.5,2.917 4.167,3.334c1.667,0.416 3.333,0.833 5,1.666c-0,0 0.417,0 0.417,0.417c2.916,1.667 6.25,2.917 9.166,5.417c1.25,1.25 2.917,1.666 4.584,2.916c1.25,0.834 2.083,2.084 3.333,3.334c0.417,0.833 1.25,1.25 1.667,2.083c1.25,1.667 2.083,2.917 3.333,4.583c0.833,1.25 1.667,2.084 2.083,3.334c0.417,0.416 0.834,1.25 1.25,1.666c0.417,0.834 0.834,1.25 1.667,1.25c2.5,0.834 3.75,2.5 5,4.584c3.333,5.833 4.583,12.083 4.167,18.75c-0,2.916 -0.417,5.833 -0.834,8.75l0,0.833c0,2.5 -0.416,5 -0.416,7.5c-0.417,4.167 -1.667,7.5 -4.167,10.417l-0.417,0.416c2.5,3.334 3.334,7.5 5,11.25c0.417,0 0.834,-0.416 1.25,-0.416c3.334,-1.25 6.667,-2.084 10,-2.5c2.5,-0.417 5,-0.834 7.5,-1.25c2.084,-0.417 4.167,-0.834 6.25,-0.417c3.334,0.833 6.25,1.667 8.75,3.75c1.25,1.25 2.5,1.667 4.167,1.667c2.5,-0 4.583,0.833 6.667,2.083c4.166,2.5 6.666,6.25 8.75,10.417c0.416,0.833 0.416,2.083 0.416,2.916c0,1.667 0,3.334 -0.416,5c-0,1.25 -0,2.917 0.833,3.75c-0,0.417 0.417,0.417 0.417,0.834c1.25,2.5 2.5,5.416 3.333,7.916c0.833,2.084 0.417,4.167 -0.417,6.25c-0.833,1.667 -1.25,3.75 -2.5,5.417c-1.25,2.083 -2.083,3.75 -3.75,5.417c-1.25,1.25 -2.5,2.083 -3.75,3.333c-1.666,0.833 -2.916,1.667 -4.583,2.5c-0.833,0.417 -1.667,0 -2.5,0.417c-0.417,-0 -0.833,0.416 -0.833,0.833c-0.834,2.083 -2.084,3.333 -3.334,5c-0.833,1.25 -1.25,2.083 -2.083,3.333c-0.417,0.834 -1.25,1.25 -1.667,2.084c-4.583,5.833 -9.166,11.666 -15,15.833c-2.083,1.667 -4.166,2.917 -6.25,3.75c-0.416,0 -1.25,0.417 -1.666,0.417c-2.5,-0 -4.167,0.833 -5.834,2.5c-2.083,2.083 -4.583,2.916 -7.5,3.75c-2.083,0.416 -4.583,0.416 -6.666,-0.417c-1.25,-0.417 -2.084,-0.417 -3.334,-0.833c-0.416,-0 -0.416,-0 -0.833,-0.417c-2.083,-1.25 -4.167,-2.5 -6.25,-4.167c-2.083,-2.083 -3.75,-5 -5,-7.5c-1.25,-2.5 -1.667,-5.416 -2.083,-7.916c-2.084,-1.25 -3.75,-2.084 -5.834,-3.334c-0.833,-0.416 -1.666,-1.25 -2.5,-1.666c-3.333,-2.084 -6.666,-4.167 -10,-6.25c-0.833,-0.417 -2.083,-0.417 -2.916,-0.834c-1.667,0 -3.334,-0.416 -5,-0.416c-2.084,-0 -4.584,-0.417 -6.667,-0.834c-1.25,0 -2.083,-0.416 -3.333,-0.833c-0.834,-0.417 -1.667,-0.417 -2.917,-0.833c-0.833,-0 -1.667,-0.417 -2.5,-0.834c-0.833,-0.416 -2.083,-0.416 -3.333,-0.833c-1.25,-0.417 -2.084,-0.417 -2.917,-0.833c-0.833,-0.417 -2.083,-0.834 -2.917,0.416l-0.833,0c-2.5,0 -4.583,0 -7.083,0.417c-0.834,0 -1.25,0.417 -1.667,0.833c-1.25,0.834 -2.5,0.834 -3.75,1.25c-1.25,0.417 -2.5,0.417 -3.75,0.417c-5,1.25 -10,2.083 -15.417,3.333c-3.333,0.417 -6.666,0.834 -10,1.25c-0.833,0 -2.083,-0.416 -3.333,-0.416c-2.5,-0 -4.583,-0.417 -6.667,-1.25c-1.666,-0.834 -3.333,-0.834 -5,-0c-0.833,0.416 -2.083,0.416 -3.333,0.416c-3.75,0.417 -7.083,0.834 -10.833,1.25c-1.667,0 -3.75,0.417 -5.417,0.417c-2.917,0 -5.833,0 -8.333,-0.417c-1.25,0 -2.5,-0.833 -3.75,-1.25c-0.834,-0.416 -1.667,-0.833 -2.084,-0.833c-3.333,-0.833 -6.666,-1.25 -9.583,-2.083c-1.667,-0.417 -3.333,-1.25 -5,-1.667c-1.667,-0.417 -2.917,-0.833 -4.583,-0.417c-2.084,0 -4.167,0.417 -6.25,0.834c-0.834,-0 -1.667,0.416 -2.5,0.833c-3.334,1.25 -7.084,2.917 -10.417,4.167c-0.417,0.416 -0.833,0.416 -0.833,1.25c-0.417,2.083 -0.834,3.75 -1.25,5.416c-0.834,2.5 -1.25,5 -2.084,7.5c-0.833,2.084 -1.666,3.75 -3.333,5c-0.417,0 -0.417,0.417 -0.833,0.417c-2.5,0.833 -4.584,2.083 -7.084,2.917c-4.166,1.25 -8.333,1.666 -12.5,1.25c-3.333,-0.417 -6.666,-0.417 -10,-0.834c-2.083,0 -4.166,-0.833 -6.25,-0.833c-1.666,-0.417 -2.916,-0.417 -4.583,-0.833c-1.667,-0.417 -3.75,-0.417 -5.417,-0.834c-1.25,0 -2.916,-0.833 -4.166,-1.25c-2.5,-1.25 -5,-1.666 -7.5,-2.083c-1.667,-0.417 -3.75,-0.833 -5.417,-1.667c-0.417,-0.416 -0.833,-0.416 -1.667,-0.416l-5,-0c-2.5,-1.25 -5.416,-0.417 -7.916,-1.25c-3.334,-0.834 -6.667,-1.667 -9.584,-2.917c-1.25,-0.417 -2.5,-0.833 -3.75,-1.667c-1.25,-0.416 -1.25,-1.666 -1.666,-2.916c-0.834,-2.917 -1.25,-4.167 -1.667,-5.834m40,-56.25c0.417,-0.833 0.417,-1.666 0.833,-2.5c0.417,-0.416 0.417,-1.25 0.834,-1.666l-0,-0.834c-2.084,1.25 -2.5,2.917 -2.084,5l0.417,0m10.417,2.084c0.833,-0.834 1.25,-1.667 2.083,-2.5c-2.083,-0.417 -2.5,-0 -3.75,1.666c0.833,0 1.25,0.417 1.667,0.834m205.833,-5.834c-1.667,0.417 -3.333,1.667 -3.75,3.334c1.25,-0.834 2.083,-2.084 3.75,-3.334" style="fill:#231f20;fill-rule:nonzero;"/><path d="M66.667,280.417c1.25,-1.667 2.5,-3.334 4.166,-5.417c-1.666,-0.417 -3.333,0.417 -5,1.25c-0.833,0.417 -1.666,0.833 -1.666,2.5c0.833,0.833 1.25,1.667 2.5,1.667c0.833,1.25 1.666,2.083 2.916,2.916c0.417,0.417 0.834,0.834 1.667,1.25c2.083,0.834 3.75,2.5 5,4.167c0.833,0.833 1.667,1.667 2.083,2.917c1.25,1.666 2.917,2.916 4.167,5c1.25,2.5 2.917,5 4.167,7.916l-0,0.417c-0.417,-0.417 -1.25,-0.833 -1.667,-1.25c-0.833,-0.833 -1.667,-2.083 -2.5,-2.917c-1.667,-1.666 -3.75,-3.333 -5,-5.833c0,-0.417 -0.417,-0.417 -0.417,-0.417c-3.333,-2.5 -6.25,-4.166 -9.166,-7.083c-1.25,-1.25 -2.917,-2.5 -4.584,-3.333c-1.666,-1.25 -2.916,-1.667 -5,-2.084c-2.083,-0.416 -4.166,-0.416 -6.25,-0.833l-3.75,0c-3.333,0.833 -6.666,1.25 -10,2.083c-2.916,0.834 -6.25,1.25 -9.166,2.084c-0.834,-0 -1.667,0.416 -2.5,0.833c-1.25,0.417 -2.084,1.25 -2.917,2.083c-0.833,0.417 -1.25,1.25 -1.667,2.084c-0.833,1.666 -1.666,3.333 -2.5,5.416c-1.25,2.5 -1.25,5.417 -1.25,7.917c0,0.833 0.417,2.083 0.834,2.917c0.833,1.25 1.666,2.5 2.5,3.75c-2.5,0.833 -4.167,-0.834 -6.25,-1.667c-0.834,1.25 -2.084,2.083 -2.917,2.917c-2.083,2.5 -2.917,5.416 -4.167,7.916c-0.833,2.084 -0.833,3.75 -0.416,5.834c2.083,0.833 3.75,1.25 5.416,1.666c1.667,0.417 2.084,1.667 2.084,3.334c-0,2.5 0.833,4.166 3.333,5.416c2.5,1.25 5,2.084 7.5,2.5c3.333,0.834 6.667,1.25 10,2.084c1.667,0.416 2.917,0.833 4.583,0.833c2.917,0.417 5.834,0.417 8.334,1.667c2.083,0.833 4.583,1.25 7.083,2.5c4.167,2.083 8.75,2.916 13.333,2.916c2.5,0 5,0.417 7.5,0.417c2.084,0 4.584,0.417 6.667,0.417c2.5,-0 4.583,-0.417 7.083,-0.834c0.417,0 2.5,0 2.5,-0.416c2.5,-0.417 4.584,-0.834 6.25,-2.5c0.834,-0.417 1.25,-1.25 1.667,-2.084c2.083,-2.083 3.75,-5 5,-7.916c0.417,-1.25 0.833,-2.084 0.833,-3.334l0,-4.166c0.417,-1.667 1.25,-3.334 2.5,-4.167c3.334,-1.667 6.25,-4.167 10,-5.833c1.667,-0.834 3.334,-1.667 5.417,-1.667l1.25,0l1.667,-0.833l-5.834,-0l-0.416,-0.417c0.416,0 0.833,-0.417 1.25,-0.417c0.833,0 1.666,0 2.5,-0.416c0.833,-0 1.666,-0 2.5,-0.417c-0,-0.417 -0.417,-0.833 -0.834,-0.833c-0.833,-0 -1.666,-0.417 -2.5,-0.417l-0.833,0c-1.25,0 -2.5,0.417 -3.333,0.417c-1.25,-0 -2.917,0.416 -4.167,0.833c-0.417,0 -1.25,0.417 -2.083,0.417l0.416,-0.417c0.834,-0.417 1.667,-0.833 2.5,-1.25c1.667,-0.833 3.334,-1.25 5.417,-1.25l2.083,-0l-0.416,-0.417c-0.834,-0.416 -1.25,-0.416 -2.084,-0.833c-0.833,0 -1.25,-0.417 -2.083,-0.417c-1.25,-0.416 -2.083,-0.416 -3.333,-0.416l-0.834,-0c1.25,-0.417 2.5,-0.834 3.334,-0.834l4.166,0c0.417,0 1.25,0 1.667,0.417c0.417,0 0.417,0 0.833,0.417c0.417,0.416 1.25,0.833 1.667,0.833c0.833,0.417 1.25,0.833 2.083,1.25c0.417,0.417 0.834,0.417 1.667,0.833c0.417,0 0.833,0.417 0.833,0.834c0.834,0.833 1.25,1.666 2.084,2.5c0.416,0.416 0.833,0.833 1.666,1.25c0.834,0.416 1.667,1.25 2.5,1.666c0.834,0.417 1.25,0.834 2.084,1.25c0.833,0.417 2.083,0.834 3.333,1.25c1.25,0.417 2.5,0.834 3.75,0.834c0.833,-0 1.25,0.416 2.083,0.416c1.25,0.417 2.084,0.417 3.334,0.834l2.083,-0c0.417,-0 0.417,-0 0.417,0.416l0.833,0c0,-0.416 -0.417,-0.833 -0.833,-0.833l-0.417,-0.417c-0.417,-0.833 -0.833,-1.666 -1.25,-2.5l0,-0.416l1.667,-0c0.416,-0 0.833,0.416 1.25,0.416l0.416,0c0.417,0.417 1.25,0.417 2.084,0.417l1.25,0c0.833,0.833 1.666,1.25 2.5,2.083c0.416,0.417 0.833,0.834 1.25,1.25l0.416,0l0,-0.416c0,-0.417 -0.416,-0.417 -0.416,-0.834c-0,0 -0,-0.416 -0.417,-0.416c0,-0.417 -0.417,-0.834 -0.417,-1.667c-0.416,-0.417 -0.416,-0.833 -0.416,-1.25l0.416,0c0.417,0.417 0.834,0.417 1.25,0.833c0.417,0.417 0.834,0.417 1.25,0.417c0.417,0 0.834,0.417 0.834,0.417c0.416,0.416 1.25,0.416 1.666,0.833l0.417,0c0,0 0.417,0.417 0,0.417c0,0.416 0,0.833 -0.417,0.833c-0.416,-0 -0.416,0.417 -0.833,0.417l0,0.416l0.417,0c0.416,0 0.833,0 1.25,-0.416c0.833,-0.417 1.25,-0.834 2.083,-0.834c0.417,0 0.833,0 1.25,-0.416c0.417,-0 0.417,-0.417 0.833,-0l0,0.416c-0.416,0.417 -0.416,0.834 -0.833,1.25c0,0.417 -0.417,0.417 -0.417,0.834c0,0.416 -0.416,0.416 -0.833,0.833c-0.417,-0 -0.833,0.417 -1.25,0.833l4.167,0c0.416,0 0.833,0 1.25,-0.416l0.416,-0c0.834,-0.417 1.667,-0.417 2.5,-0.834c0.834,-0.416 1.667,-0.416 2.917,-0.833c0.833,-0 1.667,-0.417 2.5,-0.833c0.833,-0.417 1.25,-0.834 2.083,-1.25c0,-0 0.417,-0 0.417,-0.417c0.833,-0.833 0.833,-0.833 2.083,-0.417l2.5,0c0.417,0 0.834,-0.416 1.25,-0.416c0.417,-0 0.834,-0.417 0.834,-0.417c0.833,-0 1.25,-0.417 2.083,-0.417c-0.417,0.417 -0.833,0.834 -1.25,0.834c-0.417,-0 -0.833,0.416 -0.833,0.833c-0.417,0.417 -0.834,0.833 -1.667,0.833l-0.417,0.417c0.417,0.417 0.834,0.417 1.25,-0l4.584,-0c1.25,-0 2.083,-0.417 3.333,-0.417l6.667,0c1.25,-0.416 2.916,-0.416 4.166,-0.833c0.834,-0 2.084,-0.417 2.917,-0.417l2.5,0c1.667,-0.416 3.333,-0.833 4.583,-0.833c0.417,-0 0.834,-0 1.667,-0.417c1.25,0 2.083,-0.416 3.333,-0.416c0.417,-0 0.834,-0.417 1.25,-0.417c1.25,-0.417 2.917,-0.833 4.167,-1.25c0.833,-0.417 2.083,-0.833 2.917,-1.25c0.416,-0.417 1.25,-0.417 1.666,-0.417l0.417,0c0.833,-0.416 1.667,-0.416 2.5,-0.833l0.833,-0c0.834,-0 1.667,-0.417 2.5,-0.417c0.834,-0.416 1.667,-0.833 2.5,-0.833c0.834,-0.417 1.667,-0.833 2.5,-0.833c1.25,-0.417 2.5,-0.834 3.75,-1.25c1.25,-0.417 2.5,-0.417 3.334,-0.834l4.166,0c1.667,0 2.917,0.417 4.584,0.417l0.416,0c0.417,0 0.834,0 1.25,0.417l-2.916,-0c-0.834,-0 -1.667,-0 -2.5,0.416l-2.917,0l0.417,0c0.833,0 1.666,0.417 2.5,0.417l1.666,0c0.417,0 1.25,0 1.667,0.417c0.417,-0 1.25,0.416 1.667,0.833c0.416,0.417 1.25,0.417 2.083,0.833c0.417,0 0.833,0.417 1.25,0.417c-0.417,-0 -1.25,-0 -1.667,-0.417l-1.25,0c-0.833,0 -1.666,0 -2.916,-0.416l-8.334,-0l-1.25,0.416c0.417,0 0.834,0.417 1.25,0.417c1.667,0.417 3.334,0.833 5,1.25c1.667,0.417 2.917,0.417 4.584,0.833l1.25,0c1.666,0 3.333,-0.416 4.583,0.417l0.417,-0c1.25,-0 2.5,-0 3.333,0.417c1.667,0.416 3.333,0.833 5,1.25l-0,0.416c-0.833,0 -1.667,0 -2.5,0.417c3.333,1.25 5.833,3.333 8.75,5c2.083,1.25 3.75,2.917 5.833,4.583c0.417,0.417 1.25,1.25 1.667,1.25c2.5,1.667 5,3.334 7.5,4.584c0.833,0.416 1.25,1.25 1.25,2.083l-0,1.667c0.833,2.083 1.667,4.166 2.5,6.25c1.667,3.333 4.167,5.833 7.083,7.916c1.667,1.25 3.75,2.084 5.834,1.667c2.083,-0.417 4.166,-1.25 5.833,-2.083c0.833,-0.417 1.667,-1.25 2.917,-1.25c0.416,-0 0.416,-0.417 0.833,-0.417c0.417,-0.417 0.833,-0.417 1.667,-0.417c2.5,-0.416 5,-0.833 7.083,-2.083c3.333,-2.083 5.833,-4.583 8.75,-7.083c2.083,-2.084 4.167,-4.584 6.25,-7.084c2.083,-2.5 3.75,-5.416 5.417,-8.333c0.833,-1.25 1.666,-2.5 2.083,-4.167c-0,-0.416 0.417,-0.833 0.833,-0.833c1.667,-0.833 3.75,-1.25 5.417,-2.083c1.25,-0.417 2.083,-0.834 3.333,-1.25c2.084,-1.25 4.167,-2.5 5.834,-5c1.25,-1.667 2.5,-2.917 3.333,-5c0.833,-2.084 0.833,-4.167 0.417,-6.25c-0.417,-2.084 -1.667,-4.167 -2.5,-6.25c-0.417,-0.834 -0.834,-1.25 -1.667,-1.25c-0.833,-0 -1.667,-0 -2.917,-0.417c0,-0.417 0.417,-0.417 0.417,-0.417c0.833,-0.833 1.667,-2.083 1.667,-3.333c-0,-0.417 0.416,-1.25 0.416,-1.667c0.834,-2.5 0.834,-4.583 0.417,-7.083c-0.417,-1.667 -1.25,-2.5 -2.083,-3.75c-0.417,-0.417 -1.25,-0.417 -1.667,-0.833c-1.667,-1.25 -3.75,-1.667 -6.25,-2.084c0,2.084 0.417,4.167 -0.417,5.834l-0.416,-0c-0,-0.417 -0.417,-0.834 -0.417,-1.25c-0.833,-2.917 -2.917,-5.417 -5.833,-6.667c-0.834,-0.417 -1.667,-1.25 -2.917,-2.083c-1.25,-0.834 -2.083,-1.667 -3.333,-2.5c-0.417,-0.417 -1.25,-0.417 -2.084,-0.417c-2.083,0 -4.166,0.417 -6.25,0.417c-3.75,0.416 -7.916,0.833 -11.666,2.083c-0.417,0 -1.25,0.417 -1.25,0.833c-1.25,1.25 -2.917,2.084 -4.584,2.084c-2.083,-0 -3.333,1.25 -5.416,1.25c-0,-0 -0.417,-0 -0.417,0.416c-1.667,1.667 -2.917,2.917 -4.167,4.584c-0.833,1.25 -2.083,2.083 -2.916,2.916c-0.417,0.417 -0.834,0.834 -1.25,2.084c1.666,-1.25 2.916,-2.5 4.166,-3.334c0,1.25 -0.416,2.084 -0.833,2.917c-0,0.417 -0.417,0.833 -0.833,0.833c-0.834,0.834 -2.084,1.667 -2.917,2.917c-1.667,1.667 -2.917,3.75 -4.167,5.833l0,0.834c1.25,-2.084 3.334,-4.584 4.584,-5.417c-0,1.667 -0.834,2.5 -1.25,3.75c-1.667,2.917 -2.5,6.25 -2.917,10c-0.417,2.5 -0.833,5 -1.667,7.5c-0.416,-1.25 -0.416,-2.917 -0.416,-4.167c-0.417,-2.5 0.416,-5 0.416,-7.5c0,-1.666 1.25,-3.333 0.417,-5l-0,-0.416c0.417,-2.084 0.417,-4.584 1.667,-6.667c0.416,-0.417 0.833,-1.25 1.25,-2.083c0.416,-1.25 1.25,-2.084 1.666,-3.334c0.417,-0.833 0.417,-1.25 0.834,-2.083c0.833,-1.25 1.666,-3.333 1.666,-3.75c2.084,-1.25 3.75,-2.5 5.834,-3.75c0.416,-0.417 0.833,-0.417 0.833,-1.25c-0,-0.833 -0,-2.083 -0.417,-2.917c-0.833,-0.833 -1.25,-2.083 -2.083,-2.916c-0.833,-1.667 -0.833,-1.667 -2.5,-1.25c-0.417,-0 -0.417,-0 -0.833,0.416c-1.25,0.417 -2.917,0.417 -4.167,0c-0.833,-0.416 -2.083,-0.416 -2.917,0c-0.833,1.25 -1.25,2.084 -2.083,3.334c-2.917,3.75 -6.667,6.666 -11.25,8.75c-2.083,0.833 -4.167,0.833 -6.25,0.833c-1.667,-0 -2.917,-0 -4.583,-0.417c-0.417,0 -0.417,0 -0.834,0.417c-0.833,0.833 -2.083,1.667 -2.916,2.917c-0.834,0.833 -2.084,1.25 -3.334,1.666c0.834,-1.25 2.084,-2.083 2.084,-4.166c-0.834,0.416 -1.667,0.833 -2.5,1.25c-0.834,0.416 -1.25,0.416 -2.5,0.833c0.416,-0.833 0.416,-0.833 0.833,-1.667c-1.25,0.834 -2.083,0.417 -2.5,1.667c-0,0.417 -0.417,0.417 -0.833,0.833c-1.25,0.417 -2.5,1.25 -3.75,1.667c1.666,-2.917 4.583,-5.417 5.833,-8.75c-1.25,2.083 -2.917,3.333 -5,4.583c-0.833,0.834 -1.667,1.25 -2.083,2.5c-0.834,1.667 -2.084,3.334 -2.917,5c-0.833,1.25 -1.667,2.084 -2.917,2.5c0.417,-0.416 0.417,-0.833 0.834,-1.25c0.833,-1.666 2.083,-3.333 2.916,-5c0.417,-1.666 1.667,-2.916 1.667,-4.583c-0,-1.25 0.833,-2.5 1.25,-3.75c0.833,-1.667 0.833,-1.667 -0.417,-3.75c-0.416,0.833 -0.416,1.25 -0.833,2.083c-0.417,1.667 -0.833,2.917 -1.667,4.584c-0.416,1.25 -0.833,2.5 -2.083,3.333c0.417,-1.25 0.417,-2.5 0.833,-3.75c0.417,-1.667 0.834,-2.917 0.834,-4.583c-0,-1.667 -0,-3.334 -0.417,-5c-0,-1.25 -0.417,-2.5 -0.417,-3.75c-0.416,-0.417 -1.25,-0.417 -1.666,-0.834c-1.667,-1.25 -3.334,-2.5 -4.584,-3.75c-2.083,-1.666 -3.75,-4.166 -4.166,-7.083c-0,-0.833 -0.417,-1.667 -0.417,-2.5c-1.25,-4.167 -0.417,-8.333 1.25,-12.5c0.417,-0.833 0.833,-1.667 1.25,-2.917c0.417,-1.25 0.833,-2.5 1.667,-3.333c1.666,-2.5 3.75,-5.417 5.416,-7.917c0.417,-0.416 0.834,-0.833 0.834,-1.25c0.416,-1.25 0.416,-2.5 0.416,-3.75c0,-0.416 0,-0.833 -0.416,-1.666c-0.417,-0.834 -0.834,-1.25 -0.834,-2.084c-0.416,-1.25 -0.833,-2.5 -1.25,-3.75c-1.666,-3.333 -1.25,-6.666 -1.25,-10l0,-0.416c0.417,-0.834 0.834,-2.084 1.25,-2.917c-1.25,-2.083 -2.5,-3.75 -3.75,-5.833c-0.416,-0.834 -1.25,-1.667 -1.666,-2.5c-0.417,-0.834 -1.25,-1.25 -1.25,-2.5c0.833,0.416 2.083,1.25 2.916,1.666c1.667,2.084 3.75,3.75 5.834,5c0.416,-1.25 0.833,-2.5 1.25,-3.75l0.416,0.417c0.417,3.333 0,6.667 -0.416,10.417l-0,1.25c0.416,2.916 0.833,5.833 2.083,8.333c0.417,0.833 0.833,1.25 1.25,1.667c1.25,-0.417 2.5,-0.417 3.333,-1.667c0,-0.417 0.417,-0.417 0.834,-0.417c0.833,-0.416 1.666,-0.833 2.5,-1.25c0.416,0 0.416,-0.416 1.25,-0.416c-0.417,1.25 -0.834,2.083 -1.25,2.5c-0.417,1.25 -0.834,2.916 -1.25,4.166c-0.417,2.084 -1.667,3.75 -3.334,5.417c-1.25,1.25 -2.083,2.917 -3.333,4.167c-0.417,0.416 -0.833,1.25 -1.25,1.666c-2.083,2.917 -4.583,5.417 -5,9.167c-0,-0 -0,0.417 -0.417,0.417c-0.416,1.25 -1.25,2.083 -1.666,3.333c-1.667,3.333 -1.667,6.25 -0.834,9.583c0.417,2.084 1.667,3.75 1.667,5.834c-0,0.416 0.417,1.25 0.833,1.25c1.25,0.833 2.5,2.083 4.167,2.916c1.667,0.834 2.917,1.667 4.583,2.084c1.667,0.833 3.334,1.25 5,2.5c0,0.416 0.417,0.833 0.417,1.666c0.833,1.667 1.667,3.75 3.75,4.167c1.667,0.833 3.75,1.25 5.417,1.667c1.25,0.416 2.5,0.416 3.333,0.416c1.667,-0.416 2.917,0 4.167,0.417c0.833,-0 1.666,0.417 2.5,-0c1.25,-0.417 2.5,-0.833 3.333,-1.25c0.417,-0 0.833,-0.417 1.25,-0.417c2.083,-2.5 4.167,-5 5.833,-7.916c1.667,-2.5 2.917,-5.417 4.167,-8.334c0.417,-0.416 0.417,-1.25 0.833,-1.666c0,2.083 0,4.166 -0.416,6.666c0.833,-0.416 1.25,-0.416 1.666,-0.833c1.25,-0.833 2.917,-2.083 4.167,-2.917c2.5,-1.666 4.583,-3.75 5.417,-6.666c0.833,-2.5 1.25,-5 2.083,-7.5c0.417,-1.25 0.833,-2.084 1.25,-3.334c0.417,-1.25 -0,-2.5 -0,-3.75c-0,-1.25 0.417,-2.5 -0,-3.75c-0,-2.5 -0.417,-4.583 -0.833,-7.083l-0,-0.833c0.833,-0.834 -0,-1.667 -0,-2.5c-0.417,0.416 -0.834,-2.5 -1.25,-3.75c-0.834,-2.917 -2.5,-5.417 -4.584,-7.917c-0.416,-0.417 -0.833,-0.833 -1.25,-1.25c-1.25,-0.417 -1.666,-1.25 -1.666,-2.5c-0,-1.25 -0.834,-2.083 -1.25,-2.917c-2.084,-2.5 -3.75,-5 -6.25,-6.666c-2.084,-1.25 -3.75,-2.917 -5.834,-4.167c-5.416,-3.75 -11.25,-6.25 -17.083,-9.167c-0.417,-0.416 -0.833,-0.833 -1.25,-1.25c-0.833,-1.25 -2.083,-2.5 -3.333,-4.166c-0.417,-0.417 -1.25,-0.834 -1.667,-1.667c-0.833,-0.833 -2.083,-2.083 -2.917,-2.917c-3.75,-4.166 -7.916,-7.5 -12.5,-10.833c-1.25,-1.25 -2.916,-2.5 -4.583,-3.333c-2.5,-1.25 -5.417,-2.084 -8.333,-3.334c-1.667,-0.833 -3.334,-1.25 -5,-2.083c-0,-0 -0.417,-0.417 -0.417,-0c-1.25,0.417 -2.5,-0.417 -4.167,-0.833c-1.666,-0.417 -2.916,-0.417 -4.583,-0c-2.917,0.833 -6.25,1.666 -9.583,1.25l-1.25,-0c-1.667,-0 -3.75,0.416 -5.417,-0l-2.917,-0c-0.416,0.416 -1.25,0.416 -1.666,0.833c-3.334,1.25 -6.25,1.667 -9.584,1.667c0.834,-0.417 1.667,-0.417 2.5,-0.417c0.834,-0 1.25,-0.417 2.084,-0.417c3.333,-1.25 6.25,-2.916 8.75,-5c0.833,-0.416 1.666,-0.833 2.5,-0.833c1.25,-0 2.083,-0 3.333,-0.417c0.833,-0.416 1.667,-0.416 2.5,-0.833c-0,0.417 0.417,0.417 0.417,0.833c0.416,-0.416 1.25,-0.416 1.666,-0.833c2.084,-1.25 4.167,-2.917 6.25,-4.167c0.834,-0.416 1.667,-1.25 2.5,-1.25c1.25,-0.416 2.084,-0.833 2.5,-1.666c1.25,-1.25 2.917,-2.917 5,-3.75c2.084,-0.834 3.75,-2.5 5.417,-4.584c2.083,-2.5 4.167,-5 5.417,-8.333c-0,-0.417 0.416,-0.833 1.25,-1.667c0.833,2.5 -0,4.584 -0,6.667c1.25,-0.833 2.083,-1.667 2.5,-2.917c0.833,-1.25 1.25,-2.916 1.666,-4.166c0.417,-0.834 0.834,-1.667 1.25,-2.917c0.417,-1.667 0.834,-3.333 1.25,-5c0.417,-1.25 0.834,-2.5 0.417,-4.167l-0,-1.25c-0,-2.083 -0,-4.583 -0.417,-6.666c-0.416,-0.834 -0.416,-2.084 -0.416,-2.917c0.833,0.417 1.666,0.417 2.083,0.833c0.417,0.417 0.833,1.25 1.667,2.084l-0,-1.667c-0.834,-2.083 -1.25,-4.583 -2.084,-6.667c-0.416,-0.833 -0.833,-1.666 -1.666,-2.5c-0.834,-1.25 -1.667,-2.083 -2.5,-2.916c-1.25,-1.667 -2.5,-3.334 -4.167,-4.584c-0.417,-0.416 -0.833,-0.833 -0.833,-1.666c-0.417,-1.667 -0.834,-3.334 -1.667,-5.417c-0.833,-2.083 -1.667,-4.167 -2.5,-6.25c-0.417,-1.667 -1.25,-2.917 -2.083,-4.583c-0.834,-1.667 -1.667,-3.75 -2.5,-5.417c0.833,-0.417 1.25,-0.417 1.666,-0.833c2.084,-0.834 4.167,-2.084 6.25,-2.917c2.5,-1.25 3.75,-2.917 4.584,-5.417c0.833,-2.5 1.666,-5 2.083,-7.5c0.417,-1.25 0.417,-2.5 0.417,-3.75l-0,-11.25c-0.417,-1.666 -0.417,-3.333 -0.834,-5.416c0.834,0.416 1.667,0.833 2.5,1.25c-0.833,-2.084 -2.083,-3.75 -3.333,-5.834c-0.833,-0.833 -1.667,-2.083 -2.5,-2.916c-4.167,-2.917 -8.333,-5.417 -13.333,-6.25c-0.834,-0 -1.667,-0.417 -2.5,0.416c-0.834,0.417 -1.667,0.417 -2.5,0.417l-1.25,-0c-2.5,0.833 -5,0.833 -7.084,2.5c-1.666,1.25 -3.333,2.5 -5,3.75c-0.833,0.417 -1.25,1.25 -2.083,2.083c-1.25,2.084 -3.333,3.75 -3.75,6.25c-1.25,0.417 -0.417,0.834 -0.417,1.25c0,0.417 0.417,0.834 0.417,0.834c0.833,2.083 2.083,4.166 2.083,6.666c-0.416,-0.416 -0.833,-0.833 -1.25,-0.833c-1.666,-1.25 -1.666,-3.75 -3.75,-4.167c-1.666,-1.666 -3.333,-3.75 -5,-5.416c-1.666,-2.084 -3.333,-4.167 -5.416,-5.417c-0.417,-0 -0.417,-0.417 -0.834,-0.417c-1.25,-1.25 -2.5,-1.666 -4.166,-1.666l-1.25,-0c-3.75,-0.417 -7.084,-0.417 -10.834,-0l-1.666,-0c-2.084,-0.417 -4.584,-1.25 -6.667,-1.667c-0.833,-0 -1.667,-0.417 -2.5,-0.417c-1.25,-0.416 -2.917,-0.416 -4.167,-0.833c-2.5,-0.417 -5.416,-0.833 -8.333,-0.833c-2.917,-0 -6.25,-0 -9.167,0.416c-1.666,0 -3.75,0.417 -5.416,0.834c-1.25,0.416 -2.5,0.416 -3.75,0.833c-1.667,0.417 -3.334,0.833 -4.584,1.667c-3.75,3.333 -8.75,5 -12.916,7.916c-0.417,-3.75 -2.084,-6.666 -3.75,-9.583c-0,-0.417 -0.417,-0.417 -0.417,-0.417c-1.25,-1.25 -2.5,-2.916 -3.75,-4.166c-3.75,-3.75 -8.333,-5.834 -13.75,-5c-5,0.833 -9.167,3.75 -12.083,7.916c-1.25,2.084 -2.5,4.167 -3.75,6.667c-0.834,1.667 -1.667,3.75 -2.084,5.417c-0.416,2.083 -0.833,4.166 -1.25,6.25c-0.416,2.083 -0.833,4.166 0,6.25c1.25,3.75 1.667,7.5 3.75,11.25c0.417,1.25 1.25,2.083 2.084,2.916c2.083,2.084 4.583,4.167 6.666,5.834c-0.416,0.833 -0.833,1.666 -1.25,2.5c-1.25,2.916 -1.666,5.833 -2.083,8.75c-0.833,3.333 -1.25,7.083 -1.667,10.833c0,0.833 0,1.25 -0.833,1.667c-1.25,1.25 -2.5,2.083 -3.333,3.333c-2.917,2.917 -5,6.25 -6.25,10.417c-0.417,1.25 -0.417,2.083 -0.834,3.333c-0.833,2.5 -0.416,4.583 -0.416,7.083c-0,0.417 -0,1.25 0.416,2.084c1.25,-1.25 2.084,-2.084 3.334,-2.917l-0,4.583c-0,1.667 -0,2.917 0.833,4.167c1.667,2.5 2.917,5.417 4.583,7.917c0.417,1.25 1.25,2.083 2.5,2.916c0,-1.25 -0.416,-2.083 -0.416,-3.333l0.416,-0c1.25,1.25 2.5,2.5 3.75,3.75c0.834,0.833 1.25,1.25 2.084,1.667c1.666,0.833 3.333,2.083 4.583,3.333c1.667,1.667 2.5,3.75 4.583,5l0.417,-0l-0,-1.25c1.25,0.417 2.5,0.833 3.333,1.25c1.25,0.833 2.5,2.083 3.75,3.75c2.917,3.75 7.084,5 11.25,6.667c0.417,-0.417 -0.416,-1.25 0,-1.667c3.75,3.75 7.084,7.917 10.834,11.667c-0.834,-0 -1.25,-0.417 -1.667,-0.417c-1.667,-0.833 -3.333,-1.667 -5,-2.083c-0.833,-0.417 -2.083,-0.834 -2.917,-1.667c-0.833,-0.833 -1.666,-1.25 -2.5,-0.833l-1.666,-0c-2.5,-0 -5,-0.834 -7.084,-1.667c-0.416,-0 -0.833,-0.417 -1.25,-0c-2.5,1.25 -4.583,2.5 -7.083,3.75c-2.083,1.25 -4.583,2.5 -6.667,3.75c-2.916,1.667 -5.833,2.917 -7.916,5.417c-1.25,1.25 -2.084,2.5 -3.334,3.333c-0.416,0.417 -0.833,0.833 -1.25,0.833c-2.083,1.25 -3.75,2.5 -5.833,4.167c-2.917,2.917 -5.833,5.833 -9.167,8.75c-2.5,2.5 -4.583,5.833 -6.666,8.75c-0.417,0.417 -0.417,0.833 -0.834,1.25c-0.833,0.417 -1.25,0.833 -1.25,1.667c-0.833,1.666 -1.666,3.333 -2.5,5c-1.25,2.5 -2.083,5.416 -2.916,8.333c-0,0.833 -0,2.083 -0.417,2.917c-1.25,-0.417 -2.083,0.833 -2.5,1.666c-1.667,2.084 -2.917,4.167 -4.167,6.25c-2.5,3.75 -4.583,7.5 -7.083,11.667c-2.083,3.75 -4.167,7.5 -6.25,11.25c-0.833,1.667 -1.667,3.333 -1.667,5.417c-0.416,3.75 -0.833,7.916 -0.833,11.666c-0,2.5 1.667,5.417 3.75,6.25c1.25,0.834 2.917,1.25 4.583,0.834c1.667,-0 2.917,-0 4.584,-0.417c1.25,0 1.666,0.417 2.083,1.25c1.25,1.667 2.5,3.75 4.167,5.417c1.25,1.25 2.916,2.916 5.416,2.916l0.417,0c2.083,0.417 4.583,0.834 6.667,1.25l2.5,0c2.083,-0.416 3.75,-0.833 5.833,-1.25c1.667,-0.416 2.917,-0.833 3.75,-2.5l0.417,-0.416c1.25,-1.667 2.083,-3.334 3.333,-5c0.417,-0.417 0.417,-0.834 0.833,-1.25c1.667,-0.834 2.917,-1.667 4.584,-2.084c2.083,-0.833 4.166,-2.083 5.833,-4.166c0.417,-0.834 1.25,-1.25 2.083,-1.667c0.834,-0.417 1.667,-1.25 2.084,-2.083c0.416,-1.25 1.25,-2.084 1.25,-3.334c0.416,-2.083 1.25,-4.583 1.666,-6.666c0.417,-1.667 0.417,-3.334 -0.416,-5c-0.417,-1.25 -1.25,-2.5 -1.667,-3.75c-0,-0.417 -0.417,-0.834 -0.417,-1.25c0.417,-0.834 0,-1.25 -0.416,-2.084c-0.417,-0.833 -1.25,-1.666 -1.667,-2.916c-0.833,-1.667 -2.083,-2.917 -3.333,-4.167c-1.25,-0.833 -2.5,-2.083 -3.75,-3.333c-1.25,-1.25 -2.917,-2.084 -1.667,-4.584l-0,-0.416l-0.417,-2.917l-0.416,0c-0.417,1.25 -0.834,2.917 -1.25,4.167c-0.834,-1.667 -0.834,-3.75 -1.25,-5.417c-0,-0.417 -0,-1.25 0.416,-1.667c0.417,-0.833 0.834,-1.666 0.834,-2.5c-0,-0.833 0.833,-1.666 1.25,-2.5c0.416,-0.416 0.416,-0.833 0.833,-0.833l0.417,-0.417c-0,0 0.416,0 0.416,-0.416c-0.416,2.083 -0.833,4.166 -1.25,6.25l0.834,-0c0.416,0.833 0.416,2.083 0.416,2.916c0.417,2.084 1.667,3.75 2.5,5.417c0.834,1.25 1.667,0.833 2.917,0.833c0.833,0 1.25,-0.833 1.667,-1.666c-0,-0.834 0.416,-1.667 0.416,-2.5l0,-4.167c0.417,-2.5 0.417,-4.583 -0.416,-6.667c1.25,-1.666 2.916,-2.916 4.166,-4.583l2.5,-5c0.417,-0.833 1.25,-1.667 1.667,-2.917c1.25,-2.083 2.917,-4.166 4.583,-6.666c0.417,-0.417 0.417,-0.834 1.25,-0.834c-0.833,2.084 -2.083,3.75 -2.916,5.834c-0.417,0.833 -0.834,2.083 -1.25,2.916c-0.834,2.917 -1.667,5.834 -2.5,9.167c-0.417,1.667 -1.25,2.083 -2.5,2.917c-0.417,-0 -0.834,0.416 -1.25,0.416c0.416,0.834 0.833,1.667 1.25,2.917c0.416,1.25 0.833,2.5 1.25,4.167c1.25,2.5 0.833,5.416 -0,7.916c-0,0 -0,0.417 -0.417,0.417c-0.833,0.833 -1.25,2.083 -2.083,2.917c-0,0.416 0.416,0.416 0.416,0.833c1.667,3.333 3.75,6.667 5,10.417c0.834,3.333 2.084,6.25 1.25,10l0,0.416c-0.416,3.75 -1.666,7.084 -3.75,10c-2.083,2.917 -4.583,5.834 -7.916,7.5l-0.417,0.417c0.833,0 1.667,0 2.5,0.417c1.25,-0 2.5,0.416 4.167,0.833c0.833,0 1.25,0.833 1.666,1.667c-2.916,-0.417 -5.833,-0.417 -8.333,-0.834c-1.25,0 -2.083,0.417 -3.333,0.834c-0,-0 -0.417,0.416 -0.417,0.833c2.5,-0.417 5,-1.25 7.5,-0.417c-0.833,0 -2.083,0.417 -2.917,0.417c0.834,0.417 1.667,0.417 2.5,0.417c1.667,-0 3.334,0.416 5,0.416c0.417,0 0.834,0.417 0.834,0.417c-0.417,1.25 0.833,1.25 1.25,1.667c1.666,1.25 3.333,2.5 5,4.166c-0.417,0 -0.417,0 -0.834,-0.416c-2.5,-1.25 -4.583,-2.084 -7.083,-2.5c-1.667,-0.417 -3.333,-0.417 -5,-1.25c-0.833,-0.417 -2.083,-0.417 -2.917,-0c1.667,0.833 3.334,1.666 5.417,1.666c2.5,0.417 5,1.25 7.917,2.084c1.25,0.416 2.916,1.25 3.75,2.5c0.833,0.833 1.666,1.666 2.5,2.5c0.833,0.416 1.25,0.833 1.666,1.666c-1.25,-0.416 -2.5,-0.416 -3.333,-1.25c-2.5,-1.666 -5.417,-3.333 -8.333,-4.166c-1.25,-0.417 -2.5,-0.834 -3.334,-1.25c-1.25,-0.834 -2.916,-1.667 -4.583,-2.084c-2.083,-0.416 -3.75,-0.833 -5.833,-1.25l-1.667,0c-1.25,0.417 -2.083,1.667 -2.917,2.5c-1.666,2.084 -3.75,3.75 -6.25,3.75c-0.416,0 -0.416,0 -0.833,0.417c-1.667,0.833 -3.75,0.833 -5.417,2.5c-0.416,0.417 -0.833,0.417 -1.25,0.417c-0.833,0.416 -1.666,0.833 -2.5,1.25c0.417,5 -0.416,5.833 -1.666,6.25" style="fill:#e7c18c;fill-rule:nonzero;"/><path d="M119.167,125c-0,-0.417 -0.417,-0.833 -0.417,-1.25c-0.417,-0.833 -0.833,-1.667 -0.833,-2.917c-0.417,-2.083 0.416,-4.166 0.416,-6.666c0.417,-1.667 0.834,-3.334 1.25,-5c0,-0.417 0,-0.417 0.417,-0.834c1.25,-1.666 1.667,-3.333 2.5,-5c0.833,-1.25 1.25,-2.083 2.5,-2.916c0.417,-0 0.417,-0.417 0.833,-0.417c1.667,-2.5 3.334,-4.583 5.834,-5.833c2.916,-2.084 5.833,-3.75 8.75,-5.417c2.916,-1.667 5.833,-2.917 8.75,-4.167l0.416,0c3.75,-0.833 7.5,-2.083 11.667,-2.916c2.5,-0.417 4.583,-0.834 7.083,-1.25c1.667,-0.417 3.75,-0.417 5.417,-0.417l5.833,0c3.75,0 7.917,0 11.667,0.833c5,0.834 9.583,2.084 14.167,4.584c2.916,1.25 5.416,2.916 8.333,4.166l0.833,0c2.084,1.667 3.75,2.917 5.417,4.167c0.417,0.417 0.833,0.417 1.25,0.833c2.083,2.084 4.167,4.167 6.25,6.25c0.833,0.834 1.25,2.084 1.667,3.334c0.833,2.083 1.666,4.583 2.083,6.666c0.417,0.834 0.417,1.667 0.417,2.5c-0,3.334 -0.417,6.25 -1.667,9.167c-0.833,2.083 -2.083,3.75 -2.917,5.833c-1.25,2.084 -2.916,4.167 -4.583,5.834c-1.25,0.833 -2.083,2.083 -3.75,2.916c-1.25,0.834 -2.917,1.667 -4.167,2.084c-1.666,0.833 -3.75,1.666 -5.416,2.5c-4.584,2.083 -9.584,4.166 -14.584,5c-0.416,-0 -0.833,0.416 -1.666,0.416c-4.167,1.25 -8.334,2.084 -12.5,2.917c-2.917,0.417 -5.834,0.833 -8.75,1.25c-1.25,-0 -2.917,0.417 -4.167,-0c-4.583,-0.417 -9.167,-0.417 -13.75,-0.833c-2.083,-0 -3.75,-0.834 -5.417,-2.084c-1.666,-1.25 -3.333,-1.666 -5,-2.5c-3.333,-1.666 -7.083,-3.333 -10.416,-5.416c-1.667,-0.834 -3.334,-2.5 -5,-4.167c-0.417,-0.417 -0.834,-0.417 -0.834,-0.833c-0.833,-0.417 -2.083,-1.25 -2.916,-1.667c-1.25,-0.833 -2.084,-1.25 -2.917,-2.5c-0.417,-0.417 -0.833,-0.417 -1.667,-0.417c1.25,1.25 2.5,2.917 3.75,4.584c-1.25,-0.417 -1.666,-0.834 -2.5,-1.25c-0.416,-0.834 -1.25,-1.25 -1.666,-2.084l-0.417,0.417c0,0.417 0.417,0.417 0.417,0.833c-1.667,-1.25 -2.917,-2.5 -4.167,-3.75c-2.083,-2.083 -3.333,-5 -5.833,-7.083c-1.25,-1.25 -1.667,-2.5 -1.25,-4.167c-0,-1.25 -0,-2.5 0.416,-3.75l0,2.084c0,1.666 0.417,3.333 1.25,4.583c1.25,1.667 2.084,2.917 2.917,4.583c0,0.417 0.417,0.417 0.417,0.834l0.416,-0.417c-0.416,-2.083 -1.25,-3.75 -1.666,-5.833c-0,-0.834 -0.417,-1.667 -0.417,-2.5c0.417,0.416 0.833,0.416 0.833,0.416c0,-0.833 0.417,-1.25 0.417,-2.083c0.417,2.917 0.417,5.833 2.083,8.333c0.417,-1.666 0.417,-2.916 0,-4.583c-0.416,-1.25 0,-2.917 0.417,-4.167c1.667,2.917 2.083,6.25 4.167,9.167c-0,0.417 -0,0 -0,0m52.083,21.25c2.917,0 5.833,-0.417 8.333,-0.417c4.584,-0.416 9.167,-1.666 13.75,-2.5c2.5,-0.416 5,-1.666 7.917,-2.5c1.667,-0.416 3.333,-1.25 5,-1.666c2.917,-1.25 5.833,-2.5 8.75,-4.167c2.083,-0.833 3.75,-2.5 5.833,-4.167c0.834,-0.416 0.834,-1.666 1.667,-2.083c1.25,-0.833 2.083,-2.083 2.917,-3.333c0.416,-0.834 0.833,-1.667 1.25,-2.5c1.25,-1.25 1.666,-2.917 1.666,-4.584l0,-0.833c0.834,-0.833 0.834,-1.667 0.834,-2.5c-0,-3.333 -0,-6.667 -1.667,-9.583c-0.833,-1.667 -1.25,-3.334 -2.5,-4.584c-1.25,-0.833 -2.083,-2.083 -2.917,-3.333c-2.916,-2.917 -5.416,-5.417 -9.166,-7.083c-3.334,-1.667 -6.667,-3.334 -10,-4.584c-3.75,-1.666 -7.917,-3.333 -12.084,-4.166c-2.083,-0.417 -4.583,-0.834 -6.666,-0.834c-2.5,0 -4.584,0 -7.084,0.417c-3.333,0.417 -6.25,0.833 -9.583,1.25c-1.667,0.417 -3.333,0.417 -5.417,0.833c-2.5,0.834 -5.416,1.25 -7.916,2.084c-1.25,0.416 -2.917,0.833 -4.167,1.25c-2.083,0.416 -3.75,1.666 -5.417,2.5c-2.083,1.25 -4.583,2.083 -6.666,3.75c-5.417,3.75 -10,7.916 -12.917,14.166c-1.25,2.5 -2.083,4.584 -2.5,7.084c0,2.083 -0.833,3.75 0,5.833c0.417,2.083 1.25,4.167 1.667,6.25c-0,0.417 0.416,0.833 0.833,1.25c0.417,0.417 0.417,0.417 0.833,0.833c2.084,2.917 4.584,5.834 7.917,8.334c2.5,1.666 5,3.333 8.333,4.166c0.834,0.417 1.667,0.417 2.084,1.25c0.416,0.417 1.25,0.417 1.666,0.417c0.834,-0.417 1.667,0 2.084,0.417c0.416,-0 0.416,0.416 0.833,0.416c1.25,0.417 2.5,0.834 3.75,0.834c5.833,1.666 12.083,2.5 18.75,2.083" style="fill-rule:nonzero;"/><path d="M171.25,199.583l-0.833,0c1.666,-1.25 2.5,-2.5 4.166,-3.333c0.834,-0.417 2.084,-0.417 2.917,-0.833c0.833,-0 1.667,-0.834 2.5,-1.25c-0.833,-2.084 -0.833,-4.584 -0.417,-6.667l0,-0.833c-0.416,-2.084 0.417,-3.75 0.417,-5.834l0,-0.833c1.667,-4.583 4.167,-8.333 7.917,-11.25c1.666,-1.25 3.333,-2.5 5.416,-3.333c2.084,-0.834 4.167,-1.25 6.667,-1.25c3.333,-0 5.833,1.666 7.917,4.166c0.416,0.834 0.833,1.667 1.25,2.084c1.666,-0.834 2.916,-1.667 4.583,-2.917c0.833,-0.417 1.667,-0.833 2.083,-1.25c2.5,-1.667 5,-1.25 7.5,-0.833c2.917,0.833 5.834,1.25 8.334,2.5c0.416,0.416 1.25,0.833 1.666,1.25c0.834,0.416 2.084,1.25 2.917,1.666c1.25,0.834 2.083,2.084 2.917,3.334c0.416,1.25 1.25,2.083 1.666,3.333c0.417,1.25 0.834,2.5 0.834,4.167c-0,1.25 0.416,2.083 0.416,3.333c0,3.75 0,7.083 -1.25,10.417l0,0.833c0.834,0 1.667,-0.417 2.5,-0.417c0.834,0 0.834,1.667 2.5,0.834c-0.833,0.833 -1.25,0.416 -2.083,0.416c-0.417,0 -0.833,-0.416 -1.25,-0.416c-2.083,-0 -2.917,0.416 -3.333,2.916l0.833,0c0.833,0 1.25,-0.416 2.083,-0.416c1.25,-0 2.917,-0.417 4.167,0.416c0.833,0.417 2.083,0.834 2.917,1.25c0.416,0.417 0.833,0.417 1.25,0.834c-1.25,-0.417 -2.917,-0.834 -4.167,-1.25c-1.25,-0.417 -2.083,-0.417 -3.333,-0c-1.667,0.416 -3.334,0.416 -5,1.666l-0.417,0.417c2.5,-0.417 4.583,-1.25 6.667,-0.417c2.083,0.417 3.75,1.25 5.833,2.084c0.417,-0 0.833,0.416 1.25,0.833l-1.25,0c-2.083,-0.417 -3.75,-0.833 -5.833,-1.25c-1.667,-0.417 -2.917,0 -4.167,0.417c-2.5,1.25 -5,2.083 -7.5,3.333c-1.25,0.417 -2.5,1.25 -3.333,2.083c-0.417,0.417 -1.25,0.417 -2.084,0.834c-0.833,0.416 -1.666,0.416 -2.5,0.833c-2.083,0.833 -3.75,2.083 -5.833,2.917c-1.25,0.416 -2.083,1.666 -2.917,2.916c-0.416,0.834 -0.833,1.25 -1.25,2.084c-0.833,1.25 -2.083,1.666 -3.333,0.416c-2.083,-1.666 -4.167,-2.916 -5.417,-5.416c0,-0.417 -0.416,-0.834 -0.833,-0.834c-1.667,-0.416 -3.333,-1.25 -5,-1.666c-3.333,-0.417 -5.833,-2.084 -8.333,-4.167c-2.084,-1.667 -4.167,-2.083 -6.667,-2.917l-0.833,0c-0.834,0.417 -2.084,0.417 -2.917,0.417c-0.833,-0 -1.25,0.417 -2.083,-0c-0.417,-0 -0.834,-0.417 -1.25,-0.417c1.666,-0.416 2.916,-1.25 4.583,-1.666c-1.25,-0.417 -2.917,-0.417 -4.167,-0c-0.833,0.416 -1.666,0.416 -2.5,-0l-0.833,-0c-0,0.416 -0,0.416 -0.417,0.833c0,-0.417 -0.416,-0.417 -0.416,-0.833c2.5,-1.25 5,-2.917 7.083,-4.167l-0,-0.417c-0.417,0 -1.25,0.417 -1.667,0.417c-1.666,0.833 -3.75,1.667 -5.416,2.917c-0.417,0.416 -0.417,0.416 -0.834,0.416c-1.25,0.417 -1.666,0.834 -2.916,1.25c-0.834,0.417 -2.084,0 -3.75,0c-2.5,2.084 -5.417,4.167 -9.167,5.417c0.833,-1.25 1.667,-2.083 2.917,-2.917c1.25,-0.833 2.5,-1.666 3.333,-2.5c2.083,-1.666 4.583,-3.75 6.667,-5.833l0.833,2.083l0.833,0c2.084,-0.833 3.75,-1.25 5.834,-2.083l0.416,0c0.417,0.417 0.834,0.417 1.25,0.833c0.417,-0.416 1.25,-0.833 1.667,-1.25c-0.417,-0.833 -0.833,-1.25 -1.667,-0.833c-0.833,0.417 -2.083,0.833 -2.916,0.833c-2.084,0 -3.75,1.25 -5.417,2.5m40.417,17.5c0.416,-0.833 1.25,-1.25 1.666,-2.083c1.25,-0.833 2.084,-2.083 3.334,-2.917c1.25,-0.416 2.5,-0.833 3.333,-1.666c3.333,-1.667 6.667,-3.334 9.583,-5.417c2.917,-2.083 5,-5 6.667,-7.917c1.25,-2.5 2.083,-5.416 2.083,-8.333c0,-1.667 0.417,-3.75 0,-5.417c0,-2.083 -1.25,-4.583 -1.666,-6.666c-0,-0.417 -0.417,-0.834 -0.417,-1.25c-1.25,-1.25 -2.083,-2.917 -3.333,-4.167c-2.917,-2.5 -6.25,-4.167 -10,-4.167c-2.5,0 -4.584,0.417 -6.667,1.667c-1.667,1.25 -3.333,2.083 -4.583,3.333c-1.667,1.25 -2.5,1.25 -4.167,-0.416c-0.417,-0.417 -0.833,-0.834 -1.25,-1.25c-0.833,-0.834 -2.083,-1.25 -2.917,-2.084c-2.083,-2.083 -6.25,-2.5 -9.166,-0.833c-2.084,1.25 -3.75,2.5 -5.417,3.75c-1.667,1.667 -3.333,3.333 -4.167,5.417c-0.833,1.25 -0.833,2.916 -1.25,4.583c-0.833,2.917 -0.416,5.417 -0.416,8.333c0.416,2.084 0.833,4.167 1.666,6.25c1.667,4.167 4.167,7.917 7.917,10.417c1.667,1.25 3.333,2.5 5.417,2.5c0.833,0 1.25,0.417 2.083,0.833c0.417,0 0.833,0.417 0.833,0.417c1.25,0.417 2.5,0.417 4.167,0.833c0.417,0 0.833,0 0.833,0.417c2.084,2.5 3.75,4.167 5.834,5.833m-43.334,-12.5c1.25,0.417 2.5,0.417 3.334,-0.416c1.25,-0.834 2.916,-2.084 4.166,-3.334c0,0 0,-0.416 0.417,-0.833l-0.833,0c-1.25,0.833 -2.5,1.25 -3.75,2.083c-1.25,0.834 -2.5,1.667 -3.334,2.5" style="fill-rule:nonzero;"/><path d="M25.833,309.583c1.25,0 2.084,0.417 2.917,1.25c1.667,1.25 3.333,2.084 5.417,2.917c1.666,0.833 3.75,0.417 5.416,-0.417c1.667,-0.833 2.917,-1.666 4.584,-2.5c0.833,-0.416 1.666,-0.833 2.916,-0.416c0.417,-0 0.834,-0 1.25,-0.417c0.417,-0.417 1.25,-0.833 2.084,-0.833c1.25,-0.417 2.916,-0.834 4.583,-1.25c-0.417,0.416 -0.833,0.416 -1.667,1.25c2.5,0.833 4.584,2.083 6.667,2.916c3.333,1.25 6.667,2.5 10,3.75c2.917,1.25 5.417,2.917 7.917,5c0.416,0.417 0.416,0.417 0.833,0.834c2.083,0.833 3.75,2.916 4.583,5c1.25,2.5 2.917,4.166 5,6.25c1.667,2.083 3.334,3.75 5,5.833c0.834,1.25 0.834,2.083 -0.416,3.333c-1.25,0.834 -2.5,1.667 -3.75,1.667c-0.417,0 -0.417,0.417 -0.834,0.417c-0.416,-0 -1.25,0.416 -1.666,0.416l-11.667,0c-2.083,-0.416 -3.333,0 -5.833,-0.416c-2.917,-0.417 -5.417,-0.834 -8.334,-1.667c-2.916,-0.833 -5.833,-2.083 -8.75,-3.333c-1.666,-0.417 -2.916,-1.25 -4.166,-2.5c-0,-0 -0.834,-0.417 -0.834,-0c-0.416,0.833 -1.25,0.416 -1.666,0.416c-0.834,0 -1.667,0.417 -2.5,0.417c-0.834,0.417 -1.25,0.417 -1.667,0c-4.167,-2.5 -8.75,-5.417 -12.917,-7.917c-0.416,0 -0.416,-0.416 -0.833,-0.416c-1.25,-0.417 -2.083,-1.25 -3.333,-2.084c-1.667,-1.25 -3.75,-2.083 -5.834,-2.083l-1.666,0c0.416,-0.417 0.833,-0.417 0.833,-0.833c1.25,-0.834 2.917,-1.667 4.167,-2.5c1.25,-1.667 2.916,-1.667 4.583,-2.917c1.25,-0.833 1.667,-1.667 2.5,-2.917c1.25,-2.083 0.417,-3.333 -0.833,-5c-1.667,-0.416 -1.667,-0.833 -2.084,-1.25c0,0.417 0,0.417 0,0m62.084,32.084c-0,-2.084 -0.834,-5.417 -2.084,-7.084l-0.416,-0.416c-0.834,-0 -1.25,-0.834 -1.667,-1.25c-0.417,-0.834 -0.833,-1.667 -1.25,-2.5c-0.833,-1.25 -1.25,-2.084 -2.083,-2.917c-0.834,-1.25 -2.084,-2.5 -3.334,-3.75c-0.833,-0.833 -1.666,-1.667 -2.916,-2.083c-3.334,-1.667 -7.084,-3.334 -10.417,-5c-0.417,-0 -0.833,-0.417 -1.25,-0.417c-3.333,-0.833 -7.083,-2.083 -10.417,-2.917c-0.416,0 -1.25,0 -1.666,0.417c-2.084,1.25 -4.167,2.5 -5.834,3.75c-2.083,1.25 -4.166,1.667 -6.25,2.083c-0.833,0 -2.083,0 -2.916,-0.416c-0.834,-0.417 -2.084,-0.834 -3.334,-1.667c-1.666,2.917 -4.583,4.167 -7.083,5.833c1.667,1.25 2.917,2.084 4.167,3.334c2.5,2.083 5,3.75 8.333,4.583c0.417,0 0.833,0.417 1.25,0.833c1.25,0.834 2.083,2.084 3.75,1.667c1.667,-0.417 3.333,-0.417 5,-0.833c0.833,-0 1.25,-0 1.667,0.833c-0,0.417 0.416,0.833 0.833,0.833c2.083,0.834 4.167,2.084 6.25,2.917c2.5,0.833 5,1.25 7.083,2.083c1.667,0.417 2.917,0.834 4.584,1.25c2.5,0.417 5.416,0.834 8.333,1.25c2.083,0.417 4.167,0.417 6.25,0.417l3.75,0c-0,-0.833 0.833,-0.833 1.667,-0.833" style="fill-rule:nonzero;"/><path d="M335,292.917c2.5,0.416 5,0.833 7.083,0.833l0,0.833c1.667,0.417 3.334,1.25 5,1.667c1.667,0.417 3.334,-0 5,-0.833c2.084,-0.834 3.334,-2.5 5.417,-3.75c1.25,-0.834 1.25,-2.084 1.25,-3.75c0.833,-0 1.25,0.416 1.25,1.25c0.417,3.333 3.333,5.416 5,7.916c0.417,0.417 0.833,0.417 1.667,0c1.666,1.25 1.666,2.917 1.25,4.584c-0.417,2.083 -0.834,4.166 -1.25,6.25c-0.417,1.25 -0.417,2.5 -0.417,3.75c-0,1.25 0.417,2.5 1.667,3.333c-2.917,-0.833 -5,0.417 -7.5,1.25l-5,2.5c-0.834,0.417 -1.667,0.417 -2.5,0.417c-0.417,1.25 -0.834,2.5 -1.25,3.75c-0.834,2.5 -2.5,5 -3.75,7.083c-2.084,3.75 -4.584,6.667 -7.5,9.583c-0.417,0.417 -0.834,1.25 -1.667,0.834c-0,-0 -0.417,-0 -0.417,0.416c-2.5,2.5 -5.416,4.584 -9.166,5.834c-0.417,0.416 -1.25,0.416 -1.667,0.833c-1.25,0.417 -2.083,0.833 -3.333,0.417c-0.834,-0.417 -1.667,-0.417 -2.5,-0.834c-0.834,0 -1.667,-0.416 -2.5,-0.416c-0.834,-0 -1.25,-0 -1.667,-1.25c2.083,-3.334 2.917,-7.084 4.167,-10.834c1.25,-3.333 2.5,-6.666 2.916,-10c0.834,-2.916 1.25,-5.833 0.834,-8.75l-0,-1.25c0.416,-4.166 2.083,-7.916 4.583,-11.25c1.667,-2.083 2.917,-4.583 3.333,-7.5c0.834,0 1.25,-1.25 1.667,-2.916m2.5,6.25c-0.417,0.416 -0.417,0.833 -0.833,1.25c-1.667,3.333 -3.334,6.25 -5.417,8.75c-1.25,1.25 -1.667,2.916 -1.667,4.583c-0.416,3.333 -0.833,6.25 -1.666,9.167c-0,0.416 -0.417,0.416 -0.417,0.833c-0.417,0.833 -0.833,1.25 -1.25,2.083c-0.833,2.917 -1.25,5.834 -2.5,8.334l-0,0.416c0.833,0.417 0.417,0.834 -0,1.25c-0.417,1.25 -1.25,2.917 -1.667,4.167c0,0.417 -0.416,0.417 -0.416,0.833c-0.834,1.25 -2.084,2.5 -2.5,4.167c0.833,0.833 2.083,0.417 2.916,0.417c1.667,-0.417 3.75,-0.417 5.417,-1.25c2.917,-0.834 5.417,-2.5 7.917,-3.75c0.416,-0 0.416,-0.417 0.416,-0.417c1.25,-1.25 2.917,-2.5 4.167,-4.167c2.5,-2.5 5,-5 6.25,-8.333c0.833,-2.083 1.667,-3.75 2.5,-5.833c0.833,-1.667 2.083,-3.334 2.917,-5.417c0.416,-0.417 0.833,-1.25 1.25,-1.25c0.833,-0.417 2.083,-0.417 2.916,-0.833c2.5,-0.834 4.584,-2.084 6.25,-3.75c0.417,-0.417 0.834,-0.834 0.417,-1.25c-0.417,-2.084 0,-3.75 0.417,-5.834c0.416,-1.25 0.416,-2.083 0.833,-3.333l-0.833,-0c-0.834,0.833 -2.084,0.417 -2.917,-0c-1.667,-0.833 -3.75,-1.667 -4.583,-3.333c-0.417,-0 -0.417,0.416 -0.834,0.416c-0.833,0.834 -1.666,1.667 -2.5,2.084c-1.666,0.833 -3.333,1.666 -5.416,1.666c-2.917,0.417 -5.834,-0.416 -9.167,-1.666" style="fill-rule:nonzero;"/><path d="M157.5,72.083c0.417,2.084 -0.417,3.334 -0.833,5c-1.25,2.084 -2.917,3.75 -5.417,4.167l-0.833,0c-4.167,1.25 -6.25,-1.667 -7.5,-4.167c-0.417,-1.25 -1.25,-2.5 -1.25,-3.75c-0.417,-2.916 -0,-5.416 1.666,-7.916c0.834,-1.667 2.084,-2.5 3.75,-3.334c1.25,-0.833 2.5,-0.416 4.167,-0.416c2.5,0.416 4.583,2.083 5.417,4.583c0.416,0.417 0.416,0.833 0.833,1.667c0,0.833 0.833,2.5 0,4.166" style="fill-rule:nonzero;"/><path d="M240.833,51.25c1.25,-2.917 2.084,-5.417 2.917,-8.333c0,-0.834 0.417,-1.667 0.417,-2.5c-0,-1.667 0.416,-2.917 0.416,-4.584c0,-1.666 -0.833,-2.916 -2.5,-3.75c-0.833,-0.416 -1.25,-0.416 -2.083,-0.416l-3.333,-0c-3.334,0.416 -6.25,1.25 -7.917,4.166c-0,0.417 -0.417,0.834 -0.417,1.25c0,1.25 0.417,2.5 0.834,3.75l-0,1.667l-0.417,0c-0.417,-0.833 -1.25,-1.667 -1.25,-2.5c-0.417,-2.083 -1.25,-4.167 -0.833,-6.25c-0,-0.833 0.416,-2.083 -0,-2.917c-0,-0.833 -0,-1.25 0.833,-1.666c1.667,-1.25 3.333,-2.5 5,-3.334c2.5,-1.25 5,-0.833 7.083,0.417c2.5,1.667 5,3.333 7.084,5.833c0.416,0.417 0.416,0.834 0.833,1.25c0.417,0.417 0.417,0.834 0.417,1.25c1.25,1.667 1.25,3.75 1.25,5.417l-0,1.667c-0.417,-1.667 -0.834,-2.917 -1.25,-4.167l-0.417,0c-0.417,1.667 -0.833,2.917 -1.25,4.583c-0,0.834 -0.417,1.25 -0.417,2.084l0,0.416c-1.25,0.834 -1.666,2.5 -2.083,3.75c-0.833,1.667 -1.667,2.5 -2.917,2.917" style="fill-rule:nonzero;"/><path d="M99.167,33.333c-1.25,2.084 -1.667,4.167 -1.25,10.834c-0,-0.417 -0.417,-1.25 -0.417,-1.667c-0.833,-4.583 -1.25,-9.167 -0.417,-13.75c0.417,-1.667 1.25,-3.333 2.5,-4.583c0.417,-0.417 0.834,-0.834 0.834,-0.834c0.833,-1.25 2.083,-1.666 3.333,-2.083c0.833,-0 1.667,-0.417 2.5,-0.417c1.25,-0.416 2.5,-0.416 3.75,0.834c0.833,0.833 1.667,1.25 2.5,1.666c2.5,1.667 3.333,4.167 4.167,7.084l-0,1.666c-0.417,-0.416 -0.834,-0.833 -1.25,-0.833c-1.667,-2.083 -4.167,-2.917 -6.667,-3.75c-2.083,-0.417 -4.583,-0 -6.667,0.833c-0.416,0 -0.833,0.834 -0.833,1.25c0,0.834 0.417,1.667 0.417,2.5c-0,0.834 0.416,1.25 -0,2.084c-0.417,2.5 0.416,5 0.833,7.5c0.417,2.083 0.833,3.75 1.25,5.833c-1.25,-0.833 -2.083,-2.083 -2.5,-3.333c-0.833,-2.917 -1.667,-6.25 -2.5,-9.167c0.833,-0.417 0.833,-1.25 0.417,-1.667" style="fill-rule:nonzero;"/><path d="M171.667,25.833c3.333,-1.666 6.666,-3.333 10,-4.583c-4.167,-0 -7.917,0.417 -11.667,1.667c-3.333,1.25 -7.083,2.5 -10.417,3.75c0.417,-1.25 1.667,-1.667 2.084,-2.5c0.416,-0.417 0.833,-0.417 1.25,-0.834c3.333,-0.833 6.25,-2.916 10,-3.75c-1.25,-0.416 -2.5,-0.416 -3.334,0c-2.5,0.834 -5,1.25 -7.5,1.667c-1.666,0.417 -2.916,0.417 -5,0.833c0.834,-0.416 0.834,-0.833 1.25,-0.833c3.334,-1.25 6.667,-2.083 10,-3.333c-2.083,-0.417 -3.75,-0 -5.416,-0c-1.667,-0 -3.334,0.416 -5.417,0.416c0.833,-0.416 1.667,-1.25 2.5,-1.666c1.667,-0.834 3.75,-1.25 5.417,-1.25l6.25,-0c1.25,-0 2.5,0.416 3.75,1.25c0.416,0.416 0.833,0.416 1.666,0.833l-1.666,-0l-0,0.417c0.833,-0 2.083,0.416 2.916,0.416c1.667,0 3.75,0 5.417,0.834c0.833,0.416 1.25,-0 1.667,-0c1.25,-0.417 2.5,-0.417 4.166,-0.417l2.084,-0c1.666,-0.417 3.333,-0.833 4.583,-0c0.417,-0 0.417,0.417 0.833,0.417c-1.666,0.416 -3.333,0.416 -5,1.25c-1.666,0.416 -2.916,1.25 -4.583,2.083c-0.417,-0.417 -0.417,-0.417 -0.833,-0.833c0.416,-0.417 1.666,-0.417 1.666,-1.667c-0.416,-0 -1.25,-0 -1.666,0.417c-2.5,1.25 -5,2.083 -7.5,2.083c-1.667,-0 -2.917,0.833 -4.584,1.667c-0.833,1.25 -1.666,1.666 -2.916,1.666" style="fill-rule:nonzero;"/><path d="M233.75,122.917c0,1.666 -1.25,2.916 -1.667,4.166c2.5,-1.25 4.584,-3.333 7.084,-4.166c-0,-0 -0.417,0.416 -0.417,0.833c0.417,0.417 0.833,0.417 1.25,-0c0.833,-0.833 1.667,-1.667 2.5,-2.5c0,1.667 -0.417,2.917 -0.833,3.75c-2.5,3.333 -5,5.833 -8.75,7.917c-0.834,0.416 -1.667,1.25 -2.5,1.666c-1.667,1.667 -3.75,2.084 -5.834,2.917c3.75,-2.917 7.5,-5.417 10,-9.167c-0.833,0.417 -1.666,0.834 -2.083,1.25c-0.833,0.417 -1.667,0.834 -2.5,1.25c-3.333,2.5 -6.25,5.417 -9.583,7.917c-1.25,1.25 -2.917,2.083 -4.584,2.917c-1.25,0.833 -2.5,0.833 -4.166,0.833c1.666,-0.833 2.916,-2.083 4.583,-2.917c1.25,-0.833 2.5,-2.083 4.167,-2.916c0.416,-0.417 0.416,-0.417 0.833,-0.834c2.5,-1.25 4.167,-3.75 5.833,-5.833c0.834,-0.833 1.25,-2.083 2.084,-2.917l0.416,-0.416c1.667,-0.417 2.5,-1.667 3.334,-2.917c0.416,-0.417 0.416,-0.417 0.833,-0.833" style="fill-rule:nonzero;"/><path d="M102.083,119.583c-0.416,0 -0.416,-0.416 -0.833,-0.416c-0.833,-0.417 -1.25,-1.25 -2.083,-2.084c-0.834,-0.416 -1.25,-1.25 -1.667,-1.666c-0.833,-1.25 -1.667,-2.917 -2.5,-4.167c-0.417,-0.417 -0.417,-0.833 0,-1.667c0.417,-0.833 0,-1.666 0,-2.5c-0.417,-1.25 0,-2.5 0,-3.75c0,-1.25 0.417,-2.083 0,-3.333c-1.25,1.667 -2.083,3.333 -1.667,5.417c-0.416,-0.417 -0.833,-2.084 -0.416,-2.917c0.416,-1.25 0.416,-2.083 1.25,-3.333c0.416,-0.834 1.25,-1.667 2.083,-2.5c0.833,-0.834 1.667,-1.25 2.5,-2.084l0.417,0.417c-0.417,0.417 -0.834,0.833 -1.25,1.667c-2.084,2.083 -2.084,5 -1.667,7.916l0,0.417c0,-0 0.417,-0.417 0.417,-0l-0,0.417c-0,1.25 0.416,2.083 1.25,3.333c0.416,-1.667 -0.417,-3.333 0.833,-4.583c0.417,1.666 0.417,2.916 0.833,4.583c0.417,1.25 0.834,2.917 1.25,4.583c0.834,-2.916 1.25,-5 1.667,-7.5c0,-0.833 0.417,-1.25 1.25,-1.25c0,0.417 0,1.25 -0.417,1.667c-0.833,2.917 -1.25,5.833 -1.25,8.75c-0.416,1.667 -0.416,2.917 0,4.583" style="fill-rule:nonzero;"/><path d="M280.833,207.917c-1.666,-0.417 -2.083,-1.667 -2.083,-2.917c-0.417,-1.667 -1.25,-2.5 -2.5,-3.75c0,0.833 0.417,1.25 0.417,2.083c0.416,2.084 0.416,4.167 -0,5.834c-0,0.416 -0,1.25 -1.25,1.25l-0,-3.75c-0,-1.667 -0.417,-3.334 -0.834,-4.584c-0.416,-0.833 -0.833,-1.25 -1.25,-1.666c-1.25,-1.667 -2.916,-1.667 -4.583,-1.667l-1.25,0c0.833,-0.417 0.833,-0.417 1.25,-0.417c1.25,-0.416 2.917,-0.833 4.167,-1.25c1.25,-0.416 2.083,-0.416 2.916,0.834c0.834,0.833 2.084,1.666 2.917,2.916c0.833,1.667 1.667,3.334 2.083,5c-0.416,0.417 -0.416,1.25 0,2.084" style="fill-rule:nonzero;"/><path d="M24.167,299.167c1.25,0.833 2.083,1.666 3.333,2.083c1.667,0.833 3.333,0.833 4.583,-0.417c1.25,0.417 2.084,1.25 3.334,1.667c-1.667,0.833 -3.334,1.667 -5.417,1.667c2.083,0.833 3.333,0.833 5.417,-0c0.833,-0.417 1.25,-0.834 2.083,-0.834c1.25,-0.416 2.5,-0.416 3.75,-0.833c-2.917,4.583 -8.75,5 -14.583,1.667l2.5,-0c-2.084,-1.667 -4.167,-2.5 -5,-5" style="fill-rule:nonzero;"/><path d="M75.833,264.167c0.834,-0.834 1.25,-1.667 2.084,-2.084c1.25,-1.25 1.666,-2.5 2.083,-4.166c0.417,-1.667 0.833,-3.75 0.417,-5.417c-0,-0.417 -0,-0.833 0.416,-1.25l0,-2.917c0.417,-1.25 0.417,-2.916 0.834,-4.583c0.416,0.833 0.416,0.833 0.416,1.25c0.834,3.75 0.417,7.917 -0.833,11.667c-0.417,0.833 -0.417,2.083 -0.833,2.916c0.416,2.5 -2.5,5 -4.584,4.584" style="fill-rule:nonzero;"/><path d="M93.75,268.75c2.083,-0.417 4.167,0.833 6.25,1.667c2.5,1.25 5,2.083 7.5,3.333c2.083,1.25 3.75,2.5 5.417,3.75c0.833,0.833 2.083,1.667 2.5,2.917c0.416,0.416 0.833,0.833 1.25,1.25c0.416,0.416 0.416,0.833 0.833,0.833l-0.417,0.417c-0.416,-0.417 -0.833,-0.417 -0.833,-0.834c-2.083,-2.083 -4.167,-3.333 -6.667,-4.583c-1.666,-1.25 -3.75,-2.083 -5,-3.333c-2.083,-1.667 -4.583,-2.917 -7.083,-3.75c-1.25,-0.417 -2.5,-0.834 -3.75,-1.667" style="fill-rule:nonzero;"/><path d="M85.417,300c-0.834,-0.833 -1.25,-1.25 -1.25,-2.5c-0,-0.417 -0.417,-0.833 -0.834,-1.25c-0.416,-0.833 -0.833,-1.25 -0.833,-2.083c2.083,1.25 3.75,2.916 5,5c1.667,2.5 3.333,5 5,7.5c0.417,0.833 0.833,1.666 1.25,2.916c0.417,1.25 0.833,2.084 0.833,3.334c-1.25,-1.25 -2.5,-2.917 -3.75,-4.167c0,-0.417 -0.416,-0.417 -0.416,-0.833c-0.834,-2.084 -1.667,-3.75 -3.334,-5.417l0,-0.417c-0.833,-1.25 -1.25,-1.666 -1.666,-2.083" style="fill-rule:nonzero;"/><path d="M175,190.833c-0.417,1.25 -1.25,2.084 -2.083,2.917c-1.25,0.833 -2.084,2.083 -3.334,2.917c-0.833,0.833 -1.666,2.083 -2.5,3.333c-1.666,2.083 -3.75,4.167 -6.25,5.833c-1.666,0.834 -2.916,2.084 -4.166,3.334c-0.417,0.416 -0.834,0.833 -1.25,0.833c0.833,-0.833 1.666,-2.083 2.5,-2.917c1.666,-1.666 3.333,-2.916 4.583,-4.166l1.667,-1.667c2.5,-2.5 4.583,-5 7.083,-7.5c0.417,-1.25 2.5,-2.5 3.75,-2.917" style="fill-rule:nonzero;"/><path d="M189.167,155.417c0.416,-0.417 1.25,-0.417 1.666,-0.834c2.917,-0.833 6.25,-1.666 9.167,-2.916c1.25,-0.417 2.083,-0.834 3.333,-1.25c2.084,-0.834 3.75,-1.25 5.834,-1.667l-0,0.417c-0.417,0.416 -0.417,0.416 -0.834,0.833c-2.5,1.667 -5.416,2.917 -8.333,3.75c-1.25,0.417 -2.5,0.833 -3.75,1.25c-0.833,0.417 -1.667,0.417 -2.917,0.417c-1.25,-0.417 -2.5,-0 -4.166,-0" style="fill-rule:nonzero;"/><path d="M53.333,300.833c-2.5,2.084 -5.416,4.584 -7.916,6.667c-0.417,0.417 -0.834,0.417 -1.25,0.833c-2.084,0.417 -4.584,1.25 -6.667,1.667l-2.083,-0l-0,-0.417c0.416,0 0.416,-0.416 0.416,-0.416c1.667,-0.417 3.334,-1.25 4.584,-1.667c1.666,-0.417 3.75,-1.25 5,-2.5c1.25,-1.25 2.5,-2.083 4.166,-3.333c1.25,-0.417 2.5,-0.417 3.75,-0.834" style="fill-rule:nonzero;"/><path d="M232.917,134.583c1.666,-1.25 3.333,-2.5 4.583,-3.75c2.5,-2.083 4.583,-4.583 6.25,-7.5c0.417,-0.833 1.25,-1.25 1.667,-2.083c0.416,-0.833 0.833,-2.083 1.25,-2.917c0.416,-0.416 0.416,-0.833 0.833,-1.25c0,1.25 0,2.084 -0.833,3.334c-0.417,0.833 -0.834,1.666 -1.25,2.5c-2.084,4.583 -5,7.916 -9.167,10.416c-0.833,0.834 -2.083,0.834 -3.333,1.25" style="fill-rule:nonzero;"/><path d="M109.167,125.833c-1.25,-0.833 -2.084,-2.5 -2.917,-3.75c-0.417,-0.833 -0.417,-1.666 -1.25,-2.083c-0.417,-0.417 -0.417,-0.833 -0.833,-1.25c-1.25,-3.75 -2.084,-7.917 -0.834,-11.667c0.417,-1.25 0.834,-2.5 1.667,-3.333c0,-0 0.417,-0 0.833,-0.417c-2.916,8.334 -0.833,15.417 3.334,22.5" style="fill-rule:nonzero;"/><path d="M250.833,210.833c-3.333,-0.416 -6.666,-0.833 -10,-1.25l-4.583,0c-0.833,0 -1.25,-0.416 -2.083,0c-0.417,0.417 -0.834,0 -1.667,0.417c1.25,-1.667 2.5,-2.5 4.167,-2.917c2.5,-0.416 5.416,-1.25 7.916,-0.833c0.417,0 0.834,0 1.25,0.417c-2.916,-0 -5.833,0.416 -8.75,1.666c5.417,0 10,1.25 13.75,2.5c0.417,-0.416 0.417,0 0,0" style="fill-rule:nonzero;"/><path d="M132.917,28.333c0.416,-0.416 0.416,-0.833 0.833,-1.25c1.25,-1.25 2.5,-2.916 4.167,-4.166c0.416,-0.417 0.833,-1.25 1.25,-2.084c2.083,-2.083 4.166,-4.166 7.083,-5c-2.083,0.834 -3.333,2.5 -4.583,4.584c2.5,-1.25 4.166,-2.917 7.083,-2.917c-2.5,1.667 -5,2.917 -7.5,4.167c-0.833,0.416 -2.083,1.25 -2.917,2.083c-1.25,1.667 -3.333,3.333 -5.416,4.583c0.416,0 0.416,0 -0,0" style="fill-rule:nonzero;"/><path d="M165.417,178.333c-0,-1.25 0.833,-2.5 1.666,-3.333c1.25,-2.083 2.917,-4.167 4.167,-6.25c0,-0.417 0.417,-0.417 0.417,-1.25c-1.667,0.417 -2.5,2.083 -4.167,2.5c-0.417,-0.417 -0.417,-0.417 0,-0.833c0.833,-0.834 1.667,-2.084 3.333,-2.5c0.417,-0 0.834,-0.417 1.25,-0.417c1.25,-0.833 2.917,-1.667 4.584,-2.083c-0.417,1.25 -2.084,1.25 -2.5,2.5c-0.417,1.25 -1.25,2.083 -1.667,2.916c-1.667,2.917 -3.75,5.417 -5.417,8.334l-1.666,0.416" style="fill-rule:nonzero;"/><path d="M333.75,288.333l1.667,0c2.5,0.417 5.416,0 7.916,-0.833c0.834,-0.417 1.667,-0.417 2.917,-0.417c-0.833,0.417 -1.667,1.25 -2.5,1.667c2.917,0 5,-1.667 7.917,-2.5c-0.417,1.25 -1.667,2.083 -2.5,2.083c-2.084,0.417 -4.167,0.834 -6.25,1.667c-1.25,0.417 -2.5,0.417 -3.75,0.417c0.416,-0.417 0.833,-0.417 1.666,-0.834c-1.666,0 -3.333,-0.416 -5.416,-0.416c-0.417,-0 -0.834,-0.417 -1.25,-0.417l-0.417,-0.417" style="fill-rule:nonzero;"/><path d="M68.75,265.417c4.167,-2.5 6.667,-6.667 9.583,-10.417c0.834,3.75 -5.416,10.417 -9.583,10.417" style="fill-rule:nonzero;"/><path d="M106.667,175c0.416,-1.25 1.25,-2.083 2.5,-2.917c2.5,-1.25 5,-2.5 7.5,-3.75c0.833,-0.416 1.666,-0.416 2.5,-0.833c0.833,-0.417 2.083,0 2.5,0.833c-2.5,0.834 -5,2.084 -7.917,2.917c-2.5,0.833 -5,1.667 -7.083,3.75" style="fill-rule:nonzero;"/><path d="M157.083,200.417c-2.083,3.75 -5,6.666 -6.666,10.416c-0.834,1.667 -1.667,3.75 -2.5,5.417c-0.417,1.25 -0.417,1.25 -1.667,1.667c0.833,-4.167 7.083,-14.167 10.833,-17.5" style="fill-rule:nonzero;"/><path d="M252.917,187.5c-0.417,-0.417 -0.417,-0.833 -0.834,-1.25c-0.833,-0.417 -1.25,-1.25 -1.666,-1.667c-0.417,-0.833 -1.25,-1.25 -2.084,-2.083c-0.416,-0.417 -0.833,-0.833 -1.25,-1.667c2.084,0.417 8.334,4.167 9.167,5.417l-2.5,-0c1.25,1.25 2.083,2.083 3.333,3.333c-1.25,0 -1.666,-0.833 -2.5,-1.25c-0.833,-0.416 -1.25,-0.416 -1.666,-0.833" style="fill-rule:nonzero;"/><path d="M103.75,184.583c0.417,-1.666 1.667,-2.916 2.5,-4.166c2.083,-2.084 4.583,-3.334 7.083,-5c1.25,-0.834 2.5,-0.417 3.75,-0.417c-3.75,1.667 -7.083,4.583 -10.416,6.667c-0.834,0.416 -1.25,1.25 -1.667,1.666c-0.417,0.417 -0.417,1.25 -1.25,1.25" style="fill-rule:nonzero;"/><path d="M296.25,252.083c0.417,0.834 0.417,1.667 0,2.5c0,0.417 -0.417,0.417 -0.417,0.834c0,1.666 -0.833,3.333 -1.666,4.583c-1.667,2.5 -3.75,4.583 -6.25,6.25c-0,-0.417 0.416,-0.417 0.416,-0.833c2.084,-1.667 3.75,-3.75 4.167,-6.667c0.833,-2.5 2.917,-4.167 3.75,-6.667" style="fill-rule:nonzero;"/><path d="M129.167,28.333c0.416,-0.416 0.416,-0.833 0.833,-1.25c2.083,-2.083 4.167,-3.75 6.667,-5.833c0.416,-0.417 0.833,-0.417 1.666,-0.833c-5,5.416 -10,10.416 -15,15.416c-0.416,-0.833 0,-1.666 1.25,-2.916l0.417,-0c1.25,-1.667 2.917,-3.334 4.167,-4.584c-0,0.417 -0,0 -0,0" style="fill-rule:nonzero;"/><path d="M82.083,201.667c0,-1.25 -0.416,-2.917 0,-4.167c0,-2.083 2.5,-4.167 4.167,-4.167l2.5,0c-0.833,0.834 -1.667,1.667 -2.5,2.084c-0.833,0.833 -1.667,1.666 -2.083,2.916c-0.834,1.25 -1.25,2.084 -2.084,3.334Z" style="fill-rule:nonzero;"/><path d="M165.833,33.75c0.417,-0.833 0.834,-1.25 1.25,-2.083c1.25,-1.25 2.5,-2.084 4.167,-2.917c1.25,-0.833 2.917,-1.667 4.583,-2.5c2.5,-0.833 4.584,-1.25 7.084,-0.833c-0.417,-0 -0.417,0.416 -0.834,0.416c-0.833,0 -1.666,0.417 -2.5,0.417c-1.25,0.417 -2.5,0.417 -3.75,1.25c-3.333,2.5 -6.666,4.583 -10,6.25c0,0.417 0,0 0,0" style="fill-rule:nonzero;"/><path d="M308.333,253.333c0.417,-2.083 1.25,-3.75 1.667,-5.416c0.417,-1.667 1.25,-2.917 1.667,-4.584c0.416,-1.25 0.833,-2.083 1.666,-2.916c0.417,3.333 -2.083,10 -5,12.916" style="fill-rule:nonzero;"/><path d="M293.75,264.167c0,-0.417 0.417,-0.834 0.417,-1.25c0.416,-0.417 0.833,-1.25 1.25,-1.667c0.833,-1.25 1.666,-2.5 1.666,-4.167c0,-2.083 2.084,-7.5 2.5,-8.333c0,0.833 -0.416,3.75 -0.416,4.583c-0.417,1.667 -0.834,3.334 -1.25,5c-0.417,2.084 -2.084,4.167 -4.167,5.834" style="fill-rule:nonzero;"/><path d="M248.75,291.667l0,-0.834c1.25,-2.083 1.25,-4.583 2.083,-6.25c0,0 0.417,0 0.417,-0.416l-0,2.5l0.417,-0c0.416,-0.834 1.25,-2.084 1.666,-2.917c0.417,-0.833 0.834,-2.083 1.25,-3.333c0,0.833 0,1.666 -0.416,2.916c-0,0.834 -0.834,1.667 -0,2.5c-0,0 -0,0.417 -0.417,0.834c-0.417,0.416 -0.833,1.25 -1.25,1.666c-0.417,0.417 -1.25,0.834 -2.083,1.25c-0.417,0.417 -0.834,1.25 -1.667,2.084c0.417,-0 0.417,-0 0,-0" style="fill-rule:nonzero;"/><path d="M90.417,302.083c0.416,0.417 0.833,0.417 1.25,0.417c1.25,1.25 2.5,2.5 3.333,3.75c0.833,0.833 1.25,1.667 2.083,2.917c0.417,0.833 0.834,1.25 0,2.083l0,1.25c-0.833,-0.833 -1.25,-2.083 -2.083,-2.917c-1.25,-1.25 -2.083,-2.916 -3.333,-4.166c-0,-0.834 -0.417,-2.084 -1.25,-3.334" style="fill-rule:nonzero;"/><path d="M85.833,252.917c2.917,-4.167 4.167,-8.75 5.417,-13.334c0,1.667 0,5 -0.417,7.084c-0.416,1.25 -0.833,2.5 -1.25,3.333c-0.833,1.25 -1.666,2.5 -3.75,2.917" style="fill-rule:nonzero;"/><path d="M46.25,302.917c-0.833,0.416 -1.25,1.25 -2.083,1.666c-1.667,0.834 -2.917,2.084 -4.584,2.5c-1.666,0.834 -3.333,1.25 -5,1.667c-0.833,0.417 -1.666,0 -2.5,-0.833c1.25,-0 2.5,-0 3.75,-0.417c1.25,-0.417 2.5,-1.25 3.75,-2.083c1.25,-0.834 2.5,-1.667 4.167,-2.5c0.417,-0 1.25,-0.417 2.5,-0" style="fill-rule:nonzero;"/><path d="M248.75,120.417c0.417,-3.75 0.833,-7.5 1.25,-11.667c2.083,2.5 1.25,9.167 -1.25,11.667" style="fill-rule:nonzero;"/><path d="M177.5,185.417c-4.583,2.5 -8.333,5.416 -11.667,9.583c0,-1.25 0,-1.667 0.834,-2.083c2.083,-2.084 4.166,-4.584 6.25,-6.25c0.416,-0.417 0.833,-0.834 1.666,-0.834c1.25,0 2.084,-0.416 2.917,-0.416" style="fill-rule:nonzero;"/><path d="M243.333,215c1.25,0.417 2.5,0.833 3.75,1.667c1.667,1.25 2.917,2.5 4.167,4.583l0,1.667c-0.833,-0.417 -1.25,-0.834 -1.667,-1.25c-1.25,-1.25 -2.083,-2.5 -3.333,-3.75c-1.25,-0.834 -2.083,-1.667 -2.917,-2.917" style="fill-rule:nonzero;"/><path d="M306.667,303.333c0.416,1.667 0.833,2.917 0.416,4.584c-0.833,2.5 -1.25,5 -2.083,7.5l-0.417,-0l0,-2.084c0.417,-2.916 1.25,-6.25 1.667,-9.166c0.417,-0.417 0.417,-0.417 0.417,-0.834" style="fill-rule:nonzero;"/><path d="M312.083,249.167c2.084,-4.584 3.334,-9.584 3.75,-14.584l0,1.667c0,1.667 -0.416,3.333 0,5c0.417,2.083 -0.416,3.75 -1.666,5.417c-0.417,1.25 -1.25,2.083 -2.084,2.5c0.417,0.416 0,0.416 0,-0" style="fill-rule:nonzero;"/><path d="M343.75,291.667c0.833,-0 0.833,-0.417 1.25,-0.417c1.25,-0 2.5,-0.417 3.75,-1.25c1.667,-1.25 3.333,-2.5 5,-3.75c0.417,-0.417 1.25,-0.833 2.083,-1.25c-1.666,4.583 -8.333,7.917 -12.083,6.667" style="fill-rule:nonzero;"/><path d="M93.75,248.75c1.667,-1.25 2.083,-2.5 2.917,-3.75c0.416,-0.417 0.416,-0.833 0.416,-1.25c0,-1.25 0,-2.5 -0.416,-3.75l-0,-1.25c1.666,2.083 2.5,5 1.25,6.25c-0.834,1.25 -2.5,2.5 -3.334,3.75c0,0.417 0,0.417 -0.833,-0" style="fill-rule:nonzero;"/><path d="M118.333,289.583c-0.833,-0.833 -1.25,-1.666 -2.083,-2.5c-0.417,-0.416 -0.833,-0.416 -1.25,-0.833c-0.417,-0.417 -1.25,-0.833 -1.667,-1.667l-5,-5c0.834,0 2.917,1.25 3.75,2.084c1.667,1.666 3.334,3.75 5,5.833c0.834,-0 0.834,1.25 1.25,2.083c0,-0.416 0,0 0,0" style="fill-rule:nonzero;"/><path d="M95.417,239.167c0.416,3.333 -0.417,6.25 -2.084,9.166l-1.666,0c1.25,-3.333 2.5,-6.25 3.75,-9.166" style="fill-rule:nonzero;"/><path d="M55,257.083c2.083,0.834 3.75,2.084 5.833,2.084c2.084,-0 4.167,-0.417 6.25,-0.834c-0.833,1.25 -3.333,2.084 -5.416,2.084c-2.5,-0 -5,-0.834 -6.667,-3.334" style="fill-rule:nonzero;"/><path d="M160,200.417c-2.083,4.583 -5,9.166 -8.75,12.916c0.833,-1.666 1.667,-2.916 2.917,-4.166c0.416,-0.417 0.416,-0.834 0.416,-0.834c0,-0.833 0.417,-1.666 0.834,-2.5c1.666,-2.083 2.916,-4.166 4.583,-5.416" style="fill-rule:nonzero;"/><path d="M88.333,243.333c0,0.834 0,1.667 -0.416,2.5c-0,0.834 -0.417,1.667 -0.834,2.917c-0.416,1.25 -0.833,2.5 -2.083,3.333c-0.417,0.417 -0.833,0.834 -1.25,1.667c-0.417,-1.25 -0.417,-2.083 0.417,-2.917c1.666,-1.666 2.083,-4.166 2.916,-6.25c0.417,-0.416 0.834,-0.833 1.25,-1.25c-0.416,0 0,0 0,0" style="fill-rule:nonzero;"/><path d="M270.833,214.167l-0.416,-0c-0.834,1.666 -1.25,2.916 -2.084,4.583l-0.416,0c-0,-0.417 -0,-1.25 0.416,-1.667c0.834,-1.666 1.25,-3.333 1.667,-5c0.417,-1.25 0.833,-2.5 0.833,-4.166c0,-0.417 0.417,-0.834 0.834,-0.417c0.416,0 0.416,0.833 0.416,0.833c-0.833,0.834 -0.416,1.667 -0.416,2.917c-0,0.417 -0,1.667 -0.834,2.917" style="fill-rule:nonzero;"/><path d="M149.583,22.083c4.584,-3.75 9.584,-6.25 15.417,-7.083c-5.417,1.667 -10.417,4.583 -15.417,7.083" style="fill-rule:nonzero;"/><path d="M60,261.667c1.25,0.416 2.5,0.416 3.75,0.833c1.25,0.417 2.5,-0 3.75,-0.833c1.25,-0.834 2.917,-2.084 4.167,-2.917c0.833,-0.417 1.25,-0.417 2.083,0c-0.417,0.417 -0.417,0.833 -0.833,0.833c-1.667,0.834 -2.917,1.667 -4.584,2.5c-1.666,0.834 -3.75,1.25 -5.416,0.417c-1.25,-0 -2.084,-0.417 -2.917,-0.833" style="fill-rule:nonzero;"/><path d="M117.917,172.5c-0.834,0.417 -2.084,0.833 -2.917,1.25c-1.667,0.833 -2.917,1.667 -4.583,2.083c-2.084,0.834 -3.75,2.084 -5,3.75c-0.834,0.834 -1.25,1.25 -2.084,2.5c0,-0.833 0.417,-1.666 1.25,-2.083c1.25,-1.25 2.5,-2.5 4.167,-3.75l3.333,-1.667c1.25,-1.25 3.334,-2.5 5.834,-2.083" style="fill-rule:nonzero;"/><path d="M280,267.5c4.167,-1.667 7.5,-4.167 11.667,-6.667c-1.667,2.5 -9.167,7.084 -11.667,6.667" style="fill-rule:nonzero;"/><path d="M83.75,202.5c0.833,-2.083 1.667,-4.583 4.167,-5.833c-0.834,2.5 -1.667,4.583 -2.084,6.666c-1.666,0.834 -1.666,0 -2.083,-0.833" style="fill-rule:nonzero;"/><path d="M183.75,27.5c-2.917,0.417 -5.417,2.083 -7.917,3.75c-1.25,0.833 -2.5,1.25 -3.333,2.083c2.917,-4.166 7.5,-6.666 11.25,-5.833" style="fill-rule:nonzero;"/><path d="M243.75,176.25c2.5,0.833 5,1.25 6.667,3.333c-2.084,0.834 -5.834,-0.833 -6.667,-3.333" style="fill-rule:nonzero;"/><path d="M277.5,263.333c2.5,-0.833 5,-0.416 7.083,-0.416c-0.833,1.666 -1.666,2.083 -2.916,2.083c-1.25,-0.417 -2.917,-0.417 -4.167,-1.667" style="fill-rule:nonzero;"/><path d="M250.833,216.667c-1.666,-0 -2.916,-1.667 -4.166,-2.084c-1.667,-0.416 -2.917,-1.25 -4.584,-2.083c0.834,0 1.667,0.417 2.5,0c2.084,0 4.167,0.833 5.417,2.5c0.417,0.417 0.833,0.833 0.833,1.667c0,-0.417 0,-0 0,-0" style="fill-rule:nonzero;"/><path d="M331.667,286.25c2.5,-0.417 5,-0.833 7.5,0.417c-0,0.833 -0.834,0.833 -1.25,1.25c-2.084,-0 -4.167,-0.417 -6.25,-1.667" style="fill-rule:nonzero;"/><path d="M200,23.75c0.833,0.417 1.25,1.25 1.667,1.667c-0.417,-0 -0.417,-0.417 -0.834,-0.417c-1.25,-0.833 -2.083,-1.25 -3.333,-1.667c-1.25,0 -2.083,-0.833 -3.333,-1.25c0.833,0 1.666,-0.416 2.916,-0.416c0.417,-0 0.834,-0 1.25,0.416c1.25,0.417 2.084,1.25 3.334,1.667l-1.667,-0" style="fill-rule:nonzero;"/><path d="M170.417,45c-0,-2.917 5,-7.5 7.916,-7.083c-2.916,2.083 -5.416,4.166 -7.916,7.083" style="fill-rule:nonzero;"/><path d="M306.667,315c-0,0 -0,0.417 0.416,0.833c0,-1.25 0.417,-2.5 0.417,-3.333l0.417,-0c0.416,3.333 -0.834,6.25 -0.834,9.583c-2.083,-2.916 -0.833,-5 -0.416,-7.083" style="fill-rule:nonzero;"/><path d="M90.833,102.917c-0.416,-1.25 -0.416,-2.084 -0.416,-2.917c0.833,-2.5 2.083,-5 3.75,-6.667c0.416,-0.416 0.833,-0.416 1.25,-0.833c-0.834,1.667 -2.084,2.917 -2.917,4.583c-0.833,2.084 -1.25,3.75 -1.667,5.834" style="fill-rule:nonzero;"/><path d="M174.583,25.417l0,0.416c-0.416,0.417 -0.416,0.417 -0.833,0.417c-2.917,0.833 -5.417,2.917 -7.917,4.583c-0.833,0.834 -1.666,1.25 -2.916,2.084c2.5,-2.917 5.416,-5 8.75,-7.084c1.25,0.417 2.5,0.417 2.916,-0.416Z" style="fill-rule:nonzero;"/><path d="M122.083,31.667c1.667,-3.334 3.75,-5.834 7.5,-6.667c-2.5,2.5 -5,4.583 -7.5,6.667" style="fill-rule:nonzero;"/><path d="M135.833,215.833c0,0.417 -0.416,0.417 -0.416,0.834c-2.084,1.25 -3.75,1.25 -6.25,1.25c2.5,-1.25 4.583,-2.084 7.083,-3.334l-0,0.417c-1.25,0.833 -2.5,1.25 -3.75,2.083c1.25,-0.416 2.083,-1.25 3.333,-1.25" style="fill-rule:nonzero;"/><path d="M173.75,170.833c-1.667,2.917 -3.75,5.417 -6.25,7.5c0.417,-1.25 4.167,-5.833 6.25,-7.5" style="fill-rule:nonzero;"/><path d="M282.083,205.833c-0.416,-0.416 -0.833,-0.833 -0.833,-1.25c-0.417,-1.666 -0.417,-3.333 -0.833,-5.416c2.083,2.083 2.083,4.166 1.666,6.666" style="fill-rule:nonzero;"/><path d="M142.917,22.917c3.333,-2.5 6.666,-4.167 10.416,-5c-2.916,1.25 -5.833,2.5 -8.75,4.583c-0.416,0 -0.833,0.417 -1.666,0.417Z" style="fill-rule:nonzero;"/><path d="M255,109.167c-0.417,-3.334 -1.25,-6.25 -4.167,-8.334c2.917,0.417 5.417,5 4.167,8.334" style="fill-rule:nonzero;"/><path d="M142.917,218.75c0.416,-1.667 4.166,-7.5 6.666,-10c-2.083,3.333 -4.166,6.667 -6.666,10" style="fill-rule:nonzero;"/><path d="M253.333,114.583c0,-2.916 0.417,-5.833 -0.416,-9.166c1.666,3.333 1.25,6.25 0.416,9.166" style="fill-rule:nonzero;"/><path d="M117.083,165c-1.666,0.833 -3.75,1.667 -5.416,2.5c0.416,-1.25 1.25,-2.083 2.5,-2.5c0.416,-0.417 1.666,-0.833 2.916,0" style="fill-rule:nonzero;"/><path d="M167.917,181.25c2.083,-2.083 3.75,-5 6.666,-6.25l0.417,0.417c-2.5,2.083 -4.583,4.166 -7.083,5.833" style="fill-rule:nonzero;"/><path d="M166.25,189.583c0.833,-2.5 2.083,-5.416 5,-6.666c-1.667,2.083 -3.333,4.583 -5,6.666" style="fill-rule:nonzero;"/><path d="M274.167,259.583c1.25,-0.833 4.583,0 6.25,0.834c-1.667,0.416 -5,-0 -6.25,-0.834" style="fill-rule:nonzero;"/><path d="M172.5,37.917c1.667,-1.667 3.333,-2.917 5,-4.167c0.417,0.417 0.417,0.833 0,1.25c-1.667,1.25 -3.333,2.5 -5,2.917c0,0.416 0,0.416 0,-0" style="fill-rule:nonzero;"/><path d="M105.833,117.5c-0.833,-2.5 0,-4.583 0.834,-6.667c-0,2.5 -0.417,4.584 -0.834,6.667" style="fill-rule:nonzero;"/><path d="M57.5,255c-2.917,0.417 -5.417,-1.667 -5,-3.75c0,0.417 0.417,0.417 0.417,0.833c0.416,1.25 1.25,2.084 2.916,2.5c0.834,-0.416 1.25,-0.416 1.667,0.417" style="fill-rule:nonzero;"/><path d="M254.167,101.25c-2.084,-1.667 -3.75,-3.333 -4.167,-5.833c1.25,1.666 2.5,3.75 4.167,5.833" style="fill-rule:nonzero;"/><path d="M89.167,94.583c-1.25,1.667 -1.25,4.167 -1.25,6.25c-1.25,-2.083 -0.417,-4.583 1.25,-6.25" style="fill-rule:nonzero;"/><path d="M177.917,42.917c-1.25,1.25 -2.084,2.083 -2.917,2.916c0.417,-2.083 1.667,-3.333 2.917,-2.916" style="fill-rule:nonzero;"/><path d="M146.667,209.167c-0.834,0.833 -1.25,1.666 -2.084,2.916c0,-1.666 0.834,-2.5 2.084,-2.916" style="fill-rule:nonzero;"/><path d="M127.5,29.583c-0.417,0.834 -1.25,1.25 -1.667,2.084c0.417,-0.834 1.25,-1.25 1.667,-2.084" style="fill-rule:nonzero;"/><path d="M174.583,205c-0.416,-0 -0.833,0.417 -1.666,0.417c0.833,-0.834 1.25,-0.834 1.666,-0.417" style="fill-rule:nonzero;"/><path d="M125.833,31.667c-0.416,0.416 -0.833,0.833 -0.833,1.666c0,-0.833 0.417,-1.25 0.833,-1.666" style="fill-rule:nonzero;"/><path d="M175.833,117.5c0.834,5.833 -0.416,11.25 -2.5,16.667c-0.833,-1.25 -0.416,-2.5 -0.416,-3.75l-0,-4.584c-0,-2.083 -0,-3.75 0.416,-5.416c0.417,-1.667 -0.416,-2.084 -1.666,-2.5c-2.5,-0.417 -5,-0.417 -7.5,-0.834c-0.834,0 -1.667,-0.416 -2.5,-0.416c-1.25,-0.417 -2.5,-0.834 -4.167,-1.25c-3.333,-0.834 -6.25,-2.5 -8.333,-5c-2.917,-2.917 -4.167,-6.667 -4.167,-10.834c-0,-1.666 0.833,-3.333 2.083,-5c1.25,-1.25 2.5,-2.083 3.75,-2.916c1.25,-0.834 2.5,-1.25 3.75,-1.667c3.75,-1.25 7.5,-2.5 11.667,-3.333c4.167,-0.834 8.333,-0.834 12.083,-0.417c3.334,0 7.084,0.417 10.417,1.667c3.75,1.25 7.5,2.916 9.583,6.666c0.417,0.834 0.834,1.25 1.25,2.084c1.25,2.5 0.834,4.583 0,7.083c-0.416,0.833 -0.833,1.667 -0.833,2.917c-0.833,1.666 -2.083,2.5 -3.333,3.75c-0.834,0.833 -1.667,1.25 -2.5,2.083l-0.417,0c-2.083,0.833 -4.167,2.5 -6.667,2.917c-0.833,-0 -1.25,0.416 -2.083,0.833c-2.917,1.25 -5.833,1.667 -8.75,2.083c1.667,-1.25 1.25,-1.25 0.833,-0.833m10.417,-24.583c-0.417,-0.417 -0.833,-0.417 -1.25,-0.417c-2.083,-0.417 -4.167,-0.833 -5.833,-1.25c-0.834,0 -1.667,-0.417 -2.084,-0.417c-4.583,-0.416 -9.166,0 -13.333,0.417c-1.667,0 -2.917,0.833 -4.583,0.833c-2.917,0.417 -5,2.084 -6.667,4.167c-0.833,1.25 -1.25,2.5 -1.25,3.75c2.083,-2.5 4.583,-3.333 7.083,-4.167c3.75,-0.833 7.084,-1.666 10.834,-2.083c3.333,-0.417 6.666,-0.833 10.416,-1.25c2.084,0.417 4.167,0.417 6.667,0.417m-19.167,20.416c1.667,0.417 3.334,0.417 4.584,0.417c2.916,-0.417 6.25,-0.833 9.166,-1.25c1.667,-0.417 3.334,-0.833 5,-1.25c1.667,-0.417 3.334,-1.25 5,-2.083c0.417,-0.417 0.834,-0.834 1.667,-0.834l-0,-0.416c-0.417,-0 -0.417,0.416 -0.833,0.416c-0.834,0.417 -1.667,0.417 -2.917,0.834c-0.833,0.416 -1.667,0.416 -2.5,0.833c-0.417,-0 -0.833,0.417 -1.25,0.417c-2.917,0.833 -5.417,1.666 -8.333,2.083c-2.084,0.417 -4.167,0.833 -6.25,0.833l-3.334,0" style="fill-rule:nonzero;"/><path d="M206.25,63.75c0,-0.417 0,-0.417 -0.417,-0.833c-0.416,-0.834 -0.833,-2.5 -1.666,-2.917c-1.667,-1.25 -3.75,-2.083 -5.834,-1.667c-2.5,0.417 -4.166,2.084 -5.833,3.75c-2.5,2.5 -2.083,5.834 -1.667,9.167c0.417,2.083 1.667,4.167 3.334,5.833c1.666,1.25 6.25,1.667 7.916,0.834c1.667,-0.834 2.917,-2.084 3.75,-4.167c0,-0.417 0.417,-0.833 0.834,-1.25c0.416,-0.833 0.833,-1.667 0.833,-2.917c0,-2.083 -0.833,-4.166 -1.25,-5.833" style="fill-rule:nonzero;"/><path d="M195.417,67.5c1.25,-0.833 2.083,-1.25 2.916,-1.667c0.834,-0.416 1.667,-0.833 2.5,-1.25c0.417,0 0.834,-0.416 0.834,-0.416c-0,-0.417 -0.417,-0.834 -0.417,-1.25c-0.417,-0.417 -1.25,-0.417 -1.667,-0.834c-2.5,1.25 -4.166,2.5 -4.166,5.417" style="fill:#fff;fill-rule:nonzero;"/><path d="M211.667,217.083c0.416,-0.833 1.25,-1.25 1.666,-2.083c1.25,-0.833 2.084,-2.083 3.334,-2.917c1.25,-0.416 2.5,-0.833 3.333,-1.666c3.333,-1.667 6.667,-3.334 9.583,-5.417c2.917,-2.083 5,-5 6.667,-7.917c1.25,-2.5 2.083,-5.416 2.083,-8.333c0,-1.667 0.417,-3.75 0,-5.417c0,-2.083 -1.25,-4.583 -1.666,-6.666c-0,-0.417 -0.417,-0.834 -0.417,-1.25c-1.25,-1.25 -2.083,-2.917 -3.333,-4.167c-2.917,-2.5 -6.25,-4.167 -10,-4.167c-2.5,0 -4.584,0.417 -6.667,1.667c-1.667,1.25 -3.333,2.083 -4.583,3.333c-1.667,1.25 -2.5,1.25 -4.167,-0.416c-0.417,-0.417 -0.833,-0.834 -1.25,-1.25c-0.833,-0.834 -2.083,-1.25 -2.917,-2.084c-2.083,-2.083 -6.25,-2.5 -9.166,-0.833c-2.084,1.25 -3.75,2.5 -5.417,3.75c-1.667,1.667 -3.333,3.333 -4.167,5.417c-0.833,1.25 -0.833,2.916 -1.25,4.583c-0.833,2.917 -0.416,5.417 -0.416,8.333c0.416,2.084 0.833,4.167 1.666,6.25c1.667,4.167 4.167,7.917 7.917,10.417c1.667,1.25 3.333,2.5 5.417,2.5c0.833,0 1.25,0.417 2.083,0.833c0.417,0 0.833,0.417 0.833,0.417c1.25,0.417 2.5,0.417 4.167,0.833c0.417,0 0.833,0.417 0.833,0.417c2.084,2.5 3.75,4.167 5.834,5.833" style="fill:#d60812;fill-rule:nonzero;"/><g><path d="M238.333,279.167c0,0.833 -0.416,1.666 -0.833,2.5c-0.417,0.833 -1.25,1.666 -1.667,2.5l-3.75,3.75c-1.25,1.25 -2.5,2.5 -4.166,3.75c-1.25,1.25 -2.5,2.083 -3.75,2.916c-1.25,0.834 -2.084,1.25 -3.334,2.084l0,-0.417c0.417,-0.417 0.834,-0.833 1.667,-1.25l2.5,-2.5c0.833,-0.833 1.667,-1.667 2.917,-2.5l-0,-0.417l-0.417,0c-0.417,0.417 -0.833,0.417 -1.25,0.834c-0.417,0.416 -1.25,0.833 -2.083,1.25c-0.417,0.416 -0.834,0.416 -1.25,0.833c-0.417,0.417 -0.834,0.833 -1.667,0.833c-0.833,0.417 -1.25,0.834 -2.083,0.834c-0.834,0.416 -1.25,0.833 -2.084,0.833c-0.833,0.417 -1.666,0.417 -2.083,0.833c-2.5,1.25 -5,2.084 -7.917,2.917c-0.833,-0 -1.666,0.417 -2.5,0.417l-1.666,-0c-0,-0 -0.417,-0 -0.417,-0.417c-0,-0 -0.417,-0 -0.417,-0.417c0.417,0 0.834,-0.416 1.25,-0.416c1.25,-0.417 2.5,-0.834 3.75,-0.834c0,0 0.417,0 0.417,-0.416c0.417,-0.417 1.25,-0.834 2.083,-0.834c1.25,-0.416 2.5,-0.833 3.75,-1.666c0.834,-0.417 1.25,-0.417 2.084,-0.834c0.833,-0.416 1.25,-0.416 2.083,-0.833c0.833,-0.417 1.667,-0.833 2.5,-1.25c-0,-0 0.417,-0 0.417,-0.417c0.833,-0.416 1.25,-0.833 2.083,-1.25c0.417,0 0.417,-0.416 0.833,-0.416c0.834,-0.417 1.25,-0.834 2.084,-1.25l0.416,-0c0.417,-0 0.417,-0 0.834,-0.417c0.833,-0.417 1.25,-0.833 2.083,-1.667c0.833,-0.416 1.25,-1.25 2.083,-1.666c0,-0 0.417,-0 0.417,-0.417c0.417,-0.833 1.25,-1.25 2.083,-1.667c0.417,-0.416 0.834,-0.833 1.25,-1.25c1.25,-0.833 2.084,-1.666 2.917,-2.5c0,1.25 0.417,1.25 0.833,0.834Z" style="fill-rule:nonzero;"/><path d="M150.833,287.5l0,-0.417c0,-0.833 -0.416,-1.666 -0.416,-2.916l-0,-0.417c0.416,-0.417 -0,-0.833 -0,-1.25c-0.417,-0.833 -0.417,-1.667 -0.417,-2.5l0,-1.25c0,0.417 0.417,0.833 0.417,0.833c0.833,2.5 1.666,5.417 2.5,7.917c0.416,0.833 0.416,1.667 0.833,2.083l-0,0.834c0.417,0.416 0.417,0.416 0.417,0.833c-0,0.417 0.416,0.833 0.416,1.25l0,0.417c0,-0 -0.416,-0 -0.416,-0.417c-0,-0.417 -0.417,-0.417 -0.417,-0.417c-0.417,-0.416 -0.833,-0.416 -1.25,-0.833c-0.417,0 -0.417,-0.417 -0.417,-0.833c-0.416,-0.834 -0.833,-1.667 -1.25,-2.084c-0.416,-0.416 -0.416,-0.833 -0.833,-0.833c-0.417,0 -0.417,-0.417 -0.833,-0.417c-0.417,-0.416 -0.834,-0.833 -1.25,-1.25c-0.417,-0.416 -0.834,-0.416 -1.25,-0.833c-0.417,-0.417 -1.25,-1.25 -1.667,-1.667c-0.417,-0.416 -0.833,-0.833 -1.25,-0.833c-0.833,-0.833 -1.667,-1.667 -2.5,-2.5c-0.833,-0.833 -1.25,-1.667 -1.667,-2.5c0,0 0,-0.417 -0.416,-0.417c-0.834,-0.416 -0.834,-1.25 -1.25,-2.083c-0.417,-1.25 -0.834,-2.5 -1.667,-3.75l-0,-2.083c-0,-0.834 -0,-1.667 0.417,-2.5c0.416,-0.834 0.416,-1.25 0.416,-2.084l0,-0.416c0,0.416 0,0.833 0.417,0.833c-0,0.833 -0,1.667 0.417,2.5c0.416,1.667 0.416,2.917 0.833,4.583c-0,0.417 -0,0.417 0.417,0.834c0.416,1.25 1.25,2.5 1.666,3.333c0,0.417 0.417,0.417 0.417,0.833c0.833,0.834 1.25,1.667 2.083,2.917c0.417,0.833 1.25,1.25 1.667,2.083c0.417,0.417 1.25,0.834 1.667,1.667c0.416,0.417 0.416,0.833 0.833,0.833l1.667,1.667c0.416,0 0.416,0.417 0.833,0.417c0,0.416 0.417,0.416 0.833,0.833Z" style="fill-rule:nonzero;"/><path d="M197.083,295.417c0.834,-0.417 1.25,-0.417 2.084,-0.834c0.833,-0.416 1.666,-0.416 2.5,-0.833c1.666,-0.417 3.333,-0.833 5,-1.25c1.25,-0.417 2.083,-0.833 3.333,-0.833c0.417,-0 0.833,-0.417 1.25,-0.417c0.833,-0.417 1.667,-0.833 2.5,-1.25c0.417,0 0.417,-0.417 0.833,-0.417c1.25,-0.416 2.5,-0.833 3.334,-1.25c0.416,-0.416 1.25,-0.416 2.083,-0.833l-3.333,1.667c-0.834,0.416 -2.084,0.833 -2.917,1.666c-1.25,0.417 -2.5,1.25 -3.75,1.667c-1.25,0.417 -2.083,0.417 -3.333,0.833c-1.667,0.417 -3.334,0.834 -5,1.25c-1.25,0.417 -2.5,0.417 -3.75,0.417l-1.667,0c-1.25,0 -2.5,0.417 -3.333,0.833c-0.417,0.417 -1.25,0.417 -1.667,0.834c-0.833,0.416 -1.667,0.416 -2.083,0.833l-0.417,0c0,0 0,-0.417 0.417,-0.417c0.416,0 0.833,-0.416 1.25,-0.833l0.416,0c0.834,-0.417 1.25,-0.833 2.084,-0.833c1.666,-0.834 3.75,-1.667 5.416,-2.5c0.834,-0.417 1.25,-0.834 2.084,-0.834c0.416,0 0.416,-0.416 0.833,-0.416c0.417,-0.417 1.25,-0.417 1.667,-0.834c-0,0 0.416,0 0.416,-0.416c0.417,0.416 0.834,0.416 1.25,0.416c0.417,-0.416 1.25,-0.416 1.667,-0.833c0.417,-0.417 1.25,-0.417 2.083,-0.417l0,0.417c-0.416,0 -0.416,0.417 -0.833,0.417c-1.25,0.416 -2.083,1.25 -3.333,1.666c-0.417,0 -0.417,0.417 -0.834,0.417c-0.416,0.417 -0.833,0.417 -1.666,0.833c-0.417,0.417 -0.834,0.417 -1.25,0.834c-1.667,0.416 -2.5,0.416 -3.334,1.25c0,-0.417 0,-0 0,-0c0,-0 -0.416,-0 0,-0c-0.416,-0 0,-0 0,-0Z" style="fill-rule:nonzero;"/><path d="M163.333,285.417c0.417,-0 0.417,0.416 0.834,0.416c0.416,0.417 0.833,0.417 0.833,0.834c0.833,0.416 1.667,0.833 2.083,1.25l0.417,0.416c0.417,0 0.833,0.417 1.25,0.834c0.417,0.833 0.833,1.25 1.667,1.666l0.416,0.417c0.417,0.417 0.834,0.417 1.25,0.833l0,-1.25c-0.416,-1.25 -0.416,-2.083 -0.416,-3.333l-0,-0.417c-0,-0.416 -0,-0.416 0.416,-0.833c0.417,-0.417 1.25,-0.833 1.667,-1.25c0,-0 0.417,-0 0.417,-0.417c0.416,0 0.833,-0.416 1.25,-0.416l-0,0.833c-0.417,0.833 -0.834,2.083 -1.25,3.333l-0,2.084c0.416,0.833 0.416,2.083 0.833,2.916l-0,0.417c-0,0.417 -0,0.417 0.417,0.833l0.416,0.417c0,-0 0.417,0.417 0.834,0.417c-0,-0 0.416,-0 0.416,0.416l-0.416,0c-0.417,0 -0.834,0 -1.25,-0.416c-0.417,-0 -0.834,-0 -1.25,-0.417c-0.417,-0.417 -1.25,-0.417 -1.667,-0.417c-1.25,-0.833 -2.5,-1.666 -3.333,-2.916c-0.834,-0.834 -1.667,-1.667 -2.084,-2.5c-0.833,-0.834 -1.666,-2.084 -2.5,-2.917c-0.416,-0 -0.833,-0.417 -1.25,-0.833Z" style="fill-rule:nonzero;"/><path d="M130,255.417c-0,0.416 -0,0.833 -0.417,1.666c-0.833,2.5 -0.833,5 -0.833,7.5c0,1.25 0.417,2.5 0.833,3.334c0,0.416 0.417,0.833 0.417,0.833c0.417,0.833 0.833,2.083 1.667,2.917c-0,0.416 0.416,0.416 0.416,0.833l0,0.417c0.417,0.416 0.417,0.833 0.834,1.25c-0,0.833 0.416,1.25 0.833,2.083l-0,2.917c-0,-0 -0,-0.417 -0.417,-0.417c0,-0.417 -0.416,-0.417 -0.416,-0.833c-0,-0 -0,-0.417 -0.417,-0.417c-0,-0.417 -0.417,-0.417 -0.417,-0.417c0,0 -0.416,0 -0.416,-0.416c-0.417,-0.417 -0.417,-0.834 -0.834,-1.25l0,-0.417c-0.833,-0.833 -1.25,-2.083 -1.666,-2.917c-0.417,-1.25 -0.834,-2.5 -1.25,-3.75l-0,-4.166c0.416,-0.834 0.416,-1.25 0.416,-2.084c0,-1.25 0.417,-2.5 0.834,-3.333c0.416,-0.833 0.416,-1.667 0.833,-2.5c-0.417,-0 -0.417,-0.417 -0,-0.833c-0.417,-0 -0.417,-0 -0,-0Z" style="fill-rule:nonzero;"/><path d="M186.667,291.25c0.416,-0.417 0.416,-0.417 -0,0c0.416,-0.417 0.833,-0.833 0.833,-1.25l0.417,-0.417c0.833,-0.416 1.666,-0.833 2.5,-1.25c0.416,0 0.833,0 0.833,-0.416c0.417,-0 1.25,-0.417 1.667,-0.417c0.833,-0.417 1.25,-0.417 2.083,-0.417l3.75,0c0.417,0 1.25,0 1.25,0.834c0.417,0.416 0.417,0.416 0.833,0.833c0,-0 0.417,-0 0.417,0.417c-0.833,-0 -1.667,0.416 -2.917,0.833c-0.416,-0 -0.833,0.417 -1.25,0.417c-0.416,-0 -0.833,0.416 -0.833,0.416c-1.25,0.834 -2.917,1.667 -4.167,2.5c-0.416,0.417 -1.25,0.417 -1.666,0.834c-0.417,-0 -0.834,0.416 -1.667,0.416l-0,-0.416c0.833,-0.417 1.25,-0.834 1.667,-1.25c0.416,-0.417 0.833,-0.834 1.25,-0.834c0.833,-0.416 1.25,-0.833 2.083,-1.25c0.833,-0.416 1.667,-0.833 2.5,-1.25c0.417,0 0.833,-0.416 0.833,-0.416c0.417,-0.417 0.834,-0.417 1.667,-0.417l0.417,-0l-1.25,-0c-0.834,-0 -1.667,-0 -2.5,0.417c-0.417,-0 -0.834,-0 -1.25,0.416c-0.834,0 -1.25,0.417 -2.084,0.417c-1.25,0.417 -2.916,0.833 -4.166,1.667c-0,-1.25 -0.417,-0.834 -1.25,-0.417c0.416,-0 -0,-0 -0,-0Z" style="fill-rule:nonzero;"/><path d="M180,297.5l-0.417,0c0,-0.417 -0.416,-0.417 -0.833,-0.833l-0.417,-0c-0.416,-0 -0.416,-0.417 -0.416,-0.417c-0.834,-0.833 -1.25,-2.083 -1.667,-3.333c0,-0.417 -0.417,-1.25 -0.417,-1.667c0,-0.833 0,-1.667 -0.416,-2.5l-0,-3.75c-0,-0.833 0.833,-1.667 1.25,-2.083c0.416,-0.417 0.833,-0.834 1.666,-1.25l0.417,-0l0,0.833c0,0.833 0,1.25 -0.417,1.667l0,1.25c-0.416,0.833 -0.416,2.083 -0.416,2.916l-0,0.417c-0,1.667 0.416,3.333 0.416,4.583c0,0.417 0.417,1.25 0.417,1.667c0.417,1.25 0.417,2.083 1.25,2.5Z" style="fill-rule:nonzero;"/><path d="M170.417,298.333c-0.417,-0.416 -0.834,-0.416 -1.25,-0.833l-3.75,-3.75c-0.834,-0.833 -1.667,-1.667 -2.084,-2.5c0,-0.417 -0.416,-0.417 -0.416,-0.833c-0.417,-0.417 -0.417,-0.417 -0.417,-0.834c-0.833,-1.666 -1.667,-3.333 -2.083,-5.416c-0,-0.834 -0.417,-1.25 -0.417,-2.084l0,-2.5l0.417,0c0.416,0.417 0.833,0.834 0.833,1.667c0,0.417 0.417,0.417 0.417,0.833c0.416,1.25 0.833,2.5 1.25,3.75c-0,0.417 0.416,0.834 0.416,1.25c0.417,0.417 0.417,1.25 0.834,1.667c-0,0.417 0.416,0.833 0.416,0.833c0.417,0.417 0.417,0.834 0.834,1.25c-0,0.417 0.416,0.417 0.833,0.834c0.417,0.416 0.417,0.833 0.833,0.833l2.084,2.083c0.416,0.417 0.416,0.834 0.833,1.25l-0,0.417c0,1.25 0,1.667 0.417,2.083Z" style="fill-rule:nonzero;"/><path d="M182.917,293.75c-0,-0.833 0.416,-1.25 0.833,-2.083c0.417,-0.834 0.833,-1.25 0.833,-2.084l0,-1.666l0.834,-0.834c0.416,-0.416 0.833,-0.416 1.25,-0.833c0.833,-0.417 1.666,-0.833 2.5,-0.833c1.25,-0 2.916,-0 4.166,-0.417l0.834,0l-0.417,0.417l-0,0.416c-1.667,0.417 -2.917,1.25 -4.583,2.084c-0.417,0.416 -0.834,0.833 -1.25,0.833l-4.167,4.167c0,0.416 -0.417,0.416 -0.833,0.833Z" style="fill-rule:nonzero;"/><path d="M187.083,284.167l0,0.833c-1.25,0.833 -2.083,2.083 -2.916,2.917c-0.834,0.833 -1.25,1.666 -1.667,2.5c-0.417,0.416 -0.417,0.833 -0.417,1.25c0,0.416 -0.416,0.833 -0.416,1.25c-0,0.416 -0.417,1.25 -0.417,1.666c0,0.417 0,0.417 -0.417,0.834c0,0.416 0.417,1.25 0.417,1.666c-0.417,0 -0.417,0 -0.417,-0.416c0,-0.417 -0.416,-0.834 -0.416,-1.25l-0,-2.084c-0,-0.416 0.416,-0.416 0.416,-0.833c0.417,-0.833 0.834,-1.667 0.834,-2.5l-0,-0.833c-0,-0.417 0.416,-0.834 0.416,-1.25l0,-0.417c0.834,-1.25 1.667,-2.5 2.5,-3.333c0.417,-0.417 0.834,-0.417 1.25,-0.834c0.417,-0.416 0.834,-0.416 1.25,-0.416l0.417,-0c0.417,-0.417 0.417,-0.417 0.833,-0.417c0.417,0 1.25,-0.417 1.667,-0.417l0.417,0l-0,0.417c-0.417,0.417 -1.25,0.833 -1.667,1.25c-0.417,0 -0.417,0 -0.833,0.417l-0.834,-0Z" style="fill-rule:nonzero;"/><path d="M122.083,260.417c-0.416,-0.417 -0.416,-0.834 -0.416,-1.25c-0,-0.417 -0,-0.834 -0.417,-0.834l0,-1.25c0.417,-0.833 0.417,-1.666 0.833,-2.916c0.417,-0.834 0.834,-1.25 1.25,-2.084c0.417,-0.416 0.834,-0.833 1.667,-1.25c0.417,-0.416 1.25,-0.416 1.667,-0.833l0.416,-0.417c0,0 0.417,-0.416 0.834,-0.416l-0,0.416c-0.417,0.417 -0.834,0.834 -0.834,1.25l-0.416,0.417c-0.417,1.25 -1.25,2.5 -2.5,3.75c-0.417,0.833 -0.834,1.667 -1.25,2.5c-0.417,0.833 -0.834,2.083 -0.834,2.917Z" style="fill-rule:nonzero;"/><path d="M144.167,287.5c-0.834,0 -1.667,-0.833 -2.084,-1.25c-0.416,-0.417 -0.833,-0.833 -1.25,-1.25c-0.833,-0.833 -1.666,-1.667 -2.5,-2.917c-0.833,-0.833 -1.25,-1.666 -1.666,-2.916c-0.417,-0.834 -0.834,-1.667 -0.834,-2.084c0,-0.416 -0.416,-0.833 -0.416,-0.833c-0.417,-0.417 -0.417,-1.25 -0.834,-1.667c-0.416,-0.416 -0.416,-0.833 -0.416,-1.25c-0.417,-0.833 -0.417,-1.25 -0.417,-2.083l0,-0.417c0,-0.416 0,-0.833 0.417,-1.25c-0,0.417 0.416,0.834 0.416,0.834l0,1.25c0,0.416 0.417,0.833 0.417,1.25c0,-0 0,0.416 0.417,0.416c0.416,0.834 0.833,1.667 1.25,2.5c0.416,0.417 0.416,1.25 0.833,1.667c0.417,0.417 0.417,0.833 0.833,1.25l0.417,0.417c0.417,0.416 0.417,0.833 0.833,1.25c0.834,0.833 1.667,1.666 2.5,2.916c0,1.25 0.834,2.5 2.084,4.167Z" style="fill-rule:nonzero;"/><path d="M206.25,297.5c0.417,-0.417 0.833,-0.417 0.833,-0.833c1.25,-0.417 2.5,-1.25 3.75,-2.084l0.417,-0.416c0.417,-0.417 0.833,-0.417 1.25,-0.834c0.417,-0.416 0.833,-0.416 1.25,-0.833c0.833,-0.417 1.25,-0.833 2.083,-1.25c0.834,-0.417 1.25,-0.833 2.084,-1.667l0.416,-0.416c0.417,-0.417 1.25,-0.834 2.084,-1.25c0.416,-0.417 0.833,-0.417 0.833,-0.834l0.417,-0.416c0.416,-0.417 0.833,-0.417 1.666,-0.834c0,0 0.417,0 0.417,-0.416l0,0.416l-3.75,3.75c-0.833,0.834 -1.25,1.25 -2.083,1.667c-1.25,0.833 -2.5,1.25 -3.334,1.667c-0.833,0.416 -2.083,1.25 -2.916,1.666c-0,0 -0.417,0 -0.417,0.417c-2.5,1.667 -3.75,2.083 -5,2.5Z" style="fill-rule:nonzero;"/><path d="M239.167,291.25c-0.417,0.417 -0.417,0.417 -0.834,0.417c-0.416,0.416 -0.833,0.416 -1.25,0.833c-0.833,0.417 -1.666,1.25 -2.5,1.667c-1.25,0.416 -2.5,1.25 -3.75,1.666c-1.25,0.834 -2.916,1.25 -4.583,1.667c-1.25,0.417 -2.5,0.417 -3.75,0.833c-0.417,0 -0.833,0 -1.667,0.417c0.417,-0.417 0.834,-0.417 1.25,-0.417c0.417,0 0.834,-0.416 1.25,-0.416c0.417,-0.417 1.25,-0.417 1.667,-0.834l9.167,-4.583c1.25,-0.417 2.083,-0.833 3.333,-1.25c0,0 0.417,0 0.417,-0.417c0.833,0.417 1.25,0.417 1.25,0.417Z" style="fill-rule:nonzero;"/><path d="M125.833,267.917l-0.416,-0.417c-0.417,-0.833 -0.834,-1.667 -0.834,-2.5l0,-3.333c0,-0.417 0,-0.834 0.417,-1.667c0,-0.417 0.417,-0.833 0.417,-1.667c-0,-0.416 -0,-0.416 0.416,-0.833c0,-0.417 0.417,-0.833 0.417,-1.25c0.417,-0.833 0.833,-1.25 1.25,-2.083c0,-0.417 0.417,-1.25 1.25,-1.25l0,0.416c0,0.417 -0.417,0.834 -0.417,1.25c0,0.417 -0.416,0.834 -0.416,1.25c-0.417,0.417 -0.417,0.834 -0.417,1.25c0,0.417 -0.417,0.834 -0.417,1.25c-0.416,0.417 -0.416,1.25 -0.416,1.667l-0,2.083c-0.834,2.084 -0.834,3.75 -0.834,5.834Z" style="fill-rule:nonzero;"/><path d="M156.667,281.25c0.416,1.25 0.833,2.083 1.25,2.917c0.416,0.833 0.833,2.083 1.666,2.916c0.417,0.417 0.834,1.25 0.834,2.084l-0,0.416c-0.417,-0.416 -1.25,-0.833 -1.667,-1.25c-0.417,0 -0.417,-0.416 -0.833,-0.833c-0.417,-0.833 -0.834,-1.25 -1.25,-2.5l-0,-2.5c-0.417,0 -0.417,-0.417 -0,-1.25c-0.417,0.417 -0.417,0.417 -0,0Z" style="fill-rule:nonzero;"/><path d="M121.25,245.833c-0.417,0.417 -0.417,0.834 -0.833,1.25c-0.417,1.25 -0.834,2.5 -1.25,3.75c-0.417,0.834 -0.417,2.084 -0.417,2.917l0,2.083c0,-0.416 -0.417,-0.833 -0.417,-1.25c0,-0.416 -0.416,-0.833 -0.416,-1.25l-0,-3.75c-0,-0.416 -0,-0.833 0.416,-1.25c0.417,-0.416 0.417,-0.833 0.834,-1.25c0.416,-0.416 0.833,-0.833 0.833,-0.833l1.25,-0.417Z" style="fill-rule:nonzero;"/><path d="M245,287.917c0,0.416 -0.417,0.416 -0.417,0.416c-0.416,0.417 -0.833,0.834 -1.25,0.834c-0.833,0.833 -1.666,1.666 -2.5,2.5c-0.416,0.416 -1.25,0.833 -1.666,1.25c-1.25,0.833 -2.5,1.666 -3.75,2.5l-0.417,-0c0,-0 0,-0.417 0.417,-0.417c0.416,-0.417 0.833,-0.833 1.25,-1.25c-0,-0.417 0.416,-0.417 0.833,-0.417c0.833,-0.416 1.667,-1.25 2.5,-2.083l3.333,-3.333c0.417,-0 0.417,-0.417 0.417,-0.417c0.417,0.833 0.833,0.417 1.25,0.417Z" style="fill-rule:nonzero;"/></g></g><path d="M171.25,146.25c2.917,0 5.833,-0.417 8.333,-0.417c4.584,-0.416 9.167,-1.666 13.75,-2.5c2.5,-0.416 5,-1.666 7.917,-2.5c1.667,-0.416 3.333,-1.25 5,-1.666c2.917,-1.25 5.833,-2.5 8.75,-4.167c2.083,-0.833 3.75,-2.5 5.833,-4.167c0.834,-0.416 0.834,-1.666 1.667,-2.083c1.25,-0.833 2.083,-2.083 2.917,-3.333c0.416,-0.834 0.833,-1.667 1.25,-2.5c1.25,-1.25 1.666,-2.917 1.666,-4.584l0,-0.833c0.834,-0.833 0.834,-1.667 0.834,-2.5c-0,-3.333 -0,-6.667 -1.667,-9.583c-0.833,-1.667 -1.25,-3.334 -2.5,-4.584c-1.25,-0.833 -2.083,-2.083 -2.917,-3.333c-2.916,-2.917 -5.416,-5.417 -9.166,-7.083c-3.334,-1.667 -6.667,-3.334 -10,-4.584c-3.75,-1.666 -7.917,-3.333 -12.084,-4.166c-2.083,-0.417 -4.583,-0.834 -6.666,-0.834c-2.5,0 -4.584,0 -7.084,0.417c-3.333,0.417 -6.25,0.833 -9.583,1.25c-1.667,0.417 -3.333,0.417 -5.417,0.833c-2.5,0.834 -5.416,1.25 -7.916,2.084c-1.25,0.416 -2.917,0.833 -4.167,1.25c-2.083,0.416 -3.75,1.666 -5.417,2.5c-2.083,1.25 -4.583,2.083 -6.666,3.75c-5.417,3.75 -10,7.916 -12.917,14.166c-1.25,2.5 -2.083,4.584 -2.5,7.084c0,2.083 -0.833,3.75 0,5.833c0.417,2.083 1.25,4.167 1.667,6.25c-0,0.417 0.416,0.833 0.833,1.25c0.417,0.417 0.417,0.417 0.833,0.833c2.084,2.917 4.584,5.834 7.917,8.334c2.5,1.666 5,3.333 8.333,4.166c0.834,0.417 1.667,0.417 2.084,1.25c0.416,0.417 1.25,0.417 1.666,0.417c0.834,-0.417 1.667,0 2.084,0.417c0.416,-0 0.416,0.416 0.833,0.416c1.25,0.417 2.5,0.834 3.75,0.834c5.833,1.666 12.083,2.5 18.75,2.083" style="fill:#fff;fill-rule:nonzero;"/><path d="M87.917,341.667c-0,-2.084 -0.834,-5.417 -2.084,-7.084l-0.416,-0.416c-0.834,-0 -1.25,-0.834 -1.667,-1.25c-0.417,-0.834 -0.833,-1.667 -1.25,-2.5c-0.833,-1.25 -1.25,-2.084 -2.083,-2.917c-0.834,-1.25 -2.084,-2.5 -3.334,-3.75c-0.833,-0.833 -1.666,-1.667 -2.916,-2.083c-3.334,-1.667 -7.084,-3.334 -10.417,-5c-0.417,-0 -0.833,-0.417 -1.25,-0.417c-3.333,-0.833 -7.083,-2.083 -10.417,-2.917c-0.416,0 -1.25,0 -1.666,0.417c-2.084,1.25 -4.167,2.5 -5.834,3.75c-2.083,1.25 -4.166,1.667 -6.25,2.083c-0.833,0 -2.083,0 -2.916,-0.416c-0.834,-0.417 -2.084,-0.834 -3.334,-1.667c-1.666,2.917 -4.583,4.167 -7.083,5.833c1.667,1.25 2.917,2.084 4.167,3.334c2.5,2.083 5,3.75 8.333,4.583c0.417,0 0.833,0.417 1.25,0.833c1.25,0.834 2.083,2.084 3.75,1.667c1.667,-0.417 3.333,-0.417 5,-0.833c0.833,-0 1.25,-0 1.667,0.833c-0,0.417 0.416,0.833 0.833,0.833c2.083,0.834 4.167,2.084 6.25,2.917c2.5,0.833 5,1.25 7.083,2.083c1.667,0.417 2.917,0.834 4.584,1.25c2.5,0.417 5.416,0.834 8.333,1.25c2.083,0.417 4.167,0.417 6.25,0.417l3.75,0c-0,-0.833 0.833,-0.833 1.667,-0.833" style="fill:#fff;fill-rule:nonzero;"/><path d="M337.5,299.167c-0.417,0.416 -0.417,0.833 -0.833,1.25c-1.667,3.333 -3.334,6.25 -5.417,8.75c-1.25,1.25 -1.667,2.916 -1.667,4.583c-0.416,3.333 -0.833,6.25 -1.666,9.167c-0,0.416 -0.417,0.416 -0.417,0.833c-0.417,0.833 -0.833,1.25 -1.25,2.083c-0.833,2.917 -1.25,5.834 -2.5,8.334l-0,0.416c0.833,0.417 0.417,0.834 -0,1.25c-0.417,1.25 -1.25,2.917 -1.667,4.167c0,0.417 -0.416,0.417 -0.416,0.833c-0.834,1.25 -2.084,2.5 -2.5,4.167c0.833,0.833 2.083,0.417 2.916,0.417c1.667,-0.417 3.75,-0.417 5.417,-1.25c2.917,-0.834 5.417,-2.5 7.917,-3.75c0.416,-0 0.416,-0.417 0.416,-0.417c1.25,-1.25 2.917,-2.5 4.167,-4.167c2.5,-2.5 5,-5 6.25,-8.333c0.833,-2.083 1.667,-3.75 2.5,-5.833c0.833,-1.667 2.083,-3.334 2.917,-5.417c0.416,-0.417 0.833,-1.25 1.25,-1.25c0.833,-0.417 2.083,-0.417 2.916,-0.833c2.5,-0.834 4.584,-2.084 6.25,-3.75c0.417,-0.417 0.834,-0.834 0.417,-1.25c-0.417,-2.084 0,-3.75 0.417,-5.834c0.416,-1.25 0.416,-2.083 0.833,-3.333l-0.833,-0c-0.834,0.833 -2.084,0.417 -2.917,-0c-1.667,-0.833 -3.75,-1.667 -4.583,-3.333c-0.417,-0 -0.417,0.416 -0.834,0.416c-0.833,0.834 -1.666,1.667 -2.5,2.084c-1.666,0.833 -3.333,1.666 -5.416,1.666c-2.917,0.417 -5.834,-0.416 -9.167,-1.666" style="fill:#fff;fill-rule:nonzero;"/></g><path d="M175.833,117.5c0.834,5.833 -0.416,11.25 -2.5,16.667c-0.833,-1.25 -0.416,-2.5 -0.416,-3.75l-0,-4.584c-0,-2.083 -0,-3.75 0.416,-5.416c0.417,-1.667 -0.416,-2.084 -1.666,-2.5c-2.5,-0.417 -5,-0.417 -7.5,-0.834c-0.834,0 -1.667,-0.416 -2.5,-0.416c-1.25,-0.417 -2.5,-0.834 -4.167,-1.25c-3.333,-0.834 -6.25,-2.5 -8.333,-5c-2.917,-2.917 -4.167,-6.667 -4.167,-10.834c-0,-1.666 0.833,-3.333 2.083,-5c1.25,-1.25 2.5,-2.083 3.75,-2.916c1.25,-0.834 2.5,-1.25 3.75,-1.667c3.75,-1.25 7.5,-2.5 11.667,-3.333c4.167,-0.834 8.333,-0.834 12.083,-0.417c3.334,0 7.084,0.417 10.417,1.667c3.75,1.25 7.5,2.916 9.583,6.666c0.417,0.834 0.834,1.25 1.25,2.084c1.25,2.5 0.834,4.583 0,7.083c-0.416,0.833 -0.833,1.667 -0.833,2.917c-0.833,1.666 -2.083,2.5 -3.333,3.75c-0.834,0.833 -1.667,1.25 -2.5,2.083l-0.417,0c-2.083,0.833 -4.167,2.5 -6.667,2.917c-0.833,-0 -1.25,0.416 -2.083,0.833c-2.917,1.25 -5.833,1.667 -8.75,2.083c1.667,-1.25 1.25,-1.25 0.833,-0.833m10.417,-24.583c-0.417,-0.417 -0.833,-0.417 -1.25,-0.417c-2.083,-0.417 -4.167,-0.833 -5.833,-1.25c-0.834,0 -1.667,-0.417 -2.084,-0.417c-4.583,-0.416 -9.166,0 -13.333,0.417c-1.667,0 -2.917,0.833 -4.583,0.833c-2.917,0.417 -5,2.084 -6.667,4.167c-0.833,1.25 -1.25,2.5 -1.25,3.75c2.083,-2.5 4.583,-3.333 7.083,-4.167c3.75,-0.833 7.084,-1.666 10.834,-2.083c3.333,-0.417 6.666,-0.833 10.416,-1.25c2.084,0.417 4.167,0.417 6.667,0.417m-19.167,20.416c1.667,0.417 3.334,0.417 4.584,0.417c2.916,-0.417 6.25,-0.833 9.166,-1.25c1.667,-0.417 3.334,-0.833 5,-1.25c1.667,-0.417 3.334,-1.25 5,-2.083c0.417,-0.417 0.834,-0.834 1.667,-0.834l-0,-0.416c-0.417,-0 -0.417,0.416 -0.833,0.416c-0.834,0.417 -1.667,0.417 -2.917,0.834c-0.833,0.416 -1.667,0.416 -2.5,0.833c-0.417,-0 -0.833,0.417 -1.25,0.417c-2.917,0.833 -5.417,1.666 -8.333,2.083c-2.084,0.417 -4.167,0.833 -6.25,0.833l-3.334,0" style="fill-rule:nonzero;"/></g><path d="M151.25,65.417c-0.417,-0.417 -0.417,-0.834 -0.833,-0.834c-0.834,0 -1.667,0 -2.084,0.417c-0.416,0.417 -1.25,1.25 -1.666,1.667c-0.834,1.25 -1.25,2.5 -1.667,4.166c2.5,-2.083 4.583,-2.916 6.25,-5.416" style="fill:#fff;fill-rule:nonzero;"/></g></svg>