<?xml version="1.0" encoding="UTF-8" standalone="no"?><!DOCTYPE svg PUBLIC "-//W3C//DTD SVG 1.1//EN" "http://www.w3.org/Graphics/SVG/1.1/DTD/svg11.dtd"><svg width="100%" height="100%" viewBox="0 0 400 484" version="1.1" xmlns="http://www.w3.org/2000/svg" xmlns:xlink="http://www.w3.org/1999/xlink" xml:space="preserve" xmlns:serif="http://www.serif.com/" style="fill-rule:evenodd;clip-rule:evenodd;stroke-miterlimit:10;"><g><g><path d="M327.083,258.333c1.25,-1.25 2.917,-2.083 3.75,-3.333c2.084,-2.5 3.75,-5 5.834,-7.5c0.833,-1.25 2.083,-2.917 2.5,-4.167c0.416,-2.083 -0.417,-4.166 -0.417,-6.25c-0.417,-4.583 -2.5,-8.333 -5,-12.083c-1.25,-2.083 -3.333,-4.167 -5.833,-5c-1.667,-0.417 -2.084,-1.25 -2.5,-2.917c-1.25,-4.583 -2.5,-8.75 -5.417,-12.5c-2.917,-3.75 -5.833,-7.916 -9.167,-11.25c-4.166,-4.166 -8.75,-7.5 -13.333,-11.25c-3.75,-2.916 -7.5,-5.833 -11.25,-8.333c-0.417,-0.417 -1.25,-0.833 -1.25,-1.25c-0.833,-2.083 -2.083,-3.333 -3.75,-4.583c-1.25,-0.834 -2.083,-2.084 -3.333,-3.334c-2.917,-2.5 -4.167,-5.833 -7.917,-7.5c-3.333,-1.25 -5.833,-3.333 -9.167,-5c-3.333,-1.666 -7.083,-2.916 -10.416,-4.583c-2.5,-0.833 -4.584,-2.083 -7.084,-3.333c0,-0.417 0.417,-0.834 0.417,-0.834c2.083,-1.25 3.75,-2.916 5.833,-4.166c5.417,-3.334 9.167,-7.917 12.917,-12.5c3.75,-4.167 5.833,-8.75 4.167,-14.584l-0,-2.083c-0,-4.583 0.416,-9.167 0.416,-13.75c0,-1.25 -0.833,-2.917 -1.25,-4.167c-0.416,-0.833 -0.833,-1.25 -0.833,-2.083c-0.417,-4.167 -2.917,-7.5 -5,-10.417c-3.75,-5 -7.917,-9.583 -11.667,-14.166c0.834,-0.417 1.667,-0.834 2.5,-1.25c-0.416,0.833 -0.416,1.25 -0.416,1.666c1.666,1.25 2.083,-2.916 4.166,-0.833c1.25,-2.083 2.917,-4.167 3.75,-6.25c1.25,-2.917 1.667,-5.833 2.084,-9.167c0.416,-3.333 1.25,-6.666 1.25,-10c-0,-2.916 -0,-5.416 -1.667,-8.333c-1.667,-2.5 -2.083,-5.833 -3.333,-8.75c-0.834,-1.667 -2.084,-3.75 -3.334,-5c-4.166,-3.75 -9.583,-4.583 -14.583,-5.417c-2.5,-0.416 -5,-0.416 -7.5,0.834c-4.583,2.5 -9.583,3.333 -12.917,7.5c-0.833,-0.834 -1.25,-1.667 -1.666,-2.5c-0.834,-1.25 -1.667,-2.5 -2.5,-3.334c-2.084,-1.666 -4.584,-3.333 -7.084,-5c-1.666,-1.25 -2.916,-2.083 -5,-1.25c-0.416,0.417 -1.25,0.417 -2.083,0c-4.583,-0.416 -9.167,-0.833 -13.75,-1.25c-2.917,0 -5.833,-0.416 -8.75,-0.416l-13.75,-0c-2.083,-0 -3.75,0.416 -5.833,0.416c-1.25,0 -2.917,-1.25 -3.75,0.834l-0.834,-0c-6.666,-0.417 -11.666,3.333 -17.5,5.833l-0.416,0.417c-1.25,0.833 -2.5,2.083 -3.75,2.5c-0.834,0.416 -2.084,0.416 -1.667,2.083c-0,0.417 -0.417,0.833 -0.833,1.25c-1.25,-1.667 -2.5,-2.917 -3.75,-4.167c-2.084,-1.666 -4.167,-3.333 -6.667,-4.583c-1.25,-0.833 -1.667,-1.667 -3.75,-1.667c-2.917,0 -5.833,-0.833 -8.75,-1.666c-2.083,-0.417 -4.167,-0.417 -6.25,1.25c-0,-0 -0.417,-0 -0.417,0.416c-0.416,-0.416 -0.416,-0.833 -0.416,-1.25c-1.25,1.25 -2.5,2.5 -4.167,3.75c-1.25,1.25 -2.917,1.667 -3.75,3.75c-0.833,2.5 -2.917,5 -4.583,7.084c-0,0.416 -0,0.416 -0.417,0.833c-0,0.833 -0.417,1.667 -0.417,2.5c0.417,1.25 -2.5,1.667 -0.833,3.75c0.833,1.25 -0,4.167 -1.25,5.417c-1.25,1.666 -1.25,2.916 -1.667,4.583c0,-0 0.417,-0 0.417,0.417c0.417,-0.834 0.833,-1.667 1.25,-2.084l0.417,0c0.416,2.917 0.416,6.25 0.833,9.167c0.417,-0.417 0.833,-0.833 1.25,-1.25c0.833,2.5 1.667,5 2.917,7.5c0.416,0.833 0.833,1.667 1.25,2.083c3.75,2.084 7.083,4.584 8.75,7.917c1.25,-0 2.083,-0 2.5,0.417c0.416,0.416 0.416,1.25 0.416,2.083c-1.25,3.75 -2.916,6.667 -6.25,8.75c-3.75,2.083 -5.833,5.833 -7.916,8.75c-1.25,1.25 -1.667,2.917 -2.917,5c0.833,-0.417 1.25,-0.417 2.083,-0.833c-0.833,2.5 -1.666,4.583 -2.5,6.666c0,0.417 -0.833,0.834 -1.666,0.834c-0.834,0.416 -1.25,2.083 -0.834,2.5c0.417,0.833 1.25,1.666 1.667,2.5c0.417,1.25 -0,2.916 1.25,4.166c0.417,0 -0,0.834 -0,1.25c-0,2.084 -1.25,4.167 0.417,6.667l-0,0.833c-0.417,1.667 -0,2.5 1.25,0.417c2.083,3.333 3.75,6.667 5.833,10c1.25,2.5 2.5,5 3.75,7.5c0.833,0.417 1.667,0.833 2.083,1.25c0.417,0.417 0.834,0.417 1.25,0.417l1.25,-0c0.834,0.833 1.25,1.666 2.084,2.5c1.25,1.666 2.5,3.333 3.333,4.166c-0.417,0.834 -0.833,1.667 -0.417,2.084c0.417,1.25 1.667,2.083 2.917,0.416c1.25,0.834 2.083,2.084 3.333,2.917c0,0.417 0,0.417 -0.416,0.417c-4.167,2.916 -7.084,6.666 -12.084,7.916c-0.416,0 -0.833,0.417 -1.25,0.417c-5,2.5 -9.166,5.417 -12.083,10.417c-0.417,0.833 -1.25,1.666 -1.667,2.5c-5,4.583 -9.583,9.166 -14.583,13.75c-1.667,1.666 -1.25,2.5 0.833,3.333c-0.416,0.833 -0.416,1.667 -1.25,2.083c-2.916,3.75 -4.583,7.917 -6.25,12.084c-1.25,2.916 -1.666,5.833 -2.916,8.75c-2.5,5.833 -4.584,11.666 -10,15.416c-0.834,0.417 -1.25,1.667 -2.084,2.917c-0.416,0.417 0,1.25 -0.416,1.25c-2.5,2.083 -5,4.167 -7.5,5.833c-1.667,1.25 -3.334,2.5 -4.167,4.167c-1.25,2.5 -2.083,5.833 -2.917,8.75c-0.416,1.667 -0.416,3.333 -0.833,5c-0.417,1.25 -0,2.083 1.667,2.917c0.416,-0 0.833,0.833 1.25,1.25c0.416,1.666 1.25,2.916 1.25,4.583c0.833,3.75 2.916,6.25 5.416,8.75c0.834,0.833 1.25,2.083 2.084,3.333c0.833,1.25 1.666,2.5 2.5,3.75c-0.417,0 -0.834,0.417 -1.25,1.25c-1.667,2.917 -6.25,4.167 -3.75,8.75c-3.334,1.25 -6.25,2.084 -9.584,0.834c-0.416,-0.417 -1.25,-0 -2.083,-0c-1.667,0.416 -2.917,0.416 -4.583,0.833c-0.417,0 -1.25,0.417 -1.25,0.833c-2.084,4.167 -4.584,7.917 -4.584,12.917c0,1.667 0,3.75 -1.25,5.417l0,0.416c0.834,2.084 -0.833,2.5 -2.083,2.917c-1.667,0.833 -2.917,1.667 -4.167,2.917c-2.083,2.083 -3.75,4.583 -5.833,6.666c-2.083,2.084 -2.917,4.167 -1.667,7.084c1.25,2.916 2.084,5.833 2.917,8.75c0.417,1.25 1.25,2.083 2.083,3.333c0.417,0.833 1.25,1.667 2.084,2.917c0.833,1.25 1.25,2.916 2.083,3.75c1.667,1.666 3.75,2.916 5.833,3.75c4.584,2.083 9.584,1.666 13.75,4.583l0.417,0c4.583,0.833 9.583,1.25 14.167,2.083c3.333,0.417 6.666,0.417 9.166,2.917c1.667,1.25 3.334,2.5 5,2.917c1.25,0.416 2.917,0.416 3.75,2.083c0,0.417 0.834,0.417 0.834,0.417c5,0.833 10.416,1.666 15.416,2.5c2.084,0.416 4.167,1.666 6.667,0.833c3.333,-1.25 6.667,-0.833 10,-0.417c0.833,0 1.667,0 2.917,-0.416c-0.417,-0.834 -0.417,-1.25 -0.834,-1.667c0.834,0 1.25,0 1.667,-0.417c2.917,-2.083 5.833,-4.166 8.333,-6.25c5.417,-4.583 7.084,-11.666 11.25,-16.666c1.667,-2.084 3.75,-2.917 5.834,-3.334c0.833,-0.416 1.666,-0.416 2.083,-0.833c3.333,-1.667 6.667,-3.75 10.833,-3.333c0.834,-0 2.084,-0.417 2.917,-0.834c0.833,0 2.083,-0.416 2.5,-0.416c3.75,0.833 7.5,2.083 10.833,2.916c0.834,0 1.25,0.834 2.084,1.25c1.666,0.417 3.333,0.417 4.583,0.417c4.167,0.417 8.333,0.417 12.917,0.417c2.083,-0 4.166,-0.834 5.833,0.833l1.25,0c3.75,-0.417 7.083,-0.833 10.833,-0.833c2.084,-0 3.75,0.416 5.834,-0c5.416,-0.417 10.833,-0.417 16.25,-0.834c6.666,-0.833 13.333,-1.666 20,-2.5c1.666,-0.416 3.75,-0.416 5.416,-0.833c5.417,-0.417 10.417,0 15.834,-0.417c5,-0.416 9.583,-0.416 14.583,0.417c1.667,0.417 3.75,0.833 5.417,1.25c2.083,0.417 4.583,0 6.666,0.417c2.084,0.416 4.167,1.25 6.25,2.083c2.084,0.833 4.167,1.667 6.667,2.5c4.167,0.833 7.083,2.917 8.75,7.083c1.25,2.917 2.5,5.417 4.167,7.917c0.833,1.25 2.083,1.667 2.916,2.917c1.667,2.5 3.334,5.416 5,7.916c0,0.417 0.417,0.834 0.834,0.834c2.916,1.25 5,4.166 8.75,4.166c1.666,0 2.916,0 4.583,0.417c4.167,0.417 8.333,1.25 12.5,2.083c2.917,0.417 6.25,0.417 8.75,-1.666c-1.25,-0 -2.5,0.416 -3.75,0.416c2.5,-1.666 4.583,-3.333 6.667,-5c0.833,-0.416 1.666,-1.25 2.083,-1.25c2.5,-0.416 4.167,-2.083 5.417,-3.75c2.083,-2.5 3.75,-5 5.416,-7.5c1.25,-1.666 2.917,-3.333 2.5,-5.833c0,-0.417 0.834,-1.25 1.25,-1.25c3.75,-1.667 7.5,-3.333 10.417,-6.667c-0,-0.416 0.417,-0.416 0.833,-0.416c2.084,-1.667 4.167,-2.917 5.834,-4.584c1.666,-1.666 4.583,-2.916 4.583,-6.25c4.167,-5.416 5.417,-11.666 6.25,-17.916c1.25,-10 1.25,-20 -4.167,-29.167c-2.083,-3.75 -5,-5.833 -9.166,-5.833c-2.084,-0 -4.584,0.416 -6.667,0.416c-2.5,0.417 -4.583,0.834 -6.25,-1.666c-0.417,-0.417 -1.25,-0.834 -2.083,-1.25c-3.75,-0.834 -7.5,-2.084 -10.834,-2.917c-1.666,-0.417 -3.75,-0.417 -5.416,0c-4.584,0.833 -7.917,3.333 -11.25,6.25c-0.417,0.417 -0.834,0.833 -1.25,0.833c-6.25,-7.083 -10,-14.583 -17.084,-18.75Z" style="fill:#e7c18c;fill-rule:nonzero;"/><path d="M327.083,258.333c7.084,4.167 10.834,11.667 15,18.75c0.417,-0.416 0.834,-0.416 1.25,-0.833c3.334,-2.917 7.084,-5.417 11.25,-6.25c1.667,-0.417 3.75,-0.417 5.417,0c3.75,0.833 7.5,1.667 10.833,2.917c0.834,-0 1.667,0.416 2.084,1.25c1.666,2.5 4.166,1.666 6.25,1.666c2.083,-0.416 4.583,-0.416 6.666,-0.416c4.167,-0 7.084,2.083 9.167,5.833c5.417,9.167 5.417,19.167 4.167,29.167c-0.834,6.25 -2.084,12.5 -6.25,17.916c-0,3.334 -2.917,4.167 -4.584,6.25c-1.666,1.667 -3.75,3.334 -5.833,4.584c-0.417,-0 -0.417,0.416 -0.833,0.416c-2.917,3.334 -6.667,5 -10.417,6.667c-0.417,0.417 -1.25,0.833 -1.25,1.25c0.417,2.5 -1.667,4.167 -2.5,5.833c-1.667,2.5 -3.333,5 -5.417,7.5c-1.25,1.667 -2.916,3.334 -5.416,3.75c-0.834,0 -1.667,0.834 -2.084,1.25c-2.083,1.667 -4.166,3.334 -6.666,5c1.25,0 2.5,-0.416 3.75,-0.416c-2.917,2.083 -5.834,2.083 -8.75,1.666c-4.167,-0.416 -8.334,-1.25 -12.5,-2.083c-1.667,-0 -2.917,-0.417 -4.584,-0.417c-3.75,0 -5.833,-3.333 -8.75,-4.166c-0.416,-0 -0.416,-0.417 -0.833,-0.834c-1.667,-2.5 -3.333,-5.416 -5,-7.916c-0.833,-1.25 -2.5,-1.667 -2.917,-2.917c-1.666,-2.5 -2.916,-5 -4.166,-7.917c-1.667,-4.166 -5,-5.833 -8.75,-7.083c-2.084,-0.417 -4.167,-1.667 -6.667,-2.5c-2.083,-0.833 -4.167,-1.667 -6.25,-2.083c-2.083,-0.417 -4.583,-0.417 -6.667,-0.417c-1.666,-0.417 -3.75,-0.833 -5.416,-1.25c-5,-0.833 -9.584,-0.833 -14.584,-0.417c-5.416,0.417 -10.416,0.417 -15.833,0.417c-1.667,-0 -3.75,0.417 -5.417,0.833c-6.666,0.834 -13.333,1.667 -20,2.5c-5.416,0.417 -10.833,0.834 -16.25,0.834c-2.083,-0 -3.75,-0.417 -5.833,-0c-3.75,-0 -7.083,0.416 -10.833,0.833c-0.417,-0 -1.25,0.417 -1.25,-0c-1.667,-2.083 -3.75,-0.833 -5.834,-0.833c-4.166,-0.417 -8.333,-0.417 -12.916,-0.417c-1.667,-0 -3.334,-0.417 -4.584,-0.417c-0.833,0 -1.25,-0.833 -2.083,-1.25c-3.75,-1.25 -7.5,-2.083 -10.833,-2.916c-0.834,-0 -1.667,-0 -2.5,0.416c-0.834,0.417 -2.084,0.834 -2.917,0.834c-4.167,-0.417 -7.5,1.25 -10.833,3.333c-0.834,0.417 -1.25,0.417 -2.084,0.833c-2.083,0.834 -4.166,1.25 -5.833,3.334c-4.583,5 -6.25,12.083 -11.25,16.666c-2.5,2.084 -5.417,4.167 -8.333,6.25c-0.417,0.417 -1.25,0.417 -1.667,0.417c0,0.417 -1.25,2.083 -2.083,2.083c-3.334,-0.416 -6.667,-0.833 -10,0.417c-2.5,0.833 -4.584,-0.417 -6.667,-0.833c-5,-0.834 -10.417,-1.667 -15.417,-2.5c-0.416,-0 -0.833,-0 -0.833,-0.417c-0.833,-1.667 -2.083,-1.667 -3.75,-2.083c-2.083,-0.834 -3.75,-1.667 -5,-2.917c-2.5,-2.083 -6.25,-2.083 -9.167,-2.917c-4.583,-0.833 -9.583,-1.666 -14.166,-2.083l-0.417,-0c-4.167,-2.917 -9.167,-2.917 -13.75,-4.583c-2.083,-0.834 -4.167,-2.084 -5.833,-3.75c-0.834,-0.834 -1.25,-2.5 -2.084,-3.75c-0.416,-0.834 -1.25,-1.667 -2.083,-2.917c-0.833,-1.25 -1.667,-2.083 -2.083,-3.333c-1.25,-2.917 -2.084,-5.834 -2.917,-8.75c-1.25,-2.917 -0.417,-4.584 1.667,-7.084c2.083,-2.083 3.75,-4.583 5.833,-6.666c1.25,-1.25 2.917,-2.084 4.167,-2.917c1.25,-0.833 2.916,-0.833 2.083,-2.917l0,-0.416c1.667,-1.667 1.25,-3.334 1.25,-5.417c0,-5 2.5,-8.75 4.583,-12.917c0.417,-0.416 0.834,-0.833 1.25,-0.833c1.667,-0.417 2.917,-0.833 4.584,-0.833c0.833,-0 1.25,-0.417 2.083,-0c3.333,1.25 6.25,0.416 9.583,-0.834c-2.083,-4.583 2.084,-5.833 3.75,-8.75c0.417,-0.416 1.25,-0.833 1.25,-1.25c-0.833,-1.666 -1.666,-2.5 -2.5,-3.75c-0.833,-1.25 -1.25,-2.5 -2.083,-3.333c-2.5,-2.5 -4.583,-5.417 -5.417,-8.75c-0.416,-1.667 -0.833,-2.917 -1.25,-4.583c0,-0.417 -0.833,-1.25 -1.25,-1.25c-1.25,-0.417 -1.666,-1.667 -1.666,-2.917c0.416,-1.667 0.416,-3.333 0.833,-5c0.833,-2.917 1.667,-5.833 2.917,-8.75c0.833,-1.667 2.5,-2.917 4.166,-4.167c2.5,-2.083 5,-4.166 7.5,-5.833c0.417,-0.417 0.417,-0.833 0.417,-1.25c0.417,-0.833 1.25,-2.083 2.083,-2.917c5.417,-3.75 7.5,-10 10,-15.416c1.25,-2.917 1.667,-5.834 2.917,-8.75c1.667,-4.167 3.333,-8.334 6.25,-12.084c0.417,-0.416 0.833,-1.25 1.25,-2.083c-2.083,-0.833 -2.5,-1.667 -0.833,-3.333c5,-4.584 9.583,-9.167 14.583,-13.75c0.833,-0.834 1.25,-1.667 1.667,-2.5c2.5,-5 7.083,-8.334 12.083,-10.417c0.417,-0.417 0.833,-0.417 1.25,-0.417c5,-1.25 8.333,-5 12.083,-7.916c0,-0 0,-0.417 0.417,-0.417c-1.25,-0.833 -2.083,-1.667 -3.333,-2.917c-1.25,1.25 -2.5,0.834 -2.917,-0.416c0,-0.417 0.417,-1.25 0.417,-2.084c-0.834,-1.25 -2.084,-2.5 -3.334,-4.166c-0.833,-0.834 -1.25,-1.667 -2.083,-2.5c-0.417,-0.417 -0.833,-0 -1.25,-0c-0.417,-0 -0.833,-0.417 -1.25,-0.417c-0.833,-0.417 -1.25,-0.833 -2.083,-1.25c-1.25,-2.5 -2.5,-5 -3.75,-7.5c-1.667,-3.333 -3.75,-6.667 -5.834,-10c-0.833,2.5 -0.833,-0.833 -1.25,-1.25c-1.666,-2.083 0,-4.167 -0.416,-6.667l-0,-1.25c-1.25,-1.25 -0.834,-2.5 -1.25,-4.166c-0,-0.834 -0.834,-1.667 -1.667,-2.5c-0.417,-0.834 0,-2.5 0.833,-2.5c0.417,-0.417 1.25,-0.417 1.667,-0.834c0.833,-2.083 1.667,-4.166 2.5,-6.666c-0.833,0.416 -1.25,0.416 -2.083,0.833c1.25,-2.083 1.666,-3.75 2.916,-5c2.5,-3.333 4.584,-6.667 7.917,-8.75c3.333,-2.083 5,-5 6.25,-8.75c0,-0.417 0,-1.667 -0.417,-2.083c-0.416,-0.417 -1.25,-0.417 -2.5,-0.417c-1.666,-3.333 -5,-5.833 -8.75,-7.917c-0.416,-0.416 -1.25,-1.25 -1.25,-2.083c-0.833,-2.5 -1.666,-5 -2.916,-7.5c-0.417,0.417 -0.834,0.833 -1.25,1.25c-0.417,-2.917 -0.417,-6.25 -0.834,-9.167l-0.416,0c-0.417,0.834 -0.834,1.667 -1.25,2.084c-0,-0 -0.417,-0 -0.417,-0.417c0.833,-1.25 0.417,-2.917 1.667,-4.583c1.25,-1.25 2.083,-4.167 1.25,-5.417c-1.25,-2.083 1.25,-2.5 0.833,-3.75c0,-0.833 0,-1.667 0.417,-2.5c-0,-0.417 -0,-0.417 0.416,-0.833c1.667,-2.5 3.75,-4.584 4.584,-7.084c0.833,-2.083 2.5,-2.5 3.75,-3.75c1.25,-1.25 2.5,-2.5 4.166,-3.75c0.417,0.417 0.417,0.834 0.417,1.25c0,0 0.417,0 0.417,-0.416c2.083,-1.25 3.75,-1.667 6.25,-1.25c2.916,0.833 5.833,1.666 8.75,1.666c1.666,0 2.5,1.25 3.75,1.667c2.083,1.25 4.583,2.917 6.666,4.583c1.25,1.25 2.5,2.917 3.75,4.167c0.417,-0.417 0.834,-0.833 0.834,-1.25c-0.417,-1.667 0.833,-1.667 1.666,-2.083c1.25,-0.834 2.5,-1.667 3.75,-2.5l0.417,-0.417c5.833,-2.083 10.833,-5.833 17.5,-5.833l0.833,-0c0.834,-2.084 2.5,-0.834 3.75,-0.834c2.084,0 3.75,-0.416 5.834,-0.416l13.75,-0c2.916,-0 5.833,-0 8.75,0.416c4.583,0.417 9.166,0.834 13.75,1.25l2.083,0c2.083,-0.833 3.333,0 5,1.25c2.083,1.667 4.583,3.334 7.083,5c0.834,0.834 1.667,2.084 2.5,3.334c0.417,0.833 1.25,1.666 1.667,2.5c3.333,-4.584 8.75,-5.417 12.917,-7.5c2.5,-1.25 5,-1.25 7.5,-0.834c5.416,0.834 10.416,1.667 14.583,5.417c1.667,1.25 2.5,2.917 3.333,5c1.25,2.917 1.667,6.25 3.334,8.75c1.666,2.917 1.666,5.417 1.666,8.333c0,3.334 -0.833,6.667 -1.25,10c-0.416,2.917 -1.25,6.25 -2.083,9.167c-0.833,2.083 -2.5,4.167 -3.75,6.25c-2.083,-2.083 -2.5,2.083 -4.167,0.833c0,-0.416 0.417,-0.833 0.417,-1.666c-0.833,0.416 -1.667,0.833 -2.5,1.25c4.167,5 8.333,9.583 11.667,14.166c2.5,2.917 4.583,6.25 5,10.417c-0,0.833 0.833,1.25 0.833,2.083c0.417,1.25 1.25,2.917 1.25,4.167c0,4.583 -0.417,9.167 -0.417,13.75l0,2.083c1.667,5.834 -0.416,10.417 -4.166,14.584c-3.75,4.583 -7.917,9.166 -12.917,12.5c-2.083,1.25 -3.75,2.916 -5.833,4.166c-0.417,0.417 -0.417,0.834 -0.417,0.834c2.5,1.25 5,2.083 7.083,3.333c3.334,1.667 7.084,2.917 10.417,4.583c2.917,1.667 5.833,3.75 9.167,5c3.75,1.25 5.416,5 7.916,7.5c1.25,0.834 2.084,2.084 3.334,3.334c1.666,1.25 2.916,2.916 3.75,4.583c-0,0.417 0.833,0.833 1.25,1.25c3.75,2.917 7.5,5.417 11.25,8.333c4.583,3.75 9.166,7.084 13.333,11.25c3.333,3.334 6.25,7.5 9.167,11.25c2.916,3.75 4.166,7.917 5.416,12.5c0.417,1.667 0.834,2.5 2.5,2.917c2.5,0.833 4.584,2.917 5.834,5c2.5,3.75 4.166,7.5 5,12.083c0.416,2.084 0.833,4.167 0.416,6.25c-0.416,1.667 -1.25,2.917 -2.5,4.167c-1.666,2.5 -3.75,5.417 -5.833,7.5c1.25,1.25 -0.417,2.083 -1.667,3.333Zm-90,-109.166c-0.416,-0 -0.833,-0.834 -1.25,-0.834c-2.5,0 -5.416,0 -7.916,0.417c-2.917,0.417 -5.417,1.25 -8.334,2.5c-2.083,0.833 -4.583,0.833 -6.666,2.5c-0.834,0.833 -2.084,1.667 -3.334,-0.417c1.25,-0.833 2.5,-1.25 3.75,-1.666c3.75,-1.667 7.917,-3.334 11.667,-5.834c4.583,-2.5 9.167,-5.416 14.167,-7.083c1.666,-0.833 3.333,-1.25 5,-2.5c5,-2.917 8.75,-7.083 11.666,-12.083c1.667,-2.5 2.917,-5.417 4.167,-7.917c0.833,-1.667 1.25,-3.75 1.667,-5.833c0.416,-1.667 0.833,-2.917 -0.417,-4.584c1.667,-1.666 0,-3.75 0,-5.416l0,-2.084c0.417,0.834 0.833,1.25 1.25,1.667c0.833,-4.583 -0.417,-8.75 -1.25,-12.917c0,-0.416 -0.417,-0.833 -0.833,-1.25c-1.25,-1.666 -2.084,-2.916 -3.334,-4.583c-1.25,-1.667 -2.5,-3.75 -4.166,-5.417c-0.417,-0.416 -1.25,-0.416 -1.25,-0.833c-0.417,-2.917 -2.5,-4.167 -4.167,-6.25c-0.417,-0.417 -1.25,-0.833 -1.667,-1.25c-1.25,-0.417 -2.5,-0.833 -3.75,-1.25c-1.25,-0.417 -2.083,-2.5 -3.75,-1.667c-0.416,-0.833 -0.416,-1.666 -0.833,-2.083c-2.083,-2.083 -3.333,-4.583 -4.167,-7.5c-0.416,-1.25 -0.416,-2.917 -0.833,-4.167c-0.833,-2.083 -1.667,-4.166 -2.5,-6.25c-0.417,-1.25 -0.833,-2.083 -2.5,-2.5c0,0 0,-0.416 -0.417,-0.416c0.417,-0 0.834,-0.417 1.667,-0.417c-0.833,-1.25 -1.25,-2.917 -2.5,-4.167c-1.667,-2.083 -3.333,-4.166 -5,-5.833c0,-0 -0.417,-0 -0.417,-0.417c-0.416,-0.416 -1.25,-0.833 -1.666,-1.25c-2.084,-3.333 -4.167,-6.666 -6.25,-9.583c-1.667,-2.083 -3.334,-4.167 -5.417,-6.25c-1.667,-2.083 -4.167,-1.667 -6.25,-2.083c-3.333,-0.834 -6.667,-0.834 -10,-1.25c-2.083,-0 -4.167,0.416 -6.25,-0c-3.333,-0.834 -6.667,0.833 -10,-0l-0.417,-0c-3.333,2.083 -7.083,2.5 -10.416,1.666c1.25,0 2.5,-0.416 4.583,-0.833c-4.167,-0.417 -7.5,-0.833 -11.25,-0.833l0,0.833c1.25,0.417 2.083,0.417 3.333,0.833c-0.833,0.417 -1.25,0 -1.666,0c-1.25,0 -2.917,-0.833 -4.167,-0.416c-2.083,0.833 -4.583,1.25 -6.667,2.083c-6.25,2.5 -12.916,4.167 -17.916,9.167c-1.667,2.083 -3.75,3.75 -5.834,5.416c-2.083,1.667 -3.75,4.167 -5.416,6.667c-1.25,1.667 -2.5,3.333 -3.75,5c-2.084,2.5 -3.334,5 -3.334,7.917c0,3.333 0,6.25 -1.666,9.166c-1.25,2.5 -2.5,5.417 -3.75,7.917c-1.25,-0.833 -1.667,0.417 -2.084,1.25c-0.833,2.083 -1.666,4.167 -2.5,6.25l0,0.417c0.417,-0 0.834,0.416 1.667,0.833c-1.667,1.667 -3.333,2.917 -4.583,4.167c-1.25,1.666 -2.5,3.333 -3.75,5c-1.25,1.666 -2.084,2.916 -3.334,4.583c0.417,-0 0.417,0.417 0.834,0.417c0.416,-0.417 0.416,-1.25 0.833,-1.667c0.417,-0 0.417,0.417 0.833,0.417c-4.583,3.75 -4.166,9.166 -5,14.166c0.834,-0.833 1.25,-1.25 2.084,-2.5l-0,2.084c-0.417,2.916 -0.417,6.25 -0.834,9.166c0,1.25 -0.416,2.5 1.667,2.5c0.417,0 1.667,0.834 1.667,1.25c1.666,2.917 2.916,5.834 4.166,8.75c0.834,1.667 2.084,3.334 2.917,5c0,0 0.417,0 0.417,-0.416c-0.417,-1.25 -0.834,-2.084 -1.25,-3.334l0.416,-0.416c0.417,0.416 1.25,0.833 1.25,1.666c1.667,3.75 3.334,7.917 6.667,10.417c0.833,0.417 1.25,2.083 2.5,0.833l0.833,0c1.25,0.417 2.5,1.25 3.75,1.667c2.084,0.833 3.75,2.5 5.834,2.5c7.916,0.833 13.333,5.833 19.166,10.417c0.417,0.416 0.417,1.25 0.417,2.083c-0.833,-0 -1.667,0.417 -2.083,0.417c-1.25,-0.417 -2.5,-1.25 -3.75,-1.667c-0.417,0.417 -0.417,0.833 -0.834,1.25c-1.25,-1.25 -2.5,-2.5 -4.166,-3.333c-2.5,-1.667 -5.834,-2.5 -8.75,-1.667c-1.25,0.417 -2.084,1.667 -3.334,2.083c-0.416,0 -0.416,0.417 -0.833,0.417c-0.833,0.417 -1.667,0.417 -2.5,0.833c-4.167,2.084 -8.333,4.167 -12.5,6.25c-2.083,1.25 -4.583,2.5 -6.667,3.75c-1.25,0.834 -2.5,2.5 -3.75,3.334c-2.916,1.666 -4.583,4.166 -6.25,7.083c-0.416,0.833 -1.25,1.667 -1.666,2.5l-0.417,-0.417c0.417,-0.833 0.417,-1.666 0.833,-2.916c-0.833,0.833 -1.666,1.25 -2.083,1.666c-2.5,2.5 -4.583,5 -7.083,7.5c-0.834,0.834 -1.667,1.667 -2.084,2.5c-1.25,2.084 -2.083,4.167 -2.916,6.667c-1.667,3.75 -3.334,7.083 -4.584,10.833c-1.25,4.584 -1.666,9.167 -3.75,13.334c-2.083,3.333 -2.083,7.916 -5.833,10.833c-1.25,0.833 -2.5,2.5 -3.75,3.333c-2.083,1.667 -4.167,2.5 -6.25,4.167c-4.167,3.333 -6.667,7.5 -8.333,12.5c-1.25,3.333 -1.25,5.833 0.416,8.75c1.25,2.5 2.5,5 4.167,7.083c0.833,0.834 2.5,1.25 3.75,1.667c0.417,-0 1.25,-0.417 1.667,-0.417c-0.417,-0.416 -0.834,-1.25 -1.25,-1.666c-0.834,-0.834 -1.667,-1.667 -2.5,-2.5c-0,-0 -0.417,0.416 -1.25,0.833c1.666,-4.167 0.416,-7.5 -0.834,-10.833c-0.416,-0.834 -0.416,-1.667 0,-2.5c2.084,-3.334 5,-5.417 9.167,-5.417c2.083,-0 3.333,0.833 4.167,2.917c0.416,2.083 1.25,4.166 1.666,6.25c0.417,2.083 0.834,4.166 0.834,6.666c1.25,-0.833 2.083,-1.666 3.333,-2.5c-0.417,-0.833 -1.25,-1.25 -1.25,-2.083c-0.417,-2.083 -1.25,-4.167 -1.25,-6.25c0,-4.167 2.5,-7.5 5,-10.833c1.25,-2.084 6.25,-2.084 8.75,-0.834c1.667,0.834 2.917,1.667 4.583,2.917c1.25,-4.167 2.917,-7.917 4.167,-12.083c-3.333,-0.834 -7.083,1.25 -10.417,-0c1.667,-0.834 3.334,-2.084 5,-2.917c1.667,-0.833 3.334,-2.083 5.417,-2.5c2.5,-0.417 4.583,-1.25 6.25,-3.333c0.833,-0.834 2.083,-1.25 2.917,-2.084c4.166,-4.166 5.416,-10.416 7.5,-15.416c1.25,-2.917 1.666,-6.25 2.5,-9.584c0.416,-2.083 2.083,-4.166 1.666,-6.666c0,-0.834 0.417,-1.667 0.834,-2.5c0.416,-0.417 1.25,0.416 2.083,0.416c1.25,-2.083 6.667,-5.833 9.583,-5.833c0.417,-0 0.834,0.833 0.834,1.25c-0,0.417 -0.834,0.833 -1.25,1.25c-2.5,1.667 -4.584,3.75 -5,7.083c-0.417,1.25 -0.834,2.917 -1.25,4.167c-1.25,3.75 -3.334,7.083 -3.334,11.25c0,1.667 -0.416,3.75 -1.25,5c-1.25,1.667 -1.666,3.75 -3.75,5c-1.666,1.25 -2.916,3.333 -4.583,5c-2.083,2.083 -4.167,4.583 -5.417,7.5c-0.416,0.417 -0.416,1.25 -0.416,2.083c-0.417,1.25 -0.834,2.5 -1.25,3.75c-0.834,1.667 -1.667,2.917 -2.5,3.75c0.416,1.25 0.833,2.084 0.833,2.917c0,1.25 -0.417,2.5 -1.25,3.333c-2.083,4.167 -2.083,8.75 -2.083,13.334c1.25,-0 1.25,1.666 0.416,2.083c-0.416,0.417 -0.416,1.25 -0.416,2.083c-0,0.417 0.833,1.25 0.833,1.667c0.833,3.333 1.25,7.083 2.083,10.417c0.417,2.083 0.417,5 2.917,5.833c0,-0.417 0.417,-0.417 0.417,-0.833c0.833,2.083 1.666,4.166 2.5,6.25c1.25,1.666 2.916,3.333 4.166,5c0.834,0.833 2.084,1.666 2.917,2.5c1.25,1.666 2.5,3.75 4.167,5c1.666,1.25 2.083,2.916 2.916,4.583c0,0.417 -0.833,2.083 -0.833,2.083c-2.083,-0.416 -3.75,0.417 -5.833,-1.25c-5,-4.166 -8.334,-9.583 -12.084,-14.583c-0.416,-0.833 -0.833,-1.667 -1.666,-2.5c-3.334,-3.333 -6.25,-6.667 -7.917,-11.25c-0.417,-0.833 -1.25,-1.667 -0.833,-2.083c0.416,-2.084 -0.834,-2.5 -2.5,-2.917c-2.917,-0.417 -5.417,-0.417 -8.334,-0c-2.916,0.417 -6.25,0.417 -8.333,2.083c-2.083,1.25 -5.417,2.084 -5,5.834c0,0.416 -0.417,0.833 -0.833,1.25c-2.084,3.333 -3.75,6.666 -5.834,9.583c-0.416,0.833 -0.416,1.667 0.834,1.667c0.833,-0 -0.417,1.666 -1.25,2.083l-0,5.417c-0,0.416 0.416,0.833 0.416,0.833c0.417,0.833 0.834,1.667 0.417,2.5c0,2.083 -0.833,3.75 -0.833,5.833c-0.417,2.084 2.083,2.084 2.5,2.5c0.833,2.917 1.25,5.417 2.083,8.334c0.417,1.25 0.417,2.083 0.833,3.333c-1.25,1.25 -2.916,0.833 -4.166,-0.417c-0.417,-0.833 -1.25,-1.666 -2.084,-2.5c-0.833,-1.25 -2.5,-2.083 -2.5,-3.333c0,-2.5 -3.333,-3.75 -2.916,-6.667c-2.917,-3.333 -2.5,-7.083 -2.5,-10.833c-0,-0.417 -0.417,-1.667 -0.834,-1.667l-5.416,0l-0,0.417c0.416,0.417 0.833,0.833 1.25,1.25c-2.084,0.417 -4.167,0.417 -6.25,1.25c-0.834,0.417 -2.084,0.833 -2.5,1.667c-0.834,1.666 -0.834,3.75 -1.25,5.416c-0.417,2.084 -0.417,4.584 -0.834,7.084c1.25,0.416 -2.083,1.25 -2.5,5c0.834,-0 -0.416,0.833 -1.25,0.416c-0.416,1.25 0,2.917 -2.083,2.5c-1.25,-0.416 -1.667,0 -2.5,1.25c-0.833,1.25 -1.667,2.084 -2.083,3.334c-1.25,2.5 -2.5,5.416 -3.75,7.916l-0,0.834c0.416,-0.417 0.416,-0.834 0.833,-1.25l0.417,-0c-0,1.666 -0.417,3.333 -0.417,4.583c0.833,0.417 1.667,0.833 1.25,1.25c-0.833,2.083 1.25,2.917 2.5,3.75c2.917,2.083 6.25,4.167 8.75,6.667c4.167,4.166 9.583,5 14.583,5.833c6.667,1.25 13.334,1.25 20,2.083c1.667,0 3.75,0.417 5.417,1.25c3.333,2.084 6.25,4.167 9.583,6.25c1.667,0.834 3.75,1.667 5.834,1.667c2.916,-0 5.833,-0.417 9.166,-0.417c5,0 9.167,-2.5 12.917,-4.583c3.333,-1.667 5.417,-4.583 7.5,-7.917c1.667,-2.916 3.333,-5.833 5.417,-8.75c1.25,-2.083 2.916,-4.166 4.166,-6.25c0.417,-0.833 0.834,-2.083 1.667,-2.5c3.333,-2.083 6.667,-4.166 10.417,-6.25c1.25,-0.833 3.333,-1.666 4.166,-1.25c1.667,1.25 3.334,0.417 5,0.417c1.25,-0 2.917,0.417 4.167,0.833c1.667,0.417 2.917,1.25 4.583,1.667c2.917,0.417 5.834,0.833 9.167,1.667c3.333,0.833 6.667,1.666 10,2.083c5,0.833 10,1.25 15,1.667c5.417,0.416 11.25,0.416 16.667,0.833c1.25,-0 2.5,-0 3.75,-0.417c1.666,0 3.333,-0.833 5,-0.416c4.166,0.833 8.333,0.416 12.5,-0c0.833,-0 1.666,-0 2.5,-0.417c4.583,-0.833 8.75,-2.917 13.333,-3.333c5,-0.834 10.417,-2.5 15.417,-3.75c3.75,-1.25 7.5,-2.5 11.666,-2.084c2.084,0 4.584,0.417 6.667,1.25c6.25,2.917 12.5,6.25 18.75,9.167c4.167,1.667 7.917,4.167 12.917,4.583c2.5,0.417 4.583,1.667 7.083,2.5l2.5,0l0,0.417c0,1.25 0,2.5 2.083,1.667c0.417,-0 1.25,0.416 1.25,0.833c0.417,2.083 0.834,4.583 1.667,6.667c0.417,1.25 0.833,2.5 1.25,3.75c0.417,1.25 1.25,2.5 0.833,3.333c-0.416,1.25 0.417,1.667 0.834,2.5c1.25,1.25 2.916,2.083 4.166,3.333c0.834,0.834 1.667,1.25 2.917,0.417l1.25,-0l0,1.25c-0.833,1.25 0,1.667 0.833,2.083c0.417,0 0.834,0 1.25,0.417c3.75,1.667 7.5,1.667 11.25,0.833c3.334,-0.416 6.25,-2.083 9.167,-2.5c2.917,-0.416 5,-2.083 6.667,-4.166c0.416,-0.417 0.833,-1.25 1.666,-1.667c2.084,-0.417 3.334,-1.667 4.167,-3.333c0.833,-1.667 1.667,-3.334 2.5,-5.417c0.417,-1.25 1.25,-2.083 2.083,-3.333c-0.833,-0.417 -1.666,-0.417 -2.5,-0.834c1.25,-0.833 2.084,-1.666 3.334,-2.5c4.166,-2.916 8.75,-5.416 12.916,-7.916c2.084,-1.25 3.75,-2.917 5.834,-4.584c0.416,-0.416 0.833,-0.833 0.833,-1.25c0.833,-2.5 0.833,-2.5 3.333,-2.083l0,-3.333c0.834,0.416 0.834,0.416 1.667,0.833c0.833,-2.083 2.083,-4.167 1.667,-5.833c-0,-1.25 -0,-2.917 0.416,-4.167c0.417,-2.083 1.25,-4.583 1.25,-7.083c0.417,-3.75 0.417,-7.5 0.417,-11.25c0,-4.167 -0.833,-7.5 -3.333,-10c-1.667,-2.084 -3.75,-3.334 -5.834,-4.584c-0.416,-0.416 -0.833,0 -1.25,0c-2.916,0 -5.833,1.25 -8.333,2.917c-3.333,2.083 -6.25,4.583 -9.167,7.083c-1.25,0.834 -2.5,1.667 -3.75,2.5c0.417,-1.25 1.25,-2.083 2.084,-2.916c1.666,-2.084 3.75,-3.75 5.833,-5.834c0.417,-0.833 1.667,-2.083 0.417,-2.916c-2.084,-1.25 -4.167,-2.5 -6.667,-3.334c-2.083,-0.833 -4.167,-1.25 -6.667,-0.416c-2.083,0.416 -4.166,0.416 -6.25,1.25c-4.166,1.25 -6.25,7.916 -4.166,11.25c0.416,0.833 1.25,1.666 1.666,2.5c2.084,-0 0.834,-1.667 1.667,-2.5c1.25,1.25 -0.417,3.75 1.667,5l-0,0.833c-1.667,0.833 -0.834,2.083 -0.834,3.333l0,4.584c-2.916,0.416 -3.333,-0.834 -3.333,-2.917c0,-1.25 -0.417,-2.083 -0.833,-3.333c-0.417,-0.834 -0.417,-2.5 -1.25,-2.917c-1.667,-0.833 -2.084,-2.5 -2.917,-3.75c-2.083,-2.917 -3.75,-6.25 -5.417,-9.167c-3.333,-7.916 -10,-13.333 -17.083,-17.916c-4.167,-2.5 -8.333,-4.167 -13.333,-4.584c-0.417,0 -0.834,-0.416 -0.834,-0.416c-0.416,-0.417 -0.416,-0.834 -0.833,-0.834l-5.417,0c0.417,1.25 0.417,2.084 0.417,2.917c0,1.25 0.417,2.5 0,3.333c-1.667,4.167 -2.917,8.75 -6.25,12.084c-2.5,2.5 -4.583,5.416 -7.083,7.916c-0.417,-0.416 -1.25,-0.416 -2.084,-0.833c1.25,-2.917 2.5,-5.417 4.167,-8.333c0.417,-0.417 0.417,-0.834 0.417,-1.25c0.416,-2.917 1.25,-6.25 1.666,-9.167c0.417,-2.083 0.834,-4.167 0.834,-6.25c-0.417,-2.5 -1.667,-5 -2.084,-7.5c-0.833,-3.75 -1.666,-7.917 -2.5,-11.667c-0.416,-0.833 -0.833,-2.5 -2.083,-2.916c-1.25,-0.834 -1.25,-1.667 -1.25,-2.917c0,-0.833 -0.417,-2.083 -0.833,-2.5c-2.084,-2.917 -4.584,-5.417 -6.667,-8.333c-2.083,-2.917 -4.167,-5.417 -5.833,-8.334c-2.5,-4.583 -4.584,-9.583 -7.084,-14.583l0.417,-0.417c0.417,0.417 0.833,0.834 1.25,1.25c-0.417,-2.5 -1.25,-5 -2.083,-7.5c-0.834,-2.083 -2.084,-4.166 -2.084,-6.25c0.834,0.834 2.084,1.667 3.334,2.917c0.416,2.083 1.666,4.583 2.083,6.667c1.667,7.5 5.417,14.166 10,20.416c1.667,2.5 1.667,2.5 4.167,0.834c0.833,-0.417 2.083,-0.834 2.916,-1.25c2.917,-1.25 6.25,-0 9.167,0.416c0.417,0 0.833,0.417 1.25,0.834c-0.417,-0 -0.833,0.416 -1.667,0.416c-1.666,0 -3.333,0 -4.583,0.417c-1.667,0.417 -2.917,1.667 -4.167,2.917c-1.25,0.833 -1.25,2.083 0,3.333c1.25,1.25 2.5,2.5 3.334,3.75c2.916,3.333 4.166,7.5 5.833,11.667c0.417,0.833 0.833,1.25 1.25,2.5c0.417,-2.5 0.833,-4.584 1.25,-6.667c0.417,-2.083 1.667,-3.75 3.75,-5c2.917,-1.667 6.25,-1.667 9.167,-1.25c2.5,0.417 4.583,3.333 3.75,5.417c-1.25,3.75 -1.667,7.5 -3.334,10.833c-0.833,1.25 -1.25,2.5 -1.666,3.75c-0.417,0.833 -0.834,2.083 -0.834,2.5c0.417,0.417 1.667,0.833 2.5,0.833c0,-1.666 0,-2.916 0.417,-4.166c1.25,-2.5 2.5,-5.417 3.75,-7.917c1.667,-2.5 3.333,-4.583 5,-6.667c0.833,-0.833 2.5,-1.25 3.333,-1.25c2.084,0 4.584,3.75 4.167,5.834c-0.417,3.333 -0.833,7.083 -2.083,10.416c-0.834,2.5 -2.917,4.584 -5.417,5.834c-0.417,-0 -0.833,0.833 -0.833,1.25c-0,0.416 0.416,0.833 0.833,0.833c1.25,-0 2.917,-0 3.75,-0.417c3.333,-2.083 4.583,-5 5.833,-8.75c0.417,-1.666 1.25,-3.75 2.084,-5.416c-0,0.416 0.416,0.416 0.416,0.833c0.417,-1.25 0.417,-2.5 0.834,-3.75c-0,-1.25 -0.834,-2.917 0.833,-4.167l0,-0.833c-0.417,-3.75 -2.5,-6.25 -5.417,-8.75c-1.666,-1.25 -3.75,-2.083 -4.583,-3.75c-1.667,-2.917 -4.167,-5.417 -5.417,-8.75c-2.083,-5 -5.416,-9.583 -8.333,-14.167c-3.75,-5.833 -9.167,-10 -14.583,-14.166c-1.667,-1.25 -3.334,-2.084 -5.417,-2.917c-1.667,-0.417 -2.5,-2.917 -3.75,-4.167c-3.75,-2.916 -6.667,-6.666 -9.583,-10c-0.834,-0.833 -2.084,-1.666 -2.917,-2.5c-0.417,0 0,-0.833 -0.417,-0.833l-0.833,-0c-0.417,-0.833 -0.833,-1.25 -1.25,-1.667c-3.75,-2.5 -7.5,-5 -11.667,-7.083c-6.666,-3.333 -13.75,-5 -20.833,-5.833c2.917,0.416 2.917,0.833 2.083,1.25Zm7.084,-87.5c1.666,-1.25 3.75,-2.5 5.833,-3.75c1.667,-1.25 3.333,-2.5 5,-4.167c0.417,-0.417 0.833,-1.25 0.833,-2.083c0.417,-4.584 1.25,-9.584 1.25,-14.167c0,-2.083 -0.416,-3.75 -0.833,-5.833c-0.417,-2.084 -1.667,-3.75 -1.667,-5.834c-0.833,-4.583 -3.333,-7.916 -7.5,-10c-3.333,-1.666 -6.666,-0.833 -9.583,-1.25c-0.417,0 -0.833,0 -0.833,0.417c-0.417,2.083 -1.667,0.833 -2.917,0.833c-0.417,0.417 -0.833,0.834 -1.25,0.834c-2.5,0.833 -4.583,1.666 -6.667,3.333c-1.25,0.833 -2.916,1.25 -4.583,2.083c-0.833,0.417 -1.25,0.417 -2.083,0.834c2.916,2.916 5.416,5.416 6.666,9.166c0.417,1.25 3.75,3.334 4.584,2.917c2.083,10 5.833,19.583 13.75,26.667Zm-154.167,-21.667c0.417,2.083 0.833,4.167 1.25,5.833c0.833,2.917 0.833,6.667 5,7.5c0.417,0 0.833,0.834 1.25,1.25c1.667,1.667 3.333,3.334 5.417,5c0.416,-0.833 0.416,-1.666 0.833,-2.5c-0.833,0 -1.25,-0.416 -1.667,-0.416c0.417,-0.417 0.834,-0.834 1.25,-1.667c0.834,-1.667 1.667,-2.917 2.5,-4.583c0.834,-2.5 1.667,-4.584 2.5,-7.084c0.417,-1.666 0.834,-3.333 1.667,-5c0.833,-1.666 1.667,-3.333 3.333,-4.583c2.084,-2.083 4.584,-4.167 7.084,-6.25c1.25,-1.25 2.5,-2.917 3.75,-4.583l-0,-0.417c-1.25,-2.083 -1.25,-5 -4.167,-5.833c-1.667,-0.834 -3.333,-1.667 -5,-2.5c-0.417,-0 -0.417,-0.417 -0.833,-0.834c-1.667,-2.083 -3.75,-3.75 -6.25,-3.333c-3.334,0.417 -6.25,1.25 -9.167,2.083c-2.5,0.417 -4.167,2.084 -5.417,4.584c-1.25,2.5 -2.5,5.416 -3.333,7.916c-1.667,4.167 -2.5,8.334 -2.917,12.917c-0.416,3.333 0.417,6.667 2.5,9.167c-0.416,-2.084 -1.25,-4.584 -1.666,-6.667l2.083,-0Zm-23.333,214.583c0.833,0 2.083,-0.416 2.916,0c1.25,0.834 3.334,0.417 3.334,-0.833c-0,-1.25 0.833,-1.25 1.25,-1.667c0.416,-0.416 0.833,-0.833 1.25,-1.25c0.416,-0.416 0.833,-1.25 1.25,-1.25c1.666,0 1.25,-1.25 1.25,-2.083c-0,-1.25 0.416,-2.5 -0.417,-2.917c-0.417,-0.833 -0.833,-1.25 0,-2.083c1.25,-0.833 0.833,-2.083 0,-2.917c-2.083,-2.083 -4.583,-3.333 -7.083,-3.333c-4.167,0.417 -7.5,3.75 -7.917,7.5c-0.417,2.917 0.417,5.833 0.833,8.75c0,0.417 0.834,0.833 0.834,0.833c2.083,-1.25 2.083,0.417 2.5,1.25Zm242.916,-23.333c0,-0.417 -0.416,-0.417 -0.416,-0.833c-0.834,0.416 -2.5,1.25 -2.917,0.833c-1.667,-1.25 -2.917,-0 -3.75,0.833c-0.833,0.834 -1.667,1.667 -2.5,2.917c-0.833,1.25 -1.667,2.5 -2.083,3.75c-0.417,2.5 -0.417,5 -0.417,7.5c0,1.25 0.833,2.083 1.25,3.75c0.833,-2.917 3.333,-2.917 5.833,-0.833c0.417,-0.417 1.25,-0.834 1.667,-1.667c1.25,-2.5 2.5,-5.417 3.75,-7.917c0.833,-2.083 0,-4.166 1.667,-5.833c0.416,-0.833 -0,-1.667 -1.25,-1.25c-0.834,-0 -1.25,0.417 -2.084,0.833c0.417,-0.833 0.834,-1.666 1.25,-2.083Zm16.25,10.833c0,-1.25 -0.416,-2.5 -0.416,-3.333c-0.834,-3.333 -2.917,-4.167 -5.417,-1.667c-4.167,3.334 -6.25,7.917 -7.917,12.917c-0.416,1.667 2.5,5.417 4.167,4.583c2.083,-0.833 4.167,-1.666 5.833,-3.333c2.5,-2.917 3.334,-6.25 3.75,-9.167Zm-279.166,12.084c-0,3.333 2.083,7.083 6.666,7.5c2.084,-0 3.334,-0.417 3.334,-2.5c-0,-1.667 -0,-3.75 -0.417,-5.834c-0.417,-2.5 -1.25,-5 -1.667,-7.5c0,-0.416 -0.416,-0.416 -0.833,-0.416c-3.333,-1.25 -7.083,1.25 -7.5,4.583c0,1.25 0.417,2.5 0.417,4.167Z" style="fill-rule:nonzero;"/><path d="M244.167,61.667c-7.917,-7.084 -11.667,-16.25 -14.167,-26.25c-0.833,-0 -4.167,-1.667 -4.583,-2.917c-1.25,-3.75 -3.75,-6.25 -6.667,-9.167c0.833,-0.416 1.667,-0.416 2.083,-0.833c1.667,-0.833 3.334,-1.25 4.584,-2.083c2.083,-1.667 4.166,-2.5 6.666,-3.334c0.417,0 0.834,-0.416 1.25,-0.833c0.834,-0.417 2.084,1.25 2.917,-0.833l0.833,-0.417c3.334,0.417 6.667,-0 9.584,1.25c4.583,2.083 7.083,5.417 7.5,10c0.416,2.083 1.25,3.75 1.666,5.833c0.417,2.084 0.834,3.75 0.834,5.834c-0.417,4.583 -0.834,9.583 -1.25,14.166c-0,0.834 -0.417,1.667 -0.834,2.084c-1.666,1.25 -3.333,2.916 -5,4.166c-1.666,0.834 -3.75,2.084 -5.416,3.334Z" style="fill:#e7c18c;fill-rule:nonzero;"/><path d="M89.583,47.083c-2.083,-2.916 -2.916,-5.833 -2.5,-9.166c0.417,-4.584 1.25,-8.75 2.917,-12.917c1.25,-2.5 2.083,-5.417 3.333,-7.917c1.25,-2.083 2.917,-3.75 5.417,-4.583c3.333,-0.417 6.25,-1.667 9.167,-2.083c2.5,-0 4.583,1.25 6.25,3.333c0.416,0.417 0.416,0.417 0.833,0.833c1.667,0.834 3.333,1.667 5,2.5c2.5,1.25 2.917,3.75 4.167,5.834l-0,0.416c-1.25,1.667 -2.5,3.334 -3.75,4.584c-2.084,2.083 -4.584,4.166 -7.084,6.25c-1.25,1.25 -2.5,2.916 -3.333,4.583c-0.833,1.667 -1.25,3.333 -1.667,5c-0.833,2.5 -1.666,4.583 -2.5,7.083c-0.833,1.667 -1.666,2.917 -2.5,4.584c-0.416,0.416 -0.833,0.833 -1.25,1.666c0.417,0 0.834,0.417 1.667,0.417c-0.417,0.833 -0.417,1.25 -0.833,2.5c-2.084,-1.667 -3.75,-3.333 -5.417,-5c-0.417,-0.417 -0.833,-0.833 -1.25,-1.25c-3.75,-1.25 -4.167,-4.583 -5,-7.5c-0.417,-2.083 -2.083,-1.667 -1.667,0.833Z" style="fill:#e7c18c;fill-rule:nonzero;"/><path d="M66.667,254.583c-0.417,-0.833 -0.417,-2.5 -2.084,-1.666c0,-0 -0.833,-0.417 -0.833,-0.834c-0.417,-2.916 -0.833,-5.833 -0.833,-8.75c0.416,-4.166 4.166,-7.5 7.916,-7.5c2.917,0 5.417,0.834 7.084,3.334c0.833,0.833 0.833,2.083 -0,2.916c-0.834,0.834 -0.834,1.25 -0,2.084c0.416,0.833 0.416,2.083 0.416,2.916c0,0.834 0.417,2.084 -1.25,2.084c-0.416,-0 -0.833,0.833 -1.25,1.25c-0.416,0.416 -0.833,0.833 -1.25,1.25c-0.416,0.416 -1.25,0.416 -1.25,1.666c0,1.25 -2.083,1.25 -3.333,0.834c-1.25,-0 -2.083,0.416 -3.333,0.416Z" style="fill:#fff;fill-rule:nonzero;"/><path d="M309.583,231.25c-0.416,0.833 -0.833,1.25 -1.25,2.083c0.834,-0.416 1.25,-0.416 2.084,-0.833c1.25,-0.417 1.666,0.417 1.25,1.25c-1.25,1.667 -0.417,4.167 -1.667,5.833c-1.25,2.5 -2.5,5.417 -3.75,7.917c-0.417,0.833 -1.25,1.25 -1.667,1.667c-2.5,-2.084 -4.583,-1.667 -5.833,0.833c-0.417,-1.667 -1.25,-2.5 -1.25,-3.75c-0,-2.5 -0,-5 0.417,-7.5c0.416,-1.25 1.25,-2.5 2.083,-3.75c0.833,-1.25 1.25,-2.083 2.5,-2.917c0.833,-0.833 2.083,-2.083 3.75,-0.833c0.417,0.417 2.083,-0.833 2.917,-0.833c-0,0.416 0.416,0.416 0.416,0.833Z" style="fill:#fff;fill-rule:nonzero;"/><path d="M325.833,242.083c-0.416,3.334 -0.833,6.667 -3.333,8.75c-1.667,1.667 -3.75,2.5 -5.833,3.334c-1.667,0.833 -4.584,-2.917 -4.167,-4.584c1.667,-5 3.75,-9.583 7.917,-12.916c2.5,-2.084 4.583,-1.667 5.416,1.666c-0.416,1.25 -0.416,2.5 0,3.75Z" style="fill:#fff;fill-rule:nonzero;"/><path d="M46.667,254.167l-0,-4.167c0.416,-3.333 4.166,-5.833 7.5,-4.583c0.416,-0 0.416,0.416 0.833,0.416c0.417,2.5 1.25,5 1.667,7.5c0.416,1.667 0.416,3.75 0.416,5.834c0,2.083 -1.25,2.916 -3.333,2.5c-5.417,-0.417 -7.5,-4.167 -7.083,-7.5Z" style="fill:#fff;fill-rule:nonzero;"/><path d="M177.083,304.583c0.417,0 0.834,0 1.667,0.417l0,0.833c0,3.334 1.667,5.417 4.583,6.667c2.084,0.833 3.75,2.083 5.834,2.917c4.166,1.666 8.333,1.25 12.083,-0.834c1.667,-0.833 2.917,-3.333 4.167,-5c0.416,-0.833 0.833,-1.666 1.25,-2.5c3.333,-2.916 4.166,-6.25 3.75,-10.416c-0,-1.667 -0.834,-3.334 -1.25,-5.417c0.416,-1.667 -0,-3.333 -1.25,-5.417c-0.417,-0.833 -1.667,-1.666 -0.834,-3.333c0.417,-0.833 -0.833,-2.083 -2.5,-1.667l0,-0.833l0.417,0c2.5,0 4.583,0.417 5.417,3.333c1.25,3.334 2.916,6.667 5,9.584c2.083,3.333 1.25,6.25 0.833,9.583c-0.417,0.833 0,2.083 -0.417,2.917c-0.416,2.083 -0.833,3.75 -2.083,5.833c-1.25,2.083 -2.917,3.75 -4.167,5.833c-1.666,2.084 -3.333,3.75 -5.833,4.584c-1.25,0.416 -2.083,1.666 -3.333,2.5c-5.417,3.75 -18.334,-1.667 -22.084,-4.167c-2.083,-1.25 -3.75,-3.75 -5,-5.833c-1.25,-2.084 -2.916,-4.584 -2.916,-7.084c-0,-0.416 -0.834,-1.25 -0.834,-1.25l0,-6.25c0,-5.416 2.5,-10 6.667,-13.75c1.667,-1.666 4.167,-2.916 5.833,-4.166c0.417,-0.417 0.834,-0.834 1.25,-1.25c0.417,-0.417 1.25,-0.417 1.25,-0.417c-0.416,1.25 -0.833,2.083 -1.25,3.333c0,0.417 0,0.834 -0.416,0.834c-2.917,2.5 -2.5,6.666 -4.167,9.583c0,0.417 0,0.833 -0.417,0.833c-2.5,2.084 -1.666,6.25 -1.25,10Z" style="fill-rule:nonzero;"/></g><path d="M267.083,270.417l-0.416,-0c-0.834,0.416 -1.667,0.416 -2.5,0.833l-1.667,-0c-0.833,0.417 -1.667,0.417 -2.5,0.833l-1.25,0c0.417,0 0.417,-0.416 0.833,-0.416c2.5,-1.25 5.417,-2.084 7.917,-2.917c0.833,-0.417 1.25,-0.417 2.083,-0.833l0.834,-0c-0,-0.417 0.416,-0.417 0.833,-0.834c0.417,0 0.833,-0.416 1.25,-0.416l0.417,-0c-0,-0 -0,0.416 -0.417,0.416c-0.417,0 -0.417,0.417 -0.417,0.417c0,0.417 -0.416,0.833 -0.833,1.25c0,0.417 -0.417,0.417 -0.833,0.417c-0.834,0.416 -1.25,0.833 -2.084,1.666c-0.416,0.417 -0.833,0.834 -0.833,1.25c0,0.417 -0.417,0.417 -0.417,0.834c-0.416,0.416 -0.833,0.833 -1.25,1.666c-0.416,0.417 -0.416,0.834 -0.833,1.25c-0.417,0.417 -1.25,1.25 -1.667,1.667c-0.416,0.417 -0.416,0.833 -0.833,1.25c-0.833,0.833 -1.667,1.667 -2.083,2.5c-0.834,0.833 -1.667,1.25 -2.5,2.083c-0,0 -0.417,0 -0.417,0.417c-0.417,0.833 -1.25,1.25 -2.083,1.667c-1.25,0.833 -2.5,1.25 -3.75,1.666l-2.084,0c-0.833,0 -1.666,0 -2.5,-0.416c-0.833,-0 -1.25,-0.417 -2.083,-0.417l-0.417,-0c0.417,-0 0.834,-0.417 0.834,-0.417c0.833,0 1.666,-0.416 2.5,-0.416c1.666,-0.417 2.916,-0.834 4.583,-0.834c0.417,0 0.417,0 0.833,-0.416c1.25,-0.834 2.084,-1.25 3.334,-2.084c0.416,0 0.416,-0.416 0.833,-0.416c0.833,-0.834 1.667,-1.667 2.5,-2.5c0.833,-0.417 1.25,-1.25 1.667,-2.084c0.416,-0.416 0.833,-1.25 1.25,-1.666c0.416,-0.417 0.416,-0.834 0.833,-0.834l1.667,-1.666c-0,-0.417 0.416,-0.417 0.416,-0.834c0.834,-1.25 1.25,-1.25 1.25,-1.666Z" style="fill-rule:nonzero;"/><path d="M237.083,293.333l1.667,0c2.5,0.417 5,0.417 7.5,0.417c1.25,-0 2.083,-0.417 3.333,-0.833c0.417,-0 0.834,-0.417 0.834,-0.417c0.833,-0.417 1.666,-1.25 2.916,-1.667c0.417,0 0.417,-0.416 0.834,-0.416l0.416,-0c0.417,-0.417 0.834,-0.417 1.25,-0.834c0.834,0 1.25,-0.833 2.084,-0.833c-0,-0 0.416,-0 0.416,-0.417l0.834,0c0.833,0 1.25,-0.416 1.666,-0.416c0,-0 -0.416,-0 -0.416,0.416c-0.417,0 -0.417,0.417 -0.834,0.834l-0.416,0.416c-0.417,0 -0.417,0.417 -0.417,0.834l0,0.416c-0.417,0.417 -0.833,0.834 -1.25,0.834l-0.417,-0c-0.833,0.833 -1.666,1.666 -2.916,2.083c-1.25,0.833 -2.084,1.25 -3.334,1.667c-0.416,-0 -0.833,-0 -1.25,0.416c-0.833,0 -1.666,0.417 -2.5,0.417l-2.5,0c-1.25,0 -2.5,-0.417 -3.75,-0.417c-0.833,0 -1.666,-0.416 -2.5,-0.416l-1.25,-2.084Z" style="fill-rule:nonzero;"/><path d="M242.5,301.25c-0.417,0.417 -0.833,0.417 -1.25,0.417c-0.417,-0 -0.833,-0 -0.833,0.416c-0.417,0 -0.834,0.417 -1.25,0c-0.834,0 -1.667,-0.416 -2.917,-0.416c-0.833,-0 -1.667,-0.417 -2.083,-0.834c-0.417,-0.416 -0.834,-0.833 -1.25,-1.25c-0.417,-0.416 -0.834,-1.25 -0.834,-1.666l-0.416,-0.417c-0,0 -0.417,-0.417 -0.417,-0.833l0.417,-0c0.416,0.416 0.833,0.416 1.666,0.833l0.417,0.417c1.667,0.416 2.917,1.25 4.167,2.083c0.833,0.417 1.666,0.833 2.5,0.833c0.416,0 1.25,0 2.083,0.417Z" style="fill-rule:nonzero;"/><path d="M267.917,276.667c-0,0.833 -0.417,1.666 -1.25,2.083c-0.417,0.417 -0.834,0.833 -1.25,1.25c-0.834,0.833 -1.667,2.083 -2.5,2.917c-0.834,0.833 -1.667,1.666 -2.917,2.083c-0.833,0.417 -1.25,0.833 -2.083,1.25c-0.417,-0 -0.834,0.417 -0.834,0.833c-0.416,0.417 -0.833,0.417 -1.666,0.834c-0.417,0.416 -0.834,0.416 -1.25,0.833c-0.417,0.417 -1.25,0.417 -2.084,0.417l-0.416,-0c-0.417,-0 -0.834,-0 -1.25,-0.417c0.416,-0 0.416,-0.417 0.833,-0.417c0.417,0 0.833,0 1.25,-0.416c0.417,-0 0.833,-0.417 1.25,-0.834c0,0 0.417,0 0.417,-0.416c0.833,-0.417 1.666,-0.834 2.5,-1.25c0.416,-0.417 1.25,-0.417 1.666,-0.834c0.417,-0.416 0.834,-0.416 1.25,-0.833l0.417,-0.417c0.417,-0.416 0.833,-0.833 1.25,-0.833c0.833,-0.833 1.667,-1.667 2.5,-2.5c1.25,-0.833 2.5,-2.083 4.167,-3.333Z" style="fill-rule:nonzero;"/><path d="M249.583,296.667l-0.416,0.416c-0.834,0.417 -1.667,0.834 -2.5,0.834c-0.417,-0 -1.25,-0 -1.667,0.416l-3.333,0c-0.417,0 -0.834,-0.416 -1.667,-0.416l-0.833,-0c-0.417,-0 -0.834,-0.417 -1.25,-0.417c-0.834,-0.417 -1.25,-0.833 -2.084,-0.833c-0.416,-0 -1.25,-0.417 -1.666,-0.834l0.416,0c0.417,0 0.834,0.417 1.25,0.417c0.417,0 0.834,0.417 1.25,0.417c0.417,0.416 0.834,0.416 1.25,0.416c0.417,0 0.834,0.417 1.667,0.417c0.417,0 1.25,0.417 1.667,0.417l2.083,-0c2.083,-1.25 3.75,-1.25 5.833,-1.25Z" style="fill-rule:nonzero;"/><path d="M228.333,302.917c0.417,-0 0.834,0.416 1.25,0.416c1.25,0.417 2.5,0.834 3.75,1.25c0.834,0.417 2.084,0.417 2.917,0.417l2.083,0c-0.416,0 -0.833,0.417 -1.25,0.417c-0.416,-0 -0.833,0.416 -1.25,0.416l-3.75,0c-0.416,0 -0.833,0 -1.25,-0.416c-0.416,-0 -0.833,-0.417 -1.25,-0.834c-0.416,-0.416 -0.833,-0.416 -1.25,-0.833c0.417,-0 0,-0.417 0,-0.833c0,0.416 0,-0 0,-0Z" style="fill-rule:nonzero;"/><path d="M217.917,130c-0,0.833 -0.417,1.25 -0.834,2.083c-0.416,0.834 -1.25,1.25 -1.666,2.084c-0.417,0.416 -0.834,0.833 -1.25,0.833c-0.417,0.417 -0.834,0.833 -1.25,1.25c-0.417,0.417 -0.834,0.833 -1.25,0.833c-1.25,0.834 -2.5,2.084 -4.167,2.917c-1.25,0.833 -2.5,1.667 -3.75,2.083c-1.25,0.417 -2.083,0.834 -3.333,1.667c0.416,-0.417 0.833,-0.833 1.666,-1.25c0.417,-0.417 0.834,-0.417 1.25,-0.833c0.417,-0.417 0.834,-0.417 1.25,-0.834c0.834,-0.416 1.667,-1.25 2.917,-1.666l-0.417,-0c-0.416,-0 -0.833,0.416 -1.25,0.416c-0.416,0.417 -1.25,0.834 -2.083,0.834c-0.417,-0 -0.833,0.416 -1.25,0.416c-0.417,0.417 -0.833,0.417 -1.667,0.834c-0.833,0.416 -1.25,0.416 -2.083,0.833c-0.833,0.417 -1.25,0.417 -2.083,0.833c-0.834,0 -1.667,0.417 -2.084,0.834c-2.5,0.833 -5,1.666 -7.916,2.083c-0.834,-0 -1.667,0.417 -2.5,0.417l-1.667,-0c0,-0 -0.417,-0 -0.417,-0.417l-0.416,-0c0.416,-0 0.833,-0.417 1.25,-0.417c1.25,-0.416 2.5,-0.416 3.75,-0.833l0.416,-0c0.417,-0.417 1.25,-0.417 2.084,-0.833c1.25,-0.417 2.5,-0.834 3.75,-1.25c0.833,-0.417 1.25,-0.417 2.083,-0.417c0.833,-0 1.25,-0.417 2.083,-0.833c0.834,-0.417 1.667,-0.417 2.5,-0.834c0,0 0.417,0 0.417,-0.416c0.833,-0.417 1.25,-0.834 2.083,-0.834c0.417,0 0.417,-0.416 0.834,-0.416c0.833,-0.417 1.25,-0.834 2.083,-1.25l0.417,-0c0.416,-0 0.416,-0 0.833,-0.417c0.833,-0.417 1.25,-0.833 2.083,-1.25c0.834,-0.417 1.25,-0.833 2.084,-1.25c-0,-0 0.416,-0 0.416,-0.417c0.417,-0.416 1.25,-0.833 2.084,-1.25c0.416,-0.416 0.833,-0.416 1.25,-0.833c1.25,-0.417 2.083,-1.25 2.916,-1.667c0.417,-0.416 0.417,-0.416 0.834,-0.833Z" style="fill-rule:nonzero;"/><path d="M177.083,142.5c0.834,-0 1.25,-0.417 2.084,-0.417c0.833,-0.416 1.666,-0.416 2.5,-0.416c1.666,-0.417 3.333,-0.417 5,-0.834c1.25,-0.416 2.083,-0.416 3.333,-0.833c0.417,-0 0.833,-0.417 1.25,-0.417c0.833,0 1.667,-0.416 2.5,-0.833c0.417,-0 0.417,-0 0.833,-0.417c1.25,-0.416 2.5,-0.416 3.334,-0.833c0.416,-0 1.25,-0.417 2.083,-0.417c-0.417,0.417 -0.417,0.417 -0.833,0.417c-0.834,0.417 -1.667,0.833 -2.5,0.833c-0.834,0.417 -2.084,0.834 -2.917,1.25c-1.25,0.417 -2.5,0.834 -3.75,1.25c-1.25,0.417 -2.083,0.417 -3.333,0.834c-1.667,0.416 -3.334,0.416 -5,0.833c-1.25,-0 -2.5,0.417 -3.75,0.417l-1.667,-0c-1.25,-0 -2.5,0.416 -3.333,0.416c-0.417,0 -1.25,0.417 -1.667,0.417c-0.833,0 -1.667,0.417 -2.083,0.417l-0.417,-0c-0,-0 -0,-0.417 0.417,-0.417c0.416,0 0.833,-0.417 1.25,-0.417l0.416,0c0.834,-0.416 1.25,-0.416 2.084,-0.833c1.666,-0.417 3.75,-1.25 5.416,-1.667c0.834,-0.416 1.25,-0.416 2.084,-0.833c0.416,0 0.416,-0.417 0.833,-0.417c0.417,0 1.25,-0.416 1.667,-0.416l0.416,-0c0.417,0.416 0.834,0.416 1.25,0.416c0.417,0 1.25,-0.416 1.667,-0.416c0.417,-0.417 1.25,-0.417 2.083,-0.417c-0.416,-0 -0.416,0.417 -0.833,0.417c-1.25,0.416 -2.083,0.833 -3.333,1.25c-0.417,-0 -0.417,-0 -0.834,0.416c-0.416,0 -0.833,0.417 -1.666,0.417c-0.417,0 -0.834,0.417 -1.25,0.417c-1.667,-0 -2.5,0.416 -3.334,0.833Z" style="fill-rule:nonzero;"/><path d="M143.333,134.583c0.417,0 0.417,0 0.834,0.417c0.416,0 0.833,0.417 0.833,0.417c0.833,0.416 1.667,0.833 2.083,1.25l0.417,-0c0.417,-0 0.833,0.416 1.25,0.833c0.417,0.417 0.833,0.833 1.667,1.25c-0,0 0.416,0 0.416,0.417c0.417,0.416 0.834,0.416 1.25,0.833l0,-0.833c-0.416,-0.834 -0.416,-1.667 -0.416,-2.5l-0,-0.417c-0,-0.417 -0,-0.417 0.416,-0.417c0.417,-0.416 1.25,-0.833 1.667,-0.833l0.417,0c0.416,0 0.833,0 1.25,-0.417l-0,0.417c-0.417,0.833 -0.834,1.667 -1.25,2.5l-0,1.667c0.416,0.833 0.416,1.666 0.833,2.5l0,0.416l0.833,0.834c0,-0 0.417,0.416 0.834,0.416c-0,0 0.416,0 0.416,0.417l-1.666,0c-0.417,0 -0.834,0 -1.25,-0.417c-0.417,-0.416 -1.25,-0.416 -1.667,0c-1.25,-0.833 -2.5,-1.25 -3.333,-2.083c-0.834,-0.833 -1.667,-1.25 -2.084,-2.083c-0.833,-0.834 -1.666,-1.667 -2.5,-2.5c-0.416,-1.25 -0.833,-1.667 -1.25,-2.084Z" style="fill-rule:nonzero;"/><path d="M166.667,139.167c0.416,-0.417 0.833,-0.834 0.833,-0.834c0,0 0.417,0 0.417,-0.416c0.833,-0.417 1.666,-0.834 2.5,-0.834c0.416,0 0.833,0 0.833,-0.416c0.417,-0 1.25,-0.417 1.667,-0.417c0.833,-0 1.25,-0.417 2.083,-0.417l3.75,0c0.417,0 1.25,0 1.25,0.417c0.417,0.417 0.417,0.417 0.833,0.417c0,-0 0.417,-0 0.417,0.416c-0.833,0 -1.667,0.417 -2.917,0.834c-0.416,-0 -0.833,0.416 -1.25,0.416c-0.416,0 -0.833,0.417 -0.833,0.417c-1.25,0.417 -2.917,1.25 -4.167,1.667c-0.416,0.416 -1.25,0.416 -1.666,0.416c-0.417,0 -0.834,0.417 -1.667,0.417l-0,-0.417c0.833,-0.416 1.25,-0.416 1.667,-0.833c0.416,-0.417 0.833,-0.417 1.25,-0.833c0.833,-0.417 1.25,-0.834 2.083,-0.834c0.833,-0.416 1.667,-0.833 2.5,-0.833c0.417,0 0.833,0 0.833,-0.417c0.417,0 0.834,-0.416 1.667,-0.416l0.417,-0l-5,-0c-0.834,-0 -1.25,0.416 -2.084,0.416c-1.25,0.417 -2.916,0.834 -4.166,1.25c-0,0.417 -0.417,0.834 -1.25,0.834Z" style="fill-rule:nonzero;"/><path d="M159.583,144.167l-0.416,-0c-0,-0.417 -0.417,-0.417 -0.834,-0.417l-0.416,0c-0.417,0 -0.417,0 -0.417,-0.417c-0.833,-0.833 -1.25,-1.666 -1.667,-2.5c0,-0.416 -0.416,-0.833 -0.416,-1.25c-0,-0.416 -0,-1.25 -0.417,-1.666l0,-2.917c0,-0.833 0.833,-1.25 1.25,-1.667c0.417,-0.416 0.833,-0.833 1.667,-1.25l0.416,0l0,0.834c0,0.416 0,0.833 -0.416,1.25l-0,1.25c-0.417,0.833 -0.417,1.666 -0.417,2.083l0,0.417c0,1.25 0.417,2.5 0.417,3.75c-0,0.416 0.416,0.833 0.416,1.25c0.417,0.416 0.834,0.833 1.25,1.25Z" style="fill-rule:nonzero;"/><path d="M150,145c-0.417,-0.417 -0.833,-0.417 -1.25,-0.833c-0.417,-0 -0.417,-0.417 -0.833,-0.417c-0.417,-0.417 -0.417,-0.417 -0.834,-0.833c-0.416,-0.417 -0.833,-0.417 -1.25,-0.834c-0.416,0 -0.416,-0.416 -0.833,-0.416c-0.833,-0.417 -1.667,-1.25 -2.083,-1.667l-0.417,-0.417c-0.417,0 -0.417,-0.416 -0.417,-0.416c-0.833,-1.25 -1.666,-2.5 -2.083,-4.167c0,-0.417 -0.417,-1.25 -0.417,-1.667l0,-2.5l0.417,0c0.417,0.417 0.833,0.834 0.833,1.25l0.417,0.417c0.417,0.833 0.833,2.083 1.25,2.917c0,0.416 0.417,0.833 0.417,0.833c0.416,0.417 0.416,0.833 0.833,1.25c0,0.417 0.417,0.417 0.417,0.833c0.416,0.417 0.416,0.417 0.833,0.834c0,0.416 0.417,0.416 0.833,0.833c0.417,0.417 0.417,0.417 0.834,0.833c0.416,0.417 0.833,0.834 1.25,0.834c0.416,0.416 0.416,0.416 0.833,0.833c0.417,0.417 0.417,0.833 0.833,1.25l0,0.417c0.417,-0 0.417,0.416 0.417,0.833Z" style="fill-rule:nonzero;"/><path d="M162.917,141.25c-0,-0.417 0.416,-1.25 0.833,-1.667c0.417,-0.416 0.833,-1.25 0.833,-1.666l0,-1.25c0,-0 0,-0.417 0.417,-0.417l0.417,-0.417c0.416,-0.416 0.833,-0.416 1.25,-0.833c0.833,-0.417 1.666,-0.833 2.5,-0.417c1.25,0 2.916,0 4.166,-0.416l0.834,-0c-0,-0 -0.417,-0 -0.417,0.416l0,0.417c-1.667,0.417 -2.917,0.833 -4.583,1.667c-0.417,-0 -0.834,0.416 -1.25,0.833l-0.417,0.417c-0.417,0.416 -0.833,0.416 -1.25,0.833c-0.833,0.833 -1.667,1.25 -2.5,2.083c0,0 -0.417,0 -0.833,0.417Z" style="fill-rule:nonzero;"/><path d="M167.083,134.167c0,-0 0.417,-0 0,-0l0,0.833c-1.25,0.833 -2.083,1.667 -2.916,2.5c-0.834,0.417 -1.25,1.25 -1.667,2.083c-0.417,0.417 -0.417,0.417 -0.417,0.834c0,0.416 -0.416,0.833 -0.416,0.833c-0,0.417 -0.417,0.833 -0.417,1.25c0,0.417 0,0.417 -0.417,0.833c0,0.417 0.417,0.834 0.417,1.25l-0.417,0c0,-0.416 -0.416,-0.833 -0.416,-0.833l-0,-2.083c-0,-0.417 0.416,-0.417 0.416,-0.417c0.417,-0.417 0.834,-1.25 0.834,-1.667l-0,-0.416c-0,-0.417 0.416,-0.417 0.416,-0.834l0,-0.416c0.834,-0.834 1.667,-1.667 2.5,-2.5c0.417,-0.417 0.834,-0.417 1.25,-0.834c0.417,-0.416 0.834,-0.416 1.25,-0.416l0.417,-0c0.417,-0 0.417,-0.417 0.833,-0.417c0.417,-0 1.25,-0.417 1.667,-0.417l0.417,0l-0,0.417c-0.417,0.417 -1.25,0.833 -1.667,0.833l-0.833,0c-0.417,-0.833 -0.417,-0.833 -0.834,-0.416Z" style="fill-rule:nonzero;"/><path d="M185.833,144.167c0.417,-0.417 0.834,-0.417 0.834,-0.417c1.25,-0.417 2.5,-0.833 3.75,-1.667c-0,0 0.416,0 0.416,-0.416c0.417,-0 0.834,-0.417 1.25,-0.417c0.417,-0 0.834,-0.417 1.25,-0.417c0.834,0 1.25,-0.416 2.084,-0.833c0.833,-0.417 1.25,-0.833 2.083,-1.25l0.417,-0c0.416,-0.417 1.25,-0.833 2.083,-0.833c0.417,-0 0.833,-0.417 0.833,-0.834l0.417,-0.416c0.417,-0.417 0.833,-0.417 1.667,-0.834l0.416,0l0,0.417c-0.833,0.833 -1.666,1.25 -2.5,2.083c-0.416,0.417 -0.833,0.834 -1.25,0.834c-0.833,0.416 -1.25,1.25 -2.083,1.25c-1.25,0.416 -2.5,0.833 -3.333,1.25c-0.834,0.416 -2.084,0.833 -2.917,1.25l-0.417,-0c-2.083,0.833 -3.333,0.833 -5,1.25c0.417,-0 0.417,-0 0,-0Z" style="fill-rule:nonzero;"/><path d="M219.167,139.583c-0.417,0.417 -0.417,0.417 -0.834,0.417c-0.416,0.417 -0.833,0.417 -1.25,0.833c-0.833,0.417 -1.666,0.834 -2.5,1.25c-1.25,0.417 -2.5,0.834 -3.75,1.25c-1.25,0.417 -2.916,0.834 -4.583,1.25c-1.25,0 -2.5,0.417 -3.75,0.834l-1.667,-0c0.417,-0.417 0.834,-0.417 1.25,-0.417c0.417,0 0.834,0 1.25,-0.417c0.417,0 1.25,-0.416 1.667,-0.416l0.833,-0c1.667,-0.834 3.334,-1.25 5,-2.084c0.834,-0.416 1.667,-0.416 2.5,-0.833c0.417,-0 0.834,-0 0.834,-0.417c1.25,0 2.083,-0.416 3.333,-0.833l0.417,-0c0.833,-0.417 0.833,-0.417 1.25,-0.417Z" style="fill-rule:nonzero;"/><path d="M136.667,131.667c0.416,0.833 0.833,1.666 1.25,2.5c0.416,0.833 0.833,1.666 1.666,2.083c0.417,0.417 0.834,0.833 0.834,1.667l-0,0.416c-0.417,-0.416 -1.25,-0.833 -1.667,-0.833c-0.417,0 -0.417,-0.417 -0.833,-0.417c-0.417,-0.416 -0.834,-1.25 -1.25,-1.666l-0,-3.75Z" style="fill-rule:nonzero;"/><path d="M224.583,137.083c0,0.417 -0.416,0.417 -0.416,0.417c-0.417,0.417 -0.834,0.417 -1.25,0.833c-0.834,0.834 -1.667,1.25 -2.5,2.084c-0.417,0.416 -1.25,0.833 -1.667,1.25c-1.25,0.833 -2.5,1.25 -3.75,1.666l-0.417,0c0,0 0,-0.416 0.417,-0.416c0.417,-0.417 0.833,-0.417 1.25,-0.834c0,0 0.417,-0.416 0.833,-0.416c0.834,-0.417 1.667,-0.834 2.5,-1.667l0.417,-0.417c0.417,-0.416 0.833,-0.416 1.25,-0.833c0.417,-0.417 1.25,-0.833 1.667,-1.25c0.416,-0 0.416,-0.417 0.416,-0.417c0.834,0 1.25,-0.416 1.25,0Z" style="fill-rule:nonzero;"/><path d="M123.333,286.667c0,0.833 0.417,1.666 0.834,2.5c0.416,0.833 1.25,1.666 1.666,2.5l3.75,3.75c1.25,1.25 2.5,2.5 4.167,3.75c1.25,1.25 2.5,2.083 3.75,2.916c1.25,0.834 2.083,1.25 3.333,2.084l0,-0.417c-0.416,-0.417 -0.833,-0.833 -1.666,-1.25l-2.5,-2.5c-0.834,-0.833 -1.667,-1.667 -2.917,-2.5l0,-0.417l0.417,0c0.416,0.417 0.833,0.417 1.25,0.834c0.416,0.416 1.25,0.833 2.083,1.25c0.417,0.416 0.833,0.416 1.25,0.833c0.417,0.417 0.833,0.833 1.667,0.833c0.833,0.417 1.25,0.834 2.083,0.834c0.833,0.416 1.25,0.833 2.083,0.833c0.834,0.417 1.667,0.417 2.084,0.833c2.5,1.25 5,2.084 7.916,2.917c0.834,-0 1.667,0.417 2.5,0.417l1.667,-0c0,-0 0.417,-0 0.417,-0.417c-0,-0 0.416,-0 0.416,-0.417c-0.416,0 -0.833,-0.416 -1.25,-0.416c-1.25,-0.417 -2.5,-0.834 -3.75,-0.834c0,0 -0.416,0 -0.416,-0.416c-0.417,-0.417 -1.25,-0.834 -2.084,-0.834c-1.25,-0.416 -2.5,-0.833 -3.75,-1.666c-0.833,-0.417 -1.25,-0.417 -2.083,-0.834c-0.833,-0.416 -1.25,-0.416 -2.083,-0.833c-0.834,-0.417 -1.667,-0.833 -2.5,-1.25c-0,-0 -0.417,-0 -0.417,-0.417c-0.833,-0.416 -1.25,-0.833 -2.083,-1.25c-0.417,0 -0.417,-0.416 -0.834,-0.416c-0.833,-0.417 -1.25,-0.834 -2.083,-1.25l-0.417,-0c-0.416,-0 -0.416,-0 -0.833,-0.417c-0.833,-0.417 -1.25,-0.833 -2.083,-1.667c-0.834,-0.416 -1.25,-1.25 -2.084,-1.666c0,-0 -0.416,-0 -0.416,-0.417c-0.417,-0.833 -1.25,-1.25 -2.084,-1.667c-0.416,-0.416 -0.833,-0.833 -1.25,-1.25c-1.25,-0.833 -2.083,-1.666 -2.916,-2.5c-0.417,1.667 -0.417,1.25 -0.834,0.834Z" style="fill-rule:nonzero;"/><path d="M122.083,299.167c0.417,0.416 0.417,0.416 0.834,0.416c0.416,0.417 0.833,0.417 1.25,0.834c0.833,0.416 1.666,1.25 2.5,1.666c1.25,0.417 2.5,1.25 3.75,1.667c1.25,0.833 2.916,1.25 4.583,1.667c1.25,0.416 2.5,0.416 3.75,0.833c0.417,-0 0.833,-0 1.667,0.417c-0.417,-0.417 -0.834,-0.417 -1.25,-0.417c-0.417,-0 -0.834,-0.417 -1.25,-0.417c-0.417,-0.416 -1.25,-0.416 -1.667,-0.833l-9.167,-4.583c-1.25,-0.417 -2.083,-0.834 -3.333,-1.25c0,-0 -0.417,-0 -0.417,-0.417c-0.833,0.417 -0.833,0.417 -1.25,0.417Z" style="fill-rule:nonzero;"/><path d="M116.667,295.833c-0,0.417 0.416,0.417 0.416,0.417c0.417,0.417 0.834,0.833 1.25,0.833c0.834,0.834 1.667,1.667 2.5,2.5c0.417,0.417 1.25,0.834 1.667,1.25c1.25,0.834 2.5,1.667 3.75,2.5l0.417,0c-0,0 -0,-0.416 -0.417,-0.416c-0.417,-0.417 -0.833,-0.834 -1.25,-1.25c0,-0.417 -0.417,-0.417 -0.833,-0.417c-0.834,-0.417 -1.667,-1.25 -2.5,-2.083l-3.334,-3.334c-0.416,0 -0.416,-0.416 -0.416,-0.416c-0.834,0.416 -1.25,0.416 -1.25,0.416Z" style="fill-rule:nonzero;"/><path d="M329.583,355.417l1.667,-0c2.5,-0 5.417,-0.834 7.5,-2.084c0.833,-0.416 1.667,-0.833 2.917,-0.833c-0.834,0.833 -1.667,1.25 -2.5,2.083c2.916,-0.416 5,-2.083 7.5,-3.75c-0.417,1.667 -1.25,2.084 -2.084,2.5c-2.083,0.834 -4.166,1.667 -6.25,2.5c-1.25,0.417 -2.5,0.834 -3.75,0.834c0.417,-0.417 0.834,-0.834 1.25,-0.834c-1.666,0 -3.333,0 -5.416,0.417c-0.417,0 -0.834,-0.417 -1.25,-0.417c0.416,0 0.416,-0.416 0.416,-0.416" style="fill-rule:nonzero;"/><path d="M340,357.5c0.833,-0.417 0.833,-0.417 1.25,-0.417c1.25,0 2.5,-0.833 3.333,-1.666c1.667,-1.667 2.917,-2.917 4.584,-4.584c0.416,-0.416 1.25,-0.833 1.666,-1.25c-0.833,4.167 -6.666,8.75 -10.833,7.917" style="fill-rule:nonzero;"/><path d="M327.5,353.75c2.5,-0.833 5,-1.25 7.5,-0.833c0,0.833 -0.417,1.25 -1.25,1.25c-2.083,0.833 -4.167,0.416 -6.25,-0.417" style="fill-rule:nonzero;"/><path d="M68.333,337.5c1.25,0.833 2.084,1.667 3.334,2.083c1.666,0.834 3.333,0.834 4.583,-0.416c1.25,0.416 2.083,1.25 3.333,1.666c-1.666,0.834 -3.333,1.667 -5.416,1.667c2.083,0.833 3.333,0.833 5.416,-0c0.834,-0.417 1.25,-0.833 2.084,-0.833c1.25,-0.417 2.5,-0.417 3.75,-0.834c-2.917,4.584 -8.75,5 -14.584,1.667l2.5,-0c-2.083,-1.667 -4.583,-2.5 -5,-5" style="fill-rule:nonzero;"/><path d="M97.083,339.583c-2.5,2.084 -5.416,4.584 -7.916,6.667c-0.417,0.417 -0.834,0.417 -1.25,0.833c-2.084,0.417 -4.584,1.25 -6.667,1.667l-2.083,-0l-0,-0.417c0.416,0 0.416,-0.416 0.416,-0.416c1.667,-0.417 3.334,-1.25 4.584,-1.667c1.666,-0.417 3.75,-1.25 5,-2.5c1.25,-1.25 2.5,-2.083 4.166,-3.333c1.25,-0.834 2.5,-0.834 3.75,-0.834c0,-0.416 0,-0.416 0,0" style="fill-rule:nonzero;"/><path d="M90,341.25c-0.833,0.417 -1.25,1.25 -2.083,1.667c-1.667,0.833 -2.917,2.083 -4.584,2.5c-1.666,0.833 -3.333,1.25 -5,1.666c-0.833,0.417 -1.666,0 -2.5,-0.833c1.25,-0 2.5,-0 3.75,-0.417c1.25,-0.416 2.5,-1.25 3.75,-2.083c1.25,-0.833 2.5,-1.667 4.167,-2.5c0.417,-0 1.25,-0.417 2.5,-0" style="fill-rule:nonzero;"/><path d="M181.25,24.167c3.333,-0.834 6.667,-2.084 10,-2.917c-4.167,0 -7.917,0.417 -11.667,1.25c-3.333,0.833 -7.083,1.667 -10.416,2.5c0.416,-0.833 1.666,-0.833 2.083,-1.667c0.417,-0.416 0.833,-0.416 1.25,-0.416c3.333,-0.417 6.25,-2.084 10,-2.5l-3.333,-0c-2.5,0.416 -5,0.833 -7.5,1.25c-1.667,0.416 -2.917,0.416 -5,0.416c0.833,-0.416 0.833,-0.416 1.25,-0.833c3.333,-0.833 6.666,-1.667 10,-2.083c-2.084,-0.417 -3.75,-0 -5.417,-0c-1.667,-0 -3.333,0.416 -5.417,0.416c0.834,-0.416 1.667,-0.833 2.5,-0.833c1.667,-0.417 3.75,-0.833 5.417,-0.833l6.25,-0c1.25,-0 2.5,0.416 3.75,0.833c0.417,0 0.833,0.417 1.667,0.417l-1.667,-0c0.833,-0 2.083,0.416 2.917,-0c1.666,-0 3.75,-0 5.416,0.416l1.667,0c1.25,-0.416 2.5,-0.416 4.167,0l2.083,0c1.667,-0.416 3.333,-0.416 4.583,0c0.417,0 0.417,0 0.834,0.417c-1.667,0.417 -3.334,0.417 -5,0.833c-1.667,0.417 -2.917,0.834 -4.584,1.25c-0.416,0 -0.416,-0.416 -0.833,-0.416c0.417,-0.417 1.667,-0.417 1.667,-0.834c-0.417,0 -1.25,0 -1.667,0.417c-2.5,0.833 -5,1.25 -7.5,1.25c-1.667,0 -2.917,0.417 -4.583,0.833c-0.834,0.834 -1.667,0.834 -2.917,0.834" style="fill-rule:nonzero;"/><path d="M142.5,25.833c0.417,-0.416 0.417,-0.416 0.833,-0.833c1.25,-0.833 2.5,-1.667 4.167,-2.917c0.417,-0.416 0.833,-0.833 1.25,-1.25c2.083,-1.25 4.167,-2.5 7.083,-3.333c-2.083,0.833 -3.333,1.667 -4.583,2.917c2.5,-0.834 4.167,-1.667 7.083,-2.084c-2.5,0.834 -5,1.667 -7.5,2.917c-0.833,0.417 -2.083,0.833 -2.916,1.25c-1.667,1.25 -3.334,2.5 -5.417,3.333c0.417,0 0.417,0 0,0" style="fill-rule:nonzero;"/><path d="M138.75,25.833c0.417,-0.416 0.417,-0.416 0.833,-0.833c2.084,-1.25 4.167,-2.5 6.667,-3.75c0.417,-0.417 0.833,-0.417 1.667,-0.417c-5,3.334 -10,6.667 -15,10c-0.417,-0.416 -0,-1.25 1.25,-1.666l0.416,-0c1.667,-0.834 2.917,-2.084 4.167,-3.334c0,0.417 0,0 0,0" style="fill-rule:nonzero;"/><path d="M159.167,21.667c4.583,-2.5 9.583,-4.167 15.416,-4.584c-5.416,1.25 -10.416,2.917 -15.416,4.584" style="fill-rule:nonzero;"/><path d="M209.583,22.917c0.834,0.416 1.25,0.833 1.667,0.833c-0.417,-0 -0.417,-0.417 -0.833,-0.417c-1.25,-0.416 -2.084,-0.833 -3.334,-0.833c-1.25,-0 -2.083,-0.417 -3.333,-0.833c0.833,-0 1.667,-0.417 2.917,-0.417c0.416,-0 0.833,-0 1.25,0.417c1.25,0.416 2.083,0.833 3.333,1.25l-1.667,-0" style="fill-rule:nonzero;"/><path d="M131.667,27.917c1.666,-2.084 3.75,-3.75 7.5,-4.167c-2.5,1.25 -5,2.917 -7.5,4.167" style="fill-rule:nonzero;"/><path d="M152.5,22.083c3.333,-1.666 6.667,-2.916 10.417,-3.333c-2.917,0.833 -5.834,1.667 -8.75,2.917c-0.417,0.416 -0.834,0.833 -1.667,0.416Z" style="fill-rule:nonzero;"/><path d="M238.333,113.333c0,1.667 -1.25,2.917 -1.666,4.167c2.5,-1.25 4.583,-3.333 7.083,-4.167c0,0 -0.417,0.417 -0.417,0.834c0.417,0.416 0.834,0.416 1.25,-0c0.834,-0.834 1.667,-1.667 2.5,-2.5c0,1.666 -0.416,2.916 -0.833,3.75c-2.5,3.333 -5,5.833 -8.75,7.916c-0.833,0.417 -1.667,1.25 -2.5,1.667c-1.667,1.667 -3.75,2.083 -5.833,2.917c3.75,-2.917 7.5,-5.417 10,-9.167c-0.834,0.417 -1.667,0.833 -2.084,1.25c-0.833,0.417 -1.666,0.833 -2.5,1.25c-3.333,2.5 -6.25,5.417 -9.583,7.917c-1.25,1.25 -2.917,2.083 -4.583,2.916c-1.25,0.834 -2.5,0.834 -4.167,0.834c1.667,-0.834 2.917,-2.084 4.583,-2.917c1.25,-0.833 2.5,-2.083 4.167,-2.917c0.417,-0.416 0.417,-0.416 0.833,-0.833c2.5,-1.25 4.167,-3.75 5.834,-5.833c0.833,-0.834 1.25,-2.084 2.083,-2.917l0.417,-0.417c1.666,-0.416 2.5,-1.666 3.333,-2.916c0.417,-0.417 0.417,-0.417 0.833,-0.834" style="fill-rule:nonzero;"/><path d="M238.333,130.417c1.667,-1.25 3.334,-2.5 4.584,-3.75c2.5,-2.084 4.583,-4.584 6.25,-7.5c0.416,-0.834 1.25,-1.25 1.666,-2.084c0.417,-0.833 0.834,-2.083 1.25,-2.916c0.417,-0.417 0.417,-0.834 0.834,-1.25c-0,1.25 -0,2.083 -0.834,3.333c-0.416,0.833 -0.833,1.667 -1.25,2.5c-2.083,4.583 -5,7.917 -9.166,10.417c-0.417,0.416 -2.084,0.833 -3.334,1.25" style="fill-rule:nonzero;"/><path d="M254.583,115.833c0.417,-3.75 0.834,-7.5 1.25,-11.666c1.667,2.916 0.834,9.583 -1.25,11.666" style="fill-rule:nonzero;"/><path d="M124.583,134.167l-0.833,-0c-0.833,-0.417 -1.667,-0.417 -2.917,-0.834c-0.833,-0.416 -1.666,-0.416 -2.5,-0.833c-1.25,-0.833 -2.916,-1.667 -4.166,-2.5c-0.417,-0.417 -0.834,-0.417 -0.834,-1.25c0,-0.833 -0.833,-1.667 -1.25,-2.083c-0.833,-0.834 -1.25,-2.084 -1.25,-3.334c-0.416,-1.25 -0.833,-2.083 -1.25,-2.916c-0.833,2.083 -0.416,3.75 0.834,5.833c-0.834,-0.417 -1.667,-1.667 -1.667,-2.5c0,-1.25 -0.417,-2.083 -0.417,-3.333c0,-1.25 0.417,-2.084 0.834,-2.917c0.416,-0.833 0.833,-2.083 1.666,-2.917l0.417,0c0,0.417 0,1.25 -0.417,1.667c-0.833,2.917 0.417,5.417 1.667,7.917l0,0.416c0,0 0.417,-0.416 0.417,0c-0,0 -0,0.417 0.416,0.417c0.417,0.833 1.25,1.667 2.5,2.5c-0.416,-1.667 -1.666,-2.5 -1.25,-4.583c0.834,1.25 1.667,2.5 2.5,3.75c0.834,1.25 2.084,2.5 2.917,3.75c-0.417,-2.917 -0.833,-5.417 -1.667,-7.5c0,-0.834 -0.416,-1.25 0.417,-1.667c0,0.417 0.417,1.25 0.417,1.667c0.416,2.916 1.25,5.833 2.5,8.333c0.833,0 1.666,1.667 2.916,2.917c0,-0.417 0,-0 0,-0" style="fill-rule:nonzero;"/><path d="M133.333,136.667c-1.666,-0 -2.916,-1.25 -4.166,-2.084c-0.834,-0.416 -1.25,-1.25 -2.084,-1.25c-0.416,0 -0.833,-0.416 -1.25,-0.833c-2.5,-2.917 -5,-6.25 -5.833,-10.417c-0.417,-1.25 0,-2.5 0,-3.75c0,0 0,-0.416 0.417,-0.833c1.25,8.75 6.25,14.583 12.916,19.167" style="fill-rule:nonzero;"/><path d="M107.083,123.333c-0.833,-0.833 -1.25,-1.666 -1.25,-2.5c-0.416,-2.5 -0.416,-5.416 0.834,-7.916c-0,-0.417 0.416,-0.834 0.833,-1.25c-0.417,1.666 -0.833,3.75 -0.833,5.416c-0,2.5 0.416,4.167 0.416,6.25" style="fill-rule:nonzero;"/><path d="M127.083,130.417c-1.666,-1.667 -2.083,-4.167 -2.083,-6.25c0.833,2.083 1.667,4.166 2.083,6.25" style="fill-rule:nonzero;"/><path d="M24.167,338.333c4.583,0.834 9.583,-0.416 14.166,-0.833c-2.083,3.333 -10.833,3.75 -14.166,0.833" style="fill-rule:nonzero;"/><path d="M20,322.917c0.833,2.083 1.25,4.166 2.917,5.833c1.666,1.667 3.333,2.5 5.416,3.75c-1.25,0.417 -3.75,-0.417 -5.416,-2.083c-2.084,-2.5 -3.334,-4.584 -2.917,-7.5" style="fill-rule:nonzero;"/><path d="M20.417,329.583c0.833,1.25 1.25,2.084 2.083,3.334c0.833,1.25 1.667,1.666 2.917,2.083c1.666,0 3.333,0.417 5,0.833c0.833,0 1.25,0.417 1.25,1.667c-0.417,-0 -0.834,0.417 -1.25,-0c-1.667,-0.417 -3.334,-0.833 -5,-1.25c-2.084,-0.417 -3.334,-1.667 -4.167,-3.333c0,-1.25 -0.417,-2.084 -0.833,-3.334" style="fill-rule:nonzero;"/><path d="M23.333,323.333c-2.5,-2.083 -2.916,-4.583 -0.833,-6.25c-0,0.417 -0,0.417 -0.417,0.834c-0.833,1.25 -0.416,2.5 0.417,3.75c0.417,-0 0.833,0.833 0.833,1.666" style="fill-rule:nonzero;"/><path d="M297.917,208.75c-1.667,0.833 -2.5,0 -3.75,-0.417c-1.25,-0.833 -2.917,-1.25 -4.167,-0.833c0.417,0.417 1.25,0.833 1.667,1.25c1.666,1.25 3.333,2.5 4.166,4.167c0.417,0.416 0.834,1.25 0,1.666c-0.833,-0.833 -1.666,-1.666 -2.5,-2.916c-1.25,-1.25 -2.5,-2.084 -4.166,-2.5c-0.834,-0.417 -1.25,-0.417 -2.084,-0.417c-2.083,-0 -3.333,0.833 -4.583,2.083c-0.417,0 -0.417,0.417 -0.833,0.834c0.416,-0.834 0.416,-0.834 0.416,-1.25c0.834,-1.25 1.667,-2.5 2.084,-3.75c0.416,-0.834 1.25,-1.667 2.5,-1.25c1.25,-0 2.5,-0.417 4.166,-0c1.667,0.416 3.334,1.25 5,2.5c0.834,-0 1.25,0.416 2.084,0.833" style="fill-rule:nonzero;"/><path d="M297.5,206.25c-0.417,0 -1.25,0 -1.667,-0.417c-1.25,-0.833 -2.916,-2.083 -4.166,-3.333c2.916,0 4.583,1.667 5.833,3.75" style="fill-rule:nonzero;"/></g><g><g><g><rect x="150.833" y="196.667" width="20.417" height="15.417"/><rect x="151.25" y="197.083" width="19.583" height="14.583" style="fill:#fff;"/></g><g><rect x="149.583" y="211.667" width="22.917" height="22.917"/><rect x="150" y="212.083" width="22.5" height="22.5" style="fill:#fff;"/></g><g><g><path d="M153.75,203.75l0,-3.333l5,-0l0,3.333l-5,-0Zm0.417,-2.917l-0,2.917l4.166,-0l0,-2.917l-4.166,0Z" style="fill-rule:nonzero;"/></g><g><path d="M163.75,203.75l0,-3.333l5,-0l0,3.333l-5,-0Zm0.417,-2.917l-0,2.917l4.166,-0l0,-2.917l-4.166,0Z" style="fill-rule:nonzero;"/></g></g></g><g><g><rect x="8.75" y="392.5" width="20.417" height="15.417"/><rect x="9.167" y="392.917" width="19.583" height="14.583" style="fill:#fff;"/></g><g><rect x="7.5" y="407.5" width="22.917" height="22.917"/><rect x="7.917" y="407.917" width="22.5" height="22.5" style="fill:#fff;"/></g><g><g><path d="M11.667,399.583l-0,-3.333l5,0l-0,3.333l-5,0Zm0.416,-2.916l0,2.916l4.167,0l0,-2.916l-4.167,-0Z" style="fill-rule:nonzero;"/></g><g><path d="M21.25,399.583l0,-3.333l5,0l0,3.333l-5,0Zm0.417,-2.916l-0,2.916l4.166,0l0,-2.916l-4.166,-0Z" style="fill-rule:nonzero;"/></g></g></g></g><path d="M162.083,235c0,42.917 0,137.083 -24.583,192.083c-28.75,64.167 -118.333,73.75 -118.333,3.75" style="fill:none;fill-rule:nonzero;stroke:#000;stroke-width:5.42px;"/><path d="M162.083,235c0,42.917 0,137.083 -24.583,192.083c-28.75,64.167 -118.333,73.75 -118.333,3.75" style="fill:none;fill-rule:nonzero;stroke:#fff;stroke-width:4.17px;"/><g><g><path d="M169.167,162.083l25,0c1.666,0 2.916,0.417 2.916,1.25l0,16.25c0,0.834 -1.666,1.25 -2.916,1.25l-25,0c-1.667,0 -2.917,-0.416 -2.917,-1.25l0,-16.25c-0.417,-0.833 1.25,-1.25 2.917,-1.25Z" style="fill:#fff;fill-rule:nonzero;"/></g><g><g><g><g><path d="M192.083,168.333l0,7.084l-21.25,-0l0,-7.084l21.25,0Zm-0.416,6.667l-0,-6.25l-20.417,0l0,6.25l20.417,0Z" style="fill-rule:nonzero;"/></g><g><path d="M191.25,168.75l0,5.417l-19.167,-0l0,-5.417l19.167,0Zm-0.417,5.417l0,-5l-18.75,-0l0,5l18.75,-0Z" style="fill-rule:nonzero;"/></g><g><g><path d="M174.583,172.083c0,-0.416 0.417,-0.416 1.25,-0.416c0.834,-0 1.25,0.416 1.25,0.416l-2.5,0Zm0.834,0l-0.834,0l1.25,0c0.417,0 0,0 -0.416,0Z" style="fill-rule:nonzero;"/></g><g><path d="M178.333,172.083c0,-0.416 0.417,-0.416 1.25,-0.416c0.834,-0 1.25,0.416 1.25,0.416l-2.5,0Zm1.667,0l-1.25,0l1.25,0Z" style="fill-rule:nonzero;"/></g><g><path d="M182.5,172.083c0,-0.416 0.417,-0.416 1.25,-0.416c0.833,-0 1.25,0.416 1.25,0.416l-2.5,0Zm1.667,0l-1.25,0l1.25,0Z" style="fill-rule:nonzero;"/></g><g><path d="M186.25,172.083c0,-0.416 0.417,-0.416 1.25,-0.416c0.833,-0 1.25,0.416 1.25,0.416l-2.5,0Zm1.667,0l-1.25,0l1.25,0Z" style="fill-rule:nonzero;"/></g></g><g><path d="M190,172.083l0,1.25l-17.083,0l-0,-1.25l17.083,0Zm-0.417,1.25l0,-0.833l-16.666,0l-0,0.833l16.666,0Z" style="fill-rule:nonzero;"/></g></g></g></g></g></svg>