<?xml version="1.0" encoding="UTF-8" standalone="no"?><!DOCTYPE svg PUBLIC "-//W3C//DTD SVG 1.1//EN" "http://www.w3.org/Graphics/SVG/1.1/DTD/svg11.dtd"><svg width="100%" height="100%" viewBox="0 0 563 438" version="1.1" xmlns="http://www.w3.org/2000/svg" xmlns:xlink="http://www.w3.org/1999/xlink" xml:space="preserve" xmlns:serif="http://www.serif.com/" style="fill-rule:evenodd;clip-rule:evenodd;stroke-linejoin:round;stroke-miterlimit:2;"><g><path d="M85,227.917c20.833,-29.167 43.333,-43.334 67.5,-43.334c22.083,0 41.25,9.584 57.917,28.334c16.25,18.75 24.583,44.583 24.583,77.5c0,38.333 -12.5,69.166 -37.917,92.5c-21.666,20 -45.833,30 -72.916,30c-12.5,-0 -25.417,-2.084 -38.334,-6.667c-12.916,-4.583 -26.25,-11.25 -39.583,-20.417l0,-222.916c0,-24.584 -0.417,-39.584 -1.667,-45c-1.25,-5.834 -2.916,-9.584 -5.416,-11.667c-2.5,-2.083 -5.834,-2.917 -9.584,-2.917c-4.583,0 -10,1.25 -16.25,3.75l-3.333,-8.333l64.583,-26.25l10.417,-0l0,155.417Zm-0,15l-0,128.75c7.917,7.916 16.25,13.75 24.583,17.916c8.334,4.167 17.084,5.834 26.25,5.834c14.167,-0 27.5,-7.917 40,-23.334c12.084,-15.833 18.334,-38.333 18.334,-68.333c-0,-27.5 -6.25,-48.75 -18.334,-63.333c-12.5,-15 -26.25,-22.084 -42.083,-22.084c-8.333,0 -16.667,2.084 -25,6.25c-6.25,2.5 -14.167,8.75 -23.75,18.334Z" style="fill-rule:nonzero;"/></g><path d="M367.917,185.833l3.75,0.834l-13.334,42.916l-122.5,0l0,-4.166l5.834,-0c6.666,-0 11.25,-2.084 14.166,-6.667c1.667,-2.5 2.5,-8.333 2.5,-17.083l0,-102.084c0,-10 -1.25,-15.833 -3.333,-18.333c-2.917,-3.333 -7.5,-5 -13.333,-5l-5.834,0l0,-4.167l71.667,0l0,4.167c-8.333,0 -14.167,0.833 -17.5,2.5c-3.333,1.667 -5.833,3.75 -7.083,6.25c-1.25,2.5 -1.667,8.333 -1.667,17.917l-0,99.166c-0,6.25 0.417,10.834 1.667,13.334c0.833,1.666 2.5,2.916 4.166,3.75c2.084,0.833 7.917,1.25 18.334,1.25l11.666,-0c12.084,-0 20.417,-0.834 25.417,-2.5c5,-1.667 9.167,-5 13.333,-9.584c3.75,-5.416 7.917,-12.5 12.084,-22.5" style="fill:#d60812;fill-rule:nonzero;"/><path d="M464.167,67.917c20.416,-0 38.333,7.916 53.333,23.333c15,15.417 22.5,35 22.5,58.333c0,24.167 -7.5,43.75 -22.917,59.584c-15.416,15.833 -33.333,23.75 -55,23.75c-21.666,-0 -40,-7.917 -55,-23.334c-15,-15.416 -22.083,-35.416 -22.083,-60c0,-25 8.75,-45.416 25.833,-61.25c14.584,-13.333 32.5,-20.416 53.334,-20.416m-2.5,8.75c-14.167,-0 -25.417,5.416 -34.167,15.833c-10.833,12.917 -15.833,32.083 -15.833,57.5c-0,25.833 5.416,45.833 16.666,59.583c8.334,10.417 19.584,15.834 33.75,15.834c15,-0 27.084,-5.834 36.667,-17.5c9.583,-11.667 14.583,-30 14.583,-54.584c0,-27.083 -5.416,-47.083 -15.833,-60.416c-8.75,-11.25 -20.833,-16.25 -35.833,-16.25" style="fill:#d60812;fill-rule:nonzero;"/><path d="M400.417,249.583l-0,4.584c-5.417,0.833 -10,2.916 -12.5,5.416c-4.167,3.75 -7.917,9.584 -10.834,17.5l-55,134.584l-4.166,-0l-59.167,-136.25c-2.917,-7.084 -5,-11.25 -6.25,-12.917c-2.083,-2.5 -4.167,-4.167 -7.083,-5.833c-2.917,-1.25 -6.667,-2.084 -11.667,-2.5l0,-4.167l64.583,0l0,4.167c-7.5,0.833 -12.083,2.083 -14.166,3.75c-2.084,1.666 -3.334,4.166 -3.334,6.666c0,3.75 1.667,10 5.417,18.334l40,92.5l37.083,-91.667c3.75,-9.167 5.417,-15.417 5.417,-18.75c0,-2.083 -1.25,-4.583 -3.333,-6.667c-2.084,-2.083 -6.25,-3.333 -11.25,-4.166c-0.417,-0 -1.25,-0 -2.084,-0.417l0,-4.167l48.334,0Z" style="fill:#d60812;fill-rule:nonzero;"/><path d="M453.333,258.75l0,62.5l34.584,0c9.166,0 15,-1.25 17.916,-4.167c4.167,-3.75 6.25,-10 6.667,-18.75l4.167,0l-0,55l-4.167,0c-1.25,-7.5 -2.083,-12.5 -3.333,-15c-1.25,-2.916 -3.75,-5 -6.667,-6.25c-3.333,-1.666 -7.917,-2.5 -14.583,-2.5l-34.584,0l0,52.084c0,7.083 0.417,11.25 0.834,12.916c0.416,1.667 1.666,2.917 3.333,3.75c1.667,0.834 4.583,1.25 8.75,1.25l26.667,0c8.75,0 15.416,-0.416 19.583,-1.666c4.167,-1.25 7.917,-3.75 11.667,-7.5c5,-5 9.583,-12.084 15,-21.667l4.583,0l-13.75,39.583l-121.667,0l0,-4.166l5.417,-0c3.75,-0 7.083,-0.834 10.417,-2.5c2.5,-1.25 4.166,-2.917 5,-5.417c0.833,-2.5 1.25,-7.5 1.25,-15.417l-0,-102.5c-0,-10 -0.834,-16.25 -2.917,-18.333c-2.917,-2.917 -7.5,-4.583 -14.167,-4.583l-5,-0l0,-4.167l121.667,0l1.667,34.583l-4.584,0c-1.666,-8.333 -3.333,-14.166 -5.416,-17.083c-2.084,-2.917 -5,-5.417 -8.75,-7.083c-2.917,-1.25 -8.75,-1.667 -16.25,-1.667l-43.334,0l0,-1.25Z" style="fill:#d60812;fill-rule:nonzero;"/><g><path d="M523.75,75.417l-3.333,-0l-0,8.333l-1.25,0l-0,-8.333l-2.917,-0l0,-0.834l7.5,0l0,0.834Zm6.667,6.666l2.916,-7.5l1.667,0l0,9.167l-0.833,-0l-0,-8.333l-3.334,8.333l-0.833,-0l-3.333,-8.333l-0,8.333l-0.834,-0l0,-9.167l1.667,0l2.917,7.5Z" style="fill:#d60812;fill-rule:nonzero;"/></g><g><g><path d="M216.667,222.917c-5.417,-0 -9.584,-2.917 -12.5,-8.75c-0.417,-1.25 -0.834,-2.5 -1.25,-3.75c-8.75,-5.417 -18.334,-7.917 -27.917,-7.5c-7.917,3.333 -15.833,3.75 -20.833,3.333l-13.75,0c-7.917,0 -14.584,-1.25 -19.167,-3.333c0,-0 -5,-1.25 -9.167,1.666c0,0.834 -0.416,1.667 -0.416,2.5l-0,0.834c-0,1.25 -0.417,2.5 -1.25,3.75c-3.75,5.416 -12.917,6.25 -16.667,6.25c-5.833,-0 -15,-0.834 -29.167,-5l-1.25,-0.417c-13.333,-3.333 -14.583,-14.583 -14.583,-18.75c0,-8.333 5.417,-13.75 7.5,-16.25c2.917,-3.75 8.333,-5.833 15.417,-6.25c-4.167,-0.417 -6.25,-3.333 -7.084,-5c-2.916,-6.25 -0.416,-14.167 2.084,-20c2.083,-5 6.25,-9.167 8.333,-11.667c0.417,-0.416 0.417,-0.416 0.833,-0.833c3.334,-9.583 21.667,-29.583 24.584,-30.833c-21.25,-19.584 -7.917,-35 -7.5,-35.834c0.416,-2.083 0.833,-3.75 1.666,-5.833c-0.833,-1.25 -1.666,-2.083 -2.5,-3.333c-0.416,-0.834 -0.833,-1.667 -1.25,-2.5c-0.833,-1.667 -1.25,-3.75 -1.25,-5.834l0,-0.833c0,-1.667 -0.416,-3.333 0,-5c0.417,-2.917 1.25,-6.25 2.917,-9.167c1.667,-2.916 3.333,-4.583 4.167,-5c0.833,-0.833 1.666,-1.25 2.083,-1.666c2.917,-2.084 5.833,-2.917 8.75,-2.5c1.667,-0 2.917,0.416 5,1.25c1.25,0.416 2.083,0.833 3.333,1.666c1.667,1.25 2.917,2.5 3.75,4.167c5.417,-3.333 14.584,-5.833 28.334,-0.833c0.416,-0 0.833,-0 1.25,-0.417c5,-1.25 9.583,0 12.916,2.917c3.75,-4.167 7.917,-5.834 12.917,-5.834c7.083,0.417 12.5,5.417 13.75,7.5c0.833,0.834 5.833,10.417 2.917,20.417c-1.667,4.583 -3.75,7.5 -5.417,8.75c0.417,0.833 0.417,2.083 0.833,2.917l0,0.833c9.584,6.667 7.5,17.917 7.084,20c-0.417,0.833 -0.834,1.25 -1.25,1.667c-1.25,4.166 -3.75,10.833 -9.584,14.166c1.667,0.834 3.334,1.667 4.584,2.5c1.666,0.834 2.916,2.084 4.166,3.334l0.834,0.833c0.833,0.833 5.833,6.25 7.5,8.75c2.083,0.833 13.333,5.417 17.916,14.583c0,0 0,0.417 0.417,0.417c2.083,0.833 3.333,2.917 3.75,3.75c2.083,3.333 2.917,7.5 2.5,11.667c0,1.25 -0.417,6.666 -0.833,8.75c-0.417,2.5 -0.834,4.583 -2.084,6.666c0,0.834 0.417,1.25 0.417,2.084c19.583,-5.417 28.333,7.5 29.583,9.166c1.667,2.5 0.834,4.584 0.417,5.834c2.083,3.75 2.917,8.75 2.083,10.833c-0.416,2.083 -2.5,7.917 -9.583,10.417l-0.417,-0c-1.666,3.75 -7.083,11.666 -15.833,16.25c-0.833,0.416 -1.667,0.416 -2.5,0.416l-0.833,0.417c-1.25,1.25 -3.334,2.5 -5.417,2.917c-1.667,-1.25 -2.5,-1.25 -3.333,-1.25Zm27.916,-21.25l0,-0Z" style="fill-rule:nonzero;"/></g><path d="M211.25,170.417c4.167,-4.584 6.25,-3.334 5.417,-0c-0,0.416 -10.417,11.666 -6.667,22.083c-0.417,-1.25 1.25,-16.667 13.75,-21.25c2.083,-0.833 23.333,-2.917 23.333,13.333c0,1.25 0.834,2.084 1.25,3.334c0.417,1.25 0.417,2.083 0,3.333c-0.416,0.833 -0.833,5.833 -9.583,7.083c-0.417,0 -0.417,0.417 -0.417,0.417c-0.416,0.833 -2.916,8.333 -11.666,14.167c-1.25,0.833 -2.5,0.833 -3.75,1.25c-0.417,-0 -2.5,0.833 -2.917,1.25c-1.25,0.416 -2.083,0.833 -3.333,1.25c-1.25,-0 -2.084,-0 -2.917,-0.834c-1.667,-1.25 -2.917,-2.5 -3.75,-4.166c-0.417,-0.834 -0.833,-2.084 -1.25,-3.334l0,-0.833c0,-0.417 -0.417,-0.833 -0.833,-1.25c-1.25,-0.833 -10,-10.417 -30.834,-11.25c-6.25,-0.417 -11.25,2.083 -13.333,3.333c-2.083,1.25 -21.667,0 -26.667,0c-5,0 -10,-1.666 -12.083,-2.5c-2.083,-0.833 -7.5,-1.25 -12.083,0.417c-2.084,0.833 -3.75,1.667 -5.417,2.917c-2.083,2.083 -0.833,9.166 -5.417,11.25c-7.916,3.75 -27.916,2.916 -42.5,-5.417c-1.25,-0.417 -5,-4.583 -5.833,-5.417c-2.083,-3.333 -1.25,-24.166 21.25,-23.333l2.083,0c10,1.25 17.917,12.5 18.334,12.917l0.416,-2.084c-2.083,-7.916 -7.916,-10.833 -12.083,-12.083c-2.917,-0.833 12.083,-3.75 13.333,-3.75c2.5,-0.833 2.084,-3.75 6.25,-6.25c16.25,-10 -7.5,-25.833 -5.833,-32.083c-9.167,6.666 14.167,17.916 2.917,27.5c-3.334,2.916 -6.25,4.583 -6.25,5c-3.334,5.416 -12.084,4.166 -12.084,4.166c-7.083,-0.416 -10,-5 -10.833,-5.416c-1.25,-0.417 -3.75,-4.584 -0.833,-12.5c0.833,-2.084 4.583,-10 10.833,-16.25c2.5,-12.5 20,-27.917 29.583,-30.417c1.25,-0.417 -15.833,-8.333 -15.833,-22.917c-0.833,-3.333 -0.417,-9.583 3.75,-12.083c0,-0.417 0.417,-0.417 0.417,-0.833c-0.417,-5.834 2.5,-10.834 2.5,-11.667c-1.25,-0.833 -3.75,-1.25 -4.584,-4.583c-3.75,-12.084 1.25,-17.917 2.084,-18.75c1.666,-2.5 3.75,-3.75 6.25,-4.167c2.916,-0.417 9.583,2.917 12.5,9.167c13.75,-11.667 28.333,-2.917 29.166,-3.334c12.084,-4.166 16.25,5 16.667,5c0.417,-1.25 2.917,-4.166 2.917,-4.166c10.416,-9.167 16.666,1.666 17.916,3.75c2.084,6.25 3.75,15 -5.833,18.75c-0.417,-0 -0.417,0.416 -0.833,0.416c0.416,0.834 0.833,2.084 1.25,2.917c0.416,0.833 0.833,1.667 0.833,2.5c0.417,1.25 0.833,2.083 1.25,3.333c0.417,0.834 0.417,1.667 0.833,2.917c0,0.417 6.25,4.167 5.834,10.833c-0,-0.416 -1.667,-1.25 -2.084,-1.666c2.5,7.083 -1.25,12.916 -3.333,15.833c0.417,-1.25 0.417,-2.5 0,-3.333c-1.25,5 -8.333,10.833 -8.75,11.25c-0.417,-0 -3.75,4.583 -2.5,4.166c0.833,0 4.583,-1.666 13.333,4.167c2.5,1.667 12.084,12.083 12.5,12.083c8.334,2.5 13.334,7.917 14.167,9.167c0.417,0.417 1.667,2.5 1.667,3.333c0.416,2.084 2.5,1.667 3.75,5.834c1.25,4.166 1.25,10 -0.834,17.083c-0.416,1.667 -0.833,5.417 -5,5c-0.416,-0 -2.916,0.833 -3.75,2.083c-3.333,5 -7.083,7.5 -12.916,4.584c-0.834,-0.417 -2.5,-2.084 -2.917,-2.917c0,-0.417 -12.083,-3.333 -8.75,-13.75c0,-0.417 7.5,-11.667 7.917,-12.917c-0,-0.833 0.416,-2.083 1.25,-3.75c-2.5,0 -13.334,12.084 -14.167,13.334c-2.083,3.75 -6.667,14.583 7.5,20.416c13.333,12.917 25,1.667 26.25,-1.666Z" style="fill:#fff;fill-rule:nonzero;"/><path d="M75.417,183.75c9.583,1.667 14.583,9.167 15,11.25c0.833,4.583 7.5,9.167 8.333,10.417c0.417,0.833 0.417,1.25 -0.417,1.666c-0.416,0.417 -11.666,5 -29.166,-2.916c-20.417,-9.584 -3.75,-22.5 6.25,-20.417Z" style="fill:#231f20;fill-rule:nonzero;"/><path d="M242.5,187.083c1.25,6.25 -4.167,8.75 -7.917,9.167c-0.833,0 -1.666,6.667 -6.666,10.833c-5.417,4.584 -14.584,5.417 -12.917,2.917c1.25,-2.083 2.083,-3.75 2.917,-5.417c0.833,-1.666 1.25,-3.333 1.666,-5.416c0.417,-1.667 0.417,-2.917 0.417,-4.584l0,-0.833c0.417,-2.083 1.667,-3.75 2.5,-6.25c1.667,-3.75 17.083,-16.25 20,-0.417Z" style="fill:#231f20;fill-rule:nonzero;"/><path d="M178.333,51.667c1.667,-5 -3.333,-5.834 -3.75,-5.834c-1.666,0 -4.583,0.834 -4.166,5.834c-3.75,-4.584 -0.834,-6.667 -0.417,-7.084c2.917,-2.916 6.25,-2.083 7.5,-1.666c5.417,2.083 4.583,6.25 3.75,8.333c-0.833,2.083 -4.167,4.167 -2.917,0.417Z" style="fill:#231f20;fill-rule:nonzero;"/><path d="M101.25,52.083c-0,-0.416 -0.417,-0.416 -0.417,-0.833c-0.416,-2.083 -0.833,-5.417 0,-8.333c0.834,-2.917 4.584,-3.75 7.084,-2.917c2.5,1.25 2.916,3.333 3.333,4.583l-0,0.834c0,-0 -10,-8.334 -10,6.666Z" style="fill:#231f20;fill-rule:nonzero;"/></g><g><ellipse cx="128.75" cy="65.417" rx="4.167" ry="5.417" style="fill:#231f20;"/><g><path d="M129.583,62.5c-0.416,-0.417 -0.416,-0.417 -0.833,-0.417c-1.25,0 -2.5,1.667 -2.5,3.75c1.667,-0.833 2.917,-2.083 3.333,-3.333Z" style="fill:#fff;fill-rule:nonzero;"/></g></g><g><ellipse cx="154.583" cy="65" rx="4.167" ry="5.417" style="fill:#231f20;"/><g><path d="M155.417,61.667c-0.417,-0.417 -0.417,-0.417 -0.834,-0.417c-1.25,0 -2.5,1.667 -2.5,3.75c1.667,-0.833 2.917,-1.667 3.334,-3.333Z" style="fill:#fff;fill-rule:nonzero;"/></g></g><path d="M112.083,92.917c-0.416,-9.167 7.917,-22.084 32.084,-22.084c20.416,0 28.75,13.334 28.333,17.917c-1.25,12.917 -18.75,18.75 -32.083,19.583c-13.75,1.25 -27.917,-6.25 -28.334,-15.416Z" style="fill:#231f20;fill-rule:nonzero;"/><path d="M115.417,91.667c-0.417,-8.334 7.083,-19.584 28.75,-19.584c18.333,0 25.833,12.084 25.416,16.25c-1.25,11.667 -17.083,16.667 -28.75,17.5c-12.5,1.25 -25,-5.833 -25.416,-14.166Z" style="fill:#fff;fill-rule:nonzero;"/><path d="M155.833,82.083c0,-5 -4.166,-8.333 -13.75,-8.333c-11.25,0 -15.833,4.167 -15.833,8.333c0.417,4.167 4.583,9.167 13.75,8.334c0.417,0.416 15.833,-0 15.833,-8.334Z" style="fill:#231f20;fill-rule:nonzero;"/><g><path d="M149.583,78.333c-1.666,-1.25 -4.583,-1.666 -7.916,-1.666c-7.917,-0 -11.25,2.5 -12.084,5.416c2.084,-2.083 7.084,-4.166 15.834,-4.166c1.666,-0 2.916,-0 4.166,0.416Z" style="fill:#fff;fill-rule:nonzero;"/></g><path d="M157.5,155c0.417,-0.417 20.417,-7.5 20.833,-22.083c0.417,-4.167 -0.416,-16.667 -12.083,-16.667c-5.417,-0 -8.75,3.333 -10,5.417c-0.833,1.25 -3.75,-6.25 -12.083,-4.584c-8.334,1.667 -9.584,12.084 -8.75,17.084c0.833,5 7.083,15 22.083,20.833" style="fill:#d60812;fill-rule:nonzero;"/><path d="M139.583,89.167c0.417,5 0,7.916 0,9.166c0,1.25 0.834,1.667 1.667,0c0.833,-1.666 0.833,-5.833 1.25,-9.166c0,-3.334 -2.917,-0 -2.917,-0Z" style="fill-rule:nonzero;"/><g><g><path d="M216.667,222.917c-5.417,-0 -9.584,-2.917 -12.5,-8.75c-0.417,-1.25 -0.834,-2.5 -1.25,-3.75c-8.75,-5.417 -18.334,-7.917 -27.917,-7.5c-7.917,3.333 -15.833,3.75 -20.833,3.333l-13.75,0c-7.917,0 -14.584,-1.25 -19.167,-3.333c0,-0 -5,-1.25 -9.167,1.666c0,0.834 -0.416,1.667 -0.416,2.5l-0,0.834c-0,1.25 -0.417,2.5 -1.25,3.75c-3.75,5.416 -12.917,6.25 -16.667,6.25c-5.833,-0 -15,-0.834 -29.167,-5l-1.25,-0.417c-13.333,-3.333 -14.583,-14.583 -14.583,-18.75c0,-8.333 5.417,-13.75 7.5,-16.25c2.917,-3.75 8.333,-5.833 15.417,-6.25c-4.167,-0.417 -6.25,-3.333 -7.084,-5c-2.916,-6.25 -0.416,-14.167 2.084,-20c2.083,-5 6.25,-9.167 8.333,-11.667c0.417,-0.416 0.417,-0.416 0.833,-0.833c3.334,-9.583 21.667,-29.583 24.584,-30.833c-21.25,-19.584 -7.917,-35 -7.5,-35.834c0.416,-2.083 0.833,-3.75 1.666,-5.833c-0.833,-1.25 -1.666,-2.083 -2.5,-3.333c-0.416,-0.834 -0.833,-1.667 -1.25,-2.5c-0.833,-1.667 -1.25,-3.75 -1.25,-5.834l0,-0.833c0,-1.667 -0.416,-3.333 0,-5c0.417,-2.917 1.25,-6.25 2.917,-9.167c1.667,-2.916 3.333,-4.583 4.167,-5c0.833,-0.833 1.666,-1.25 2.083,-1.666c2.917,-2.084 5.833,-2.917 8.75,-2.5c1.667,-0 2.917,0.416 5,1.25c1.25,0.416 2.083,0.833 3.333,1.666c1.667,1.25 2.917,2.5 3.75,4.167c5.417,-3.333 14.584,-5.833 28.334,-0.833c0.416,-0 0.833,-0 1.25,-0.417c5,-1.25 9.583,0 12.916,2.917c3.75,-4.167 7.917,-5.834 12.917,-5.834c7.083,0.417 12.5,5.417 13.75,7.5c0.833,0.834 5.833,10.417 2.917,20.417c-1.667,4.583 -3.75,7.5 -5.417,8.75c0.417,0.833 0.417,2.083 0.833,2.917l0,0.833c9.584,6.667 7.5,17.917 7.084,20c-0.417,0.833 -0.834,1.25 -1.25,1.667c-1.25,4.166 -3.75,10.833 -9.584,14.166c1.667,0.834 3.334,1.667 4.584,2.5c1.666,0.834 2.916,2.084 4.166,3.334l0.834,0.833c0.833,0.833 5.833,6.25 7.5,8.75c2.083,0.833 13.333,5.417 17.916,14.583c0,0 0,0.417 0.417,0.417c2.083,0.833 3.333,2.917 3.75,3.75c2.083,3.333 2.917,7.5 2.5,11.667c0,1.25 -0.417,6.666 -0.833,8.75c-0.417,2.5 -0.834,4.583 -2.084,6.666c0,0.834 0.417,1.25 0.417,2.084c19.583,-5.417 28.333,7.5 29.583,9.166c1.667,2.5 0.834,4.584 0.417,5.834c2.083,3.75 2.917,8.75 2.083,10.833c-0.416,2.083 -2.5,7.917 -9.583,10.417l-0.417,-0c-1.666,3.75 -7.083,11.666 -15.833,16.25c-0.833,0.416 -1.667,0.416 -2.5,0.416l-0.833,0.417c-1.25,1.25 -3.334,2.5 -5.417,2.917c-1.667,-1.25 -2.5,-1.25 -3.333,-1.25Zm27.916,-21.25l0,-0Z" style="fill-rule:nonzero;"/></g><path d="M211.25,170.417c4.167,-4.584 6.25,-3.334 5.417,-0c-0,0.416 -10.417,11.666 -6.667,22.083c-0.417,-1.25 1.25,-16.667 13.75,-21.25c2.083,-0.833 23.333,-2.917 23.333,13.333c0,1.25 0.834,2.084 1.25,3.334c0.417,1.25 0.417,2.083 0,3.333c-0.416,0.833 -0.833,5.833 -9.583,7.083c-0.417,0 -0.417,0.417 -0.417,0.417c-0.416,0.833 -2.916,8.333 -11.666,14.167c-1.25,0.833 -2.5,0.833 -3.75,1.25c-0.417,-0 -2.5,0.833 -2.917,1.25c-1.25,0.416 -2.083,0.833 -3.333,1.25c-1.25,-0 -2.084,-0 -2.917,-0.834c-1.667,-1.25 -2.917,-2.5 -3.75,-4.166c-0.417,-0.834 -0.833,-2.084 -1.25,-3.334l0,-0.833c0,-0.417 -0.417,-0.833 -0.833,-1.25c-1.25,-0.833 -10,-10.417 -30.834,-11.25c-6.25,-0.417 -11.25,2.083 -13.333,3.333c-2.083,1.25 -21.667,0 -26.667,0c-5,0 -10,-1.666 -12.083,-2.5c-2.083,-0.833 -7.5,-1.25 -12.083,0.417c-2.084,0.833 -3.75,1.667 -5.417,2.917c-2.083,2.083 -0.833,9.166 -5.417,11.25c-7.916,3.75 -27.916,2.916 -42.5,-5.417c-1.25,-0.417 -5,-4.583 -5.833,-5.417c-2.083,-3.333 -1.25,-24.166 21.25,-23.333l2.083,0c10,1.25 17.917,12.5 18.334,12.917l0.416,-2.084c-2.083,-7.916 -7.916,-10.833 -12.083,-12.083c-2.917,-0.833 12.083,-3.75 13.333,-3.75c2.5,-0.833 2.084,-3.75 6.25,-6.25c16.25,-10 -7.5,-25.833 -5.833,-32.083c-9.167,6.666 14.167,17.916 2.917,27.5c-3.334,2.916 -6.25,4.583 -6.25,5c-3.334,5.416 -12.084,4.166 -12.084,4.166c-7.083,-0.416 -10,-5 -10.833,-5.416c-1.25,-0.417 -3.75,-4.584 -0.833,-12.5c0.833,-2.084 4.583,-10 10.833,-16.25c2.5,-12.5 20,-27.917 29.583,-30.417c1.25,-0.417 -15.833,-8.333 -15.833,-22.917c-0.833,-3.333 -0.417,-9.583 3.75,-12.083c0,-0.417 0.417,-0.417 0.417,-0.833c-0.417,-5.834 2.5,-10.834 2.5,-11.667c-1.25,-0.833 -3.75,-1.25 -4.584,-4.583c-3.75,-12.084 1.25,-17.917 2.084,-18.75c1.666,-2.5 3.75,-3.75 6.25,-4.167c2.916,-0.417 9.583,2.917 12.5,9.167c13.75,-11.667 28.333,-2.917 29.166,-3.334c12.084,-4.166 16.25,5 16.667,5c0.417,-1.25 2.917,-4.166 2.917,-4.166c10.416,-9.167 16.666,1.666 17.916,3.75c2.084,6.25 3.75,15 -5.833,18.75c-0.417,-0 -0.417,0.416 -0.833,0.416c0.416,0.834 0.833,2.084 1.25,2.917c0.416,0.833 0.833,1.667 0.833,2.5c0.417,1.25 0.833,2.083 1.25,3.333c0.417,0.834 0.417,1.667 0.833,2.917c0,0.417 6.25,4.167 5.834,10.833c-0,-0.416 -1.667,-1.25 -2.084,-1.666c2.5,7.083 -1.25,12.916 -3.333,15.833c0.417,-1.25 0.417,-2.5 0,-3.333c-1.25,5 -8.333,10.833 -8.75,11.25c-0.417,-0 -3.75,4.583 -2.5,4.166c0.833,0 4.583,-1.666 13.333,4.167c2.5,1.667 12.084,12.083 12.5,12.083c8.334,2.5 13.334,7.917 14.167,9.167c0.417,0.417 1.667,2.5 1.667,3.333c0.416,2.084 2.5,1.667 3.75,5.834c1.25,4.166 1.25,10 -0.834,17.083c-0.416,1.667 -0.833,5.417 -5,5c-0.416,-0 -2.916,0.833 -3.75,2.083c-3.333,5 -7.083,7.5 -12.916,4.584c-0.834,-0.417 -2.5,-2.084 -2.917,-2.917c0,-0.417 -12.083,-3.333 -8.75,-13.75c0,-0.417 7.5,-11.667 7.917,-12.917c-0,-0.833 0.416,-2.083 1.25,-3.75c-2.5,0 -13.334,12.084 -14.167,13.334c-2.083,3.75 -6.667,14.583 7.5,20.416c13.333,12.917 25,1.667 26.25,-1.666Z" style="fill:#fff;fill-rule:nonzero;"/><path d="M75.417,183.75c9.583,1.667 14.583,9.167 15,11.25c0.833,4.583 7.5,9.167 8.333,10.417c0.417,0.833 0.417,1.25 -0.417,1.666c-0.416,0.417 -11.666,5 -29.166,-2.916c-20.417,-9.584 -3.75,-22.5 6.25,-20.417Z" style="fill:#231f20;fill-rule:nonzero;"/><path d="M242.5,187.083c1.25,6.25 -4.167,8.75 -7.917,9.167c-0.833,0 -1.666,6.667 -6.666,10.833c-5.417,4.584 -14.584,5.417 -12.917,2.917c1.25,-2.083 2.083,-3.75 2.917,-5.417c0.833,-1.666 1.25,-3.333 1.666,-5.416c0.417,-1.667 0.417,-2.917 0.417,-4.584l0,-0.833c0.417,-2.083 1.667,-3.75 2.5,-6.25c1.667,-3.75 17.083,-16.25 20,-0.417Z" style="fill:#231f20;fill-rule:nonzero;"/></g><g><ellipse cx="128.75" cy="65.417" rx="4.167" ry="5.417" style="fill:#231f20;"/><g><path d="M129.583,62.5c-0.416,-0.417 -0.416,-0.417 -0.833,-0.417c-1.25,0 -2.5,1.667 -2.5,3.75c1.667,-0.833 2.917,-2.083 3.333,-3.333Z" style="fill:#fff;fill-rule:nonzero;"/></g></g><g><ellipse cx="154.583" cy="65" rx="4.167" ry="5.417" style="fill:#231f20;"/><g><path d="M155.417,61.667c-0.417,-0.417 -0.417,-0.417 -0.834,-0.417c-1.25,0 -2.5,1.667 -2.5,3.75c1.667,-0.833 2.917,-1.667 3.334,-3.333Z" style="fill:#fff;fill-rule:nonzero;"/></g></g><path d="M112.083,92.917c-0.416,-9.167 7.917,-22.084 32.084,-22.084c20.416,0 28.75,13.334 28.333,17.917c-1.25,12.917 -18.75,18.75 -32.083,19.583c-13.75,1.25 -27.917,-6.25 -28.334,-15.416Z" style="fill:#231f20;fill-rule:nonzero;"/><path d="M115.417,91.667c-0.417,-8.334 7.083,-19.584 28.75,-19.584c18.333,0 25.833,12.084 25.416,16.25c-1.25,11.667 -17.083,16.667 -28.75,17.5c-12.5,1.25 -25,-5.833 -25.416,-14.166Z" style="fill:#fff;fill-rule:nonzero;"/><path d="M155.833,82.083c0,-5 -4.166,-8.333 -13.75,-8.333c-11.25,0 -15.833,4.167 -15.833,8.333c0.417,4.167 4.583,9.167 13.75,8.334c0.417,0.416 15.833,-0 15.833,-8.334Z" style="fill:#231f20;fill-rule:nonzero;"/><g><path d="M149.583,78.333c-1.666,-1.25 -4.583,-1.666 -7.916,-1.666c-7.917,-0 -11.25,2.5 -12.084,5.416c2.084,-2.083 7.084,-4.166 15.834,-4.166c1.666,-0 2.916,-0 4.166,0.416Z" style="fill:#fff;fill-rule:nonzero;"/></g><path d="M157.5,155c0.417,-0.417 20.417,-7.5 20.833,-22.083c0.417,-4.167 -0.416,-16.667 -12.083,-16.667c-5.417,-0 -8.75,3.333 -10,5.417c-0.833,1.25 -3.75,-6.25 -12.083,-4.584c-8.334,1.667 -9.584,12.084 -8.75,17.084c0.833,5 7.083,15 22.083,20.833" style="fill:#d60812;fill-rule:nonzero;"/><path d="M139.583,89.167c0.417,5 0,7.916 0,9.166c0,1.25 0.834,1.667 1.667,0c0.833,-1.666 0.833,-5.833 1.25,-9.166c0,-3.334 -2.917,-0 -2.917,-0Z" style="fill-rule:nonzero;"/><path d="M101.25,58.75c-1.25,-0.833 -3.75,-1.25 -4.583,-4.583c-3.75,-12.084 1.25,-17.917 2.083,-18.75c1.667,-2.5 3.75,-3.75 6.25,-4.167c2.917,-0.417 9.583,2.917 12.5,9.167c-11.25,8.75 -16.25,18.333 -16.25,18.333Z" style="fill:#e7c18c;fill-rule:nonzero;"/><path d="M163.333,41.25c0.417,-1.25 2.917,-4.167 2.917,-4.167c10.417,-9.166 16.667,1.667 17.917,3.75c2.083,6.25 3.75,15 -5.834,18.75c-0.416,0 -1.25,0 -0.833,0.417c-9.583,-13.333 -14.167,-18.75 -14.167,-18.75Z" style="fill:#e7c18c;fill-rule:nonzero;"/><path d="M178.333,50c1.667,-5 -3.333,-5.833 -3.75,-5.833c-1.666,-0 -4.583,0.833 -4.166,5.833c-3.75,-4.583 -0.834,-6.667 -0.417,-7.083c2.917,-2.917 6.25,-2.084 7.5,-1.667c5.417,2.083 4.583,6.25 3.75,8.333c-0.833,2.084 -4.167,4.584 -2.917,0.417Z" style="fill:#231f20;fill-rule:nonzero;"/><path d="M101.25,51.667c-0,-0.417 -0.417,-0.417 -0.417,-0.834c-0.416,-2.083 -0.833,-5.416 0,-8.333c0.834,-2.917 4.584,-3.75 7.084,-2.917c2.5,1.25 2.916,3.334 3.333,4.584l-0,0.833c0,0 -10,-8.75 -10,6.667Z" style="fill:#231f20;fill-rule:nonzero;"/><g><g><path d="M216.667,222.917c-5.417,-0 -9.584,-2.917 -12.5,-8.75c-0.417,-1.25 -0.834,-2.5 -1.25,-3.75c-8.75,-5.417 -18.334,-7.917 -27.917,-7.5c-7.917,3.333 -15.833,3.75 -20.833,3.333l-13.75,0c-7.917,0 -14.584,-1.25 -19.167,-3.333c0,-0 -5,-1.25 -9.167,1.666c0,0.834 -0.416,1.667 -0.416,2.5l-0,0.834c-0,1.25 -0.417,2.5 -1.25,3.75c-3.75,5.416 -12.917,6.25 -16.667,6.25c-5.833,-0 -15,-0.834 -29.167,-5l-1.25,-0.417c-13.333,-3.333 -14.583,-14.583 -14.583,-18.75c0,-8.333 5.417,-13.75 7.5,-16.25c2.917,-3.75 8.333,-5.833 15.417,-6.25c-4.167,-0.417 -6.25,-3.333 -7.084,-5c-2.916,-6.25 -0.416,-14.167 2.084,-20c2.083,-5 6.25,-9.167 8.333,-11.667c0.417,-0.416 0.417,-0.416 0.833,-0.833c3.334,-9.583 21.667,-29.583 24.584,-30.833c-21.25,-19.584 -7.917,-35 -7.5,-35.834c0.416,-2.083 0.833,-3.75 1.666,-5.833c-0.833,-1.25 -1.666,-2.083 -2.5,-3.333c-0.416,-0.834 -0.833,-1.667 -1.25,-2.5c-0.833,-1.667 -1.25,-3.75 -1.25,-5.834l0,-0.833c0,-1.667 -0.416,-3.333 0,-5c0.417,-2.917 1.25,-6.25 2.917,-9.167c1.667,-2.916 3.333,-4.583 4.167,-5c0.833,-0.833 1.666,-1.25 2.083,-1.666c2.917,-2.084 5.833,-2.917 8.75,-2.5c1.667,-0 2.917,0.416 5,1.25c1.25,0.416 2.083,0.833 3.333,1.666c1.667,1.25 2.917,2.5 3.75,4.167c5.417,-3.333 14.584,-5.833 28.334,-0.833c0.416,-0 0.833,-0 1.25,-0.417c5,-1.25 9.583,0 12.916,2.917c3.75,-4.167 7.917,-5.834 12.917,-5.834c7.083,0.417 12.5,5.417 13.75,7.5c0.833,0.834 5.833,10.417 2.917,20.417c-1.667,4.583 -3.75,7.5 -5.417,8.75c0.417,0.833 0.417,2.083 0.833,2.917l0,0.833c9.584,6.667 7.5,17.917 7.084,20c-0.417,0.833 -0.834,1.25 -1.25,1.667c-1.25,4.166 -3.75,10.833 -9.584,14.166c1.667,0.834 3.334,1.667 4.584,2.5c1.666,0.834 2.916,2.084 4.166,3.334l0.834,0.833c0.833,0.833 5.833,6.25 7.5,8.75c2.083,0.833 13.333,5.417 17.916,14.583c0,0 0,0.417 0.417,0.417c2.083,0.833 3.333,2.917 3.75,3.75c2.083,3.333 2.917,7.5 2.5,11.667c0,1.25 -0.417,6.666 -0.833,8.75c-0.417,2.5 -0.834,4.583 -2.084,6.666c0,0.834 0.417,1.25 0.417,2.084c19.583,-5.417 28.333,7.5 29.583,9.166c1.667,2.5 0.834,4.584 0.417,5.834c2.083,3.75 2.917,8.75 2.083,10.833c-0.416,2.083 -2.5,7.917 -9.583,10.417l-0.417,-0c-1.666,3.75 -7.083,11.666 -15.833,16.25c-0.833,0.416 -1.667,0.416 -2.5,0.416l-0.833,0.417c-1.25,1.25 -3.334,2.5 -5.417,2.917c-1.667,-1.25 -2.5,-1.25 -3.333,-1.25Zm27.916,-21.25l0,-0Z" style="fill-rule:nonzero;"/></g><path d="M211.25,170.417c4.167,-4.584 6.25,-3.334 5.417,-0c-0,0.416 -10.417,11.666 -6.667,22.083c-0.417,-1.25 1.25,-16.667 13.75,-21.25c2.083,-0.833 23.333,-2.917 23.333,13.333c0,1.25 0.834,2.084 1.25,3.334c0.417,1.25 0.417,2.083 0,3.333c-0.416,0.833 -0.833,5.833 -9.583,7.083c-0.417,0 -0.417,0.417 -0.417,0.417c-0.416,0.833 -2.916,8.333 -11.666,14.167c-1.25,0.833 -2.5,0.833 -3.75,1.25c-0.417,-0 -2.5,0.833 -2.917,1.25c-1.25,0.416 -2.083,0.833 -3.333,1.25c-1.25,-0 -2.084,-0 -2.917,-0.834c-1.667,-1.25 -2.917,-2.5 -3.75,-4.166c-0.417,-0.834 -0.833,-2.084 -1.25,-3.334l0,-0.833c0,-0.417 -0.417,-0.833 -0.833,-1.25c-1.25,-0.833 -10,-10.417 -30.834,-11.25c-6.25,-0.417 -11.25,2.083 -13.333,3.333c-2.083,1.25 -21.667,0 -26.667,0c-5,0 -10,-1.666 -12.083,-2.5c-2.083,-0.833 -7.5,-1.25 -12.083,0.417c-2.084,0.833 -3.75,1.667 -5.417,2.917c-2.083,2.083 -0.833,9.166 -5.417,11.25c-7.916,3.75 -27.916,2.916 -42.5,-5.417c-1.25,-0.417 -5,-4.583 -5.833,-5.417c-2.083,-3.333 -1.25,-24.166 21.25,-23.333l2.083,0c10,1.25 17.917,12.5 18.334,12.917l0.416,-2.084c-2.083,-7.916 -7.916,-10.833 -12.083,-12.083c-2.917,-0.833 12.083,-3.75 13.333,-3.75c2.5,-0.833 2.084,-3.75 6.25,-6.25c16.25,-10 -7.5,-25.833 -5.833,-32.083c-9.167,6.666 14.167,17.916 2.917,27.5c-3.334,2.916 -6.25,4.583 -6.25,5c-3.334,5.416 -12.084,4.166 -12.084,4.166c-7.083,-0.416 -10,-5 -10.833,-5.416c-1.25,-0.417 -3.75,-4.584 -0.833,-12.5c0.833,-2.084 4.583,-10 10.833,-16.25c2.5,-12.5 20,-27.917 29.583,-30.417c1.25,-0.417 -15.833,-8.333 -15.833,-22.917c-0.833,-3.333 -0.417,-9.583 3.75,-12.083c0,-0.417 0.417,-0.417 0.417,-0.833c-0.417,-5.834 2.5,-10.834 2.5,-11.667c-1.25,-0.833 -3.75,-1.25 -4.584,-4.583c-3.75,-12.084 1.25,-17.917 2.084,-18.75c1.666,-2.5 3.75,-3.75 6.25,-4.167c2.916,-0.417 9.583,2.917 12.5,9.167c13.75,-11.667 28.333,-2.917 29.166,-3.334c12.084,-4.166 16.25,5 16.667,5c0.417,-1.25 2.917,-4.166 2.917,-4.166c10.416,-9.167 16.666,1.666 17.916,3.75c2.084,6.25 3.75,15 -5.833,18.75c-0.417,-0 -0.417,0.416 -0.833,0.416c0.416,0.834 0.833,2.084 1.25,2.917c0.416,0.833 0.833,1.667 0.833,2.5c0.417,1.25 0.833,2.083 1.25,3.333c0.417,0.834 0.417,1.667 0.833,2.917c0,0.417 6.25,4.167 5.834,10.833c-0,-0.416 -1.667,-1.25 -2.084,-1.666c2.5,7.083 -1.25,12.916 -3.333,15.833c0.417,-1.25 0.417,-2.5 0,-3.333c-1.25,5 -8.333,10.833 -8.75,11.25c-0.417,-0 -3.75,4.583 -2.5,4.166c0.833,0 4.583,-1.666 13.333,4.167c2.5,1.667 12.084,12.083 12.5,12.083c8.334,2.5 13.334,7.917 14.167,9.167c0.417,0.417 1.667,2.5 1.667,3.333c0.416,2.084 2.5,1.667 3.75,5.834c1.25,4.166 1.25,10 -0.834,17.083c-0.416,1.667 -0.833,5.417 -5,5c-0.416,-0 -2.916,0.833 -3.75,2.083c-3.333,5 -7.083,7.5 -12.916,4.584c-0.834,-0.417 -2.5,-2.084 -2.917,-2.917c0,-0.417 -12.083,-3.333 -8.75,-13.75c0,-0.417 7.5,-11.667 7.917,-12.917c-0,-0.833 0.416,-2.083 1.25,-3.75c-2.5,0 -13.334,12.084 -14.167,13.334c-2.083,3.75 -6.667,14.583 7.5,20.416c13.333,12.917 25,1.667 26.25,-1.666Z" style="fill:#e7c18c;fill-rule:nonzero;"/><path d="M75.417,183.75c9.583,1.667 14.583,9.167 15,11.25c0.833,4.583 7.5,9.167 8.333,10.417c0.417,0.833 0.417,1.25 -0.417,1.666c-0.416,0.417 -11.666,5 -29.166,-2.916c-20.417,-9.584 -3.75,-22.5 6.25,-20.417Z" style="fill:#fff;fill-rule:nonzero;"/><path d="M242.5,187.083c1.25,6.25 -4.167,8.75 -7.917,9.167c-0.833,0 -1.666,6.667 -6.666,10.833c-5.417,4.584 -14.584,5.417 -12.917,2.917c1.25,-2.083 2.083,-3.75 2.917,-5.417c0.833,-1.666 1.25,-3.333 1.666,-5.416c0.417,-1.667 0.417,-2.917 0.417,-4.584l0,-0.833c0.417,-2.083 1.667,-3.75 2.5,-6.25c1.667,-3.75 17.083,-16.25 20,-0.417Z" style="fill:#fff;fill-rule:nonzero;"/></g><g><ellipse cx="128.75" cy="65.417" rx="4.167" ry="5.417" style="fill:#231f20;"/><g><path d="M129.583,62.5c-0.416,-0.417 -0.416,-0.417 -0.833,-0.417c-1.25,0 -2.5,1.667 -2.5,3.75c1.667,-0.833 2.917,-2.083 3.333,-3.333Z" style="fill:#fff;fill-rule:nonzero;"/></g></g><g><ellipse cx="154.583" cy="65" rx="4.167" ry="5.417" style="fill:#231f20;"/><g><path d="M155.417,61.667c-0.417,-0.417 -0.417,-0.417 -0.834,-0.417c-1.25,0 -2.5,1.667 -2.5,3.75c1.667,-0.833 2.917,-1.667 3.334,-3.333Z" style="fill:#fff;fill-rule:nonzero;"/></g></g><path d="M112.083,92.917c-0.416,-9.167 7.917,-22.084 32.084,-22.084c20.416,0 28.75,13.334 28.333,17.917c-1.25,12.917 -18.75,18.75 -32.083,19.583c-13.75,1.25 -27.917,-6.25 -28.334,-15.416Z" style="fill:#fff;fill-rule:nonzero;"/><path d="M155.833,82.083c0,-5 -4.166,-8.333 -13.75,-8.333c-11.25,0 -15.833,4.167 -15.833,8.333c0.417,4.167 4.583,9.167 13.75,8.334c0.417,0.416 15.833,-0 15.833,-8.334Z" style="fill:#231f20;fill-rule:nonzero;"/><g><path d="M149.583,78.333c-1.666,-1.25 -4.583,-1.666 -7.916,-1.666c-7.917,-0 -11.25,2.5 -12.084,5.416c2.084,-2.083 7.084,-4.166 15.834,-4.166c1.666,-0 2.916,-0 4.166,0.416Z" style="fill:#fff;fill-rule:nonzero;"/></g><path d="M157.5,155c0.417,-0.417 20.417,-7.5 20.833,-22.083c0.417,-4.167 -0.416,-16.667 -12.083,-16.667c-5.417,-0 -8.75,3.333 -10,5.417c-0.833,1.25 -3.75,-6.25 -12.083,-4.584c-8.334,1.667 -9.584,12.084 -8.75,17.084c0.833,5 7.083,15 22.083,20.833" style="fill:#d60812;fill-rule:nonzero;"/><path d="M139.583,89.167c0.417,5 0,7.916 0,9.166c0,1.25 0.834,1.667 1.667,0c0.833,-1.666 0.833,-5.833 1.25,-9.166c0,-3.334 -2.917,-0 -2.917,-0Z" style="fill-rule:nonzero;"/><path d="M101.25,58.75c-1.25,-0.833 -3.75,-1.25 -4.583,-4.583c-3.75,-12.084 1.25,-17.917 2.083,-18.75c1.667,-2.5 3.75,-3.75 6.25,-4.167c2.917,-0.417 9.583,2.917 12.5,9.167c-11.25,8.75 -16.25,18.333 -16.25,18.333Z" style="fill:#e7c18c;fill-rule:nonzero;"/><path d="M163.333,41.25c0.417,-1.25 2.917,-4.167 2.917,-4.167c10.417,-9.166 16.667,1.667 17.917,3.75c2.083,6.25 3.75,15 -5.834,18.75c-0.416,0 -1.25,0 -0.833,0.417c-9.583,-13.333 -14.167,-18.75 -14.167,-18.75Z" style="fill:#e7c18c;fill-rule:nonzero;"/><path d="M178.333,50c1.667,-5 -3.333,-5.833 -3.75,-5.833c-1.666,-0 -4.583,0.833 -4.166,5.833c-3.75,-4.583 -0.834,-6.667 -0.417,-7.083c2.917,-2.917 6.25,-2.084 7.5,-1.667c5.417,2.083 4.583,6.25 3.75,8.333c-0.833,2.084 -4.167,4.584 -2.917,0.417Z" style="fill:#231f20;fill-rule:nonzero;"/><path d="M101.25,51.667c-0,-0.417 -0.417,-0.417 -0.417,-0.834c-0.416,-2.083 -0.833,-5.416 0,-8.333c0.834,-2.917 4.584,-3.75 7.084,-2.917c2.5,1.25 2.916,3.334 3.333,4.584l-0,0.833c0,0 -10,-8.75 -10,6.667Z" style="fill:#231f20;fill-rule:nonzero;"/></svg>