<?xml version="1.0" encoding="UTF-8" standalone="no"?><!DOCTYPE svg PUBLIC "-//W3C//DTD SVG 1.1//EN" "http://www.w3.org/Graphics/SVG/1.1/DTD/svg11.dtd"><svg width="100%" height="100%" viewBox="0 0 221 196" version="1.1" xmlns="http://www.w3.org/2000/svg" xmlns:xlink="http://www.w3.org/1999/xlink" xml:space="preserve" xmlns:serif="http://www.serif.com/" style="fill-rule:evenodd;clip-rule:evenodd;stroke-miterlimit:10;"><path d="M112.083,182.5c2.084,-2.5 90,-33.75 93.334,-97.5c0.833,-19.583 -2.084,-73.75 -53.75,-73.333c-24.167,0.416 -38.334,15 -43.75,23.75c-3.75,5.833 -17.5,-28.334 -52.917,-20.834c-36.25,7.917 -42.083,53.334 -40,76.25c2.083,22.917 29.167,66.667 97.083,91.667" style="fill:#d60812;fill-rule:nonzero;"/><g><path d="M29.583,100c-1.666,-1.25 -3.333,-2.5 -4.166,-4.167c-1.25,-1.666 -1.667,-3.75 -1.667,-5.833c0,-2.083 0.417,-4.167 1.667,-5.833c1.25,-1.667 2.5,-3.334 4.166,-4.167c1.667,-1.25 3.75,-1.667 5.834,-1.667c1.666,0 2.916,0.417 4.583,0.834c1.25,0.416 2.5,1.666 3.75,2.5l-1.667,1.666c-0.833,-0.833 -2.083,-1.666 -2.916,-2.083c-0.834,-0.417 -2.5,-0.833 -3.75,-0.833c-1.667,-0 -3.334,0.416 -4.584,1.25c-1.666,0.833 -2.5,2.083 -3.333,3.75c-0.833,1.666 -1.25,3.333 -1.25,5c-0,1.666 0.417,3.333 1.25,5c0.833,1.666 2.083,2.916 3.333,3.75c1.25,0.833 2.917,1.25 4.584,1.25c1.25,-0 2.5,-0.417 3.75,-0.834c1.25,-0.416 2.083,-1.25 2.916,-2.083l1.667,1.667c-1.25,1.25 -2.5,2.083 -3.75,2.5c-1.25,0.416 -2.917,0.833 -4.583,0.833c-2.084,-0.833 -4.167,-1.667 -5.834,-2.5Z" style="fill:#fff;fill-rule:nonzero;stroke:#fff;stroke-width:2.3px;"/><path d="M54.167,100c-1.667,-1.25 -3.334,-2.5 -4.167,-4.167c-1.25,-1.666 -1.667,-3.75 -1.667,-5.833c0,-2.083 0.417,-4.167 1.667,-5.833c1.25,-1.667 2.5,-3.334 4.167,-4.167c1.666,-1.25 3.75,-1.667 5.833,-1.667c2.083,0 4.167,0.417 5.833,1.667c1.667,1.25 3.334,2.5 4.167,4.167c1.25,1.666 1.667,3.75 1.667,5.833c-0,2.083 -0.417,4.167 -1.667,5.833c-1.25,1.667 -2.5,3.334 -4.167,4.167c-1.666,0.833 -3.75,1.667 -5.833,1.667c-2.083,-0 -4.167,-0.834 -5.833,-1.667Zm10.416,-1.667c1.25,-0.833 2.5,-2.083 3.334,-3.75c0.833,-1.666 1.25,-3.333 1.25,-5c-0,-1.666 -0.417,-3.333 -1.25,-5c-0.834,-1.666 -2.084,-2.5 -3.334,-3.75c-1.25,-0.833 -2.916,-1.25 -4.583,-1.25c-1.667,0 -3.333,0.417 -4.583,1.25c-1.667,0.834 -2.5,2.084 -3.334,3.75c-0.833,1.667 -1.25,3.334 -1.25,5c0,1.667 0.417,3.334 1.25,5c0.834,1.667 2.084,2.917 3.334,3.75c1.25,0.834 2.916,1.25 4.583,1.25c1.667,0 3.333,-0.416 4.583,-1.25Z" style="fill:#fff;fill-rule:nonzero;stroke:#fff;stroke-width:2.3px;"/><path d="M79.167,78.333l2.083,0l14.583,19.584l0,-19.584l2.084,0l-0,22.917l-2.084,0l-14.583,-19.583l0,19.583l-2.083,0l-0,-22.917Z" style="fill:#fff;fill-rule:nonzero;stroke:#fff;stroke-width:2.3px;"/><path d="M106.667,78.333l2.083,0l14.583,19.584l0,-19.584l2.084,0l-0,22.917l-2.084,0l-14.583,-19.583l0,19.583l-2.083,0l-0,-22.917Z" style="fill:#fff;fill-rule:nonzero;stroke:#fff;stroke-width:2.3px;"/><path d="M136.25,80.417l0,8.333l12.5,0l0,2.083l-12.5,0l0,8.75l13.75,0l0,2.084l-15.833,-0l-0,-22.917l15.833,0l0,2.083l-13.75,0l0,-0.416Z" style="fill:#fff;fill-rule:nonzero;stroke:#fff;stroke-width:2.3px;"/><path d="M161.667,100c-1.667,-1.25 -3.334,-2.5 -4.167,-4.167c-0.833,-1.666 -1.667,-3.75 -1.667,-5.833c0,-2.083 0.417,-4.167 1.667,-5.833c1.25,-1.667 2.5,-3.334 4.167,-4.167c1.666,-1.25 3.75,-1.667 5.833,-1.667c1.667,0 2.917,0.417 4.583,0.834c1.25,0.416 2.5,1.666 3.75,2.5l-1.666,1.666c-0.834,-0.833 -2.084,-1.666 -2.917,-2.083c-1.25,-0.417 -2.5,-0.833 -3.75,-0.833c-1.667,-0 -3.333,0.416 -4.583,1.25c-1.667,0.833 -2.5,2.083 -3.334,3.75c-0.833,1.666 -1.25,3.333 -1.25,5c0,1.666 0.417,3.333 1.25,5c0.834,1.666 2.084,2.916 3.334,3.75c1.666,0.833 2.916,1.25 4.583,1.25c1.25,-0 2.5,-0.417 3.75,-0.834c1.25,-0.416 2.083,-1.25 2.917,-2.083l1.666,1.667c-1.25,1.25 -2.5,2.083 -3.75,2.5c-1.25,0.416 -2.916,0.833 -4.583,0.833c-2.083,-0.833 -3.75,-1.667 -5.833,-2.5Z" style="fill:#fff;fill-rule:nonzero;stroke:#fff;stroke-width:2.3px;"/><path d="M188.75,80.417l-7.917,-0l0,-2.084l17.917,0l0,2.084l-7.917,-0l0,20.833l-2.083,0l0,-20.833Z" style="fill:#fff;fill-rule:nonzero;stroke:#fff;stroke-width:2.3px;"/></g></svg>