<?xml version="1.0" encoding="UTF-8" standalone="no"?>
<!DOCTYPE svg PUBLIC "-//W3C//DTD SVG 1.1//EN" "http://www.w3.org/Graphics/SVG/1.1/DTD/svg11.dtd">
<svg width="100%" height="100%" viewBox="0 0 191 171" version="1.1" xmlns="http://www.w3.org/2000/svg" xmlns:xlink="http://www.w3.org/1999/xlink" xml:space="preserve" xmlns:serif="http://www.serif.com/" style="fill-rule:evenodd;clip-rule:evenodd;stroke-miterlimit:10;">
    <g id="Artboard1" transform="matrix(3.7859,0,0,3.91114,-328.086,-1151.8)">
        <rect x="86.66" y="294.492" width="50.424" height="43.637" style="fill:none;"/>
        <g transform="matrix(1.08548,0,0,1.05073,-8.77276,-15.8169)">
            <path d="M111.6,336.6C112.1,336 133.2,328.5 134,313.2C134.2,308.5 133.5,295.5 121.1,295.6C115.3,295.7 111.9,299.2 110.6,301.3C109.7,302.7 106.4,294.5 97.9,296.3C89.2,298.2 87.8,309.1 88.3,314.6C88.8,320.1 95.4,330.6 111.6,336.6" style="fill:rgb(225,37,27);fill-rule:nonzero;"/>
        </g>
        <g transform="matrix(1.08548,0,0,1.05073,-8.77276,-15.8169)">
            <path d="M100.3,316.9C99.9,316.7 99.6,316.5 99.3,316.2L99.6,315.8C100.2,316.4 100.8,316.7 101.6,316.7C101.9,316.7 102.2,316.7 102.4,316.6C102.6,316.5 102.8,316.4 102.9,316.2C103,316 103.1,315.8 103.1,315.6C103.1,315.3 103,315.1 102.7,314.9C102.4,314.7 102,314.6 101.4,314.4C100.7,314.2 100.3,314.1 99.9,313.8C99.6,313.6 99.4,313.2 99.4,312.8C99.4,312.5 99.5,312.2 99.7,311.9C99.9,311.6 100.1,311.4 100.4,311.3C100.7,311.2 101,311.1 101.4,311.1C102.1,311.1 102.8,311.4 103.4,311.9L103.1,312.3C102.9,312.1 102.6,311.9 102.3,311.7C102,311.6 101.7,311.5 101.4,311.5C101.1,311.5 100.9,311.5 100.7,311.6C100.5,311.7 100.3,311.8 100.2,312C100.1,312.2 100,312.4 100,312.6C100,312.9 100.1,313.1 100.4,313.3C100.7,313.5 101.1,313.6 101.7,313.8C102.3,314 102.8,314.2 103.1,314.4C103.4,314.6 103.6,315 103.6,315.5C103.6,315.8 103.5,316.1 103.4,316.3C103.2,316.6 103,316.8 102.7,316.9C102.4,317 102,317.1 101.6,317.1C101.1,317.2 100.6,317.1 100.3,316.9Z" style="fill:white;fill-rule:nonzero;stroke:white;stroke-width:0.55px;"/>
            <path d="M105.9,311.8L105.9,313.9L109.1,313.9L109.1,314.4L105.9,314.4L105.9,316.6L109.4,316.6L109.4,317.1L105.3,317.1L105.3,311.3L109.4,311.3L109.4,311.8L105.9,311.8Z" style="fill:white;fill-rule:nonzero;stroke:white;stroke-width:0.55px;"/>
            <path d="M111.3,311.2L111.8,311.2L115.5,316.2L115.5,311.2L116,311.2L116,317L115.5,317L111.8,312L111.8,317L111.3,317L111.3,311.2Z" style="fill:white;fill-rule:nonzero;stroke:white;stroke-width:0.55px;"/>
            <path d="M118.4,311.2L120.4,311.2C121,311.2 121.5,311.3 122,311.6C122.5,311.8 122.8,312.2 123.1,312.6C123.4,313 123.5,313.5 123.5,314.1C123.5,314.7 123.4,315.2 123.1,315.6C122.8,316 122.5,316.4 122,316.6C121.5,316.8 121,317 120.4,317L118.4,317L118.4,311.2ZM120.4,316.6C120.9,316.6 121.3,316.5 121.7,316.3C122.1,316.1 122.4,315.8 122.6,315.4C122.8,315 122.9,314.6 122.9,314.1C122.9,313.6 122.8,313.2 122.6,312.9C122.4,312.6 122.1,312.2 121.7,312C121.3,311.8 120.9,311.7 120.4,311.7L119,311.7L119,316.5L120.4,316.5L120.4,316.6Z" style="fill:white;fill-rule:nonzero;stroke:white;stroke-width:0.55px;"/>
        </g>
    </g>
</svg>
