<?xml version="1.0" encoding="UTF-8" standalone="no"?><!DOCTYPE svg PUBLIC "-//W3C//DTD SVG 1.1//EN" "http://www.w3.org/Graphics/SVG/1.1/DTD/svg11.dtd"><svg width="100%" height="100%" viewBox="0 0 209 188" version="1.1" xmlns="http://www.w3.org/2000/svg" xmlns:xlink="http://www.w3.org/1999/xlink" xml:space="preserve" xmlns:serif="http://www.serif.com/" style="fill-rule:evenodd;clip-rule:evenodd;stroke-miterlimit:10;"><path d="M105.417,178.333c2.083,-2.5 90,-33.75 93.333,-97.5c0.833,-19.583 -2.083,-73.75 -53.75,-73.333c-24.167,0.417 -38.333,15 -43.75,23.75c-3.75,5.833 -17.5,-28.333 -52.917,-20.833c-36.25,7.916 -42.083,53.333 -40,76.25c2.084,22.5 29.584,66.666 97.084,91.666" style="fill:#d60812;fill-rule:nonzero;"/><g><path d="M38.333,96.25c-1.666,-0.833 -2.916,-1.667 -4.166,-2.917l1.25,-1.666c2.5,2.5 5,3.75 8.333,3.75c1.25,-0 2.5,-0 3.333,-0.417c0.834,-0.417 1.667,-0.833 2.084,-1.667c0.416,-0.833 0.833,-1.666 0.833,-2.5c0,-1.25 -0.417,-2.083 -1.667,-2.916c-1.25,-0.834 -2.916,-1.25 -5.416,-2.084c-2.917,-0.833 -4.584,-1.25 -6.25,-2.5c-1.25,-0.833 -2.084,-2.5 -2.084,-4.166c0,-1.25 0.417,-2.5 1.25,-3.75c0.834,-1.25 1.667,-2.084 2.917,-2.5c1.25,-0.417 2.5,-0.834 4.167,-0.834c2.916,0 5.833,1.25 8.333,3.334l-1.25,1.666c-0.833,-0.833 -2.083,-1.666 -3.333,-2.5c-1.25,-0.416 -2.5,-0.833 -3.75,-0.833c-1.25,0 -2.084,0 -2.917,0.417c-0.833,0.416 -1.667,0.833 -2.083,1.666c-0.417,0.834 -0.834,1.667 -0.834,2.5c0,1.25 0.417,2.084 1.667,2.917c1.25,0.833 2.917,1.25 5.417,2.083c2.5,0.834 4.583,1.667 5.833,2.5c1.25,0.834 2.083,2.5 2.083,4.584c0,1.25 -0.416,2.5 -0.833,3.333c-0.833,1.25 -1.667,2.083 -2.917,2.5c-1.25,0.417 -2.916,0.833 -4.583,0.833c-2.083,0.417 -3.75,0 -5.417,-0.833Z" style="fill:#fff;fill-rule:nonzero;stroke:#fff;stroke-width:2.3px;"/><path d="M64.583,96.25c-1.666,-0.833 -2.5,-2.083 -3.333,-3.75c-0.833,-1.667 -1.25,-3.333 -1.25,-5.417l0,-14.583l2.083,0l0,14.583c0,1.667 0.417,2.917 0.834,4.167c0.833,1.25 1.666,2.083 2.916,2.917c1.25,0.833 2.5,1.25 3.75,1.25c1.25,-0 2.917,-0.417 3.75,-1.25c1.25,-0.834 2.084,-1.667 2.917,-2.917c0.833,-1.25 0.833,-2.5 0.833,-4.167l0,-14.583l2.084,0l-0,14.583c-0,2.084 -0.417,3.75 -1.25,5.417c-0.834,1.667 -2.084,2.917 -3.334,3.75c-1.25,0.833 -3.333,1.25 -5,1.25c-2.083,-0 -3.75,-0.417 -5,-1.25Z" style="fill:#fff;fill-rule:nonzero;stroke:#fff;stroke-width:2.3px;"/><path d="M88.75,72.5l10.833,-0c1.25,-0 2.5,0.417 3.334,0.833c0.833,0.417 1.666,1.25 2.5,2.084c0.833,0.833 0.833,2.083 0.833,2.916c-0,1.25 -0.417,2.5 -0.833,3.334c-0.417,0.833 -1.667,1.666 -2.5,2.083c1.25,0.417 2.5,1.667 3.333,2.5c0.833,1.25 1.25,2.5 1.25,3.75c-0,1.25 -0.417,2.5 -0.833,3.333c-0.417,0.834 -1.667,1.667 -2.5,2.5c-1.25,0.417 -2.5,0.834 -3.75,0.834l-11.25,-0l-0,-24.167l-0.417,-0Zm10.417,10.833c1.25,0 2.5,-0.416 3.333,-1.25c0.833,-0.833 1.25,-1.666 1.25,-2.916c0,-1.25 -0.417,-2.084 -1.25,-2.917c-0.833,-0.833 -2.083,-1.25 -3.333,-1.25l-7.917,0l-0,8.333l7.917,0Zm-0,11.667c1.666,0 2.916,-0.417 3.75,-1.25c0.833,-0.833 1.666,-2.083 1.666,-3.333c0,-1.25 -0.416,-2.5 -1.666,-3.334c-1.25,-0.833 -2.5,-1.25 -3.75,-1.25l-8.334,0l0,9.584l8.334,-0l-0,-0.417Z" style="fill:#fff;fill-rule:nonzero;stroke:#fff;stroke-width:2.3px;"/><path d="M115,72.5l2.083,-0l9.167,17.5l9.167,-17.5l2.083,-0l-0,24.167l-2.083,-0l-0,-19.584l-9.167,17.5l-9.167,-17.5l0,19.584l-2.083,-0l-0,-24.167Z" style="fill:#fff;fill-rule:nonzero;stroke:#fff;stroke-width:2.3px;"/><rect x="147.083" y="72.5" width="2.083" height="24.167" style="fill:#fff;fill-rule:nonzero;stroke:#fff;stroke-width:2.3px;"/><path d="M165.417,75l-8.75,0l-0,-2.083l19.166,-0l0,2.083l-8.333,0l0,22.083l-2.083,0l-0,-22.083Z" style="fill:#fff;fill-rule:nonzero;stroke:#fff;stroke-width:2.3px;"/></g></svg>