<?xml version="1.0" encoding="utf-8"?>
<!-- Generator: Adobe Illustrator 25.2.1, SVG Export Plug-In . SVG Version: 6.00 Build 0)  -->
<svg version="1.1" id="Layer_1" xmlns="http://www.w3.org/2000/svg" xmlns:xlink="http://www.w3.org/1999/xlink" x="0px" y="0px"
	 viewBox="0 0 792 612" style="enable-background:new 0 0 792 612;" xml:space="preserve">
<style type="text/css">
	.st0{fill:#D60812;}
	.st1{fill:#FFFFFF;stroke:#FFFFFF;stroke-width:0.5511;stroke-miterlimit:10;}
</style>
<path class="st0" d="M123.3,410.8c0.5-0.6,21.6-8.1,22.4-23.4c0.2-4.7-0.5-17.7-12.9-17.6c-5.8,0.1-9.2,3.6-10.5,5.7
	c-0.9,1.4-4.2-6.8-12.7-5c-8.7,1.9-10.1,12.8-9.6,18.3C100.5,394.2,107.1,404.8,123.3,410.8"/>
<g>
	<path class="st1" d="M107.2,391.1c-0.4-0.2-0.7-0.4-1-0.7l0.3-0.4c0.6,0.6,1.2,0.9,2,0.9c0.3,0,0.6,0,0.8-0.1
		c0.2-0.1,0.4-0.2,0.5-0.4c0.1-0.2,0.2-0.4,0.2-0.6c0-0.3-0.1-0.5-0.4-0.7s-0.7-0.3-1.3-0.5c-0.7-0.2-1.1-0.3-1.5-0.6
		c-0.3-0.2-0.5-0.6-0.5-1c0-0.3,0.1-0.6,0.3-0.9c0.2-0.3,0.4-0.5,0.7-0.6c0.3-0.1,0.6-0.2,1-0.2c0.7,0,1.4,0.3,2,0.8l-0.3,0.4
		c-0.2-0.2-0.5-0.4-0.8-0.6c-0.3-0.1-0.6-0.2-0.9-0.2c-0.3,0-0.5,0-0.7,0.1c-0.2,0.1-0.4,0.2-0.5,0.4c-0.1,0.2-0.2,0.4-0.2,0.6
		c0,0.3,0.1,0.5,0.4,0.7c0.3,0.2,0.7,0.3,1.3,0.5c0.6,0.2,1.1,0.4,1.4,0.6c0.3,0.2,0.5,0.6,0.5,1.1c0,0.3-0.1,0.6-0.2,0.8
		c-0.2,0.3-0.4,0.5-0.7,0.6c-0.3,0.1-0.7,0.2-1.1,0.2C108,391.4,107.6,391.3,107.2,391.1z"/>
	<path class="st1" d="M113.5,391.1c-0.4-0.2-0.6-0.5-0.8-0.9c-0.2-0.4-0.3-0.8-0.3-1.3v-3.5h0.5v3.5c0,0.4,0.1,0.7,0.2,1
		c0.2,0.3,0.4,0.5,0.7,0.7c0.3,0.2,0.6,0.3,0.9,0.3s0.7-0.1,0.9-0.3c0.3-0.2,0.5-0.4,0.7-0.7c0.2-0.3,0.2-0.6,0.2-1v-3.5h0.5v3.5
		c0,0.5-0.1,0.9-0.3,1.3c-0.2,0.4-0.5,0.7-0.8,0.9s-0.8,0.3-1.2,0.3C114.2,391.4,113.8,391.3,113.5,391.1z"/>
	<path class="st1" d="M119.3,385.4h2.6c0.3,0,0.6,0.1,0.8,0.2c0.2,0.1,0.4,0.3,0.6,0.5s0.2,0.5,0.2,0.7c0,0.3-0.1,0.6-0.2,0.8
		c-0.1,0.2-0.4,0.4-0.6,0.5c0.3,0.1,0.6,0.4,0.8,0.6c0.2,0.3,0.3,0.6,0.3,0.9c0,0.3-0.1,0.6-0.2,0.8c-0.1,0.2-0.4,0.4-0.6,0.6
		c-0.3,0.1-0.6,0.2-0.9,0.2h-2.7V385.4z M121.8,388c0.3,0,0.6-0.1,0.8-0.3s0.3-0.4,0.3-0.7c0-0.3-0.1-0.5-0.3-0.7
		c-0.2-0.2-0.5-0.3-0.8-0.3h-1.9v2H121.8z M121.8,390.8c0.4,0,0.7-0.1,0.9-0.3c0.2-0.2,0.4-0.5,0.4-0.8s-0.1-0.6-0.4-0.8
		s-0.6-0.3-0.9-0.3h-2v2.3H121.8z"/>
	<path class="st1" d="M125.6,385.4h0.5l2.2,4.2l2.2-4.2h0.5v5.8h-0.5v-4.7l-2.2,4.2l-2.2-4.2v4.7h-0.5V385.4z"/>
	<path class="st1" d="M133.3,385.4h0.5v5.8h-0.5V385.4z"/>
	<path class="st1" d="M137.6,386h-2v-0.5h4.6v0.5h-2v5.3h-0.5V386z"/>
</g>
</svg>
