<?xml version="1.0" encoding="utf-8"?>
<!-- Generator: Adobe Illustrator 25.2.1, SVG Export Plug-In . SVG Version: 6.00 Build 0)  -->
<svg version="1.1" id="Layer_1" xmlns="http://www.w3.org/2000/svg" xmlns:xlink="http://www.w3.org/1999/xlink" x="0px" y="0px"
	 viewBox="0 0 792 612" style="enable-background:new 0 0 792 612;" xml:space="preserve">
<style type="text/css">
	.st0{fill:#D60812;}
	.st1{fill:#FFFFFF;stroke:#FFFFFF;stroke-width:0.5511;stroke-miterlimit:10;}
</style>
<path class="st0" d="M184.9,410.8c0.5-0.6,21.6-8.1,22.4-23.4c0.2-4.7-0.5-17.7-12.9-17.6c-5.8,0.1-9.2,3.6-10.5,5.7
	c-0.9,1.4-4.2-6.8-12.7-5c-8.7,1.9-10.1,12.8-9.6,18.3S168.6,404.8,184.9,410.8"/>
<g>
	<path class="st1" d="M165.1,391c-0.4-0.3-0.8-0.6-1-1c-0.3-0.4-0.4-0.9-0.4-1.4s0.1-1,0.4-1.4c0.3-0.4,0.6-0.8,1-1
		c0.4-0.3,0.9-0.4,1.4-0.4c0.4,0,0.7,0.1,1.1,0.2c0.3,0.1,0.6,0.4,0.9,0.6l-0.4,0.4c-0.2-0.2-0.5-0.4-0.7-0.5s-0.6-0.2-0.9-0.2
		c-0.4,0-0.8,0.1-1.1,0.3c-0.4,0.2-0.6,0.5-0.8,0.9s-0.3,0.8-0.3,1.2c0,0.4,0.1,0.8,0.3,1.2c0.2,0.4,0.5,0.7,0.8,0.9
		s0.7,0.3,1.1,0.3c0.3,0,0.6-0.1,0.9-0.2s0.5-0.3,0.7-0.5l0.4,0.4c-0.3,0.3-0.6,0.5-0.9,0.6c-0.3,0.1-0.7,0.2-1.1,0.2
		C166,391.4,165.5,391.2,165.1,391z"/>
	<path class="st1" d="M171,391c-0.4-0.3-0.8-0.6-1-1c-0.3-0.4-0.4-0.9-0.4-1.4s0.1-1,0.4-1.4c0.3-0.4,0.6-0.8,1-1
		c0.4-0.3,0.9-0.4,1.4-0.4c0.5,0,1,0.1,1.4,0.4c0.4,0.3,0.8,0.6,1,1c0.3,0.4,0.4,0.9,0.4,1.4s-0.1,1-0.4,1.4c-0.3,0.4-0.6,0.8-1,1
		s-0.9,0.4-1.4,0.4C171.9,391.4,171.4,391.2,171,391z M173.5,390.6c0.3-0.2,0.6-0.5,0.8-0.9c0.2-0.4,0.3-0.8,0.3-1.2
		c0-0.4-0.1-0.8-0.3-1.2s-0.5-0.6-0.8-0.9c-0.3-0.2-0.7-0.3-1.1-0.3s-0.8,0.1-1.1,0.3c-0.4,0.2-0.6,0.5-0.8,0.9s-0.3,0.8-0.3,1.2
		c0,0.4,0.1,0.8,0.3,1.2c0.2,0.4,0.5,0.7,0.8,0.9s0.7,0.3,1.1,0.3S173.2,390.8,173.5,390.6z"/>
	<path class="st1" d="M177,385.8h0.5l3.5,4.7v-4.7h0.5v5.5H181l-3.5-4.7v4.7H177V385.8z"/>
	<path class="st1" d="M183.6,385.8h0.5l3.5,4.7v-4.7h0.5v5.5h-0.5l-3.5-4.7v4.7h-0.5V385.8z"/>
	<path class="st1" d="M190.7,386.3v2h3v0.5h-3v2.1h3.3v0.5h-3.8v-5.5h3.8v0.5H190.7z"/>
	<path class="st1" d="M196.8,391c-0.4-0.3-0.8-0.6-1-1s-0.4-0.9-0.4-1.4s0.1-1,0.4-1.4s0.6-0.8,1-1c0.4-0.3,0.9-0.4,1.4-0.4
		c0.4,0,0.7,0.1,1.1,0.2c0.3,0.1,0.6,0.4,0.9,0.6l-0.4,0.4c-0.2-0.2-0.5-0.4-0.7-0.5c-0.3-0.1-0.6-0.2-0.9-0.2
		c-0.4,0-0.8,0.1-1.1,0.3c-0.4,0.2-0.6,0.5-0.8,0.9s-0.3,0.8-0.3,1.2c0,0.4,0.1,0.8,0.3,1.2c0.2,0.4,0.5,0.7,0.8,0.9
		c0.4,0.2,0.7,0.3,1.1,0.3c0.3,0,0.6-0.1,0.9-0.2c0.3-0.1,0.5-0.3,0.7-0.5l0.4,0.4c-0.3,0.3-0.6,0.5-0.9,0.6
		c-0.3,0.1-0.7,0.2-1.1,0.2C197.7,391.4,197.3,391.2,196.8,391z"/>
	<path class="st1" d="M203.3,386.3h-1.9v-0.5h4.3v0.5h-1.9v5h-0.5V386.3z"/>
</g>
</svg>
