<?xml version="1.0" encoding="utf-8"?>
<!-- Generator: Adobe Illustrator 25.2.1, SVG Export Plug-In . SVG Version: 6.00 Build 0)  -->
<svg version="1.1" id="Layer_1" xmlns="http://www.w3.org/2000/svg" xmlns:xlink="http://www.w3.org/1999/xlink" x="0px" y="0px"
	 viewBox="0 0 792 612" style="enable-background:new 0 0 792 612;" xml:space="preserve">
<style type="text/css">
	.st0{fill:#D60812;}
	.st1{fill:#FFFFFF;stroke:#FFFFFF;stroke-width:0.5511;stroke-miterlimit:10;}
</style>
<path class="st0" d="M247.7,410.8c0.5-0.6,21.6-8.1,22.4-23.4c0.2-4.7-0.5-17.7-12.9-17.6c-5.8,0.1-9.2,3.6-10.5,5.7
	c-0.9,1.4-4.2-6.8-12.7-5c-8.7,1.9-10.1,12.8-9.6,18.3C224.9,394.2,231.5,404.8,247.7,410.8"/>
<g>
	<path class="st1" d="M235.9,385.4h0.5l3.7,5v-5h0.5v5.8h-0.5l-3.7-5v5h-0.5V385.4z"/>
	<path class="st1" d="M243.4,386v2.1h3.2v0.5h-3.2v2.2h3.5v0.5h-4.1v-5.8h4.1v0.5H243.4z"/>
	<path class="st1" d="M251.3,388.4l2.2,2.9h-0.7l-1.9-2.5l-1.9,2.5h-0.7l2.2-2.9l-2.2-2.9h0.7l1.9,2.5l1.9-2.5h0.7L251.3,388.4z"/>
	<path class="st1" d="M256.9,386h-2v-0.5h4.6v0.5h-2v5.3h-0.5V386z"/>
</g>
</svg>
