<?xml version="1.0" encoding="UTF-8" standalone="no"?><!DOCTYPE svg PUBLIC "-//W3C//DTD SVG 1.1//EN" "http://www.w3.org/Graphics/SVG/1.1/DTD/svg11.dtd"><svg width="100%" height="100%" viewBox="0 0 875 784" version="1.1" xmlns="http://www.w3.org/2000/svg" xmlns:xlink="http://www.w3.org/1999/xlink" xml:space="preserve" xmlns:serif="http://www.serif.com/" style="fill-rule:evenodd;clip-rule:evenodd;stroke-miterlimit:10;"><path d="M443.404,743.75c8.679,-10.417 375,-140.625 388.888,-406.25c3.471,-81.596 -8.679,-307.292 -223.959,-305.554c-100.696,1.733 -159.721,62.5 -182.291,98.958c-15.625,24.304 -72.917,-118.058 -220.488,-86.808c-151.042,32.987 -175.346,222.225 -166.667,317.708c8.684,93.75 123.267,277.779 404.517,381.946" style="fill:#d60812;fill-rule:nonzero;"/><g><path d="M238.542,302.779l8.679,0l64.237,86.804l0,-86.804l8.68,0l-0,100.692l-8.68,-0l-64.237,-86.804l-0,86.804l-8.679,-0l-0,-100.692Z" style="fill:#fff;fill-rule:nonzero;stroke:#fff;stroke-width:9.58px;"/><path d="M368.75,313.196l0,36.458l55.554,0l0,8.679l-55.554,0l0,38.196l60.763,0l-0,8.679l-71.18,0l0,-100.695l71.18,-0l-0,8.683l-60.763,-0Z" style="fill:#fff;fill-rule:nonzero;stroke:#fff;stroke-width:9.58px;"/><path d="M505.904,354.863l38.192,50.345l-12.15,0l-32.988,-43.404l-32.987,43.404l-12.15,0l38.192,-50.345l-38.192,-50.35l12.15,-0l32.987,43.404l32.988,-43.404l12.15,-0l-38.192,50.35Z" style="fill:#fff;fill-rule:nonzero;stroke:#fff;stroke-width:9.58px;"/><path d="M604.863,313.196l-36.459,-0l0,-8.684l79.859,0l-0,8.684l-34.721,-0l-0,92.012l-8.679,0l-0,-92.012Z" style="fill:#fff;fill-rule:nonzero;stroke:#fff;stroke-width:9.58px;"/></g></svg>