<?xml version="1.0" encoding="utf-8"?>
<!-- Generator: Adobe Illustrator 25.2.1, SVG Export Plug-In . SVG Version: 6.00 Build 0)  -->
<svg version="1.1" id="Layer_1" xmlns="http://www.w3.org/2000/svg" xmlns:xlink="http://www.w3.org/1999/xlink" x="0px" y="0px"
	 viewBox="0 0 792 612" style="enable-background:new 0 0 792 612;" xml:space="preserve">
<style type="text/css">
	.st0{fill:#E1251B;}
	.st1{fill:#FFFFFF;}
</style>
<g>
	<circle class="st0" cx="322.6" cy="298.9" r="14.8"/>
	<path class="st1" d="M329,297.3c0-0.4-0.3-0.7-0.7-0.7c-0.4,0-0.7,0.3-0.7,0.7c0,2.7-2.2,4.9-4.9,4.9c-2.7,0-4.9-2.2-4.9-4.9
		c0-0.4-0.3-0.7-0.7-0.7c-0.4,0-0.7,0.3-0.7,0.7c0,3.3,2.5,6,5.7,6.4v3.6h-1.6c-0.4,0-0.7,0.3-0.7,0.7s0.3,0.7,0.7,0.7h4.7
		c0.4,0,0.7-0.3,0.7-0.7s-0.3-0.7-0.7-0.7h-1.6v-3.6C326.6,303.3,329,300.6,329,297.3z"/>
	<path class="st1" d="M322.6,300.9L322.6,300.9c-2,0-3.5-1.6-3.5-3.5v-4.7c0-2,1.6-3.5,3.5-3.5h0c2,0,3.5,1.6,3.5,3.5v4.7
		C326.2,299.3,324.6,300.9,322.6,300.9z"/>
</g>
</svg>
