<?xml version="1.0" encoding="UTF-8" standalone="no"?><!DOCTYPE svg PUBLIC "-//W3C//DTD SVG 1.1//EN" "http://www.w3.org/Graphics/SVG/1.1/DTD/svg11.dtd"><svg width="100%" height="100%" viewBox="0 0 138 138" version="1.1" xmlns="http://www.w3.org/2000/svg" xmlns:xlink="http://www.w3.org/1999/xlink" xml:space="preserve" xmlns:serif="http://www.serif.com/" style="fill-rule:evenodd;clip-rule:evenodd;stroke-linejoin:round;stroke-miterlimit:2;"><g><circle cx="69.167" cy="70.417" r="61.667" style="fill:#e1251b;"/><path d="M95.833,63.75c0,-1.667 -1.25,-2.917 -2.916,-2.917c-1.667,0 -2.917,1.25 -2.917,2.917c0,11.25 -9.167,20.417 -20.417,20.417c-11.25,-0 -20.416,-9.167 -20.416,-20.417c-0,-1.667 -1.25,-2.917 -2.917,-2.917c-1.667,0 -2.917,1.25 -2.917,2.917c0,13.75 10.417,25 23.75,26.667l0,15l-6.666,-0c-1.667,-0 -2.917,1.25 -2.917,2.916c0,1.667 1.25,2.917 2.917,2.917l19.583,0c1.667,0 2.917,-1.25 2.917,-2.917c-0,-1.666 -1.25,-2.916 -2.917,-2.916l-6.667,-0l0,-15c12.5,-1.667 22.5,-12.917 22.5,-26.667Z" style="fill:#fff;fill-rule:nonzero;"/><path d="M69.167,78.75c-8.334,0 -14.584,-6.667 -14.584,-14.583l0,-19.584c0,-8.333 6.667,-14.583 14.584,-14.583c8.333,0 14.583,6.667 14.583,14.583l0,19.584c0.417,7.916 -6.25,14.583 -14.583,14.583Z" style="fill:#fff;fill-rule:nonzero;"/></g></svg>