<?xml version="1.0" encoding="UTF-8" standalone="no"?><!DOCTYPE svg PUBLIC "-//W3C//DTD SVG 1.1//EN" "http://www.w3.org/Graphics/SVG/1.1/DTD/svg11.dtd"><svg width="100%" height="100%" viewBox="0 0 163 163" version="1.1" xmlns="http://www.w3.org/2000/svg" xmlns:xlink="http://www.w3.org/1999/xlink" xml:space="preserve" xmlns:serif="http://www.serif.com/" style="fill-rule:evenodd;clip-rule:evenodd;stroke-linejoin:round;stroke-miterlimit:2;"><g><path d="M81.25,105l-15.417,0c-3.75,0 -6.666,-2.083 -7.5,-5.833c0,-0.834 -0.416,-1.25 -0.416,-2.084l-0,-30.833c-0,-4.583 3.333,-7.917 7.916,-7.917l30.834,0c3.75,0 7.083,2.5 7.916,6.25c0.417,0.834 0,2.084 0,2.917l0,28.75c0,1.25 0,2.5 -0.416,3.75c-1.25,3.333 -4.167,5.417 -7.5,5.417c-5,-0.417 -10.417,-0.417 -15.417,-0.417Z" style="fill-rule:nonzero;"/><path d="M81.25,144.583c-34.583,0 -62.5,-27.916 -62.5,-62.5c0,-34.583 27.917,-62.5 62.5,-62.5c34.583,0 62.5,27.917 62.5,62.5c0,34.167 -27.917,62.5 -62.5,62.5Zm0,-117.916c-30.417,-0 -55,24.583 -55,55c0,30.416 24.583,55 55,55c30.417,-0 55,-24.584 55,-55c0,-30 -24.583,-55 -55,-55Z" style="fill-rule:nonzero;"/></g></svg>