<?xml version="1.0" encoding="utf-8"?>
<!-- Generator: Adobe Illustrator 25.2.1, SVG Export Plug-In . SVG Version: 6.00 Build 0)  -->
<svg version="1.1" id="Layer_1" xmlns="http://www.w3.org/2000/svg" xmlns:xlink="http://www.w3.org/1999/xlink" x="0px" y="0px"
	 viewBox="0 0 792 612" style="enable-background:new 0 0 792 612;" xml:space="preserve">
<g>
	<path d="M386.5,305.2c-1.2,0-2.5,0-3.7,0c-0.9,0-1.6-0.5-1.8-1.4c0-0.2-0.1-0.3-0.1-0.5c0-2.5,0-5,0-7.4c0-1.1,0.8-1.9,1.9-1.9
		c2.5,0,4.9,0,7.4,0c0.9,0,1.7,0.6,1.9,1.5c0.1,0.2,0,0.5,0,0.7c0,2.3,0,4.6,0,6.9c0,0.3,0,0.6-0.1,0.9c-0.3,0.8-1,1.3-1.8,1.3
		C389,305.2,387.7,305.2,386.5,305.2C386.5,305.2,386.5,305.2,386.5,305.2z"/>
	<path d="M386.5,314.7c-8.3,0-15-6.7-15-15c0-8.3,6.7-15,15-15c8.3,0,15,6.7,15,15C401.5,307.9,394.8,314.7,386.5,314.7z
		 M386.5,286.4c-7.3,0-13.2,5.9-13.2,13.2c0,7.3,5.9,13.2,13.2,13.2c7.3,0,13.2-5.9,13.2-13.2C399.7,292.4,393.8,286.4,386.5,286.4z
		"/>
</g>
</svg>
